<svg xmlns="http://www.w3.org/2000/svg" xmlns:xlink="http://www.w3.org/1999/xlink" width="1000" height="700" version="1.1">
<style type="text/css">
.l0{
 fill: #ffffff;
  stroke: #ffffff;
  stroke-linecap:round;
  stroke-linejoin:round;
  stroke-width: 0.524281;
}
.l1{
 fill: #0044ee;
  stroke: #0044ee;
  stroke-linecap:round;
  stroke-linejoin:round;
  stroke-width: 0.524281;
}
.l2{
  fill: none;
  stroke: #aaaaaa;
  stroke-linecap:round;
  stroke-linejoin:round;
  stroke-width: 0.524281;
}
.l3{
 fill: #222222; fill-opacity: 0.5;
  stroke: #222222;
  stroke-linecap:round;
  stroke-linejoin:round;
  stroke-width: 0.524281;
}
.l4{
 fill: #229900;
  stroke: #229900;
  stroke-linecap:round;
  stroke-linejoin:round;
  stroke-width: 0.524281;
}
.l5{
 fill: #bb2200;
  stroke: #bb2200;
  stroke-linecap:round;
  stroke-linejoin:round;
  stroke-width: 0.524281;
}
.l6{
 fill: #00ccee; fill-opacity: 0.5;
  stroke: #00ccee;
  stroke-linecap:round;
  stroke-linejoin:round;
  stroke-width: 0.524281;
}
.l7{
 fill: #ff0000; fill-opacity: 0.5;
  stroke: #ff0000;
  stroke-linecap:round;
  stroke-linejoin:round;
  stroke-width: 0.524281;
}
.l8{
 fill: #888800; fill-opacity: 0.5;
  stroke: #888800;
  stroke-linecap:round;
  stroke-linejoin:round;
  stroke-width: 0.524281;
}
.l9{
 fill: #00aaaa; fill-opacity: 0.5;
  stroke: #00aaaa;
  stroke-linecap:round;
  stroke-linejoin:round;
  stroke-width: 0.524281;
}
.l10{
 fill: #880088;
  stroke: #880088;
  stroke-linecap:round;
  stroke-linejoin:round;
  stroke-width: 0.524281;
}
.l11{
 fill: #00ff00; fill-opacity: 0.5;
  stroke: #00ff00;
  stroke-linecap:round;
  stroke-linejoin:round;
  stroke-width: 0.524281;
}
.l12{
 fill: #0000cc; fill-opacity: 0.5;
  stroke: #0000cc;
  stroke-linecap:round;
  stroke-linejoin:round;
  stroke-width: 0.524281;
}
.l13{
 fill: #666600; fill-opacity: 0.5;
  stroke: #666600;
  stroke-linecap:round;
  stroke-linejoin:round;
  stroke-width: 0.524281;
}
.l14{
  fill: none;
  stroke: #557755;
  stroke-linecap:round;
  stroke-linejoin:round;
  stroke-width: 0.524281;
}
.l15{
 fill: #aa2222; fill-opacity: 0.5;
  stroke: #aa2222;
  stroke-linecap:round;
  stroke-linejoin:round;
  stroke-width: 0.524281;
}
.l16{
 fill: #7ccc40; fill-opacity: 0.5;
  stroke: #7ccc40;
  stroke-linecap:round;
  stroke-linejoin:round;
  stroke-width: 0.524281;
}
.l17{
  fill: none;
  stroke: #00ffcc;
  stroke-linecap:round;
  stroke-linejoin:round;
  stroke-width: 0.524281;
}
.l18{
 fill: #ce0097; fill-opacity: 0.5;
  stroke: #ce0097;
  stroke-linecap:round;
  stroke-linejoin:round;
  stroke-width: 0.524281;
}
.l19{
  fill: none;
  stroke: #d2d46b;
  stroke-linecap:round;
  stroke-linejoin:round;
  stroke-width: 0.524281;
}
.l20{
  fill: none;
  stroke: #ef6158;
  stroke-linecap:round;
  stroke-linejoin:round;
  stroke-width: 0.524281;
}
.l21{
  fill: none;
  stroke: #fdb200;
  stroke-linecap:round;
  stroke-linejoin:round;
  stroke-width: 0.524281;
}
text {font-family: Sans-Serif;}
</style>
<rect class="l0" x="0" y="0" width="1000" height="700"/>
<text fill="#0044ee"  xml:space="preserve" font-size="8.33024" transform="translate(691.892, 142.974)" >VDD_1V8</text>
<text fill="#0044ee"  xml:space="preserve" font-size="8.33024" transform="translate(186.707, 570.166)" >VSS</text>
<text fill="#0044ee"  xml:space="preserve" font-size="8.33024" transform="translate(136.217, 516.767)" >PWRUP_1V8</text>
<text fill="#0044ee"  xml:space="preserve" font-size="6.81565" transform="translate(290.231, 491.797)" >VDD_1V8</text>
<text fill="#0044ee"  xml:space="preserve" font-size="6.81565" transform="translate(290.231, 530.632)" >VSS</text>
<text fill="#0044ee"  xml:space="preserve" font-size="6.81565" transform="translate(329.066, 511.215)" >PWR_N</text>
<text fill="#0044ee"  xml:space="preserve" font-size="8.33024" transform="translate(910.311, 497.045)" >IDAC_O[3:0]</text>
<text fill="#0044ee"  xml:space="preserve" font-size="6.81565" transform="translate(838.784, 433.543)" >IDAC_O[0]</text>
<text fill="#0044ee"  xml:space="preserve" font-size="6.81565" transform="translate(877.619, 394.708)" >IDAC_O[1]</text>
<text fill="#0044ee"  xml:space="preserve" font-size="6.81565" transform="translate(911.601, 336.454)" >IDAC_O[2]</text>
<text fill="#0044ee"  xml:space="preserve" font-size="6.81565" transform="translate(940.727, 278.201)" >IDAC_O[3]</text>
<text fill="#0044ee"  xml:space="preserve" font-size="6.81565" transform="translate(838.784, 452.961)" >IBO_N_1V8[0]</text>
<text fill="#0044ee"  xml:space="preserve" font-size="6.81565" transform="translate(877.619, 414.126)" >IBO_N_1V8[1]</text>
<text fill="#0044ee"  xml:space="preserve" font-size="6.81565" transform="translate(911.601, 355.872)" >IBO_N_1V8[2]</text>
<text fill="#0044ee"  xml:space="preserve" font-size="6.81565" transform="translate(940.727, 297.619)" >IBO_N_1V8[3]</text>
<text fill="#0044ee"  xml:space="preserve" font-size="8.33024" transform="translate(157.902, 133.265)" >IB[7:0]</text>
<text fill="#0044ee"  xml:space="preserve" font-size="8.33024" transform="translate(657.259, 497.349)" >IBO_N_1V8[3:0]</text>
<text fill="#0044ee"  xml:space="preserve" font-size="6.81565" transform="translate(761.113, 219.947)" >VS</text>
<text fill="#0044ee"  xml:space="preserve" font-size="6.81565" transform="translate(785.385, 278.201)" >VD</text>
<text fill="#0044ee"  xml:space="preserve" font-size="6.81565" transform="translate(591.207, 185.966)" >VGP</text>
<text fill="#0044ee"  xml:space="preserve" font-size="6.81565" transform="translate(183.385, 224.802)" >IBN[0]</text>
<text fill="#0044ee"  xml:space="preserve" font-size="6.81565" transform="translate(183.385, 215.093)" >IBN[1]</text>
<text fill="#0044ee"  xml:space="preserve" font-size="6.81565" transform="translate(183.385, 205.384)" >IBN[2]</text>
<text fill="#0044ee"  xml:space="preserve" font-size="6.81565" transform="translate(183.385, 195.675)" >IBN[3]</text>
<text fill="#0044ee"  xml:space="preserve" font-size="6.81565" transform="translate(183.385, 185.966)" >IBN[4]</text>
<text fill="#0044ee"  xml:space="preserve" font-size="6.81565" transform="translate(183.385, 176.257)" >IBN[5]</text>
<text fill="#0044ee"  xml:space="preserve" font-size="6.81565" transform="translate(183.385, 166.548)" >IBN[6]</text>
<text fill="#0044ee"  xml:space="preserve" font-size="6.81565" transform="translate(183.385, 156.839)" >IBN[7]</text>
<text fill="#0044ee"  xml:space="preserve" font-size="6.81565" transform="translate(204.04, 283.055)" >VSS</text>
<text fill="#0044ee"  xml:space="preserve" font-size="8.33024" transform="translate(319.393, 133.265)" >IBF[7:0]</text>
<text fill="#0044ee"  xml:space="preserve" font-size="6.81565" transform="translate(176.5, 234.511)" >IBFN[7]</text>
<text fill="#0044ee"  xml:space="preserve" font-size="6.81565" transform="translate(176.5, 244.22)" >IBFN[6]</text>
<text fill="#0044ee"  xml:space="preserve" font-size="6.81565" transform="translate(176.5, 253.929)" >IBFN[5]</text>
<text fill="#0044ee"  xml:space="preserve" font-size="6.81565" transform="translate(176.5, 263.637)" >IBFN[4]</text>
<text fill="#0044ee"  xml:space="preserve" font-size="8.33024" transform="translate(443.994, 477.931)" >IBN</text>
<text fill="#0044ee"  xml:space="preserve" font-size="8.33024" transform="translate(136.217, 405.114)" >RESET_1V8</text>
<text fill="#0044ee"  xml:space="preserve" font-size="6.81565" transform="translate(324.212, 399.562)" >RESET_N</text>
<text fill="#0044ee"  xml:space="preserve" font-size="6.81565" transform="translate(496.894, 283.055)" >RESET_N</text>
<text fill="#0044ee"  xml:space="preserve" font-size="6.81565" transform="translate(285.376, 380.144)" >VDD_1V8</text>
<text fill="#0044ee"  xml:space="preserve" font-size="6.81565" transform="translate(285.376, 418.98)" >VSS</text>
<text fill="#0044ee"  xml:space="preserve" font-size="6.81565" transform="translate(547.517, 380.144)" >VSS</text>
<text fill="#0044ee"  xml:space="preserve" font-size="6.81565" transform="translate(483.124, 331.6)" >RESET_1V8</text>
<text fill="#0044ee"  xml:space="preserve" font-size="6.81565" transform="translate(326.195, 355.872)" >PWR_N</text>
<text fill="#0044ee"  xml:space="preserve" font-size="6.81565" transform="translate(416.446, 375.29)" >VSS</text>
<text fill="#0044ee"  xml:space="preserve" font-size="6.81565" transform="translate(91.1979, 171.403)" >VSS</text>
<text fill="#0044ee"  xml:space="preserve" font-size="6.81565" transform="translate(91.1979, 132.567)" >VDD_1V8</text>
<text fill="#0044ee"  xml:space="preserve" font-size="6.81565" transform="translate(-3.11438, 156.839)" >IB[7:0]</text>
<text fill="#0044ee"  xml:space="preserve" font-size="6.81565" transform="translate(115.47, 151.985)" >IBN[7:0]</text>
<text fill="#0044ee"  xml:space="preserve" font-size="6.81565" transform="translate(91.1979, 229.656)" >VSS</text>
<text fill="#0044ee"  xml:space="preserve" font-size="6.81565" transform="translate(91.1979, 190.821)" >VDD_1V8</text>
<text fill="#0044ee"  xml:space="preserve" font-size="6.81565" transform="translate(-9.99938, 215.093)" >IBF[7:4]</text>
<text fill="#0044ee"  xml:space="preserve" font-size="6.81565" transform="translate(115.47, 210.238)" >IBFN[7:4]</text>
<text fill="#0044ee"  xml:space="preserve" font-size="6.81565" transform="translate(-16.8844, 205.384)" >PWRUP_1V8</text>
<text fill="#0044ee"  xml:space="preserve" font-size="6.81565" transform="translate(-16.8844, 147.131)" >PWRUP_1V8</text>
<text fill="#0044ee"  xml:space="preserve" font-size="8.33024" transform="translate(677.007, 322.588)" >VCP</text>
<text fill="#0044ee"  xml:space="preserve" font-size="6.81565" transform="translate(411.592, 166.548)" >VGF</text>
<text fill="#0044ee"  xml:space="preserve" font-size="6.81565" transform="translate(437.054, 414.126)" >VSS</text>
<text fill="#0044ee"  xml:space="preserve" font-size="6.81565" transform="translate(699.195, 249.074)" >IBN</text>
<text fill="#222222"  xml:space="preserve" font-size="4.03891" transform="translate(759.899, 199.357)" >JNWATR_PCH_4C5F0</text>
<text fill="#222222"  xml:space="preserve" font-size="4.03891" transform="translate(759.899, 177.512)" >x5</text>
<text fill="#222222"  xml:space="preserve" font-size="4.03891" transform="translate(759.899, 262.465)" >JNWATR_PCH_4C1F2</text>
<text fill="#222222"  xml:space="preserve" font-size="4.03891" transform="translate(759.899, 240.62)" >x2</text>
<text fill="#222222"  xml:space="preserve" font-size="3.78647" transform="translate(283.677, 514.806)" >Y</text>
<text fill="#222222"  xml:space="preserve" font-size="3.78647" transform="translate(270.085, 514.806)" >A</text>
<text fill="#222222"  xml:space="preserve" font-size="2.52432" transform="translate(275.357, 496.945) rotate(270)" >AVDD</text>
<text fill="#222222"  xml:space="preserve" font-size="2.52432" transform="translate(275.239, 540.156) rotate(270)" >AVSS</text>
<text fill="#222222"  xml:space="preserve" font-size="3.78647" transform="translate(284.162, 524.515)" >SUNTR_IVX1_CV</text>
<text fill="#222222"  xml:space="preserve" font-size="3.78647" transform="translate(284.162, 519.66)" >x13</text>
<text fill="#222222"  xml:space="preserve" font-size="4.03891" transform="translate(916.687, 280.437) rotate(270)" >JNWATR_PCH_4C1F2</text>
<text fill="#222222"  xml:space="preserve" font-size="4.03891" transform="translate(894.842, 280.437) rotate(270)" >x15</text>
<text fill="#222222"  xml:space="preserve" font-size="4.03891" transform="translate(887.561, 338.69) rotate(270)" >JNWATR_PCH_4C1F2</text>
<text fill="#222222"  xml:space="preserve" font-size="4.03891" transform="translate(865.716, 338.69) rotate(270)" >x16</text>
<text fill="#222222"  xml:space="preserve" font-size="4.03891" transform="translate(853.58, 396.943) rotate(270)" >JNWATR_PCH_4C1F2</text>
<text fill="#222222"  xml:space="preserve" font-size="4.03891" transform="translate(831.734, 396.943) rotate(270)" >x17</text>
<text fill="#222222"  xml:space="preserve" font-size="4.03891" transform="translate(814.744, 435.779) rotate(270)" >JNWATR_PCH_4C1F2</text>
<text fill="#222222"  xml:space="preserve" font-size="4.03891" transform="translate(792.899, 435.779) rotate(270)" >x18</text>
<text fill="#222222"  xml:space="preserve" font-size="5.04863" transform="translate(252.609, 161.232)" >CP&lt;11&gt;</text>
<text fill="#222222"  xml:space="preserve" font-size="5.04863" transform="translate(252.609, 170.941)" >CP&lt;10&gt;</text>
<text fill="#222222"  xml:space="preserve" font-size="5.04863" transform="translate(252.609, 180.65)" >CP&lt;9&gt;</text>
<text fill="#222222"  xml:space="preserve" font-size="5.04863" transform="translate(252.609, 190.359)" >CP&lt;8&gt;</text>
<text fill="#222222"  xml:space="preserve" font-size="5.04863" transform="translate(252.609, 200.068)" >CP&lt;7&gt;</text>
<text fill="#222222"  xml:space="preserve" font-size="5.04863" transform="translate(252.609, 209.777)" >CP&lt;6&gt;</text>
<text fill="#222222"  xml:space="preserve" font-size="5.04863" transform="translate(252.609, 219.486)" >CP&lt;5&gt;</text>
<text fill="#222222"  xml:space="preserve" font-size="5.04863" transform="translate(252.609, 229.195)" >CP&lt;4&gt;</text>
<text fill="#222222"  xml:space="preserve" font-size="5.04863" transform="translate(252.609, 238.903)" >CP&lt;3&gt;</text>
<text fill="#222222"  xml:space="preserve" font-size="5.04863" transform="translate(252.609, 248.612)" >CP&lt;2&gt;</text>
<text fill="#222222"  xml:space="preserve" font-size="5.04863" transform="translate(252.609, 258.321)" >CP&lt;1&gt;</text>
<text fill="#222222"  xml:space="preserve" font-size="5.04863" transform="translate(252.609, 268.03)" >CP&lt;0&gt;</text>
<text fill="#222222"  xml:space="preserve" font-size="5.04863" transform="translate(314.734, 170.005)" >CTOP</text>
<text fill="#222222"  xml:space="preserve" font-size="5.04863" transform="translate(252.609, 287.448)" >AVSS</text>
<text fill="#222222"  xml:space="preserve" font-size="6.31079" transform="translate(279.308, 281.312)" >SUNSAR_CDAC8_CV</text>
<text fill="#222222"  xml:space="preserve" font-size="5.04863" transform="translate(250.181, 151.523)" >x12</text>
<text fill="#222222"  xml:space="preserve" font-size="3.1554" transform="translate(293.871, 271.166)" >1</text>
<text fill="#222222"  xml:space="preserve" font-size="3.1554" transform="translate(293.871, 261.457)" >2</text>
<text fill="#222222"  xml:space="preserve" font-size="3.1554" transform="translate(293.871, 251.748)" >4</text>
<text fill="#222222"  xml:space="preserve" font-size="3.1554" transform="translate(293.871, 242.039)" >8</text>
<text fill="#222222"  xml:space="preserve" font-size="3.1554" transform="translate(293.871, 232.33)" >8</text>
<text fill="#222222"  xml:space="preserve" font-size="3.1554" transform="translate(293.871, 222.621)" >8</text>
<text fill="#222222"  xml:space="preserve" font-size="3.1554" transform="translate(293.871, 212.912)" >16</text>
<text fill="#222222"  xml:space="preserve" font-size="3.1554" transform="translate(293.871, 203.203)" >16</text>
<text fill="#222222"  xml:space="preserve" font-size="3.1554" transform="translate(293.871, 193.494)" >32</text>
<text fill="#222222"  xml:space="preserve" font-size="3.1554" transform="translate(293.871, 183.785)" >32</text>
<text fill="#222222"  xml:space="preserve" font-size="3.1554" transform="translate(293.871, 174.076)" >64</text>
<text fill="#222222"  xml:space="preserve" font-size="3.1554" transform="translate(293.871, 164.368)" >64</text>
<text fill="#222222"  xml:space="preserve" font-size="4.03891" transform="translate(417.915, 194.502)" >JNWATR_PCH_4C5F0</text>
<text fill="#222222"  xml:space="preserve" font-size="4.03891" transform="translate(475.035, 172.657)" >x7</text>
<text fill="#222222"  xml:space="preserve" font-size="4.03891" transform="translate(557.458, 236.746) rotate(270)" >JNWATR_PCH_4C5F0</text>
<text fill="#222222"  xml:space="preserve" font-size="4.03891" transform="translate(535.613, 236.746) rotate(270)" >x1</text>
<text fill="#222222"  xml:space="preserve" font-size="3.78647" transform="translate(278.823, 403.153)" >Y</text>
<text fill="#222222"  xml:space="preserve" font-size="3.78647" transform="translate(265.23, 403.153)" >A</text>
<text fill="#222222"  xml:space="preserve" font-size="2.52432" transform="translate(270.503, 385.293) rotate(270)" >AVDD</text>
<text fill="#222222"  xml:space="preserve" font-size="2.52432" transform="translate(270.384, 428.503) rotate(270)" >AVSS</text>
<text fill="#222222"  xml:space="preserve" font-size="3.78647" transform="translate(279.308, 412.862)" >SUNTR_IVX1_CV</text>
<text fill="#222222"  xml:space="preserve" font-size="3.78647" transform="translate(279.308, 408.008)" >x3</text>
<text fill="#222222"  xml:space="preserve" font-size="4.03891" transform="translate(538.04, 433.097) rotate(270)" >JNWATR_NCH_4C5F0</text>
<text fill="#222222"  xml:space="preserve" font-size="4.03891" transform="translate(559.885, 375.977) rotate(270)" >x4</text>
<text fill="#ff0000"  xml:space="preserve" font-size="3.78647" transform="translate(684.655, 163.727)" >c0</text>
<text fill="#ff0000"  xml:space="preserve" font-size="3.78647" transform="translate(684.655, 186.179)" >c1</text>
<text fill="#666600"  xml:space="preserve" font-size="5.04863" transform="translate(690.723, 187.325)" >MF=2</text>
<text fill="#222222"  xml:space="preserve" font-size="5.04863" transform="translate(689.509, 164.266)" >C1</text>
<text fill="#666600"  xml:space="preserve" font-size="5.04863" transform="translate(689.509, 181.257)" >10 / 10</text>
<text fill="#222222"  xml:space="preserve" font-size="5.04863" transform="translate(689.509, 172.761)" >cap_mim_m3_1</text>
<text fill="#666600"  xml:space="preserve" font-size="5.04863" transform="translate(622.487, 182.47)" >C=4.152e-13</text>
<text fill="#ff0000"  xml:space="preserve" font-size="3.78647" transform="translate(437.386, 305.077) rotate(270)" >c0</text>
<text fill="#ff0000"  xml:space="preserve" font-size="3.78647" transform="translate(414.935, 305.077) rotate(270)" >c1</text>
<text fill="#666600"  xml:space="preserve" font-size="5.04863" transform="translate(414.633, 323.895) rotate(270)" >MF=1</text>
<text fill="#222222"  xml:space="preserve" font-size="5.04863" transform="translate(437.692, 312.482) rotate(270)" >C2</text>
<text fill="#666600"  xml:space="preserve" font-size="5.04863" transform="translate(420.701, 332.882) rotate(270)" >10 / 5</text>
<text fill="#222222"  xml:space="preserve" font-size="5.04863" transform="translate(429.196, 363.482) rotate(270)" >cap_mim_m3_1</text>
<text fill="#666600"  xml:space="preserve" font-size="5.04863" transform="translate(419.487, 291.359) rotate(270)" >C=1.057e-13</text>
<text fill="#222222"  xml:space="preserve" font-size="4.03891" transform="translate(405.524, 349.845)" >JNWATR_NCH_4C5F0</text>
<text fill="#222222"  xml:space="preserve" font-size="4.03891" transform="translate(405.524, 371.69)" >x6</text>
<text fill="#222222"  xml:space="preserve" font-size="3.78647" transform="translate(73.4792, 160.431)" >B</text>
<text fill="#222222"  xml:space="preserve" font-size="3.78647" transform="translate(73.4792, 150.722)" >A</text>
<text fill="#222222"  xml:space="preserve" font-size="3.1554" transform="translate(83.684, 183.476) rotate(270)" >AVSS</text>
<text fill="#222222"  xml:space="preserve" font-size="3.78647" transform="translate(88.1011, 155.398)" >Y</text>
<text fill="#222222"  xml:space="preserve" font-size="3.78647" transform="translate(81.631, 137.716) rotate(270)" >AVDD</text>
<text fill="#222222"  xml:space="preserve" font-size="3.78647" transform="translate(89.9843, 160.431)" >x7[7:0]</text>
<text fill="#222222"  xml:space="preserve" font-size="3.78647" transform="translate(89.9843, 165.285)" >SUNTR_ANX1_CV</text>
<text fill="#222222"  xml:space="preserve" font-size="3.78647" transform="translate(73.4792, 218.684)" >B</text>
<text fill="#222222"  xml:space="preserve" font-size="3.78647" transform="translate(73.4792, 208.975)" >A</text>
<text fill="#222222"  xml:space="preserve" font-size="3.1554" transform="translate(83.684, 241.729) rotate(270)" >AVSS</text>
<text fill="#222222"  xml:space="preserve" font-size="3.78647" transform="translate(88.1011, 213.652)" >Y</text>
<text fill="#222222"  xml:space="preserve" font-size="3.78647" transform="translate(81.631, 195.969) rotate(270)" >AVDD</text>
<text fill="#222222"  xml:space="preserve" font-size="3.78647" transform="translate(89.9843, 218.684)" >x8[3:0]</text>
<text fill="#222222"  xml:space="preserve" font-size="3.78647" transform="translate(89.9843, 223.539)" >SUNTR_ANX1_CV</text>
<text fill="#222222"  xml:space="preserve" font-size="3.78647" transform="translate(494.082, 409.448) rotate(270)" >x8</text>
<text fill="#222222"  xml:space="preserve" font-size="3.78647" transform="translate(498.936, 447.698) rotate(270)" >SUNTR_RPPO16</text>
<path class="l4" d="M750.19 195.484L759.899 195.484"/>
<path class="l4" d="M759.899 195.484L759.899 202.765"/>
<path class="l4" d="M750.19 180.92L759.899 180.92"/>
<path class="l4" d="M759.899 173.639L759.899 180.92"/>
<path class="l4" d="M750.19 188.202L759.899 188.202"/>
<path class="l4" d="M753.588 180.92L758.443 178.493"/>
<path class="l4" d="M753.588 180.92L758.443 183.348"/>
<path class="l4" d="M750.19 180.92L750.19 195.484"/>
<path class="l4" d="M747.763 180.92L747.763 195.484"/>
<path class="l4" d="M740.481 188.202L743.879 188.202"/>
<circle class="l4" cx="745.821" cy="188.202" r="1.94178" style="fill:none;"/>
<path class="l4" d="M750.19 258.592L759.899 258.592"/>
<path class="l4" d="M759.899 258.592L759.899 265.873"/>
<path class="l4" d="M750.19 244.028L759.899 244.028"/>
<path class="l4" d="M759.899 236.746L759.899 244.028"/>
<path class="l4" d="M750.19 251.31L759.899 251.31"/>
<path class="l4" d="M753.588 244.028L758.443 241.601"/>
<path class="l4" d="M753.588 244.028L758.443 246.455"/>
<path class="l4" d="M750.19 244.028L750.19 258.592"/>
<path class="l4" d="M747.763 244.028L747.763 258.592"/>
<path class="l4" d="M740.481 251.31L743.879 251.31"/>
<circle class="l4" cx="745.821" cy="251.31" r="1.94178" style="fill:none;"/>
<path class="l4" d="M279.308 518.305L279.308 528.014"/>
<path class="l4" d="M279.308 494.033L279.308 498.887"/>
<path class="l4" d="M269.599 503.741L269.599 523.159"/>
<path class="l4" d="M269.599 523.159L289.017 513.45"/>
<path class="l4" d="M269.599 503.741L289.017 513.45"/>
<path class="l4" d="M293.871 513.45L298.726 513.45"/>
<path class="l4" d="M259.89 513.45L269.599 513.45"/>
<path class="l4" d="M279.308 498.887L279.308 508.596"/>
<path class="l4" d="M279.308 528.014L279.308 532.868"/>
<circle class="l4" cx="291.444" cy="513.45" r="2.42723" style="fill:none;"/>
<path class="l4" d="M912.814 280.437L912.814 290.145"/>
<path class="l4" d="M912.814 280.437L920.096 280.437"/>
<path class="l4" d="M898.251 280.437L898.251 290.145"/>
<path class="l4" d="M890.969 280.437L898.251 280.437"/>
<path class="l4" d="M905.533 280.437L905.533 290.145"/>
<path class="l4" d="M895.824 281.893L898.251 286.747"/>
<path class="l4" d="M898.251 286.747L900.678 281.893"/>
<path class="l4" d="M898.251 290.145L912.814 290.145"/>
<path class="l4" d="M898.251 292.573L912.814 292.573"/>
<path class="l4" d="M905.533 296.456L905.533 299.854"/>
<circle class="l4" cx="905.533" cy="294.515" r="1.94178" style="fill:none;"/>
<path class="l4" d="M883.688 338.69L883.688 348.399"/>
<path class="l4" d="M883.688 338.69L890.969 338.69"/>
<path class="l4" d="M869.124 338.69L869.124 348.399"/>
<path class="l4" d="M861.843 338.69L869.124 338.69"/>
<path class="l4" d="M876.406 338.69L876.406 348.399"/>
<path class="l4" d="M866.697 340.146L869.124 345.001"/>
<path class="l4" d="M869.124 345.001L871.551 340.146"/>
<path class="l4" d="M869.124 348.399L883.688 348.399"/>
<path class="l4" d="M869.124 350.826L883.688 350.826"/>
<path class="l4" d="M876.406 354.71L876.406 358.108"/>
<circle class="l4" cx="876.406" cy="352.768" r="1.94178" style="fill:none;"/>
<path class="l4" d="M849.706 396.943L849.706 406.652"/>
<path class="l4" d="M849.706 396.943L856.988 396.943"/>
<path class="l4" d="M835.143 396.943L835.143 406.652"/>
<path class="l4" d="M827.861 396.943L835.143 396.943"/>
<path class="l4" d="M842.425 396.943L842.425 406.652"/>
<path class="l4" d="M832.716 398.4L835.143 403.254"/>
<path class="l4" d="M835.143 403.254L837.57 398.4"/>
<path class="l4" d="M835.143 406.652L849.706 406.652"/>
<path class="l4" d="M835.143 409.08L849.706 409.08"/>
<path class="l4" d="M842.425 412.963L842.425 416.361"/>
<circle class="l4" cx="842.425" cy="411.021" r="1.94178" style="fill:none;"/>
<path class="l4" d="M810.871 435.779L810.871 445.488"/>
<path class="l4" d="M810.871 435.779L818.152 435.779"/>
<path class="l4" d="M796.307 435.779L796.307 445.488"/>
<path class="l4" d="M789.026 435.779L796.307 435.779"/>
<path class="l4" d="M803.589 435.779L803.589 445.488"/>
<path class="l4" d="M793.88 437.235L796.307 442.09"/>
<path class="l4" d="M796.307 442.09L798.735 437.235"/>
<path class="l4" d="M796.307 445.488L810.871 445.488"/>
<path class="l4" d="M796.307 447.915L810.871 447.915"/>
<path class="l4" d="M803.589 451.799L803.589 455.197"/>
<circle class="l4" cx="803.589" cy="449.857" r="1.94178" style="fill:none;"/>
<path class="l4" d="M240.472 159.075L250.181 159.075"/>
<path class="l4" d="M240.472 168.784L250.181 168.784"/>
<path class="l4" d="M240.472 178.493L250.181 178.493"/>
<path class="l4" d="M240.472 188.202L250.181 188.202"/>
<path class="l4" d="M240.472 197.911L250.181 197.911"/>
<path class="l4" d="M240.472 207.62L250.181 207.62"/>
<path class="l4" d="M240.472 217.329L250.181 217.329"/>
<path class="l4" d="M240.472 227.038L250.181 227.038"/>
<path class="l4" d="M240.472 236.746L250.181 236.746"/>
<path class="l4" d="M240.472 246.455L250.181 246.455"/>
<path class="l4" d="M240.472 256.164L250.181 256.164"/>
<path class="l4" d="M240.472 265.873L250.181 265.873"/>
<path class="l4" d="M337.561 168.784L347.27 168.784"/>
<path class="l4" d="M240.472 285.291L250.181 285.291"/>
<path class="l4" d="M308.435 168.784L318.144 168.784"/>
<path class="l4" d="M308.435 168.784L308.435 265.873"/>
<path class="l4" d="M274.454 265.873L289.017 265.873"/>
<path class="l4" d="M289.017 263.446L289.017 268.3"/>
<path class="l4" d="M291.444 263.446L291.444 268.3"/>
<path class="l4" d="M291.444 265.873L308.435 265.873"/>
<path class="l4" d="M274.454 256.164L289.017 256.164"/>
<path class="l4" d="M289.017 253.737L289.017 258.592"/>
<path class="l4" d="M291.444 253.737L291.444 258.592"/>
<path class="l4" d="M291.444 256.164L308.435 256.164"/>
<path class="l4" d="M274.454 246.455L289.017 246.455"/>
<path class="l4" d="M289.017 244.028L289.017 248.883"/>
<path class="l4" d="M291.444 244.028L291.444 248.883"/>
<path class="l4" d="M291.444 246.455L308.435 246.455"/>
<path class="l4" d="M274.454 236.746L289.017 236.746"/>
<path class="l4" d="M289.017 234.319L289.017 239.174"/>
<path class="l4" d="M291.444 234.319L291.444 239.174"/>
<path class="l4" d="M291.444 236.746L308.435 236.746"/>
<path class="l4" d="M274.454 227.038L289.017 227.038"/>
<path class="l4" d="M289.017 224.61L289.017 229.465"/>
<path class="l4" d="M291.444 224.61L291.444 229.465"/>
<path class="l4" d="M291.444 227.038L308.435 227.038"/>
<path class="l4" d="M274.454 217.329L289.017 217.329"/>
<path class="l4" d="M289.017 214.901L289.017 219.756"/>
<path class="l4" d="M291.444 214.901L291.444 219.756"/>
<path class="l4" d="M291.444 217.329L308.435 217.329"/>
<path class="l4" d="M274.454 207.62L289.017 207.62"/>
<path class="l4" d="M289.017 205.193L289.017 210.047"/>
<path class="l4" d="M291.444 205.193L291.444 210.047"/>
<path class="l4" d="M291.444 207.62L308.435 207.62"/>
<path class="l4" d="M274.454 197.911L289.017 197.911"/>
<path class="l4" d="M289.017 195.484L289.017 200.338"/>
<path class="l4" d="M291.444 195.484L291.444 200.338"/>
<path class="l4" d="M291.444 197.911L308.435 197.911"/>
<path class="l4" d="M274.454 188.202L289.017 188.202"/>
<path class="l4" d="M289.017 185.775L289.017 190.629"/>
<path class="l4" d="M291.444 185.775L291.444 190.629"/>
<path class="l4" d="M291.444 188.202L308.435 188.202"/>
<path class="l4" d="M274.454 178.493L289.017 178.493"/>
<path class="l4" d="M289.017 176.066L289.017 180.92"/>
<path class="l4" d="M291.444 176.066L291.444 180.92"/>
<path class="l4" d="M291.444 178.493L308.435 178.493"/>
<path class="l4" d="M274.454 168.784L289.017 168.784"/>
<path class="l4" d="M289.017 166.357L289.017 171.211"/>
<path class="l4" d="M291.444 166.357L291.444 171.211"/>
<path class="l4" d="M291.444 168.784L308.435 168.784"/>
<path class="l4" d="M274.454 159.075L289.017 159.075"/>
<path class="l4" d="M289.017 156.648L289.017 161.502"/>
<path class="l4" d="M291.444 156.648L291.444 161.502"/>
<path class="l4" d="M291.444 159.075L308.435 159.075"/>
<path class="l4" d="M308.435 159.075L308.435 168.784"/>
<path class="l4" style="fill:none;" d="M250.181 154.221L337.561 154.221L337.561 290.145L250.181 290.145L250.181 154.221"/>
<path class="l4" d="M483.195 190.629L492.904 190.629"/>
<path class="l4" d="M483.195 190.629L483.195 197.911"/>
<path class="l4" d="M483.195 176.066L492.904 176.066"/>
<path class="l4" d="M483.195 168.784L483.195 176.066"/>
<path class="l4" d="M483.195 183.348L492.904 183.348"/>
<path class="l4" d="M484.651 173.639L489.506 176.066"/>
<path class="l4" d="M484.651 178.493L489.506 176.066"/>
<path class="l4" d="M492.904 176.066L492.904 190.629"/>
<path class="l4" d="M495.331 176.066L495.331 190.629"/>
<path class="l4" d="M499.215 183.348L502.613 183.348"/>
<circle class="l4" cx="497.273" cy="183.348" r="1.94178" style="fill:none;"/>
<path class="l4" d="M553.585 236.746L553.585 246.455"/>
<path class="l4" d="M553.585 236.746L560.866 236.746"/>
<path class="l4" d="M539.021 236.746L539.021 246.455"/>
<path class="l4" d="M531.74 236.746L539.021 236.746"/>
<path class="l4" d="M546.303 236.746L546.303 246.455"/>
<path class="l4" d="M536.594 238.203L539.021 243.057"/>
<path class="l4" d="M539.021 243.057L541.449 238.203"/>
<path class="l4" d="M539.021 246.455L553.585 246.455"/>
<path class="l4" d="M539.021 248.883L553.585 248.883"/>
<path class="l4" d="M546.303 252.766L546.303 256.164"/>
<circle class="l4" cx="546.303" cy="250.824" r="1.94178" style="fill:none;"/>
<path class="l4" d="M274.454 406.652L274.454 416.361"/>
<path class="l4" d="M274.454 382.38L274.454 387.235"/>
<path class="l4" d="M264.745 392.089L264.745 411.507"/>
<path class="l4" d="M264.745 411.507L284.162 401.798"/>
<path class="l4" d="M264.745 392.089L284.162 401.798"/>
<path class="l4" d="M289.017 401.798L293.871 401.798"/>
<path class="l4" d="M255.036 401.798L264.745 401.798"/>
<path class="l4" d="M274.454 387.235L274.454 396.943"/>
<path class="l4" d="M274.454 416.361L274.454 421.216"/>
<circle class="l4" cx="286.59" cy="401.798" r="2.42723" style="fill:none;"/>
<path class="l4" d="M551.157 362.962L553.585 367.817"/>
<path class="l4" d="M553.585 367.817L556.012 362.962"/>
<path class="l4" d="M539.021 358.108L539.021 367.817"/>
<path class="l4" d="M531.74 367.817L539.021 367.817"/>
<path class="l4" d="M553.585 358.108L553.585 367.817"/>
<path class="l4" d="M553.585 367.817L560.866 367.817"/>
<path class="l4" d="M546.303 358.108L546.303 367.817"/>
<path class="l4" d="M539.021 358.108L553.585 358.108"/>
<path class="l4" d="M539.021 355.681L553.585 355.681"/>
<path class="l4" d="M546.303 348.399L546.303 355.681"/>
<path class="l4" d="M682.228 174.852L682.228 188.202"/>
<path class="l4" d="M682.228 159.075L682.228 171.211"/>
<path class="l4" d="M677.373 171.211L687.082 171.211"/>
<path class="l4" style="fill:none;" d="M687.082 176.066 A10.3157 10.3157 0 0 0 677.373 176.066"/>
<path class="l4" d="M410.378 295L423.728 295"/>
<path class="l4" d="M427.369 295L439.505 295"/>
<path class="l4" d="M427.369 290.145L427.369 299.854"/>
<path class="l4" style="fill:none;" d="M422.514 299.854 A10.3157 10.3157 0 0 0 422.514 290.145"/>
<path class="l4" d="M400.669 362.962L405.524 365.39"/>
<path class="l4" d="M400.669 367.817L405.524 365.39"/>
<path class="l4" d="M395.815 350.826L405.524 350.826"/>
<path class="l4" d="M405.524 343.544L405.524 350.826"/>
<path class="l4" d="M395.815 365.39L405.524 365.39"/>
<path class="l4" d="M405.524 365.39L405.524 372.671"/>
<path class="l4" d="M395.815 358.108L405.524 358.108"/>
<path class="l4" d="M395.815 350.826L395.815 365.39"/>
<path class="l4" d="M393.388 350.826L393.388 365.39"/>
<path class="l4" d="M386.106 358.108L393.388 358.108"/>
<path class="l4" d="M80.2754 134.803L80.2754 144.512"/>
<path class="l4" d="M70.5665 163.93L80.2754 163.93"/>
<path class="l4" d="M70.5665 144.512L80.2754 144.512"/>
<path class="l4" d="M80.2754 144.512L85.1299 144.512"/>
<path class="l4" d="M68.1393 159.075L70.5665 159.075"/>
<path class="l4" d="M97.266 154.221L104.548 154.221"/>
<path class="l4" d="M92.4116 154.221L97.266 154.221"/>
<path class="l4" d="M68.1393 149.366L70.5665 149.366"/>
<path class="l4" d="M70.5665 144.512L70.5665 163.93"/>
<path class="l4" d="M60.8576 149.366L70.5665 149.366"/>
<path class="l4" d="M60.8576 159.075L70.5665 159.075"/>
<path class="l4" d="M80.2754 163.93L80.2754 173.639"/>
<path class="l4" d="M80.2754 163.93L85.1299 163.93"/>
<path class="l4" style="fill:none;" d="M85.1465 163.985 A10.1944 10.1944 0 0 0 85.1465 144.456"/>
<path class="l4" d="M80.2754 193.056L80.2754 202.765"/>
<path class="l4" d="M70.5665 222.183L80.2754 222.183"/>
<path class="l4" d="M70.5665 202.765L80.2754 202.765"/>
<path class="l4" d="M80.2754 202.765L85.1299 202.765"/>
<path class="l4" d="M68.1393 217.329L70.5665 217.329"/>
<path class="l4" d="M97.266 212.474L104.548 212.474"/>
<path class="l4" d="M92.4116 212.474L97.266 212.474"/>
<path class="l4" d="M68.1393 207.62L70.5665 207.62"/>
<path class="l4" d="M70.5665 202.765L70.5665 222.183"/>
<path class="l4" d="M60.8576 207.62L70.5665 207.62"/>
<path class="l4" d="M60.8576 217.329L70.5665 217.329"/>
<path class="l4" d="M80.2754 222.183L80.2754 231.892"/>
<path class="l4" d="M80.2754 222.183L85.1299 222.183"/>
<path class="l4" style="fill:none;" d="M85.1465 222.239 A10.1944 10.1944 0 0 0 85.1465 202.71"/>
<path class="l4" d="M473.486 416.361L480.768 416.361"/>
<path class="l4" d="M483.195 430.925L483.195 435.779"/>
<path class="l4" d="M483.195 396.943L483.195 401.798"/>
<path class="l4" d="M479.797 410.536L479.797 422.187"/>
<path class="l4" d="M483.195 428.012L483.195 430.925"/>
<path class="l4" d="M483.195 401.798L483.195 404.711"/>
<path class="l4" d="M480.282 406.167L483.195 404.711"/>
<path class="l4" d="M480.282 406.167L486.108 409.08"/>
<path class="l4" d="M480.282 411.992L486.108 409.08"/>
<path class="l4" d="M480.282 411.992L486.108 414.905"/>
<path class="l4" d="M480.282 417.818L486.108 414.905"/>
<path class="l4" d="M480.282 417.818L486.108 420.73"/>
<path class="l4" d="M480.282 423.643L486.108 420.73"/>
<path class="l4" d="M480.282 423.643L486.108 426.556"/>
<path class="l4" d="M483.195 428.012L486.108 426.556"/>
<path class="l5" d="M757.472 139.657L759.899 139.657"/>
<path class="l5" d="M757.472 139.657L755.651 137.23L751.404 137.23L753.224 139.657L751.404 142.085L755.651 142.085L757.472 139.657"/>
<path class="l5" d="M759.292 139.051L760.506 139.051L760.506 140.264L759.292 140.264L759.292 139.051z"/>
<path class="l5" d="M218.627 566.849L221.055 566.849"/>
<path class="l5" d="M218.627 566.849L216.807 564.422L212.559 564.422L214.38 566.849L212.559 569.277L216.807 569.277L218.627 566.849"/>
<path class="l5" d="M220.448 566.243L221.661 566.243L221.661 567.456L220.448 567.456L220.448 566.243z"/>
<path class="l5" d="M218.627 513.45L221.055 513.45"/>
<path class="l5" d="M218.627 513.45L216.807 511.023L212.559 511.023L214.38 513.45L212.559 515.878L216.807 515.878L218.627 513.45"/>
<path class="l5" d="M220.448 512.844L221.661 512.844L221.661 514.057L220.448 514.057L220.448 512.844z"/>
<path class="l5" d="M757.957 200.824L761.841 200.824L761.841 204.707L757.957 204.707L757.957 200.824z"/>
<path class="l5" d="M738.539 186.26L742.423 186.26L742.423 190.144L738.539 190.144L738.539 186.26z"/>
<path class="l5" d="M757.957 171.697L761.841 171.697L761.841 175.58L757.957 175.58L757.957 171.697z"/>
<path class="l5" d="M757.957 186.26L761.841 186.26L761.841 190.144L757.957 190.144L757.957 186.26z"/>
<path class="l5" d="M757.957 263.931L761.841 263.931L761.841 267.815L757.957 267.815L757.957 263.931z"/>
<path class="l5" d="M738.539 249.368L742.423 249.368L742.423 253.252L738.539 253.252L738.539 249.368z"/>
<path class="l5" d="M757.957 234.805L761.841 234.805L761.841 238.688L757.957 238.688L757.957 234.805z"/>
<path class="l5" d="M757.957 249.368L761.841 249.368L761.841 253.252L757.957 253.252L757.957 249.368z"/>
<path class="l5" d="M257.948 511.509L261.832 511.509L261.832 515.392L257.948 515.392L257.948 511.509z"/>
<path class="l5" d="M296.784 511.509L300.668 511.509L300.668 515.392L296.784 515.392L296.784 511.509z"/>
<path class="l5" d="M277.366 492.091L281.25 492.091L281.25 495.974L277.366 495.974L277.366 492.091z"/>
<path class="l5" d="M277.366 530.926L281.25 530.926L281.25 534.81L277.366 534.81L277.366 530.926z"/>
<path class="l5" d="M288.41 493.426L289.624 493.426L289.624 494.639L288.41 494.639L288.41 493.426z"/>
<path class="l5" d="M288.41 532.261L289.624 532.261L289.624 533.475L288.41 533.475L288.41 532.261z"/>
<path class="l5" d="M327.246 512.844L328.459 512.844L328.459 514.057L327.246 514.057L327.246 512.844z"/>
<path class="l5" d="M900.678 494.033L902.195 494.033"/>
<path class="l5" d="M907.353 496.46L909.173 494.033L907.353 491.605L904.016 491.605L902.195 494.033L904.016 496.46L907.353 496.46"/>
<path class="l5" d="M900.071 493.426L901.285 493.426L901.285 494.639L900.071 494.639L900.071 493.426z"/>
<path class="l5" d="M918.154 278.495L922.038 278.495L922.038 282.378L918.154 282.378L918.154 278.495z"/>
<path class="l5" d="M903.591 297.913L907.474 297.913L907.474 301.796L903.591 301.796L903.591 297.913z"/>
<path class="l5" d="M889.027 278.495L892.911 278.495L892.911 282.378L889.027 282.378L889.027 278.495z"/>
<path class="l5" d="M903.591 278.495L907.474 278.495L907.474 282.378L903.591 282.378L903.591 278.495z"/>
<path class="l5" d="M889.027 336.748L892.911 336.748L892.911 340.632L889.027 340.632L889.027 336.748z"/>
<path class="l5" d="M874.464 356.166L878.348 356.166L878.348 360.05L874.464 360.05L874.464 356.166z"/>
<path class="l5" d="M859.901 336.748L863.784 336.748L863.784 340.632L859.901 340.632L859.901 336.748z"/>
<path class="l5" d="M874.464 336.748L878.348 336.748L878.348 340.632L874.464 340.632L874.464 336.748z"/>
<path class="l5" d="M855.046 395.002L858.93 395.002L858.93 398.885L855.046 398.885L855.046 395.002z"/>
<path class="l5" d="M840.483 414.42L844.366 414.42L844.366 418.303L840.483 418.303L840.483 414.42z"/>
<path class="l5" d="M825.92 395.002L829.803 395.002L829.803 398.885L825.92 398.885L825.92 395.002z"/>
<path class="l5" d="M840.483 395.002L844.366 395.002L844.366 398.885L840.483 398.885L840.483 395.002z"/>
<path class="l5" d="M816.211 433.837L820.094 433.837L820.094 437.721L816.211 437.721L816.211 433.837z"/>
<path class="l5" d="M801.647 453.255L805.531 453.255L805.531 457.139L801.647 457.139L801.647 453.255z"/>
<path class="l5" d="M787.084 433.837L790.967 433.837L790.967 437.721L787.084 437.721L787.084 433.837z"/>
<path class="l5" d="M801.647 433.837L805.531 433.837L805.531 437.721L801.647 437.721L801.647 433.837z"/>
<path class="l5" d="M836.963 435.172L838.177 435.172L838.177 436.386L836.963 436.386L836.963 435.172z"/>
<path class="l5" d="M875.799 396.337L877.013 396.337L877.013 397.55L875.799 397.55L875.799 396.337z"/>
<path class="l5" d="M909.78 338.083L910.994 338.083L910.994 339.297L909.78 339.297L909.78 338.083z"/>
<path class="l5" d="M938.907 279.83L940.121 279.83L940.121 281.043L938.907 281.043L938.907 279.83z"/>
<path class="l5" d="M836.963 454.59L838.177 454.59L838.177 455.804L836.963 455.804L836.963 454.59z"/>
<path class="l5" d="M875.799 415.754L877.013 415.754L877.013 416.968L875.799 416.968L875.799 415.754z"/>
<path class="l5" d="M909.78 357.501L910.994 357.501L910.994 358.715L909.78 358.715L909.78 357.501z"/>
<path class="l5" d="M938.907 299.248L940.121 299.248L940.121 300.461L938.907 300.461L938.907 299.248z"/>
<path class="l5" d="M223.482 129.949L225.909 129.949"/>
<path class="l5" d="M223.482 129.949L221.661 127.521L217.414 127.521L219.234 129.949L217.414 132.376L221.661 132.376L223.482 129.949"/>
<path class="l5" d="M225.302 129.342L226.516 129.342L226.516 130.555L225.302 130.555L225.302 129.342z"/>
<path class="l5" d="M781.744 494.033L784.171 494.033"/>
<path class="l5" d="M781.744 494.033L779.924 491.605L775.676 491.605L777.496 494.033L775.676 496.46L779.924 496.46L781.744 494.033"/>
<path class="l5" d="M783.564 493.426L784.778 493.426L784.778 494.639L783.564 494.639L783.564 493.426z"/>
<path class="l5" d="M759.292 221.576L760.506 221.576L760.506 222.79L759.292 222.79L759.292 221.576z"/>
<path class="l5" d="M783.564 279.83L784.778 279.83L784.778 281.043L783.564 281.043L783.564 279.83z"/>
<path class="l5" d="M589.386 187.595L590.6 187.595L590.6 188.809L589.386 188.809L589.386 187.595z"/>
<path class="l5" d="M225.302 226.431L226.516 226.431L226.516 227.644L225.302 227.644L225.302 226.431z"/>
<path class="l5" d="M225.302 216.722L226.516 216.722L226.516 217.935L225.302 217.935L225.302 216.722z"/>
<path class="l5" d="M225.302 207.013L226.516 207.013L226.516 208.227L225.302 208.227L225.302 207.013z"/>
<path class="l5" d="M225.302 197.304L226.516 197.304L226.516 198.518L225.302 198.518L225.302 197.304z"/>
<path class="l5" d="M225.302 187.595L226.516 187.595L226.516 188.809L225.302 188.809L225.302 187.595z"/>
<path class="l5" d="M225.302 177.886L226.516 177.886L226.516 179.1L225.302 179.1L225.302 177.886z"/>
<path class="l5" d="M225.302 168.177L226.516 168.177L226.516 169.391L225.302 169.391L225.302 168.177z"/>
<path class="l5" d="M225.302 158.468L226.516 158.468L226.516 159.682L225.302 159.682L225.302 158.468z"/>
<path class="l5" d="M225.302 284.684L226.516 284.684L226.516 285.898L225.302 285.898L225.302 284.684z"/>
<path class="l5" d="M239.259 157.862L241.686 157.862L241.686 160.289L239.259 160.289L239.259 157.862z"/>
<path class="l5" d="M239.259 167.571L241.686 167.571L241.686 169.998L239.259 169.998L239.259 167.571z"/>
<path class="l5" d="M239.259 177.279L241.686 177.279L241.686 179.707L239.259 179.707L239.259 177.279z"/>
<path class="l5" d="M239.259 186.988L241.686 186.988L241.686 189.416L239.259 189.416L239.259 186.988z"/>
<path class="l5" d="M239.259 196.697L241.686 196.697L241.686 199.124L239.259 199.124L239.259 196.697z"/>
<path class="l5" d="M239.259 206.406L241.686 206.406L241.686 208.833L239.259 208.833L239.259 206.406z"/>
<path class="l5" d="M239.259 216.115L241.686 216.115L241.686 218.542L239.259 218.542L239.259 216.115z"/>
<path class="l5" d="M239.259 225.824L241.686 225.824L241.686 228.251L239.259 228.251L239.259 225.824z"/>
<path class="l5" d="M239.259 235.533L241.686 235.533L241.686 237.96L239.259 237.96L239.259 235.533z"/>
<path class="l5" d="M239.259 245.242L241.686 245.242L241.686 247.669L239.259 247.669L239.259 245.242z"/>
<path class="l5" d="M239.259 254.951L241.686 254.951L241.686 257.378L239.259 257.378L239.259 254.951z"/>
<path class="l5" d="M239.259 264.66L241.686 264.66L241.686 267.087L239.259 267.087L239.259 264.66z"/>
<path class="l5" d="M346.057 167.571L348.484 167.571L348.484 169.998L346.057 169.998L346.057 167.571z"/>
<path class="l5" d="M239.259 284.077L241.686 284.077L241.686 286.505L239.259 286.505L239.259 284.077z"/>
<path class="l5" d="M393.388 129.949L395.815 129.949"/>
<path class="l5" d="M393.388 129.949L391.567 127.521L387.32 127.521L389.14 129.949L387.32 132.376L391.567 132.376L393.388 129.949"/>
<path class="l5" d="M395.208 129.342L396.422 129.342L396.422 130.555L395.208 130.555L395.208 129.342z"/>
<path class="l5" d="M225.302 236.14L226.516 236.14L226.516 237.353L225.302 237.353L225.302 236.14z"/>
<path class="l5" d="M225.302 245.849L226.516 245.849L226.516 247.062L225.302 247.062L225.302 245.849z"/>
<path class="l5" d="M225.302 255.558L226.516 255.558L226.516 256.771L225.302 256.771L225.302 255.558z"/>
<path class="l5" d="M225.302 265.266L226.516 265.266L226.516 266.48L225.302 266.48L225.302 265.266z"/>
<path class="l5" d="M475.913 474.615L478.341 474.615"/>
<path class="l5" d="M475.913 474.615L474.093 472.188L469.845 472.188L471.666 474.615L469.845 477.042L474.093 477.042L475.913 474.615"/>
<path class="l5" d="M477.734 474.008L478.947 474.008L478.947 475.222L477.734 475.222L477.734 474.008z"/>
<path class="l5" d="M481.253 195.969L485.137 195.969L485.137 199.853L481.253 199.853L481.253 195.969z"/>
<path class="l5" d="M500.671 181.406L504.555 181.406L504.555 185.289L500.671 185.289L500.671 181.406z"/>
<path class="l5" d="M481.253 166.842L485.137 166.842L485.137 170.726L481.253 170.726L481.253 166.842z"/>
<path class="l5" d="M481.253 181.406L485.137 181.406L485.137 185.289L481.253 185.289L481.253 181.406z"/>
<path class="l5" d="M558.925 234.805L562.808 234.805L562.808 238.688L558.925 238.688L558.925 234.805z"/>
<path class="l5" d="M544.361 254.223L548.245 254.223L548.245 258.106L544.361 258.106L544.361 254.223z"/>
<path class="l5" d="M529.798 234.805L533.681 234.805L533.681 238.688L529.798 238.688L529.798 234.805z"/>
<path class="l5" d="M544.361 234.805L548.245 234.805L548.245 238.688L544.361 238.688L544.361 234.805z"/>
<path class="l5" d="M218.627 401.798L221.055 401.798"/>
<path class="l5" d="M218.627 401.798L216.807 399.371L212.559 399.371L214.38 401.798L212.559 404.225L216.807 404.225L218.627 401.798"/>
<path class="l5" d="M220.448 401.191L221.661 401.191L221.661 402.405L220.448 402.405L220.448 401.191z"/>
<path class="l5" d="M322.391 401.191L323.605 401.191L323.605 402.405L322.391 402.405L322.391 401.191z"/>
<path class="l5" d="M545.696 284.684L546.91 284.684L546.91 285.898L545.696 285.898L545.696 284.684z"/>
<path class="l5" d="M253.094 399.856L256.978 399.856L256.978 403.74L253.094 403.74L253.094 399.856z"/>
<path class="l5" d="M291.93 399.856L295.813 399.856L295.813 403.74L291.93 403.74L291.93 399.856z"/>
<path class="l5" d="M272.512 380.438L276.395 380.438L276.395 384.322L272.512 384.322L272.512 380.438z"/>
<path class="l5" d="M272.512 419.274L276.395 419.274L276.395 423.158L272.512 423.158L272.512 419.274z"/>
<path class="l5" d="M283.556 381.773L284.769 381.773L284.769 382.987L283.556 382.987L283.556 381.773z"/>
<path class="l5" d="M283.556 420.609L284.769 420.609L284.769 421.823L283.556 421.823L283.556 420.609z"/>
<path class="l5" d="M529.798 365.875L533.681 365.875L533.681 369.759L529.798 369.759L529.798 365.875z"/>
<path class="l5" d="M544.361 346.457L548.245 346.457L548.245 350.341L544.361 350.341L544.361 346.457z"/>
<path class="l5" d="M558.925 365.875L562.808 365.875L562.808 369.759L558.925 369.759L558.925 365.875z"/>
<path class="l5" d="M544.361 365.875L548.245 365.875L548.245 369.759L544.361 369.759L544.361 365.875z"/>
<path class="l5" d="M545.696 381.773L546.91 381.773L546.91 382.987L545.696 382.987L545.696 381.773z"/>
<path class="l5" d="M545.696 333.229L546.91 333.229L546.91 334.442L545.696 334.442L545.696 333.229z"/>
<path class="l5" d="M681.014 157.862L683.441 157.862L683.441 160.289L681.014 160.289L681.014 157.862z"/>
<path class="l5" d="M681.014 186.988L683.441 186.988L683.441 189.416L681.014 189.416L681.014 186.988z"/>
<path class="l5" d="M438.291 293.786L440.719 293.786L440.719 296.214L438.291 296.214L438.291 293.786z"/>
<path class="l5" d="M409.165 293.786L411.592 293.786L411.592 296.214L409.165 296.214L409.165 293.786z"/>
<path class="l5" d="M361.227 357.501L362.441 357.501L362.441 358.715L361.227 358.715L361.227 357.501z"/>
<path class="l5" d="M403.582 341.603L407.466 341.603L407.466 345.486L403.582 345.486L403.582 341.603z"/>
<path class="l5" d="M384.164 356.166L388.048 356.166L388.048 360.05L384.164 360.05L384.164 356.166z"/>
<path class="l5" d="M403.582 370.729L407.466 370.729L407.466 374.613L403.582 374.613L403.582 370.729z"/>
<path class="l5" d="M403.582 356.166L407.466 356.166L407.466 360.05L403.582 360.05L403.582 356.166z"/>
<path class="l5" d="M414.626 376.919L415.84 376.919L415.84 378.132L414.626 378.132L414.626 376.919z"/>
<path class="l5" d="M89.3775 173.032L90.5911 173.032L90.5911 174.245L89.3775 174.245L89.3775 173.032z"/>
<path class="l5" d="M89.3775 134.196L90.5911 134.196L90.5911 135.41L89.3775 135.41L89.3775 134.196z"/>
<path class="l5" d="M45.6874 158.468L46.901 158.468L46.901 159.682L45.6874 159.682L45.6874 158.468z"/>
<path class="l5" d="M113.65 153.614L114.863 153.614L114.863 154.828L113.65 154.828L113.65 153.614z"/>
<path class="l5" d="M89.3775 231.285L90.5911 231.285L90.5911 232.499L89.3775 232.499L89.3775 231.285z"/>
<path class="l5" d="M89.3775 192.45L90.5911 192.45L90.5911 193.663L89.3775 193.663L89.3775 192.45z"/>
<path class="l5" d="M45.6874 216.722L46.901 216.722L46.901 217.935L45.6874 217.935L45.6874 216.722z"/>
<path class="l5" d="M113.65 211.867L114.863 211.867L114.863 213.081L113.65 213.081L113.65 211.867z"/>
<path class="l5" d="M58.9158 147.425L62.7994 147.425L62.7994 151.308L58.9158 151.308L58.9158 147.425z"/>
<path class="l5" d="M58.9158 157.133L62.7994 157.133L62.7994 161.017L58.9158 161.017L58.9158 157.133z"/>
<path class="l5" d="M102.606 152.279L106.489 152.279L106.489 156.163L102.606 156.163L102.606 152.279z"/>
<path class="l5" d="M78.3336 132.861L82.2172 132.861L82.2172 136.745L78.3336 136.745L78.3336 132.861z"/>
<path class="l5" d="M78.3336 171.697L82.2172 171.697L82.2172 175.58L78.3336 175.58L78.3336 171.697z"/>
<path class="l5" d="M58.9158 205.678L62.7994 205.678L62.7994 209.562L58.9158 209.562L58.9158 205.678z"/>
<path class="l5" d="M58.9158 215.387L62.7994 215.387L62.7994 219.27L58.9158 219.27L58.9158 215.387z"/>
<path class="l5" d="M102.606 210.532L106.489 210.532L106.489 214.416L102.606 214.416L102.606 210.532z"/>
<path class="l5" d="M78.3336 191.115L82.2172 191.115L82.2172 194.998L78.3336 194.998L78.3336 191.115z"/>
<path class="l5" d="M78.3336 229.95L82.2172 229.95L82.2172 233.834L78.3336 233.834L78.3336 229.95z"/>
<path class="l5" d="M45.6874 207.013L46.901 207.013L46.901 208.227L45.6874 208.227L45.6874 207.013z"/>
<path class="l5" d="M45.6874 148.76L46.901 148.76L46.901 149.973L45.6874 149.973L45.6874 148.76z"/>
<path class="l5" d="M708.927 319.272L711.354 319.272"/>
<path class="l5" d="M708.927 319.272L707.107 316.845L702.859 316.845L704.68 319.272L702.859 321.699L707.107 321.699L708.927 319.272"/>
<path class="l5" d="M710.748 318.665L711.961 318.665L711.961 319.879L710.748 319.879L710.748 318.665z"/>
<path class="l5" d="M409.771 168.177L410.985 168.177L410.985 169.391L409.771 169.391L409.771 168.177z"/>
<path class="l5" d="M481.253 433.837L485.137 433.837L485.137 437.721L481.253 437.721L481.253 433.837z"/>
<path class="l5" d="M481.253 395.002L485.137 395.002L485.137 398.885L481.253 398.885L481.253 395.002z"/>
<path class="l5" d="M471.544 414.42L475.428 414.42L475.428 418.303L471.544 418.303L471.544 414.42z"/>
<path class="l5" d="M458.316 415.754L459.53 415.754L459.53 416.968L458.316 416.968L458.316 415.754z"/>
<path class="l5" d="M720.457 250.703L721.67 250.703L721.67 251.917L720.457 251.917L720.457 250.703z"/>
<path class="l1" d="M759.899 202.765L759.899 236.746"/>
<path class="l1" d="M759.899 251.31L769.608 251.31"/>
<path class="l1" d="M769.608 188.202L769.608 251.31"/>
<path class="l1" d="M759.899 188.202L769.608 188.202"/>
<path class="l1" d="M769.608 173.639L769.608 188.202"/>
<path class="l1" d="M759.899 173.639L769.608 173.639"/>
<path class="l1" d="M759.899 144.512L759.899 173.639"/>
<path class="l1" d="M580.284 188.202L740.481 188.202"/>
<path class="l1" d="M759.899 265.873L759.899 353.253"/>
<path class="l1" d="M279.308 494.033L289.017 494.033"/>
<path class="l1" d="M279.308 532.868L289.017 532.868"/>
<path class="l1" d="M250.181 513.45L259.89 513.45"/>
<path class="l1" d="M221.055 513.45L250.181 513.45"/>
<path class="l1" d="M298.726 513.45L327.853 513.45"/>
<path class="l1" d="M803.589 173.639L803.589 435.779"/>
<path class="l1" d="M769.608 173.639L803.589 173.639"/>
<path class="l1" d="M842.425 173.639L842.425 396.943"/>
<path class="l1" d="M803.589 173.639L842.425 173.639"/>
<path class="l1" d="M842.425 173.639L876.406 173.639"/>
<path class="l1" d="M905.533 173.639L905.533 280.437"/>
<path class="l1" d="M876.406 173.639L905.533 173.639"/>
<path class="l1" d="M759.899 280.437L890.969 280.437"/>
<path class="l1" d="M759.899 353.253L759.899 435.779"/>
<path class="l1" d="M759.899 435.779L789.026 435.779"/>
<path class="l1" d="M759.899 396.943L827.861 396.943"/>
<path class="l1" d="M759.899 338.69L861.843 338.69"/>
<path class="l1" d="M876.406 173.639L876.406 338.69"/>
<path class="l1" d="M920.096 280.437L939.514 280.437"/>
<path class="l1" d="M890.969 338.69L910.387 338.69"/>
<path class="l1" d="M856.988 396.943L876.406 396.943"/>
<path class="l1" d="M818.152 435.779L837.57 435.779"/>
<path class="l1" d="M803.589 455.197L837.57 455.197"/>
<path class="l1" d="M842.425 416.361L876.406 416.361"/>
<path class="l1" d="M876.406 358.108L910.387 358.108"/>
<path class="l1" d="M905.533 299.854L939.514 299.854"/>
<path class="l1" d="M225.909 227.038L240.472 227.038"/>
<path class="l1" d="M225.909 217.329L240.472 217.329"/>
<path class="l1" d="M225.909 207.62L240.472 207.62"/>
<path class="l1" d="M225.909 197.911L240.472 197.911"/>
<path class="l1" d="M225.909 188.202L240.472 188.202"/>
<path class="l1" d="M225.909 178.493L240.472 178.493"/>
<path class="l1" d="M225.909 168.784L240.472 168.784"/>
<path class="l1" d="M225.909 159.075L240.472 159.075"/>
<path class="l1" d="M347.27 168.784L361.834 168.784"/>
<path class="l1" d="M225.909 285.291L240.472 285.291"/>
<path class="l1" d="M934.659 285.291L983.204 285.291"/>
<path class="l1" d="M934.659 280.437L934.659 285.291"/>
<path class="l1" d="M759.899 139.657L759.899 144.512"/>
<path class="l1" d="M721.063 251.31L740.481 251.31"/>
<path class="l1" d="M225.909 236.746L240.472 236.746"/>
<path class="l1" d="M225.909 246.455L240.472 246.455"/>
<path class="l1" d="M225.909 256.164L240.472 256.164"/>
<path class="l1" d="M225.909 265.873L240.472 265.873"/>
<path class="l1" d="M483.195 197.911L483.195 212.474"/>
<path class="l1" d="M483.195 212.474L502.613 212.474"/>
<path class="l1" d="M502.613 183.348L502.613 212.474"/>
<path class="l1" d="M468.632 183.348L483.195 183.348"/>
<path class="l1" d="M468.632 159.075L468.632 183.348"/>
<path class="l1" d="M468.632 159.075L483.195 159.075"/>
<path class="l1" d="M483.195 159.075L483.195 168.784"/>
<path class="l1" d="M483.195 159.075L759.899 159.075"/>
<path class="l1" d="M478.341 474.615L483.195 474.615"/>
<path class="l1" d="M245.327 401.798L255.036 401.798"/>
<path class="l1" d="M221.055 401.798L245.327 401.798"/>
<path class="l1" d="M293.871 401.798L322.998 401.798"/>
<path class="l1" d="M546.303 159.075L546.303 236.746"/>
<path class="l1" d="M483.195 236.746L531.74 236.746"/>
<path class="l1" d="M560.866 236.746L580.284 236.746"/>
<path class="l1" d="M580.284 188.202L580.284 236.746"/>
<path class="l1" d="M546.303 256.164L546.303 285.291"/>
<path class="l1" d="M274.454 382.38L284.162 382.38"/>
<path class="l1" d="M274.454 421.216L284.162 421.216"/>
<path class="l1" d="M546.303 367.817L546.303 382.38"/>
<path class="l1" d="M560.866 367.817L580.284 367.817"/>
<path class="l1" d="M580.284 236.746L580.284 367.817"/>
<path class="l1" d="M483.195 367.817L531.74 367.817"/>
<path class="l1" d="M546.303 333.836L546.303 348.399"/>
<path class="l1" d="M439.505 295L580.284 295"/>
<path class="l1" d="M410.378 168.784L410.378 295"/>
<path class="l1" d="M361.834 168.784L410.378 168.784"/>
<path class="l1" d="M361.834 358.108L386.106 358.108"/>
<path class="l1" d="M405.524 295L405.524 343.544"/>
<path class="l1" d="M405.524 295L410.378 295"/>
<path class="l1" d="M405.524 358.108L415.233 358.108"/>
<path class="l1" d="M415.233 358.108L415.233 377.526"/>
<path class="l1" d="M405.524 377.526L415.233 377.526"/>
<path class="l1" d="M405.524 372.671L405.524 377.526"/>
<path class="l1" d="M80.2754 173.639L89.9843 173.639"/>
<path class="l1" d="M80.2754 134.803L89.9843 134.803"/>
<path class="l1" d="M99.6932 154.221L114.257 154.221"/>
<path class="l1" d="M46.2942 159.075L60.8576 159.075"/>
<path class="l1" d="M80.2754 231.892L89.9843 231.892"/>
<path class="l1" d="M80.2754 193.056L89.9843 193.056"/>
<path class="l1" d="M99.6932 212.474L114.257 212.474"/>
<path class="l1" d="M46.2942 217.329L60.8576 217.329"/>
<path class="l1" d="M46.2942 149.366L60.8576 149.366"/>
<path class="l1" d="M46.2942 207.62L60.8576 207.62"/>
<path class="l1" d="M483.195 236.746L483.195 246.455"/>
<path class="l1" d="M483.195 212.474L483.195 236.746"/>
<path class="l1" d="M483.195 246.455L483.195 367.817"/>
<path class="l1" d="M483.195 367.817L483.195 396.943"/>
<path class="l1" d="M483.195 435.779L483.195 474.615"/>
<path class="l1" d="M458.923 416.361L473.486 416.361"/>
<circle class="l1" cx="580.284" cy="236.746" r="1.94178"/>
<circle class="l1" cx="546.303" cy="159.075" r="1.94178"/>
<circle class="l1" cx="483.195" cy="159.075" r="1.94178"/>
<circle class="l1" cx="759.899" cy="159.075" r="1.94178"/>
<circle class="l1" cx="483.195" cy="159.075" r="1.94178"/>
<circle class="l1" cx="483.195" cy="159.075" r="1.94178"/>
<circle class="l1" cx="483.195" cy="212.474" r="1.94178"/>
<circle class="l1" cx="483.195" cy="367.817" r="1.94178"/>
<circle class="l1" cx="483.195" cy="367.817" r="1.94178"/>
<circle class="l1" cx="483.195" cy="212.474" r="1.94178"/>
<circle class="l1" cx="483.195" cy="236.746" r="1.94178"/>
<circle class="l1" cx="483.195" cy="236.746" r="1.94178"/>
<circle class="l1" cx="580.284" cy="295" r="1.94178"/>
<circle class="l1" cx="483.195" cy="367.817" r="1.94178"/>
<circle class="l1" cx="580.284" cy="236.746" r="1.94178"/>
<circle class="l1" cx="580.284" cy="236.746" r="1.94178"/>
<circle class="l1" cx="483.195" cy="236.746" r="1.94178"/>
<circle class="l1" cx="483.195" cy="212.474" r="1.94178"/>
<circle class="l1" cx="803.589" cy="173.639" r="1.94178"/>
<circle class="l1" cx="842.425" cy="173.639" r="1.94178"/>
<circle class="l1" cx="769.608" cy="173.639" r="1.94178"/>
<circle class="l1" cx="803.589" cy="173.639" r="1.94178"/>
<circle class="l1" cx="803.589" cy="173.639" r="1.94178"/>
<circle class="l1" cx="769.608" cy="173.639" r="1.94178"/>
<circle class="l1" cx="769.608" cy="173.639" r="1.94178"/>
<circle class="l1" cx="769.608" cy="188.202" r="1.94178"/>
<circle class="l1" cx="769.608" cy="188.202" r="1.94178"/>
<circle class="l1" cx="769.608" cy="188.202" r="1.94178"/>
<circle class="l1" cx="759.899" cy="338.69" r="1.94178"/>
<circle class="l1" cx="759.899" cy="396.943" r="1.94178"/>
<circle class="l1" cx="759.899" cy="280.437" r="1.94178"/>
<circle class="l1" cx="876.406" cy="173.639" r="1.94178"/>
<circle class="l1" cx="876.406" cy="173.639" r="1.94178"/>
<circle class="l1" cx="842.425" cy="173.639" r="1.94178"/>
<circle class="l1" cx="876.406" cy="173.639" r="1.94178"/>
<circle class="l1" cx="842.425" cy="173.639" r="1.94178"/>
<circle class="l1" cx="934.659" cy="280.437" r="1.94178"/>
</svg>
