<svg xmlns="http://www.w3.org/2000/svg" xmlns:xlink="http://www.w3.org/1999/xlink" width="1000" height="700" version="1.1">
<style type="text/css">
.l0{
 fill: #ffffff;
  stroke: #ffffff;
  stroke-linecap:round;
  stroke-linejoin:round;
  stroke-width: 0.82018;
}
.l1{
 fill: #0044ee;
  stroke: #0044ee;
  stroke-linecap:round;
  stroke-linejoin:round;
  stroke-width: 0.82018;
}
.l2{
  fill: none;
  stroke: #aaaaaa;
  stroke-linecap:round;
  stroke-linejoin:round;
  stroke-width: 0.82018;
}
.l3{
 fill: #222222; fill-opacity: 0.5;
  stroke: #222222;
  stroke-linecap:round;
  stroke-linejoin:round;
  stroke-width: 0.82018;
}
.l4{
 fill: #229900;
  stroke: #229900;
  stroke-linecap:round;
  stroke-linejoin:round;
  stroke-width: 0.82018;
}
.l5{
 fill: #bb2200;
  stroke: #bb2200;
  stroke-linecap:round;
  stroke-linejoin:round;
  stroke-width: 0.82018;
}
.l6{
 fill: #00ccee; fill-opacity: 0.5;
  stroke: #00ccee;
  stroke-linecap:round;
  stroke-linejoin:round;
  stroke-width: 0.82018;
}
.l7{
 fill: #ff0000; fill-opacity: 0.5;
  stroke: #ff0000;
  stroke-linecap:round;
  stroke-linejoin:round;
  stroke-width: 0.82018;
}
.l8{
 fill: #888800; fill-opacity: 0.5;
  stroke: #888800;
  stroke-linecap:round;
  stroke-linejoin:round;
  stroke-width: 0.82018;
}
.l9{
 fill: #00aaaa; fill-opacity: 0.5;
  stroke: #00aaaa;
  stroke-linecap:round;
  stroke-linejoin:round;
  stroke-width: 0.82018;
}
.l10{
 fill: #880088;
  stroke: #880088;
  stroke-linecap:round;
  stroke-linejoin:round;
  stroke-width: 0.82018;
}
.l11{
 fill: #00ff00; fill-opacity: 0.5;
  stroke: #00ff00;
  stroke-linecap:round;
  stroke-linejoin:round;
  stroke-width: 0.82018;
}
.l12{
 fill: #0000cc; fill-opacity: 0.5;
  stroke: #0000cc;
  stroke-linecap:round;
  stroke-linejoin:round;
  stroke-width: 0.82018;
}
.l13{
 fill: #666600; fill-opacity: 0.5;
  stroke: #666600;
  stroke-linecap:round;
  stroke-linejoin:round;
  stroke-width: 0.82018;
}
.l14{
  fill: none;
  stroke: #557755;
  stroke-linecap:round;
  stroke-linejoin:round;
  stroke-width: 0.82018;
}
.l15{
 fill: #aa2222; fill-opacity: 0.5;
  stroke: #aa2222;
  stroke-linecap:round;
  stroke-linejoin:round;
  stroke-width: 0.82018;
}
.l16{
 fill: #7ccc40; fill-opacity: 0.5;
  stroke: #7ccc40;
  stroke-linecap:round;
  stroke-linejoin:round;
  stroke-width: 0.82018;
}
.l17{
  fill: none;
  stroke: #00ffcc;
  stroke-linecap:round;
  stroke-linejoin:round;
  stroke-width: 0.82018;
}
.l18{
 fill: #ce0097; fill-opacity: 0.5;
  stroke: #ce0097;
  stroke-linecap:round;
  stroke-linejoin:round;
  stroke-width: 0.82018;
}
.l19{
  fill: none;
  stroke: #d2d46b;
  stroke-linecap:round;
  stroke-linejoin:round;
  stroke-width: 0.82018;
}
.l20{
  fill: none;
  stroke: #ef6158;
  stroke-linecap:round;
  stroke-linejoin:round;
  stroke-width: 0.82018;
}
.l21{
  fill: none;
  stroke: #fdb200;
  stroke-linecap:round;
  stroke-linejoin:round;
  stroke-width: 0.82018;
}
text {font-family: Sans-Serif;}
</style>
<rect class="l0" x="0" y="0" width="1000" height="700"/>
<text fill="#0044ee"  xml:space="preserve" font-size="13.0318" transform="translate(304.271, 22.3328)" >VDD_1V8</text>
<text fill="#0044ee"  xml:space="preserve" font-size="13.0318" transform="translate(337.931, 683.034)" >VSS</text>
<text fill="#0044ee"  xml:space="preserve" font-size="13.0318" transform="translate(320.28, 280.538)" >CHP_IP</text>
<text fill="#0044ee"  xml:space="preserve" font-size="13.0318" transform="translate(320.28, 348.886)" >CHP_IN</text>
<text fill="#0044ee"  xml:space="preserve" font-size="13.0318" transform="translate(311.865, 508.366)" >CHP_1V8</text>
<text fill="#0044ee"  xml:space="preserve" font-size="13.0318" transform="translate(643.214, 280.538)" >CHP_IP</text>
<text fill="#0044ee"  xml:space="preserve" font-size="13.0318" transform="translate(643.214, 348.886)" >CHP_IN</text>
<path class="l5" d="M373.618 17.145L377.415 17.145"/>
<path class="l5" d="M373.618 17.145L370.77 13.3478L364.125 13.3478L366.973 17.145L364.125 20.9421L370.77 20.9421L373.618 17.145"/>
<path class="l5" d="M376.466 16.1957L378.365 16.1957L378.365 18.0943L376.466 18.0943L376.466 16.1957z"/>
<path class="l5" d="M373.618 677.846L377.415 677.846"/>
<path class="l5" d="M373.618 677.846L370.77 674.049L364.125 674.049L366.973 677.846L364.125 681.643L370.77 681.643L373.618 677.846"/>
<path class="l5" d="M376.466 676.896L378.365 676.896L378.365 678.795L376.466 678.795L376.466 676.896z"/>
<path class="l5" d="M381.212 275.35L385.01 275.35"/>
<path class="l5" d="M381.212 275.35L378.365 271.553L371.72 271.553L374.567 275.35L371.72 279.147L378.365 279.147L381.212 275.35"/>
<path class="l5" d="M384.06 274.401L385.959 274.401L385.959 276.299L384.06 276.299L384.06 274.401z"/>
<path class="l5" d="M381.212 343.698L385.01 343.698"/>
<path class="l5" d="M381.212 343.698L378.365 339.901L371.72 339.901L374.567 343.698L371.72 347.495L378.365 347.495L381.212 343.698"/>
<path class="l5" d="M384.06 342.749L385.959 342.749L385.959 344.647L384.06 344.647L384.06 342.749z"/>
<path class="l5" d="M381.212 503.178L385.01 503.178"/>
<path class="l5" d="M381.212 503.178L378.365 499.381L371.72 499.381L374.567 503.178L371.72 506.975L378.365 506.975L381.212 503.178"/>
<path class="l5" d="M384.06 502.228L385.959 502.228L385.959 504.127L384.06 504.127L384.06 502.228z"/>
<path class="l5" d="M628.026 275.35L634.671 275.35"/>
<path class="l5" d="M641.316 275.35L638.468 271.553L631.823 271.553L634.671 275.35L631.823 279.147L638.468 279.147L641.316 275.35"/>
<path class="l5" d="M627.077 274.401L628.975 274.401L628.975 276.299L627.077 276.299L627.077 274.401z"/>
<path class="l5" d="M628.026 343.698L634.671 343.698"/>
<path class="l5" d="M641.316 343.698L638.468 339.901L631.823 339.901L634.671 343.698L631.823 347.495L638.468 347.495L641.316 343.698"/>
<path class="l5" d="M627.077 342.749L628.975 342.749L628.975 344.647L627.077 344.647L627.077 342.749z"/>
</svg>
