<svg xmlns="http://www.w3.org/2000/svg" xmlns:xlink="http://www.w3.org/1999/xlink" width="1000" height="700" version="1.1">
<style type="text/css">
.l0{
 fill: #ffffff;
  stroke: #ffffff;
  stroke-linecap:round;
  stroke-linejoin:round;
  stroke-width: 0.60907;
}
.l1{
 fill: #0044ee;
  stroke: #0044ee;
  stroke-linecap:round;
  stroke-linejoin:round;
  stroke-width: 0.60907;
}
.l2{
  fill: none;
  stroke: #aaaaaa;
  stroke-linecap:round;
  stroke-linejoin:round;
  stroke-width: 0.60907;
}
.l3{
 fill: #222222; fill-opacity: 0.5;
  stroke: #222222;
  stroke-linecap:round;
  stroke-linejoin:round;
  stroke-width: 0.60907;
}
.l4{
 fill: #229900;
  stroke: #229900;
  stroke-linecap:round;
  stroke-linejoin:round;
  stroke-width: 0.60907;
}
.l5{
 fill: #bb2200;
  stroke: #bb2200;
  stroke-linecap:round;
  stroke-linejoin:round;
  stroke-width: 0.60907;
}
.l6{
 fill: #00ccee; fill-opacity: 0.5;
  stroke: #00ccee;
  stroke-linecap:round;
  stroke-linejoin:round;
  stroke-width: 0.60907;
}
.l7{
 fill: #ff0000; fill-opacity: 0.5;
  stroke: #ff0000;
  stroke-linecap:round;
  stroke-linejoin:round;
  stroke-width: 0.60907;
}
.l8{
 fill: #888800; fill-opacity: 0.5;
  stroke: #888800;
  stroke-linecap:round;
  stroke-linejoin:round;
  stroke-width: 0.60907;
}
.l9{
 fill: #00aaaa; fill-opacity: 0.5;
  stroke: #00aaaa;
  stroke-linecap:round;
  stroke-linejoin:round;
  stroke-width: 0.60907;
}
.l10{
 fill: #880088;
  stroke: #880088;
  stroke-linecap:round;
  stroke-linejoin:round;
  stroke-width: 0.60907;
}
.l11{
 fill: #00ff00; fill-opacity: 0.5;
  stroke: #00ff00;
  stroke-linecap:round;
  stroke-linejoin:round;
  stroke-width: 0.60907;
}
.l12{
 fill: #0000cc; fill-opacity: 0.5;
  stroke: #0000cc;
  stroke-linecap:round;
  stroke-linejoin:round;
  stroke-width: 0.60907;
}
.l13{
 fill: #666600; fill-opacity: 0.5;
  stroke: #666600;
  stroke-linecap:round;
  stroke-linejoin:round;
  stroke-width: 0.60907;
}
.l14{
  fill: none;
  stroke: #557755;
  stroke-linecap:round;
  stroke-linejoin:round;
  stroke-width: 0.60907;
}
.l15{
 fill: #aa2222; fill-opacity: 0.5;
  stroke: #aa2222;
  stroke-linecap:round;
  stroke-linejoin:round;
  stroke-width: 0.60907;
}
.l16{
 fill: #7ccc40; fill-opacity: 0.5;
  stroke: #7ccc40;
  stroke-linecap:round;
  stroke-linejoin:round;
  stroke-width: 0.60907;
}
.l17{
  fill: none;
  stroke: #00ffcc;
  stroke-linecap:round;
  stroke-linejoin:round;
  stroke-width: 0.60907;
}
.l18{
 fill: #ce0097; fill-opacity: 0.5;
  stroke: #ce0097;
  stroke-linecap:round;
  stroke-linejoin:round;
  stroke-width: 0.60907;
}
.l19{
  fill: none;
  stroke: #d2d46b;
  stroke-linecap:round;
  stroke-linejoin:round;
  stroke-width: 0.60907;
}
.l20{
  fill: none;
  stroke: #ef6158;
  stroke-linecap:round;
  stroke-linejoin:round;
  stroke-width: 0.60907;
}
.l21{
  fill: none;
  stroke: #fdb200;
  stroke-linecap:round;
  stroke-linejoin:round;
  stroke-width: 0.60907;
}
text {font-family: Sans-Serif;}
</style>
<rect class="l0" x="0" y="0" width="1000" height="700"/>
<text fill="#0044ee"  xml:space="preserve" font-size="9.67744" transform="translate(190.708, 270.848)" >VLPF</text>
<text fill="#0044ee"  xml:space="preserve" font-size="9.67744" transform="translate(190.708, 141.139)" >AVDD</text>
<text fill="#0044ee"  xml:space="preserve" font-size="9.67744" transform="translate(583.183, 475.455)" >VN5</text>
<text fill="#0044ee"  xml:space="preserve" font-size="9.67744" transform="translate(182.293, 197.534)" >VLPFZ</text>
<text fill="#222222"  xml:space="preserve" font-size="7.3314" transform="translate(827.093, 614.863)" >Updated</text>
<text fill="#222222"  xml:space="preserve" font-size="7.3314" transform="translate(29.0988, 648.7)" >Library/Cell</text>
<text fill="#222222"  xml:space="preserve" font-size="7.3314" transform="translate(827.093, 603.584)" >Designer</text>
<text fill="#222222"  xml:space="preserve" font-size="7.3314" transform="translate(827.093, 626.142)" >Modified</text>
<text fill="#222222"  xml:space="preserve" font-size="7.3314" transform="translate(829.913, 637.421)" >Copyright</text>
<text fill="#222222"  xml:space="preserve" font-size="7.3314" transform="translate(872.209, 614.863)" >wulff</text>
<text fill="#222222"  xml:space="preserve" font-size="7.3314" transform="translate(872.209, 626.142)" >2024-07-14  11:20:45</text>
<text fill="#222222"  xml:space="preserve" font-size="7.3314" transform="translate(93.9535, 648.7)" >JNWG00_LPF</text>
<text fill="#222222"  xml:space="preserve" font-size="5.86512" transform="translate(574.732, 175.174) rotate(270)" >A</text>
<text fill="#222222"  xml:space="preserve" font-size="5.86512" transform="translate(575.82, 146.437) rotate(270)" >B</text>
<text fill="#222222"  xml:space="preserve" font-size="7.3314" transform="translate(595.872, 153.684)" >CAP_LPF</text>
<text fill="#222222"  xml:space="preserve" font-size="7.3314" transform="translate(595.872, 145.225)" >M=</text>
<text fill="#222222"  xml:space="preserve" font-size="5.86512" transform="translate(595.872, 162.494)" >xb3[21:0]</text>
<text fill="#222222"  xml:space="preserve" font-size="5.86512" transform="translate(411.185, 175.174) rotate(270)" >A</text>
<text fill="#222222"  xml:space="preserve" font-size="5.86512" transform="translate(412.273, 146.437) rotate(270)" >B</text>
<text fill="#222222"  xml:space="preserve" font-size="7.3314" transform="translate(432.326, 153.684)" >CAP_LPF</text>
<text fill="#222222"  xml:space="preserve" font-size="7.3314" transform="translate(432.326, 145.225)" >M=</text>
<text fill="#222222"  xml:space="preserve" font-size="5.86512" transform="translate(432.326, 162.494)" >xb2[1:0]</text>
<text fill="#222222"  xml:space="preserve" font-size="5.86512" transform="translate(281.476, 175.174) rotate(270)" >A</text>
<text fill="#222222"  xml:space="preserve" font-size="5.86512" transform="translate(282.564, 146.437) rotate(270)" >B</text>
<text fill="#222222"  xml:space="preserve" font-size="7.3314" transform="translate(302.616, 153.684)" >CAP_LPF</text>
<text fill="#222222"  xml:space="preserve" font-size="7.3314" transform="translate(302.616, 145.225)" >M=1</text>
<text fill="#222222"  xml:space="preserve" font-size="5.86512" transform="translate(302.616, 162.494)" >xb1</text>
<text fill="#222222"  xml:space="preserve" font-size="4.39884" transform="translate(591.601, 431.969) rotate(270)" >xa2</text>
<text fill="#222222"  xml:space="preserve" font-size="4.39884" transform="translate(597.24, 462.569) rotate(270)" >SUNTR_RPPO8</text>
<text fill="#222222"  xml:space="preserve" font-size="4.39884" transform="translate(591.601, 522.006) rotate(270)" >xa1</text>
<text fill="#222222"  xml:space="preserve" font-size="4.39884" transform="translate(597.24, 522.006) rotate(270)" >SUNTR_RPPO8</text>
<path class="l4" d="M866.57 606.599L866.57 617.878"/>
<path class="l4" d="M793.256 640.436L793.256 651.715"/>
<path class="l4" d="M906.047 640.436L906.047 651.715"/>
<path class="l4" d="M680.465 640.436L680.465 651.715"/>
<path class="l4" d="M91.1337 640.436L91.1337 651.715"/>
<path class="l4" d="M15 640.436L26.2791 640.436"/>
<path class="l4" d="M26.2791 640.436L26.2791 651.715"/>
<path class="l4" d="M973.721 640.436L985 640.436"/>
<path class="l4" d="M973.721 640.436L973.721 651.715"/>
<path class="l4" d="M866.57 595.32L866.57 606.599"/>
<path class="l4" d="M866.57 617.878L866.57 629.157"/>
<path class="l4" style="fill:none;" d="M824.273 640.436L985 640.436L985 595.32L824.273 595.32L824.273 640.436"/>
<path class="l4" style="fill:none;" d="M15 651.715L985 651.715L985 48.2849L15 48.2849L15 651.715"/>
<path class="l4" style="fill:none;" d="M824.273 606.599L973.721 606.599L973.721 595.32L824.273 595.32L824.273 606.599"/>
<path class="l4" style="fill:none;" d="M15 651.715L985 651.715L985 640.436L15 640.436L15 651.715"/>
<path class="l4" style="fill:none;" d="M824.273 640.436L973.721 640.436L973.721 629.157L824.273 629.157L824.273 640.436"/>
<path class="l4" style="fill:none;" d="M824.273 629.157L973.721 629.157L973.721 617.878L824.273 617.878L824.273 629.157"/>
<path class="l4" style="fill:none;" d="M824.273 617.878L973.721 617.878L973.721 606.599L824.273 606.599L824.273 617.878"/>
<path class="l4" d="M578.953 166.715L578.953 177.994"/>
<path class="l4" d="M578.953 138.517L578.953 149.797"/>
<path class="l4" d="M567.674 161.076L590.233 161.076"/>
<path class="l4" d="M567.674 155.436L590.233 155.436"/>
<path class="l4" d="M578.953 161.076L578.953 166.715"/>
<path class="l4" d="M578.953 149.797L578.953 155.436"/>
<path class="l4" d="M415.407 166.715L415.407 177.994"/>
<path class="l4" d="M415.407 138.517L415.407 149.797"/>
<path class="l4" d="M404.128 161.076L426.686 161.076"/>
<path class="l4" d="M404.128 155.436L426.686 155.436"/>
<path class="l4" d="M415.407 161.076L415.407 166.715"/>
<path class="l4" d="M415.407 149.797L415.407 155.436"/>
<path class="l4" d="M285.698 166.715L285.698 177.994"/>
<path class="l4" d="M285.698 138.517L285.698 149.797"/>
<path class="l4" d="M274.419 161.076L296.977 161.076"/>
<path class="l4" d="M274.419 155.436L296.977 155.436"/>
<path class="l4" d="M285.698 161.076L285.698 166.715"/>
<path class="l4" d="M285.698 149.797L285.698 155.436"/>
<path class="l4" d="M567.674 437.413L576.134 437.413"/>
<path class="l4" d="M578.953 454.331L578.953 459.971"/>
<path class="l4" d="M578.953 414.855L578.953 420.494"/>
<path class="l4" d="M575.006 430.645L575.006 444.18"/>
<path class="l4" d="M578.953 450.948L578.953 454.331"/>
<path class="l4" d="M578.953 420.494L578.953 423.878"/>
<path class="l4" d="M575.57 425.57L578.953 423.878"/>
<path class="l4" d="M575.57 425.57L582.337 428.953"/>
<path class="l4" d="M575.57 432.337L582.337 428.953"/>
<path class="l4" d="M575.57 432.337L582.337 435.721"/>
<path class="l4" d="M575.57 439.105L582.337 435.721"/>
<path class="l4" d="M575.57 439.105L582.337 442.488"/>
<path class="l4" d="M575.57 445.872L582.337 442.488"/>
<path class="l4" d="M575.57 445.872L582.337 449.256"/>
<path class="l4" d="M578.953 450.948L582.337 449.256"/>
<path class="l4" d="M567.674 505.087L576.134 505.087"/>
<path class="l4" d="M578.953 482.529L578.953 488.169"/>
<path class="l4" d="M578.953 522.006L578.953 527.645"/>
<path class="l4" d="M575.006 498.32L575.006 511.855"/>
<path class="l4" d="M578.953 488.169L578.953 491.552"/>
<path class="l4" d="M578.953 518.622L578.953 522.006"/>
<path class="l4" d="M575.57 516.93L578.953 518.622"/>
<path class="l4" d="M575.57 516.93L582.337 513.547"/>
<path class="l4" d="M575.57 510.163L582.337 513.547"/>
<path class="l4" d="M575.57 510.163L582.337 506.779"/>
<path class="l4" d="M575.57 503.395L582.337 506.779"/>
<path class="l4" d="M575.57 503.395L582.337 500.012"/>
<path class="l4" d="M575.57 496.628L582.337 500.012"/>
<path class="l4" d="M575.57 496.628L582.337 493.244"/>
<path class="l4" d="M578.953 491.552L582.337 493.244"/>
<path class="l5" d="M232.122 268.227L234.942 268.227"/>
<path class="l5" d="M232.122 268.227L230.007 271.047L225.073 271.047L227.188 268.227L225.073 265.407L230.007 265.407L232.122 268.227"/>
<path class="l5" d="M234.237 267.522L235.647 267.522L235.647 268.932L234.237 268.932L234.237 267.522z"/>
<path class="l5" d="M232.122 138.517L234.942 138.517"/>
<path class="l5" d="M232.122 138.517L230.007 141.337L225.073 141.337L227.188 138.517L225.073 135.698L230.007 135.698L232.122 138.517"/>
<path class="l5" d="M234.237 137.812L235.647 137.812L235.647 139.222L234.237 139.222L234.237 137.812z"/>
<path class="l5" d="M577.544 176.584L580.363 176.584L580.363 179.404L577.544 179.404L577.544 176.584z"/>
<path class="l5" d="M577.544 137.108L580.363 137.108L580.363 139.927L577.544 139.927L577.544 137.108z"/>
<path class="l5" d="M413.997 176.584L416.817 176.584L416.817 179.404L413.997 179.404L413.997 176.584z"/>
<path class="l5" d="M413.997 137.108L416.817 137.108L416.817 139.927L413.997 139.927L413.997 137.108z"/>
<path class="l5" d="M284.288 176.584L287.108 176.584L287.108 179.404L284.288 179.404L284.288 176.584z"/>
<path class="l5" d="M284.288 137.108L287.108 137.108L287.108 139.927L284.288 139.927L284.288 137.108z"/>
<path class="l5" d="M576.698 457.715L581.209 457.715L581.209 462.227L576.698 462.227L576.698 457.715z"/>
<path class="l5" d="M576.698 412.599L581.209 412.599L581.209 417.11L576.698 417.11L576.698 412.599z"/>
<path class="l5" d="M565.419 435.157L569.93 435.157L569.93 439.669L565.419 439.669L565.419 435.157z"/>
<path class="l5" d="M576.698 480.273L581.209 480.273L581.209 484.785L576.698 484.785L576.698 480.273z"/>
<path class="l5" d="M576.698 525.39L581.209 525.39L581.209 529.901L576.698 529.901L576.698 525.39z"/>
<path class="l5" d="M565.419 502.831L569.93 502.831L569.93 507.343L565.419 507.343L565.419 502.831z"/>
<path class="l5" d="M578.249 470.545L579.658 470.545L579.658 471.955L578.249 471.955L578.249 470.545z"/>
<path class="l5" d="M232.122 194.913L234.942 194.913"/>
<path class="l5" d="M232.122 194.913L230.007 197.733L225.073 197.733L227.188 194.913L225.073 192.093L230.007 192.093L232.122 194.913"/>
<path class="l5" d="M234.237 194.208L235.647 194.208L235.647 195.618L234.237 195.618L234.237 194.208z"/>
<path class="l1" d="M578.953 177.994L578.953 223.11"/>
<path class="l1" d="M533.837 138.517L533.837 245.669"/>
<path class="l1" d="M533.837 138.517L578.953 138.517"/>
<path class="l1" d="M285.698 138.517L533.837 138.517"/>
<path class="l1" d="M285.698 177.994L285.698 268.227"/>
<path class="l1" d="M229.302 138.517L285.698 138.517"/>
<path class="l1" d="M229.302 268.227L285.698 268.227"/>
<path class="l1" d="M415.407 177.994L415.407 268.227"/>
<path class="l1" d="M415.407 268.227L415.407 335.901"/>
<path class="l1" d="M285.698 268.227L285.698 335.901"/>
<path class="l1" d="M285.698 335.901L415.407 335.901"/>
<path class="l1" d="M533.837 437.413L567.674 437.413"/>
<path class="l1" d="M533.837 313.343L533.837 437.413"/>
<path class="l1" d="M578.953 397.936L578.953 414.855"/>
<path class="l1" d="M415.407 335.901L415.407 459.971"/>
<path class="l1" d="M533.837 505.087L567.674 505.087"/>
<path class="l1" d="M533.837 437.413L533.837 505.087"/>
<path class="l1" d="M415.407 527.645L578.953 527.645"/>
<path class="l1" d="M415.407 459.971L415.407 527.645"/>
<path class="l1" d="M578.953 459.971L578.953 482.529"/>
<path class="l1" d="M229.302 194.913L578.953 194.913"/>
<path class="l1" d="M578.953 223.11L578.953 397.936"/>
<path class="l1" d="M533.837 245.669L533.837 313.343"/>
<circle class="l1" cx="578.953" cy="194.913" r="2.25581"/>
<circle class="l1" cx="285.698" cy="268.227" r="2.25581"/>
<circle class="l1" cx="285.698" cy="268.227" r="2.25581"/>
<circle class="l1" cx="533.837" cy="138.517" r="2.25581"/>
<circle class="l1" cx="415.407" cy="335.901" r="2.25581"/>
<circle class="l1" cx="415.407" cy="335.901" r="2.25581"/>
<circle class="l1" cx="285.698" cy="268.227" r="2.25581"/>
<circle class="l1" cx="415.407" cy="335.901" r="2.25581"/>
<circle class="l1" cx="533.837" cy="138.517" r="2.25581"/>
<circle class="l1" cx="533.837" cy="138.517" r="2.25581"/>
<circle class="l1" cx="533.837" cy="437.413" r="2.25581"/>
<circle class="l1" cx="533.837" cy="437.413" r="2.25581"/>
<circle class="l1" cx="533.837" cy="437.413" r="2.25581"/>
</svg>
