<svg xmlns="http://www.w3.org/2000/svg" xmlns:xlink="http://www.w3.org/1999/xlink" width="1000" height="700" version="1.1">
<style type="text/css">
.l0{
 fill: #ffffff;
  stroke: #ffffff;
  stroke-linecap:round;
  stroke-linejoin:round;
  stroke-width: 0.60907;
}
.l1{
 fill: #0044ee;
  stroke: #0044ee;
  stroke-linecap:round;
  stroke-linejoin:round;
  stroke-width: 0.60907;
}
.l2{
  fill: none;
  stroke: #aaaaaa;
  stroke-linecap:round;
  stroke-linejoin:round;
  stroke-width: 0.60907;
}
.l3{
 fill: #222222; fill-opacity: 0.5;
  stroke: #222222;
  stroke-linecap:round;
  stroke-linejoin:round;
  stroke-width: 0.60907;
}
.l4{
 fill: #229900;
  stroke: #229900;
  stroke-linecap:round;
  stroke-linejoin:round;
  stroke-width: 0.60907;
}
.l5{
 fill: #bb2200;
  stroke: #bb2200;
  stroke-linecap:round;
  stroke-linejoin:round;
  stroke-width: 0.60907;
}
.l6{
 fill: #00ccee; fill-opacity: 0.5;
  stroke: #00ccee;
  stroke-linecap:round;
  stroke-linejoin:round;
  stroke-width: 0.60907;
}
.l7{
 fill: #ff0000; fill-opacity: 0.5;
  stroke: #ff0000;
  stroke-linecap:round;
  stroke-linejoin:round;
  stroke-width: 0.60907;
}
.l8{
 fill: #888800; fill-opacity: 0.5;
  stroke: #888800;
  stroke-linecap:round;
  stroke-linejoin:round;
  stroke-width: 0.60907;
}
.l9{
 fill: #00aaaa; fill-opacity: 0.5;
  stroke: #00aaaa;
  stroke-linecap:round;
  stroke-linejoin:round;
  stroke-width: 0.60907;
}
.l10{
 fill: #880088;
  stroke: #880088;
  stroke-linecap:round;
  stroke-linejoin:round;
  stroke-width: 0.60907;
}
.l11{
 fill: #00ff00; fill-opacity: 0.5;
  stroke: #00ff00;
  stroke-linecap:round;
  stroke-linejoin:round;
  stroke-width: 0.60907;
}
.l12{
 fill: #0000cc; fill-opacity: 0.5;
  stroke: #0000cc;
  stroke-linecap:round;
  stroke-linejoin:round;
  stroke-width: 0.60907;
}
.l13{
 fill: #666600; fill-opacity: 0.5;
  stroke: #666600;
  stroke-linecap:round;
  stroke-linejoin:round;
  stroke-width: 0.60907;
}
.l14{
  fill: none;
  stroke: #557755;
  stroke-linecap:round;
  stroke-linejoin:round;
  stroke-width: 0.60907;
}
.l15{
 fill: #aa2222; fill-opacity: 0.5;
  stroke: #aa2222;
  stroke-linecap:round;
  stroke-linejoin:round;
  stroke-width: 0.60907;
}
.l16{
 fill: #7ccc40; fill-opacity: 0.5;
  stroke: #7ccc40;
  stroke-linecap:round;
  stroke-linejoin:round;
  stroke-width: 0.60907;
}
.l17{
  fill: none;
  stroke: #00ffcc;
  stroke-linecap:round;
  stroke-linejoin:round;
  stroke-width: 0.60907;
}
.l18{
 fill: #ce0097; fill-opacity: 0.5;
  stroke: #ce0097;
  stroke-linecap:round;
  stroke-linejoin:round;
  stroke-width: 0.60907;
}
.l19{
  fill: none;
  stroke: #d2d46b;
  stroke-linecap:round;
  stroke-linejoin:round;
  stroke-width: 0.60907;
}
.l20{
  fill: none;
  stroke: #ef6158;
  stroke-linecap:round;
  stroke-linejoin:round;
  stroke-width: 0.60907;
}
.l21{
  fill: none;
  stroke: #fdb200;
  stroke-linecap:round;
  stroke-linejoin:round;
  stroke-width: 0.60907;
}
text {font-family: Sans-Serif;}
</style>
<rect class="l0" x="0" y="0" width="1000" height="700"/>
<text fill="#0044ee"  xml:space="preserve" font-size="9.67744" transform="translate(-3.72331, 142.37)" >VDD_1V8</text>
<text fill="#0044ee"  xml:space="preserve" font-size="9.67744" transform="translate(35.5762, 373.591)" >VSS</text>
<text fill="#0044ee"  xml:space="preserve" font-size="7.91791" transform="translate(355.181, 164.118)" >IDAC_O[3:0]</text>
<text fill="#0044ee"  xml:space="preserve" font-size="7.91791" transform="translate(261.8, 305.106)" >IDAC_O[0]</text>
<text fill="#0044ee"  xml:space="preserve" font-size="9.67744" transform="translate(151.851, 204.405)" >IDAC_FINE_1V8[7:0]</text>
<text fill="#0044ee"  xml:space="preserve" font-size="9.67744" transform="translate(135.021, 215.684)" >IDAC_COARSE_1V8[7:0]</text>
<text fill="#0044ee"  xml:space="preserve" font-size="9.67744" transform="translate(160.266, 226.963)" >IDAC_O_N_1V8[3:0]</text>
<text fill="#0044ee"  xml:space="preserve" font-size="7.91791" transform="translate(291.83, 254.35)" >VSS</text>
<text fill="#0044ee"  xml:space="preserve" font-size="7.91791" transform="translate(250.52, 243.071)" >PWRUP_1V8</text>
<text fill="#0044ee"  xml:space="preserve" font-size="7.91791" transform="translate(264.29, 186.676)" >VDD_1V8</text>
<text fill="#0044ee"  xml:space="preserve" font-size="9.67744" transform="translate(137.354, 390.51)" >RES_N_1V8</text>
<text fill="#0044ee"  xml:space="preserve" font-size="9.67744" transform="translate(86.8637, 413.068)" >DIODES_1V8[7:0]</text>
<text fill="#0044ee"  xml:space="preserve" font-size="7.91791" transform="translate(195.958, 417.897)" >VSS</text>
<text fill="#0044ee"  xml:space="preserve" font-size="7.91791" transform="translate(427.179, 423.536)" >VSS</text>
<text fill="#0044ee"  xml:space="preserve" font-size="7.91791" transform="translate(624.563, 423.536)" >VSS</text>
<text fill="#0044ee"  xml:space="preserve" font-size="7.91791" transform="translate(399.639, 355.862)" >VDD_1V8</text>
<text fill="#0044ee"  xml:space="preserve" font-size="7.91791" transform="translate(597.023, 355.862)" >VDD_1V8</text>
<text fill="#0044ee"  xml:space="preserve" font-size="9.67744" transform="translate(379.765, 379.23)" >C1A_1V8</text>
<text fill="#0044ee"  xml:space="preserve" font-size="9.67744" transform="translate(379.765, 396.149)" >C1B_1V8</text>
<text fill="#0044ee"  xml:space="preserve" font-size="9.67744" transform="translate(582.788, 379.23)" >C2A_1V8</text>
<text fill="#0044ee"  xml:space="preserve" font-size="9.67744" transform="translate(582.788, 396.149)" >C2B_1V8</text>
<text fill="#0044ee"  xml:space="preserve" font-size="7.91791" transform="translate(470.462, 305.106)" >IDAC_O[0]</text>
<text fill="#0044ee"  xml:space="preserve" font-size="7.91791" transform="translate(667.846, 305.106)" >IDAC_O[0]</text>
<text fill="#0044ee"  xml:space="preserve" font-size="7.91791" transform="translate(575.053, 338.943)" >VP</text>
<text fill="#0044ee"  xml:space="preserve" font-size="7.91791" transform="translate(772.436, 338.943)" >VN</text>
<text fill="#0044ee"  xml:space="preserve" font-size="9.67744" transform="translate(601.512, 345.393)" >VP</text>
<text fill="#0044ee"  xml:space="preserve" font-size="9.67744" transform="translate(798.895, 345.393)" >VN</text>
<text fill="#0044ee"  xml:space="preserve" font-size="9.67744" transform="translate(-14.9138, 283.358)" >PWRUP_1V8</text>
<text fill="#0044ee"  xml:space="preserve" font-size="9.67744" transform="translate(827.093, 238.242)" >IBP</text>
<text fill="#0044ee"  xml:space="preserve" font-size="7.91791" transform="translate(662.207, 231.792)" >IDAC_O[1]</text>
<text fill="#0044ee"  xml:space="preserve" font-size="9.67744" transform="translate(128.939, 373.591)" >R_IBPS_1V8</text>
<text fill="#222222"  xml:space="preserve" font-size="8.79767" transform="translate(300.078, 423.689)" >JNWG00_BDAC</text>
<text fill="#222222"  xml:space="preserve" font-size="5.86512" transform="translate(390.029, 399.314)" >x2</text>
<text fill="#222222"  xml:space="preserve" font-size="8.79767" transform="translate(274.701, 411)" >---MISSING SYMBOL---</text>
<text fill="#222222"  xml:space="preserve" font-size="8.79767" transform="translate(322.637, 243.224)" >JNWG00_IDAC</text>
<text fill="#222222"  xml:space="preserve" font-size="5.86512" transform="translate(412.587, 218.849)" >x1</text>
<text fill="#222222"  xml:space="preserve" font-size="8.79767" transform="translate(297.259, 230.535)" >---MISSING SYMBOL---</text>
<text fill="#222222"  xml:space="preserve" font-size="8.79767" transform="translate(486.183, 412.41)" >JNWG00_CCELL</text>
<text fill="#222222"  xml:space="preserve" font-size="5.86512" transform="translate(576.134, 388.035)" >x3</text>
<text fill="#222222"  xml:space="preserve" font-size="8.79767" transform="translate(460.805, 399.721)" >---MISSING SYMBOL---</text>
<text fill="#222222"  xml:space="preserve" font-size="8.79767" transform="translate(683.567, 412.41)" >JNWG00_CCELL</text>
<text fill="#222222"  xml:space="preserve" font-size="5.86512" transform="translate(773.517, 388.035)" >x4</text>
<text fill="#222222"  xml:space="preserve" font-size="8.79767" transform="translate(658.189, 399.721)" >---MISSING SYMBOL---</text>
<text fill="#222222"  xml:space="preserve" font-size="5.86512" transform="translate(777.05, 225.93) rotate(270)" >R1</text>
<text fill="#222222"  xml:space="preserve" font-size="5.86512" transform="translate(771.411, 247.949) rotate(270)" >1</text>
<text fill="#666600"  xml:space="preserve" font-size="5.86512" transform="translate(784.1, 228.75) rotate(270)" >1</text>
<text fill="#666600"  xml:space="preserve" font-size="5.86512" transform="translate(760.132, 228.75) rotate(270)" >2</text>
<text fill="#222222"  xml:space="preserve" font-size="5.86512" transform="translate(768.591, 225.93) rotate(270)" >m=1</text>
<text fill="#222222"  xml:space="preserve" font-size="7.3314" transform="translate(827.093, 614.863)" >Updated</text>
<text fill="#222222"  xml:space="preserve" font-size="7.3314" transform="translate(29.0988, 648.7)" >Library/Cell</text>
<text fill="#222222"  xml:space="preserve" font-size="7.3314" transform="translate(827.093, 603.584)" >Designer</text>
<text fill="#222222"  xml:space="preserve" font-size="7.3314" transform="translate(827.093, 626.142)" >Modified</text>
<text fill="#222222"  xml:space="preserve" font-size="7.3314" transform="translate(829.913, 637.421)" >Copyright</text>
<text fill="#222222"  xml:space="preserve" font-size="7.3314" transform="translate(872.209, 614.863)" >wulff</text>
<text fill="#222222"  xml:space="preserve" font-size="7.3314" transform="translate(872.209, 626.142)" >2024-07-23  21:16:17</text>
<text fill="#222222"  xml:space="preserve" font-size="7.3314" transform="translate(93.9535, 648.7)" >JNWG00_CORE</text>
<path class="l4" d="M753.779 234.39L759.419 234.39"/>
<path class="l4" d="M759.419 234.39L760.828 238.619"/>
<path class="l4" d="M760.828 238.619L763.648 230.16"/>
<path class="l4" d="M763.648 230.16L766.468 238.619"/>
<path class="l4" d="M766.468 238.619L769.288 230.16"/>
<path class="l4" d="M769.288 230.16L772.108 238.619"/>
<path class="l4" d="M772.108 238.619L774.927 230.16"/>
<path class="l4" d="M774.927 230.16L777.747 238.619"/>
<path class="l4" d="M777.747 238.619L780.567 230.16"/>
<path class="l4" d="M780.567 230.16L781.977 234.39"/>
<path class="l4" d="M781.977 234.39L787.616 234.39"/>
<path class="l4" d="M783.387 235.799L783.387 238.619"/>
<path class="l4" d="M781.977 237.209L784.797 237.209"/>
<path class="l4" d="M866.57 606.599L866.57 617.878"/>
<path class="l4" d="M793.256 640.436L793.256 651.715"/>
<path class="l4" d="M906.047 640.436L906.047 651.715"/>
<path class="l4" d="M680.465 640.436L680.465 651.715"/>
<path class="l4" d="M91.1337 640.436L91.1337 651.715"/>
<path class="l4" d="M15 640.436L26.2791 640.436"/>
<path class="l4" d="M26.2791 640.436L26.2791 651.715"/>
<path class="l4" d="M973.721 640.436L985 640.436"/>
<path class="l4" d="M973.721 640.436L973.721 651.715"/>
<path class="l4" d="M866.57 595.32L866.57 606.599"/>
<path class="l4" d="M866.57 617.878L866.57 629.157"/>
<path class="l4" style="fill:none;" d="M824.273 640.436L985 640.436L985 595.32L824.273 595.32L824.273 640.436"/>
<path class="l4" style="fill:none;" d="M15 651.715L985 651.715L985 48.2849L15 48.2849L15 651.715"/>
<path class="l4" style="fill:none;" d="M824.273 606.599L973.721 606.599L973.721 595.32L824.273 595.32L824.273 606.599"/>
<path class="l4" style="fill:none;" d="M15 651.715L985 651.715L985 640.436L15 640.436L15 651.715"/>
<path class="l4" style="fill:none;" d="M824.273 640.436L973.721 640.436L973.721 629.157L824.273 629.157L824.273 640.436"/>
<path class="l4" style="fill:none;" d="M824.273 629.157L973.721 629.157L973.721 617.878L824.273 617.878L824.273 629.157"/>
<path class="l4" style="fill:none;" d="M824.273 617.878L973.721 617.878L973.721 606.599L824.273 606.599L824.273 617.878"/>
<path class="l5" d="M62.936 138.517L65.7558 138.517"/>
<path class="l5" d="M62.936 138.517L60.8212 135.698L55.8866 135.698L58.0015 138.517L55.8866 141.337L60.8212 141.337L62.936 138.517"/>
<path class="l5" d="M65.0509 137.812L66.4608 137.812L66.4608 139.222L65.0509 139.222L65.0509 137.812z"/>
<path class="l5" d="M68.5756 369.738L71.3953 369.738"/>
<path class="l5" d="M68.5756 369.738L66.4608 366.919L61.5262 366.919L63.641 369.738L61.5262 372.558L66.4608 372.558L68.5756 369.738"/>
<path class="l5" d="M70.6904 369.033L72.1003 369.033L72.1003 370.443L70.6904 370.443L70.6904 369.033z"/>
<path class="l5" d="M431.621 166.01L433.031 166.01L433.031 167.42L431.621 167.42L431.621 166.01z"/>
<path class="l5" d="M324.469 306.999L325.879 306.999L325.879 308.408L324.469 308.408L324.469 306.999z"/>
<path class="l5" d="M311.076 200.552L313.895 200.552"/>
<path class="l5" d="M311.076 200.552L308.961 197.733L304.026 197.733L306.141 200.552L304.026 203.372L308.961 203.372L311.076 200.552"/>
<path class="l5" d="M313.19 199.847L314.6 199.847L314.6 201.257L313.19 201.257L313.19 199.847z"/>
<path class="l5" d="M311.076 211.831L313.895 211.831"/>
<path class="l5" d="M311.076 211.831L308.961 209.012L304.026 209.012L306.141 211.831L304.026 214.651L308.961 214.651L311.076 211.831"/>
<path class="l5" d="M313.19 211.126L314.6 211.126L314.6 212.536L313.19 212.536L313.19 211.126z"/>
<path class="l5" d="M311.076 223.11L313.895 223.11"/>
<path class="l5" d="M311.076 223.11L308.961 220.291L304.026 220.291L306.141 223.11L304.026 225.93L308.961 225.93L311.076 223.11"/>
<path class="l5" d="M313.19 222.406L314.6 222.406L314.6 223.815L313.19 223.815L313.19 222.406z"/>
<path class="l5" d="M313.19 256.243L314.6 256.243L314.6 257.653L313.19 257.653L313.19 256.243z"/>
<path class="l5" d="M313.19 244.964L314.6 244.964L314.6 246.374L313.19 246.374L313.19 244.964z"/>
<path class="l5" d="M313.19 188.568L314.6 188.568L314.6 189.978L313.19 189.978L313.19 188.568z"/>
<path class="l5" d="M220.843 386.657L223.663 386.657"/>
<path class="l5" d="M220.843 386.657L218.728 383.837L213.794 383.837L215.908 386.657L213.794 389.477L218.728 389.477L220.843 386.657"/>
<path class="l5" d="M222.958 385.952L224.368 385.952L224.368 387.362L222.958 387.362L222.958 385.952z"/>
<path class="l5" d="M220.843 409.215L223.663 409.215"/>
<path class="l5" d="M220.843 409.215L218.728 406.395L213.794 406.395L215.908 409.215L213.794 412.035L218.728 412.035L220.843 409.215"/>
<path class="l5" d="M222.958 408.51L224.368 408.51L224.368 409.92L222.958 409.92L222.958 408.51z"/>
<path class="l5" d="M217.318 419.789L218.728 419.789L218.728 421.199L217.318 421.199L217.318 419.789z"/>
<path class="l5" d="M448.539 425.429L449.949 425.429L449.949 426.839L448.539 426.839L448.539 425.429z"/>
<path class="l5" d="M645.923 425.429L647.333 425.429L647.333 426.839L645.923 426.839L645.923 425.429z"/>
<path class="l5" d="M448.539 357.754L449.949 357.754L449.949 359.164L448.539 359.164L448.539 357.754z"/>
<path class="l5" d="M645.923 357.754L647.333 357.754L647.333 359.164L645.923 359.164L645.923 357.754z"/>
<path class="l5" d="M446.424 375.378L449.244 375.378"/>
<path class="l5" d="M446.424 375.378L444.31 372.558L439.375 372.558L441.49 375.378L439.375 378.198L444.31 378.198L446.424 375.378"/>
<path class="l5" d="M448.539 374.673L449.949 374.673L449.949 376.083L448.539 376.083L448.539 374.673z"/>
<path class="l5" d="M446.424 392.297L449.244 392.297"/>
<path class="l5" d="M446.424 392.297L444.31 389.477L439.375 389.477L441.49 392.297L439.375 395.116L444.31 395.116L446.424 392.297"/>
<path class="l5" d="M448.539 391.592L449.949 391.592L449.949 393.001L448.539 393.001L448.539 391.592z"/>
<path class="l5" d="M649.448 375.378L652.267 375.378"/>
<path class="l5" d="M649.448 375.378L647.333 372.558L642.398 372.558L644.513 375.378L642.398 378.198L647.333 378.198L649.448 375.378"/>
<path class="l5" d="M651.562 374.673L652.972 374.673L652.972 376.083L651.562 376.083L651.562 374.673z"/>
<path class="l5" d="M649.448 392.297L652.267 392.297"/>
<path class="l5" d="M649.448 392.297L647.333 389.477L642.398 389.477L644.513 392.297L642.398 395.116L647.333 395.116L649.448 392.297"/>
<path class="l5" d="M651.562 391.592L652.972 391.592L652.972 393.001L651.562 393.001L651.562 391.592z"/>
<path class="l5" d="M533.132 306.999L534.542 306.999L534.542 308.408L533.132 308.408L533.132 306.999z"/>
<path class="l5" d="M730.516 306.999L731.926 306.999L731.926 308.408L730.516 308.408L730.516 306.999z"/>
<path class="l5" d="M589.528 340.836L590.938 340.836L590.938 342.246L589.528 342.246L589.528 340.836z"/>
<path class="l5" d="M786.911 340.836L788.321 340.836L788.321 342.246L786.911 342.246L786.911 340.836z"/>
<path class="l5" d="M590.233 341.541L595.167 341.541"/>
<path class="l5" d="M600.102 341.541L597.987 338.721L593.052 338.721L595.167 341.541L593.052 344.36L597.987 344.36L600.102 341.541"/>
<path class="l5" d="M589.528 340.836L590.938 340.836L590.938 342.246L589.528 342.246L589.528 340.836z"/>
<path class="l5" d="M787.616 341.541L792.551 341.541"/>
<path class="l5" d="M797.485 341.541L795.371 338.721L790.436 338.721L792.551 341.541L790.436 344.36L795.371 344.36L797.485 341.541"/>
<path class="l5" d="M786.911 340.836L788.321 340.836L788.321 342.246L786.911 342.246L786.911 340.836z"/>
<path class="l5" d="M68.5756 279.506L71.3953 279.506"/>
<path class="l5" d="M68.5756 279.506L66.4608 276.686L61.5262 276.686L63.641 279.506L61.5262 282.326L66.4608 282.326L68.5756 279.506"/>
<path class="l5" d="M70.6904 278.801L72.1003 278.801L72.1003 280.211L70.6904 280.211L70.6904 278.801z"/>
<path class="l5" d="M815.814 234.39L820.749 234.39"/>
<path class="l5" d="M825.683 234.39L823.568 231.57L818.634 231.57L820.749 234.39L818.634 237.209L823.568 237.209L825.683 234.39"/>
<path class="l5" d="M815.109 233.685L816.519 233.685L816.519 235.094L815.109 235.094L815.109 233.685z"/>
<path class="l5" d="M786.206 232.98L789.026 232.98L789.026 235.799L786.206 235.799L786.206 232.98z"/>
<path class="l5" d="M752.369 232.98L755.189 232.98L755.189 235.799L752.369 235.799L752.369 232.98z"/>
<path class="l5" d="M724.876 233.685L726.286 233.685L726.286 235.094L724.876 235.094L724.876 233.685z"/>
<path class="l5" d="M220.843 369.738L223.663 369.738"/>
<path class="l5" d="M220.843 369.738L218.728 366.919L213.794 366.919L215.908 369.738L213.794 372.558L218.728 372.558L220.843 369.738"/>
<path class="l5" d="M222.958 369.033L224.368 369.033L224.368 370.443L222.958 370.443L222.958 369.033z"/>
<path class="l8" d="M263.14 400.756L263.14 428.953"/>
<path class="l8" d="M263.14 400.756L387.209 400.756"/>
<path class="l8" d="M387.209 400.756L387.209 428.953"/>
<path class="l8" d="M263.14 428.953L387.209 428.953"/>
<path class="l8" d="M285.698 220.291L285.698 248.488"/>
<path class="l8" d="M285.698 220.291L409.767 220.291"/>
<path class="l8" d="M409.767 220.291L409.767 248.488"/>
<path class="l8" d="M285.698 248.488L409.767 248.488"/>
<path class="l8" d="M449.244 389.477L449.244 417.674"/>
<path class="l8" d="M449.244 389.477L573.314 389.477"/>
<path class="l8" d="M573.314 389.477L573.314 417.674"/>
<path class="l8" d="M449.244 417.674L573.314 417.674"/>
<path class="l8" d="M646.628 389.477L646.628 417.674"/>
<path class="l8" d="M646.628 389.477L770.698 389.477"/>
<path class="l8" d="M770.698 389.477L770.698 417.674"/>
<path class="l8" d="M646.628 417.674L770.698 417.674"/>
<path class="l1" d="M398.488 166.715L432.326 166.715"/>
<path class="l1" d="M325.174 307.703L325.174 341.541"/>
<path class="l1" d="M313.895 200.552L336.453 200.552"/>
<path class="l1" d="M313.895 211.831L336.453 211.831"/>
<path class="l1" d="M313.895 223.11L336.453 223.11"/>
<path class="l1" d="M313.895 256.948L336.453 256.948"/>
<path class="l1" d="M313.895 245.669L336.453 245.669"/>
<path class="l1" d="M313.895 189.273L336.453 189.273"/>
<path class="l1" d="M223.663 386.657L240.581 386.657"/>
<path class="l1" d="M223.663 409.215L240.581 409.215"/>
<path class="l1" d="M218.023 420.494L240.581 420.494"/>
<path class="l1" d="M449.244 426.134L471.802 426.134"/>
<path class="l1" d="M646.628 426.134L669.186 426.134"/>
<path class="l1" d="M646.628 358.459L669.186 358.459"/>
<path class="l1" d="M449.244 358.459L471.802 358.459"/>
<path class="l1" d="M449.244 375.378L471.802 375.378"/>
<path class="l1" d="M443.605 392.297L471.802 392.297"/>
<path class="l1" d="M652.267 375.378L669.186 375.378"/>
<path class="l1" d="M652.267 392.297L669.186 392.297"/>
<path class="l1" d="M533.837 307.703L533.837 341.541"/>
<path class="l1" d="M731.221 307.703L731.221 341.541"/>
<path class="l1" d="M556.395 341.541L590.233 341.541"/>
<path class="l1" d="M753.779 341.541L787.616 341.541"/>
<path class="l1" d="M787.616 234.39L815.814 234.39"/>
<path class="l1" d="M719.942 234.39L753.779 234.39"/>
<path class="l1" d="M223.663 369.738L240.581 369.738"/>
</svg>
