<svg xmlns="http://www.w3.org/2000/svg" xmlns:xlink="http://www.w3.org/1999/xlink" width="1000" height="700" version="1.1">
<style type="text/css">
.l0{
 fill: #ffffff;
  stroke: #ffffff;
  stroke-linecap:round;
  stroke-linejoin:round;
  stroke-width: 0.60907;
}
.l1{
 fill: #0044ee;
  stroke: #0044ee;
  stroke-linecap:round;
  stroke-linejoin:round;
  stroke-width: 0.60907;
}
.l2{
  fill: none;
  stroke: #aaaaaa;
  stroke-linecap:round;
  stroke-linejoin:round;
  stroke-width: 0.60907;
}
.l3{
 fill: #222222; fill-opacity: 0.5;
  stroke: #222222;
  stroke-linecap:round;
  stroke-linejoin:round;
  stroke-width: 0.60907;
}
.l4{
 fill: #229900;
  stroke: #229900;
  stroke-linecap:round;
  stroke-linejoin:round;
  stroke-width: 0.60907;
}
.l5{
 fill: #bb2200;
  stroke: #bb2200;
  stroke-linecap:round;
  stroke-linejoin:round;
  stroke-width: 0.60907;
}
.l6{
 fill: #00ccee; fill-opacity: 0.5;
  stroke: #00ccee;
  stroke-linecap:round;
  stroke-linejoin:round;
  stroke-width: 0.60907;
}
.l7{
 fill: #ff0000; fill-opacity: 0.5;
  stroke: #ff0000;
  stroke-linecap:round;
  stroke-linejoin:round;
  stroke-width: 0.60907;
}
.l8{
 fill: #888800; fill-opacity: 0.5;
  stroke: #888800;
  stroke-linecap:round;
  stroke-linejoin:round;
  stroke-width: 0.60907;
}
.l9{
 fill: #00aaaa; fill-opacity: 0.5;
  stroke: #00aaaa;
  stroke-linecap:round;
  stroke-linejoin:round;
  stroke-width: 0.60907;
}
.l10{
 fill: #880088;
  stroke: #880088;
  stroke-linecap:round;
  stroke-linejoin:round;
  stroke-width: 0.60907;
}
.l11{
 fill: #00ff00; fill-opacity: 0.5;
  stroke: #00ff00;
  stroke-linecap:round;
  stroke-linejoin:round;
  stroke-width: 0.60907;
}
.l12{
 fill: #0000cc; fill-opacity: 0.5;
  stroke: #0000cc;
  stroke-linecap:round;
  stroke-linejoin:round;
  stroke-width: 0.60907;
}
.l13{
 fill: #666600; fill-opacity: 0.5;
  stroke: #666600;
  stroke-linecap:round;
  stroke-linejoin:round;
  stroke-width: 0.60907;
}
.l14{
  fill: none;
  stroke: #557755;
  stroke-linecap:round;
  stroke-linejoin:round;
  stroke-width: 0.60907;
}
.l15{
 fill: #aa2222; fill-opacity: 0.5;
  stroke: #aa2222;
  stroke-linecap:round;
  stroke-linejoin:round;
  stroke-width: 0.60907;
}
.l16{
 fill: #7ccc40; fill-opacity: 0.5;
  stroke: #7ccc40;
  stroke-linecap:round;
  stroke-linejoin:round;
  stroke-width: 0.60907;
}
.l17{
  fill: none;
  stroke: #00ffcc;
  stroke-linecap:round;
  stroke-linejoin:round;
  stroke-width: 0.60907;
}
.l18{
 fill: #ce0097; fill-opacity: 0.5;
  stroke: #ce0097;
  stroke-linecap:round;
  stroke-linejoin:round;
  stroke-width: 0.60907;
}
.l19{
  fill: none;
  stroke: #d2d46b;
  stroke-linecap:round;
  stroke-linejoin:round;
  stroke-width: 0.60907;
}
.l20{
  fill: none;
  stroke: #ef6158;
  stroke-linecap:round;
  stroke-linejoin:round;
  stroke-width: 0.60907;
}
.l21{
  fill: none;
  stroke: #fdb200;
  stroke-linecap:round;
  stroke-linejoin:round;
  stroke-width: 0.60907;
}
text {font-family: Sans-Serif;}
</style>
<rect class="l0" x="0" y="0" width="1000" height="700"/>
<text fill="#0044ee"  xml:space="preserve" font-size="9.67744" transform="translate(7.55576, 80.3351)" >VDD_1V8</text>
<text fill="#0044ee"  xml:space="preserve" font-size="9.67744" transform="translate(13.0181, 621.73)" >VSS</text>
<text fill="#0044ee"  xml:space="preserve" font-size="9.67744" transform="translate(844.012, 288.998)" >CMP_O_1V8</text>
<text fill="#0044ee"  xml:space="preserve" font-size="7.91791" transform="translate(557.546, 350.222)" >CHP_1V8</text>
<text fill="#0044ee"  xml:space="preserve" font-size="7.91791" transform="translate(557.546, 333.304)" >VDD_1V8</text>
<text fill="#0044ee"  xml:space="preserve" font-size="7.91791" transform="translate(585.086, 361.502)" >VSS</text>
<text fill="#0044ee"  xml:space="preserve" font-size="7.91791" transform="translate(687.256, 350.222)" >VDD_1V8</text>
<text fill="#0044ee"  xml:space="preserve" font-size="7.91791" transform="translate(673.486, 361.502)" >PWRUP_1V8</text>
<text fill="#0044ee"  xml:space="preserve" font-size="7.91791" transform="translate(666.601, 372.781)" >CK_CMP_1V8</text>
<text fill="#0044ee"  xml:space="preserve" font-size="7.91791" transform="translate(714.796, 384.06)" >VSS</text>
<text fill="#0044ee"  xml:space="preserve" font-size="7.91791" transform="translate(654.664, 259.99)" >CMP_IP</text>
<text fill="#0044ee"  xml:space="preserve" font-size="7.91791" transform="translate(660.303, 305.106)" >CMP_IN</text>
<text fill="#222222"  xml:space="preserve" font-size="7.3314" transform="translate(827.093, 614.863)" >Updated</text>
<text fill="#222222"  xml:space="preserve" font-size="7.3314" transform="translate(29.0988, 648.7)" >Library/Cell</text>
<text fill="#222222"  xml:space="preserve" font-size="7.3314" transform="translate(827.093, 603.584)" >Designer</text>
<text fill="#222222"  xml:space="preserve" font-size="7.3314" transform="translate(827.093, 626.142)" >Modified</text>
<text fill="#222222"  xml:space="preserve" font-size="7.3314" transform="translate(829.913, 637.421)" >Copyright</text>
<text fill="#222222"  xml:space="preserve" font-size="7.3314" transform="translate(872.209, 614.863)" >wulff</text>
<text fill="#222222"  xml:space="preserve" font-size="7.3314" transform="translate(872.209, 626.142)" >2024-07-23  19:08:14</text>
<text fill="#222222"  xml:space="preserve" font-size="7.3314" transform="translate(872.209, 637.421)" >Carsten Wulff Software</text>
<text fill="#222222"  xml:space="preserve" font-size="7.3314" transform="translate(93.9535, 648.7)" >JNWG00_ANA</text>
<text fill="#222222"  xml:space="preserve" font-size="7.3314" transform="translate(872.209, 603.584)" >Carsten Wulff</text>
<text fill="#222222"  xml:space="preserve" font-size="8.79767" transform="translate(769.006, 334.866)" >JNWG00_CMP</text>
<text fill="#222222"  xml:space="preserve" font-size="5.86512" transform="translate(767.878, 255.506)" >x2</text>
<text fill="#222222"  xml:space="preserve" font-size="5.86512" transform="translate(767.878, 355.889)" >VDD_1V8</text>
<text fill="#222222"  xml:space="preserve" font-size="5.86512" transform="translate(767.878, 367.169)" >PWRUP_1V8</text>
<text fill="#222222"  xml:space="preserve" font-size="5.86512" transform="translate(734.041, 265.657)" >CMP_IP</text>
<text fill="#222222"  xml:space="preserve" font-size="5.86512" transform="translate(770.576, 288.215)" >CMP_O</text>
<text fill="#222222"  xml:space="preserve" font-size="5.86512" transform="translate(734.041, 310.773)" >CMP_IN</text>
<text fill="#222222"  xml:space="preserve" font-size="5.86512" transform="translate(767.878, 378.448)" >CK_CMP</text>
<text fill="#222222"  xml:space="preserve" font-size="5.86512" transform="translate(767.878, 389.727)" >VSS</text>
<text fill="#222222"  xml:space="preserve" font-size="8.79767" transform="translate(354.782, 340.506)" >JNWG00_CORE</text>
<text fill="#222222"  xml:space="preserve" font-size="5.86512" transform="translate(468.983, 261.145)" >x1</text>
<text fill="#222222"  xml:space="preserve" font-size="5.86512" transform="translate(322.355, 271.296)" >VDD_1V8</text>
<text fill="#222222"  xml:space="preserve" font-size="5.86512" transform="translate(322.355, 282.576)" >IDAC_FINE_1V8[7:0]</text>
<text fill="#222222"  xml:space="preserve" font-size="5.86512" transform="translate(322.355, 293.855)" >IDAC_COARSE_1V8[7:0]</text>
<text fill="#222222"  xml:space="preserve" font-size="5.86512" transform="translate(322.355, 305.134)" >IDAC_O_N_1V8[3:0]</text>
<text fill="#222222"  xml:space="preserve" font-size="5.86512" transform="translate(448.043, 271.296)" >IBP</text>
<text fill="#222222"  xml:space="preserve" font-size="5.86512" transform="translate(322.355, 316.413)" >PWRUP_1V8</text>
<text fill="#222222"  xml:space="preserve" font-size="5.86512" transform="translate(322.355, 327.692)" >C1A_1V8</text>
<text fill="#222222"  xml:space="preserve" font-size="5.86512" transform="translate(453.143, 282.576)" >VP</text>
<text fill="#222222"  xml:space="preserve" font-size="5.86512" transform="translate(322.355, 338.971)" >C1B_1V8</text>
<text fill="#222222"  xml:space="preserve" font-size="5.86512" transform="translate(322.355, 350.25)" >VSS</text>
<text fill="#222222"  xml:space="preserve" font-size="5.86512" transform="translate(322.355, 361.529)" >R_IBPS_1V8</text>
<text fill="#222222"  xml:space="preserve" font-size="5.86512" transform="translate(322.355, 372.808)" >RES_N_1V8</text>
<text fill="#222222"  xml:space="preserve" font-size="5.86512" transform="translate(322.355, 384.087)" >DIODES_1V8[7:0]</text>
<text fill="#222222"  xml:space="preserve" font-size="5.86512" transform="translate(453.143, 293.855)" >VN</text>
<text fill="#222222"  xml:space="preserve" font-size="5.86512" transform="translate(322.355, 395.366)" >C2A_1V8</text>
<text fill="#222222"  xml:space="preserve" font-size="5.86512" transform="translate(322.355, 406.645)" >C2B_1V8</text>
<path class="l4" d="M866.57 606.599L866.57 617.878"/>
<path class="l4" d="M793.256 640.436L793.256 651.715"/>
<path class="l4" d="M906.047 640.436L906.047 651.715"/>
<path class="l4" d="M680.465 640.436L680.465 651.715"/>
<path class="l4" d="M91.1337 640.436L91.1337 651.715"/>
<path class="l4" d="M15 640.436L26.2791 640.436"/>
<path class="l4" d="M26.2791 640.436L26.2791 651.715"/>
<path class="l4" d="M973.721 640.436L985 640.436"/>
<path class="l4" d="M973.721 640.436L973.721 651.715"/>
<path class="l4" d="M866.57 595.32L866.57 606.599"/>
<path class="l4" d="M866.57 617.878L866.57 629.157"/>
<path class="l4" style="fill:none;" d="M824.273 640.436L985 640.436L985 595.32L824.273 595.32L824.273 640.436"/>
<path class="l4" style="fill:none;" d="M15 651.715L985 651.715L985 48.2849L15 48.2849L15 651.715"/>
<path class="l4" style="fill:none;" d="M824.273 606.599L973.721 606.599L973.721 595.32L824.273 595.32L824.273 606.599"/>
<path class="l4" style="fill:none;" d="M15 651.715L985 651.715L985 640.436L15 640.436L15 651.715"/>
<path class="l4" style="fill:none;" d="M824.273 640.436L973.721 640.436L973.721 629.157L824.273 629.157L824.273 640.436"/>
<path class="l4" style="fill:none;" d="M824.273 629.157L973.721 629.157L973.721 617.878L824.273 617.878L824.273 629.157"/>
<path class="l4" style="fill:none;" d="M824.273 617.878L973.721 617.878L973.721 606.599L824.273 606.599L824.273 617.878"/>
<path class="l4" d="M765.058 330.262L765.058 397.936"/>
<path class="l4" d="M753.779 352.82L765.058 352.82"/>
<path class="l4" d="M753.779 364.099L765.058 364.099"/>
<path class="l4" d="M719.942 262.587L731.221 262.587"/>
<path class="l4" d="M798.895 285.145L810.174 285.145"/>
<path class="l4" d="M719.942 307.703L731.221 307.703"/>
<path class="l4" d="M753.779 375.378L765.058 375.378"/>
<path class="l4" d="M753.779 386.657L765.058 386.657"/>
<path class="l4" d="M731.221 240.029L731.221 330.262"/>
<path class="l4" d="M731.221 240.029L798.895 285.145"/>
<path class="l4" d="M731.221 330.262L798.895 285.145"/>
<path class="l4" d="M765.058 307.703L765.058 330.262"/>
<path class="l4" d="M319.535 262.587L466.163 262.587"/>
<path class="l4" d="M319.535 409.215L466.163 409.215"/>
<path class="l4" d="M319.535 262.587L319.535 409.215"/>
<path class="l4" d="M466.163 262.587L466.163 409.215"/>
<path class="l4" d="M308.256 268.227L319.535 268.227"/>
<path class="l4" d="M308.256 279.506L319.535 279.506"/>
<path class="l4" d="M308.256 290.785L319.535 290.785"/>
<path class="l4" d="M308.256 302.064L319.535 302.064"/>
<path class="l4" d="M466.163 268.227L477.442 268.227"/>
<path class="l4" d="M308.256 313.343L319.535 313.343"/>
<path class="l4" d="M308.256 324.622L319.535 324.622"/>
<path class="l4" d="M466.163 279.506L477.442 279.506"/>
<path class="l4" d="M308.256 335.901L319.535 335.901"/>
<path class="l4" d="M308.256 347.18L319.535 347.18"/>
<path class="l4" d="M308.256 358.459L319.535 358.459"/>
<path class="l4" d="M308.256 369.738L319.535 369.738"/>
<path class="l4" d="M308.256 381.017L319.535 381.017"/>
<path class="l4" d="M466.163 290.785L477.442 290.785"/>
<path class="l4" d="M308.256 392.297L319.535 392.297"/>
<path class="l4" d="M308.256 403.576L319.535 403.576"/>
<path class="l5" d="M74.2151 76.4826L77.0349 76.4826"/>
<path class="l5" d="M74.2151 76.4826L72.1003 73.6628L67.1657 73.6628L69.2805 76.4826L67.1657 79.3023L72.1003 79.3023L74.2151 76.4826"/>
<path class="l5" d="M76.3299 75.7776L77.7398 75.7776L77.7398 77.1875L76.3299 77.1875L76.3299 75.7776z"/>
<path class="l5" d="M46.0174 617.878L48.8372 617.878"/>
<path class="l5" d="M46.0174 617.878L43.9026 615.058L38.968 615.058L41.0828 617.878L38.968 620.698L43.9026 620.698L46.0174 617.878"/>
<path class="l5" d="M48.1323 617.173L49.5422 617.173L49.5422 618.583L48.1323 618.583L48.1323 617.173z"/>
<path class="l5" d="M752.369 351.41L755.189 351.41L755.189 354.23L752.369 354.23L752.369 351.41z"/>
<path class="l5" d="M752.369 362.689L755.189 362.689L755.189 365.509L752.369 365.509L752.369 362.689z"/>
<path class="l5" d="M718.532 261.177L721.352 261.177L721.352 263.997L718.532 263.997L718.532 261.177z"/>
<path class="l5" d="M808.765 283.735L811.584 283.735L811.584 286.555L808.765 286.555L808.765 283.735z"/>
<path class="l5" d="M718.532 306.294L721.352 306.294L721.352 309.113L718.532 309.113L718.532 306.294z"/>
<path class="l5" d="M752.369 373.968L755.189 373.968L755.189 376.788L752.369 376.788L752.369 373.968z"/>
<path class="l5" d="M752.369 385.247L755.189 385.247L755.189 388.067L752.369 388.067L752.369 385.247z"/>
<path class="l5" d="M832.733 285.145L837.667 285.145"/>
<path class="l5" d="M842.602 285.145L840.487 282.326L835.552 282.326L837.667 285.145L835.552 287.965L840.487 287.965L842.602 285.145"/>
<path class="l5" d="M832.028 284.44L833.438 284.44L833.438 285.85L832.028 285.85L832.028 284.44z"/>
<path class="l5" d="M606.446 352.115L607.856 352.115L607.856 353.525L606.446 353.525L606.446 352.115z"/>
<path class="l5" d="M606.446 335.196L607.856 335.196L607.856 336.606L606.446 336.606L606.446 335.196z"/>
<path class="l5" d="M606.446 363.394L607.856 363.394L607.856 364.804L606.446 364.804L606.446 363.394z"/>
<path class="l5" d="M736.156 352.115L737.565 352.115L737.565 353.525L736.156 353.525L736.156 352.115z"/>
<path class="l5" d="M736.156 363.394L737.565 363.394L737.565 364.804L736.156 364.804L736.156 363.394z"/>
<path class="l5" d="M736.156 374.673L737.565 374.673L737.565 376.083L736.156 376.083L736.156 374.673z"/>
<path class="l5" d="M736.156 385.952L737.565 385.952L737.565 387.362L736.156 387.362L736.156 385.952z"/>
<path class="l5" d="M696.679 261.882L698.089 261.882L698.089 263.292L696.679 263.292L696.679 261.882z"/>
<path class="l5" d="M702.318 306.999L703.728 306.999L703.728 308.408L702.318 308.408L702.318 306.999z"/>
<path class="l5" d="M306.846 266.817L309.666 266.817L309.666 269.637L306.846 269.637L306.846 266.817z"/>
<path class="l5" d="M306.846 278.096L309.666 278.096L309.666 280.916L306.846 280.916L306.846 278.096z"/>
<path class="l5" d="M306.846 289.375L309.666 289.375L309.666 292.195L306.846 292.195L306.846 289.375z"/>
<path class="l5" d="M306.846 300.654L309.666 300.654L309.666 303.474L306.846 303.474L306.846 300.654z"/>
<path class="l5" d="M476.032 266.817L478.852 266.817L478.852 269.637L476.032 269.637L476.032 266.817z"/>
<path class="l5" d="M306.846 311.933L309.666 311.933L309.666 314.753L306.846 314.753L306.846 311.933z"/>
<path class="l5" d="M306.846 323.212L309.666 323.212L309.666 326.032L306.846 326.032L306.846 323.212z"/>
<path class="l5" d="M476.032 278.096L478.852 278.096L478.852 280.916L476.032 280.916L476.032 278.096z"/>
<path class="l5" d="M306.846 334.491L309.666 334.491L309.666 337.311L306.846 337.311L306.846 334.491z"/>
<path class="l5" d="M306.846 345.77L309.666 345.77L309.666 348.59L306.846 348.59L306.846 345.77z"/>
<path class="l5" d="M306.846 357.049L309.666 357.049L309.666 359.869L306.846 359.869L306.846 357.049z"/>
<path class="l5" d="M306.846 368.328L309.666 368.328L309.666 371.148L306.846 371.148L306.846 368.328z"/>
<path class="l5" d="M306.846 379.608L309.666 379.608L309.666 382.427L306.846 382.427L306.846 379.608z"/>
<path class="l5" d="M476.032 289.375L478.852 289.375L478.852 292.195L476.032 292.195L476.032 289.375z"/>
<path class="l5" d="M306.846 390.887L309.666 390.887L309.666 393.706L306.846 393.706L306.846 390.887z"/>
<path class="l5" d="M306.846 402.166L309.666 402.166L309.666 404.985L306.846 404.985L306.846 402.166z"/>
<path class="l1" d="M674.826 262.587L719.942 262.587"/>
<path class="l1" d="M674.826 307.703L719.942 307.703"/>
<path class="l1" d="M607.151 352.82L624.07 352.82"/>
<path class="l1" d="M607.151 335.901L624.07 335.901"/>
<path class="l1" d="M607.151 364.099L624.07 364.099"/>
<path class="l1" d="M736.86 352.82L753.779 352.82"/>
<path class="l1" d="M736.86 364.099L753.779 364.099"/>
<path class="l1" d="M736.86 375.378L753.779 375.378"/>
<path class="l1" d="M736.86 386.657L753.779 386.657"/>
<path class="l1" d="M810.174 285.145L832.733 285.145"/>
<path class="l1" d="M477.442 285.145L590.233 262.587"/>
<path class="l1" d="M477.442 296.424L590.233 307.703"/>
</svg>
