<svg xmlns="http://www.w3.org/2000/svg" xmlns:xlink="http://www.w3.org/1999/xlink" width="1000" height="700" version="1.1">
<style type="text/css">
.l0{
 fill: #ffffff;
  stroke: #ffffff;
  stroke-linecap:round;
  stroke-linejoin:round;
  stroke-width: 0.60907;
}
.l1{
 fill: #0044ee;
  stroke: #0044ee;
  stroke-linecap:round;
  stroke-linejoin:round;
  stroke-width: 0.60907;
}
.l2{
  fill: none;
  stroke: #aaaaaa;
  stroke-linecap:round;
  stroke-linejoin:round;
  stroke-width: 0.60907;
}
.l3{
 fill: #222222; fill-opacity: 0.5;
  stroke: #222222;
  stroke-linecap:round;
  stroke-linejoin:round;
  stroke-width: 0.60907;
}
.l4{
 fill: #229900;
  stroke: #229900;
  stroke-linecap:round;
  stroke-linejoin:round;
  stroke-width: 0.60907;
}
.l5{
 fill: #bb2200;
  stroke: #bb2200;
  stroke-linecap:round;
  stroke-linejoin:round;
  stroke-width: 0.60907;
}
.l6{
 fill: #00ccee; fill-opacity: 0.5;
  stroke: #00ccee;
  stroke-linecap:round;
  stroke-linejoin:round;
  stroke-width: 0.60907;
}
.l7{
 fill: #ff0000; fill-opacity: 0.5;
  stroke: #ff0000;
  stroke-linecap:round;
  stroke-linejoin:round;
  stroke-width: 0.60907;
}
.l8{
 fill: #888800; fill-opacity: 0.5;
  stroke: #888800;
  stroke-linecap:round;
  stroke-linejoin:round;
  stroke-width: 0.60907;
}
.l9{
 fill: #00aaaa; fill-opacity: 0.5;
  stroke: #00aaaa;
  stroke-linecap:round;
  stroke-linejoin:round;
  stroke-width: 0.60907;
}
.l10{
 fill: #880088;
  stroke: #880088;
  stroke-linecap:round;
  stroke-linejoin:round;
  stroke-width: 0.60907;
}
.l11{
 fill: #00ff00; fill-opacity: 0.5;
  stroke: #00ff00;
  stroke-linecap:round;
  stroke-linejoin:round;
  stroke-width: 0.60907;
}
.l12{
 fill: #0000cc; fill-opacity: 0.5;
  stroke: #0000cc;
  stroke-linecap:round;
  stroke-linejoin:round;
  stroke-width: 0.60907;
}
.l13{
 fill: #666600; fill-opacity: 0.5;
  stroke: #666600;
  stroke-linecap:round;
  stroke-linejoin:round;
  stroke-width: 0.60907;
}
.l14{
  fill: none;
  stroke: #557755;
  stroke-linecap:round;
  stroke-linejoin:round;
  stroke-width: 0.60907;
}
.l15{
 fill: #aa2222; fill-opacity: 0.5;
  stroke: #aa2222;
  stroke-linecap:round;
  stroke-linejoin:round;
  stroke-width: 0.60907;
}
.l16{
 fill: #7ccc40; fill-opacity: 0.5;
  stroke: #7ccc40;
  stroke-linecap:round;
  stroke-linejoin:round;
  stroke-width: 0.60907;
}
.l17{
  fill: none;
  stroke: #00ffcc;
  stroke-linecap:round;
  stroke-linejoin:round;
  stroke-width: 0.60907;
}
.l18{
 fill: #ce0097; fill-opacity: 0.5;
  stroke: #ce0097;
  stroke-linecap:round;
  stroke-linejoin:round;
  stroke-width: 0.60907;
}
.l19{
  fill: none;
  stroke: #d2d46b;
  stroke-linecap:round;
  stroke-linejoin:round;
  stroke-width: 0.60907;
}
.l20{
  fill: none;
  stroke: #ef6158;
  stroke-linecap:round;
  stroke-linejoin:round;
  stroke-width: 0.60907;
}
.l21{
  fill: none;
  stroke: #fdb200;
  stroke-linecap:round;
  stroke-linejoin:round;
  stroke-width: 0.60907;
}
text {font-family: Sans-Serif;}
</style>
<rect class="l0" x="0" y="0" width="1000" height="700"/>
<text fill="#222222"  xml:space="preserve" font-size="14.6628" transform="translate(415.407, 213.866)" >Switch cap cell</text>
<text fill="#0044ee"  xml:space="preserve" font-size="7.91791" transform="translate(450.395, 417.897)" >VDD_1V8</text>
<text fill="#0044ee"  xml:space="preserve" font-size="7.91791" transform="translate(433.735, 417.897)" >VSS</text>
<text fill="#0044ee"  xml:space="preserve" font-size="9.67744" transform="translate(49.808, 554.056)" >CA_1V8</text>
<text fill="#0044ee"  xml:space="preserve" font-size="9.67744" transform="translate(334.472, 582.254)" >VSS</text>
<text fill="#0044ee"  xml:space="preserve" font-size="9.67744" transform="translate(300.812, 367.951)" >VDD_1V8</text>
<text fill="#0044ee"  xml:space="preserve" font-size="9.67744" transform="translate(469.137, 375.466) rotate(270)" >CA</text>
<text fill="#0044ee"  xml:space="preserve" font-size="7.91791" transform="translate(101.003, 592.722)" >VDD_1V8</text>
<text fill="#0044ee"  xml:space="preserve" font-size="7.91791" transform="translate(95.3634, 615.281)" >VSS</text>
<text fill="#0044ee"  xml:space="preserve" font-size="7.91791" transform="translate(281.468, 570.164)" >VSS</text>
<text fill="#0044ee"  xml:space="preserve" font-size="7.91791" transform="translate(287.108, 525.048)" >VDD_1V8</text>
<text fill="#0044ee"  xml:space="preserve" font-size="7.91791" transform="translate(327.571, 547.606)" >CA_1V8</text>
<text fill="#0044ee"  xml:space="preserve" font-size="7.91791" transform="translate(293.734, 417.897)" >CT_1V8</text>
<text fill="#0044ee"  xml:space="preserve" font-size="7.91791" transform="translate(574.724, 417.897)" >CTN_1V8</text>
<text fill="#0044ee"  xml:space="preserve" font-size="7.91791" transform="translate(292.747, 547.606)" >CTN_1V8</text>
<text fill="#0044ee"  xml:space="preserve" font-size="9.67744" transform="translate(854.586, 554.056)" >CB_1V8</text>
<text fill="#0044ee"  xml:space="preserve" font-size="7.91791" transform="translate(652.761, 570.164)" >VSS</text>
<text fill="#0044ee"  xml:space="preserve" font-size="7.91791" transform="translate(619.581, 525.048)" >VDD_1V8</text>
<text fill="#0044ee"  xml:space="preserve" font-size="7.91791" transform="translate(595.778, 547.606)" >CTN1_1V8</text>
<text fill="#0044ee"  xml:space="preserve" font-size="7.91791" transform="translate(738.011, 417.897)" >VDD_1V8</text>
<text fill="#0044ee"  xml:space="preserve" font-size="7.91791" transform="translate(721.352, 417.897)" >VSS</text>
<text fill="#0044ee"  xml:space="preserve" font-size="9.67744" transform="translate(756.753, 375.466) rotate(270)" >CB</text>
<text fill="#0044ee"  xml:space="preserve" font-size="7.91791" transform="translate(862.34, 417.897)" >CTN1_1V8</text>
<text fill="#0044ee"  xml:space="preserve" font-size="7.91791" transform="translate(552.166, 547.606)" >CB_1V8</text>
<text fill="#ff0000"  xml:space="preserve" font-size="4.39884" transform="translate(418.227, 482.294)" >c0</text>
<text fill="#ff0000"  xml:space="preserve" font-size="4.39884" transform="translate(418.227, 508.376)" >c1</text>
<text fill="#666600"  xml:space="preserve" font-size="5.86512" transform="translate(425.276, 509.708)" >MF=1</text>
<text fill="#222222"  xml:space="preserve" font-size="5.86512" transform="translate(423.866, 482.92)" >C1</text>
<text fill="#666600"  xml:space="preserve" font-size="5.86512" transform="translate(423.866, 502.658)" >10 / 5</text>
<text fill="#222222"  xml:space="preserve" font-size="5.86512" transform="translate(423.866, 492.789)" >cap_mim_m3_1</text>
<text fill="#666600"  xml:space="preserve" font-size="5.86512" transform="translate(355.077, 504.068)" >C=1.057e-13</text>
<text fill="#222222"  xml:space="preserve" font-size="4.69209" transform="translate(415.407, 540.604)" >JNWATR_NCH_2C1F2</text>
<text fill="#222222"  xml:space="preserve" font-size="4.69209" transform="translate(415.407, 565.982)" >x1</text>
<text fill="#222222"  xml:space="preserve" font-size="4.69209" transform="translate(415.407, 410.895)" >JNWATR_NCH_2C1F2</text>
<text fill="#222222"  xml:space="preserve" font-size="4.69209" transform="translate(415.407, 436.273)" >x2</text>
<text fill="#222222"  xml:space="preserve" font-size="4.69209" transform="translate(451.639, 433.453)" >JNWATR_PCH_2C1F2</text>
<text fill="#222222"  xml:space="preserve" font-size="4.69209" transform="translate(508.759, 408.075)" >x3</text>
<text fill="#222222"  xml:space="preserve" font-size="7.3314" transform="translate(827.093, 614.863)" >Updated</text>
<text fill="#222222"  xml:space="preserve" font-size="7.3314" transform="translate(29.0988, 648.7)" >Library/Cell</text>
<text fill="#222222"  xml:space="preserve" font-size="7.3314" transform="translate(827.093, 603.584)" >Designer</text>
<text fill="#222222"  xml:space="preserve" font-size="7.3314" transform="translate(827.093, 626.142)" >Modified</text>
<text fill="#222222"  xml:space="preserve" font-size="7.3314" transform="translate(829.913, 637.421)" >Copyright</text>
<text fill="#222222"  xml:space="preserve" font-size="7.3314" transform="translate(872.209, 614.863)" >wulff</text>
<text fill="#222222"  xml:space="preserve" font-size="7.3314" transform="translate(872.209, 626.142)" >2024-07-14  17:39:52</text>
<text fill="#222222"  xml:space="preserve" font-size="7.3314" transform="translate(872.209, 637.421)" >Carsten Wulff Software</text>
<text fill="#222222"  xml:space="preserve" font-size="7.3314" transform="translate(93.9535, 648.7)" >JNWG00_CCELL</text>
<text fill="#222222"  xml:space="preserve" font-size="7.3314" transform="translate(872.209, 603.584)" >Carsten Wulff</text>
<text fill="#222222"  xml:space="preserve" font-size="4.39884" transform="translate(155.424, 551.778)" >Y</text>
<text fill="#222222"  xml:space="preserve" font-size="4.39884" transform="translate(139.634, 551.778)" >A</text>
<text fill="#222222"  xml:space="preserve" font-size="2.93256" transform="translate(145.759, 531.029) rotate(270)" >AVDD</text>
<text fill="#222222"  xml:space="preserve" font-size="2.93256" transform="translate(145.621, 579.578) rotate(270)" >AVSS</text>
<text fill="#222222"  xml:space="preserve" font-size="4.39884" transform="translate(155.988, 563.057)" >SUNTR_IVX1_CV</text>
<text fill="#222222"  xml:space="preserve" font-size="4.39884" transform="translate(155.988, 557.418)" >x4</text>
<text fill="#222222"  xml:space="preserve" font-size="4.39884" transform="translate(211.82, 551.778)" >Y</text>
<text fill="#222222"  xml:space="preserve" font-size="4.39884" transform="translate(196.029, 551.778)" >A</text>
<text fill="#222222"  xml:space="preserve" font-size="2.93256" transform="translate(202.155, 531.029) rotate(270)" >AVDD</text>
<text fill="#222222"  xml:space="preserve" font-size="2.93256" transform="translate(202.017, 579.578) rotate(270)" >AVSS</text>
<text fill="#222222"  xml:space="preserve" font-size="4.39884" transform="translate(212.384, 563.057)" >SUNTR_IVX1_CV</text>
<text fill="#222222"  xml:space="preserve" font-size="4.39884" transform="translate(212.384, 557.418)" >x5</text>
<text fill="#222222"  xml:space="preserve" font-size="4.39884" transform="translate(268.215, 551.778)" >Y</text>
<text fill="#222222"  xml:space="preserve" font-size="4.39884" transform="translate(252.424, 551.778)" >A</text>
<text fill="#222222"  xml:space="preserve" font-size="2.93256" transform="translate(258.55, 531.029) rotate(270)" >AVDD</text>
<text fill="#222222"  xml:space="preserve" font-size="2.93256" transform="translate(258.412, 579.578) rotate(270)" >AVSS</text>
<text fill="#222222"  xml:space="preserve" font-size="4.39884" transform="translate(268.779, 563.057)" >SUNTR_IVX1_CV</text>
<text fill="#222222"  xml:space="preserve" font-size="4.39884" transform="translate(268.779, 557.418)" >x6</text>
<text fill="#222222"  xml:space="preserve" font-size="4.39884" transform="translate(82.6744, 613.813)" >x7</text>
<text fill="#222222"  xml:space="preserve" font-size="4.39884" transform="translate(82.6744, 619.453)" >SUNTR_TAPCELLB_CV</text>
<text fill="#222222"  xml:space="preserve" font-size="2.93256" transform="translate(66.8057, 604.343) rotate(270)" >AVDD</text>
<text fill="#222222"  xml:space="preserve" font-size="2.93256" transform="translate(66.6678, 619.055) rotate(270)" >AVSS</text>
<text fill="#222222"  xml:space="preserve" font-size="4.39884" transform="translate(795.634, 551.778)" >Y</text>
<text fill="#222222"  xml:space="preserve" font-size="4.39884" transform="translate(811.425, 551.778)" >A</text>
<text fill="#222222"  xml:space="preserve" font-size="2.93256" transform="translate(811.086, 531.029) rotate(270)" >AVDD</text>
<text fill="#222222"  xml:space="preserve" font-size="2.93256" transform="translate(811.224, 579.578) rotate(270)" >AVSS</text>
<text fill="#222222"  xml:space="preserve" font-size="4.39884" transform="translate(749.17, 563.057)" >SUNTR_IVX1_CV</text>
<text fill="#222222"  xml:space="preserve" font-size="4.39884" transform="translate(791.245, 557.418)" >x8</text>
<text fill="#222222"  xml:space="preserve" font-size="4.39884" transform="translate(739.239, 551.778)" >Y</text>
<text fill="#222222"  xml:space="preserve" font-size="4.39884" transform="translate(755.03, 551.778)" >A</text>
<text fill="#222222"  xml:space="preserve" font-size="2.93256" transform="translate(754.691, 531.029) rotate(270)" >AVDD</text>
<text fill="#222222"  xml:space="preserve" font-size="2.93256" transform="translate(754.829, 579.578) rotate(270)" >AVSS</text>
<text fill="#222222"  xml:space="preserve" font-size="4.39884" transform="translate(692.775, 563.057)" >SUNTR_IVX1_CV</text>
<text fill="#222222"  xml:space="preserve" font-size="4.39884" transform="translate(734.85, 557.418)" >x9</text>
<text fill="#222222"  xml:space="preserve" font-size="4.39884" transform="translate(682.844, 551.778)" >Y</text>
<text fill="#222222"  xml:space="preserve" font-size="4.39884" transform="translate(698.634, 551.778)" >A</text>
<text fill="#222222"  xml:space="preserve" font-size="2.93256" transform="translate(698.296, 531.029) rotate(270)" >AVDD</text>
<text fill="#222222"  xml:space="preserve" font-size="2.93256" transform="translate(698.434, 579.578) rotate(270)" >AVSS</text>
<text fill="#222222"  xml:space="preserve" font-size="4.39884" transform="translate(636.38, 563.057)" >SUNTR_IVX1_CV</text>
<text fill="#222222"  xml:space="preserve" font-size="4.39884" transform="translate(674.63, 557.418)" >x10</text>
<text fill="#222222"  xml:space="preserve" font-size="4.69209" transform="translate(703.023, 410.895)" >JNWATR_NCH_2C1F2</text>
<text fill="#222222"  xml:space="preserve" font-size="4.69209" transform="translate(703.023, 436.273)" >x11</text>
<text fill="#222222"  xml:space="preserve" font-size="4.69209" transform="translate(739.255, 433.453)" >JNWATR_PCH_2C1F2</text>
<text fill="#222222"  xml:space="preserve" font-size="4.69209" transform="translate(792.295, 408.075)" >x12</text>
<text fill="#222222"  xml:space="preserve" font-size="4.69209" transform="translate(440.36, 540.604)" >JNWATR_NCH_2C1F2</text>
<text fill="#222222"  xml:space="preserve" font-size="4.69209" transform="translate(493.4, 565.982)" >x13</text>
<path class="l4" d="M415.407 495.218L415.407 510.727"/>
<path class="l4" d="M415.407 476.89L415.407 490.988"/>
<path class="l4" d="M409.767 490.988L421.047 490.988"/>
<path class="l4" style="fill:none;" d="M421.047 496.628 A11.984 11.984 0 0 0 409.767 496.628"/>
<path class="l4" d="M409.767 555.843L415.407 558.663"/>
<path class="l4" d="M409.767 561.483L415.407 558.663"/>
<path class="l4" d="M404.128 541.744L415.407 541.744"/>
<path class="l4" d="M415.407 533.285L415.407 541.744"/>
<path class="l4" d="M404.128 558.663L415.407 558.663"/>
<path class="l4" d="M415.407 558.663L415.407 567.122"/>
<path class="l4" d="M404.128 550.203L415.407 550.203"/>
<path class="l4" d="M404.128 541.744L404.128 558.663"/>
<path class="l4" d="M401.308 541.744L401.308 558.663"/>
<path class="l4" d="M392.849 550.203L401.308 550.203"/>
<path class="l4" d="M409.767 426.134L415.407 428.953"/>
<path class="l4" d="M409.767 431.773L415.407 428.953"/>
<path class="l4" d="M404.128 412.035L415.407 412.035"/>
<path class="l4" d="M415.407 403.576L415.407 412.035"/>
<path class="l4" d="M404.128 428.953L415.407 428.953"/>
<path class="l4" d="M415.407 428.953L415.407 437.413"/>
<path class="l4" d="M404.128 420.494L415.407 420.494"/>
<path class="l4" d="M404.128 412.035L404.128 428.953"/>
<path class="l4" d="M401.308 412.035L401.308 428.953"/>
<path class="l4" d="M392.849 420.494L401.308 420.494"/>
<path class="l4" d="M516.919 428.953L528.198 428.953"/>
<path class="l4" d="M516.919 428.953L516.919 437.413"/>
<path class="l4" d="M516.919 412.035L528.198 412.035"/>
<path class="l4" d="M516.919 403.576L516.919 412.035"/>
<path class="l4" d="M516.919 420.494L528.198 420.494"/>
<path class="l4" d="M518.61 409.215L524.25 412.035"/>
<path class="l4" d="M518.61 414.855L524.25 412.035"/>
<path class="l4" d="M528.198 412.035L528.198 428.953"/>
<path class="l4" d="M531.017 412.035L531.017 428.953"/>
<path class="l4" d="M535.529 420.494L539.477 420.494"/>
<circle class="l4" cx="533.273" cy="420.494" r="2.25581" style="fill:none;"/>
<path class="l4" d="M866.57 606.599L866.57 617.878"/>
<path class="l4" d="M793.256 640.436L793.256 651.715"/>
<path class="l4" d="M906.047 640.436L906.047 651.715"/>
<path class="l4" d="M680.465 640.436L680.465 651.715"/>
<path class="l4" d="M91.1337 640.436L91.1337 651.715"/>
<path class="l4" d="M15 640.436L26.2791 640.436"/>
<path class="l4" d="M26.2791 640.436L26.2791 651.715"/>
<path class="l4" d="M973.721 640.436L985 640.436"/>
<path class="l4" d="M973.721 640.436L973.721 651.715"/>
<path class="l4" d="M866.57 595.32L866.57 606.599"/>
<path class="l4" d="M866.57 617.878L866.57 629.157"/>
<path class="l4" style="fill:none;" d="M824.273 640.436L985 640.436L985 595.32L824.273 595.32L824.273 640.436"/>
<path class="l4" style="fill:none;" d="M15 651.715L985 651.715L985 48.2849L15 48.2849L15 651.715"/>
<path class="l4" style="fill:none;" d="M824.273 606.599L973.721 606.599L973.721 595.32L824.273 595.32L824.273 606.599"/>
<path class="l4" style="fill:none;" d="M15 651.715L985 651.715L985 640.436L15 640.436L15 651.715"/>
<path class="l4" style="fill:none;" d="M824.273 640.436L973.721 640.436L973.721 629.157L824.273 629.157L824.273 640.436"/>
<path class="l4" style="fill:none;" d="M824.273 629.157L973.721 629.157L973.721 617.878L824.273 617.878L824.273 629.157"/>
<path class="l4" style="fill:none;" d="M824.273 617.878L973.721 617.878L973.721 606.599L824.273 606.599L824.273 617.878"/>
<path class="l4" d="M150.349 555.843L150.349 567.122"/>
<path class="l4" d="M150.349 527.645L150.349 533.285"/>
<path class="l4" d="M139.07 538.924L139.07 561.483"/>
<path class="l4" d="M139.07 561.483L161.628 550.203"/>
<path class="l4" d="M139.07 538.924L161.628 550.203"/>
<path class="l4" d="M167.267 550.203L172.907 550.203"/>
<path class="l4" d="M127.791 550.203L139.07 550.203"/>
<path class="l4" d="M150.349 533.285L150.349 544.564"/>
<path class="l4" d="M150.349 567.122L150.349 572.762"/>
<circle class="l4" cx="164.448" cy="550.203" r="2.81977" style="fill:none;"/>
<path class="l4" d="M206.744 555.843L206.744 567.122"/>
<path class="l4" d="M206.744 527.645L206.744 533.285"/>
<path class="l4" d="M195.465 538.924L195.465 561.483"/>
<path class="l4" d="M195.465 561.483L218.023 550.203"/>
<path class="l4" d="M195.465 538.924L218.023 550.203"/>
<path class="l4" d="M223.663 550.203L229.302 550.203"/>
<path class="l4" d="M184.186 550.203L195.465 550.203"/>
<path class="l4" d="M206.744 533.285L206.744 544.564"/>
<path class="l4" d="M206.744 567.122L206.744 572.762"/>
<circle class="l4" cx="220.843" cy="550.203" r="2.81977" style="fill:none;"/>
<path class="l4" d="M263.14 555.843L263.14 567.122"/>
<path class="l4" d="M263.14 527.645L263.14 533.285"/>
<path class="l4" d="M251.86 538.924L251.86 561.483"/>
<path class="l4" d="M251.86 561.483L274.419 550.203"/>
<path class="l4" d="M251.86 538.924L274.419 550.203"/>
<path class="l4" d="M280.058 550.203L285.698 550.203"/>
<path class="l4" d="M240.581 550.203L251.86 550.203"/>
<path class="l4" d="M263.14 533.285L263.14 544.564"/>
<path class="l4" d="M263.14 567.122L263.14 572.762"/>
<circle class="l4" cx="277.238" cy="550.203" r="2.81977" style="fill:none;"/>
<path class="l4" d="M77.0349 612.238L77.0349 617.878"/>
<path class="l4" d="M77.0349 595.32L77.0349 600.959"/>
<path class="l4" d="M71.3953 600.959L82.6744 600.959"/>
<path class="l4" d="M82.6744 600.959L82.6744 612.238"/>
<path class="l4" d="M71.3953 612.238L82.6744 612.238"/>
<path class="l4" d="M71.3953 600.959L71.3953 612.238"/>
<path class="l4" d="M71.3953 600.959L82.6744 612.238"/>
<path class="l4" d="M71.3953 612.238L82.6744 600.959"/>
<path class="l4" d="M804.535 555.843L804.535 567.122"/>
<path class="l4" d="M804.535 527.645L804.535 533.285"/>
<path class="l4" d="M815.814 538.924L815.814 561.483"/>
<path class="l4" d="M793.256 550.203L815.814 561.483"/>
<path class="l4" d="M793.256 550.203L815.814 538.924"/>
<path class="l4" d="M781.977 550.203L787.616 550.203"/>
<path class="l4" d="M815.814 550.203L827.093 550.203"/>
<path class="l4" d="M804.535 533.285L804.535 544.564"/>
<path class="l4" d="M804.535 567.122L804.535 572.762"/>
<circle class="l4" cx="790.436" cy="550.203" r="2.81977" style="fill:none;"/>
<path class="l4" d="M748.14 555.843L748.14 567.122"/>
<path class="l4" d="M748.14 527.645L748.14 533.285"/>
<path class="l4" d="M759.419 538.924L759.419 561.483"/>
<path class="l4" d="M736.86 550.203L759.419 561.483"/>
<path class="l4" d="M736.86 550.203L759.419 538.924"/>
<path class="l4" d="M725.581 550.203L731.221 550.203"/>
<path class="l4" d="M759.419 550.203L770.698 550.203"/>
<path class="l4" d="M748.14 533.285L748.14 544.564"/>
<path class="l4" d="M748.14 567.122L748.14 572.762"/>
<circle class="l4" cx="734.041" cy="550.203" r="2.81977" style="fill:none;"/>
<path class="l4" d="M691.744 555.843L691.744 567.122"/>
<path class="l4" d="M691.744 527.645L691.744 533.285"/>
<path class="l4" d="M703.023 538.924L703.023 561.483"/>
<path class="l4" d="M680.465 550.203L703.023 561.483"/>
<path class="l4" d="M680.465 550.203L703.023 538.924"/>
<path class="l4" d="M669.186 550.203L674.826 550.203"/>
<path class="l4" d="M703.023 550.203L714.302 550.203"/>
<path class="l4" d="M691.744 533.285L691.744 544.564"/>
<path class="l4" d="M691.744 567.122L691.744 572.762"/>
<circle class="l4" cx="677.645" cy="550.203" r="2.81977" style="fill:none;"/>
<path class="l4" d="M697.384 426.134L703.023 428.953"/>
<path class="l4" d="M697.384 431.773L703.023 428.953"/>
<path class="l4" d="M691.744 412.035L703.023 412.035"/>
<path class="l4" d="M703.023 403.576L703.023 412.035"/>
<path class="l4" d="M691.744 428.953L703.023 428.953"/>
<path class="l4" d="M703.023 428.953L703.023 437.413"/>
<path class="l4" d="M691.744 420.494L703.023 420.494"/>
<path class="l4" d="M691.744 412.035L691.744 428.953"/>
<path class="l4" d="M688.924 412.035L688.924 428.953"/>
<path class="l4" d="M680.465 420.494L688.924 420.494"/>
<path class="l4" d="M804.535 428.953L815.814 428.953"/>
<path class="l4" d="M804.535 428.953L804.535 437.413"/>
<path class="l4" d="M804.535 412.035L815.814 412.035"/>
<path class="l4" d="M804.535 403.576L804.535 412.035"/>
<path class="l4" d="M804.535 420.494L815.814 420.494"/>
<path class="l4" d="M806.227 409.215L811.866 412.035"/>
<path class="l4" d="M806.227 414.855L811.866 412.035"/>
<path class="l4" d="M815.814 412.035L815.814 428.953"/>
<path class="l4" d="M818.634 412.035L818.634 428.953"/>
<path class="l4" d="M823.145 420.494L827.093 420.494"/>
<circle class="l4" cx="820.89" cy="420.494" r="2.25581" style="fill:none;"/>
<path class="l4" d="M505.64 558.663L511.279 555.843"/>
<path class="l4" d="M505.64 558.663L511.279 561.483"/>
<path class="l4" d="M505.64 541.744L516.919 541.744"/>
<path class="l4" d="M505.64 533.285L505.64 541.744"/>
<path class="l4" d="M505.64 558.663L516.919 558.663"/>
<path class="l4" d="M505.64 558.663L505.64 567.122"/>
<path class="l4" d="M505.64 550.203L516.919 550.203"/>
<path class="l4" d="M516.919 541.744L516.919 558.663"/>
<path class="l4" d="M519.738 541.744L519.738 558.663"/>
<path class="l4" d="M519.738 550.203L528.198 550.203"/>
<path class="l5" d="M413.997 475.48L416.817 475.48L416.817 478.299L413.997 478.299L413.997 475.48z"/>
<path class="l5" d="M413.997 509.317L416.817 509.317L416.817 512.137L413.997 512.137L413.997 509.317z"/>
<path class="l5" d="M413.151 531.029L417.663 531.029L417.663 535.541L413.151 535.541L413.151 531.029z"/>
<path class="l5" d="M390.593 547.948L395.105 547.948L395.105 552.459L390.593 552.459L390.593 547.948z"/>
<path class="l5" d="M413.151 564.866L417.663 564.866L417.663 569.378L413.151 569.378L413.151 564.866z"/>
<path class="l5" d="M413.151 547.948L417.663 547.948L417.663 552.459L413.151 552.459L413.151 547.948z"/>
<path class="l5" d="M413.151 401.32L417.663 401.32L417.663 405.831L413.151 405.831L413.151 401.32z"/>
<path class="l5" d="M390.593 418.238L395.105 418.238L395.105 422.75L390.593 422.75L390.593 418.238z"/>
<path class="l5" d="M413.151 435.157L417.663 435.157L417.663 439.669L413.151 439.669L413.151 435.157z"/>
<path class="l5" d="M413.151 418.238L417.663 418.238L417.663 422.75L413.151 422.75L413.151 418.238z"/>
<path class="l5" d="M514.663 435.157L519.174 435.157L519.174 439.669L514.663 439.669L514.663 435.157z"/>
<path class="l5" d="M537.221 418.238L541.733 418.238L541.733 422.75L537.221 422.75L537.221 418.238z"/>
<path class="l5" d="M514.663 401.32L519.174 401.32L519.174 405.831L514.663 405.831L514.663 401.32z"/>
<path class="l5" d="M514.663 418.238L519.174 418.238L519.174 422.75L514.663 422.75L514.663 418.238z"/>
<path class="l5" d="M499.295 419.789L500.705 419.789L500.705 421.199L499.295 421.199L499.295 419.789z"/>
<path class="l5" d="M431.621 419.789L433.031 419.789L433.031 421.199L431.621 421.199L431.621 419.789z"/>
<path class="l5" d="M108.052 550.203L110.872 550.203"/>
<path class="l5" d="M108.052 550.203L105.937 547.384L101.003 547.384L103.118 550.203L101.003 553.023L105.937 553.023L108.052 550.203"/>
<path class="l5" d="M110.167 549.499L111.577 549.499L111.577 550.908L110.167 550.908L110.167 549.499z"/>
<path class="l5" d="M367.471 578.401L370.291 578.401"/>
<path class="l5" d="M367.471 578.401L365.356 575.581L360.422 575.581L362.536 578.401L360.422 581.221L365.356 581.221L367.471 578.401"/>
<path class="l5" d="M369.586 577.696L370.996 577.696L370.996 579.106L369.586 579.106L369.586 577.696z"/>
<path class="l5" d="M367.471 364.099L370.291 364.099"/>
<path class="l5" d="M367.471 364.099L365.356 361.279L360.422 361.279L362.536 364.099L360.422 366.919L365.356 366.919L367.471 364.099"/>
<path class="l5" d="M369.586 363.394L370.996 363.394L370.996 364.804L369.586 364.804L369.586 363.394z"/>
<path class="l5" d="M466.163 384.895L466.163 386.657"/>
<path class="l5" d="M463.343 378.903L466.163 376.788L468.983 378.903L468.983 382.78L466.163 384.895L463.343 382.78L463.343 378.903"/>
<path class="l5" d="M465.458 385.952L466.868 385.952L466.868 387.362L465.458 387.362L465.458 385.952z"/>
<path class="l5" d="M125.535 547.948L130.047 547.948L130.047 552.459L125.535 552.459L125.535 547.948z"/>
<path class="l5" d="M170.651 547.948L175.163 547.948L175.163 552.459L170.651 552.459L170.651 547.948z"/>
<path class="l5" d="M148.093 525.39L152.605 525.39L152.605 529.901L148.093 529.901L148.093 525.39z"/>
<path class="l5" d="M148.093 570.506L152.605 570.506L152.605 575.017L148.093 575.017L148.093 570.506z"/>
<path class="l5" d="M181.93 547.948L186.442 547.948L186.442 552.459L181.93 552.459L181.93 547.948z"/>
<path class="l5" d="M227.047 547.948L231.558 547.948L231.558 552.459L227.047 552.459L227.047 547.948z"/>
<path class="l5" d="M204.488 525.39L209 525.39L209 529.901L204.488 529.901L204.488 525.39z"/>
<path class="l5" d="M204.488 570.506L209 570.506L209 575.017L204.488 575.017L204.488 570.506z"/>
<path class="l5" d="M238.326 547.948L242.837 547.948L242.837 552.459L238.326 552.459L238.326 547.948z"/>
<path class="l5" d="M283.442 547.948L287.953 547.948L287.953 552.459L283.442 552.459L283.442 547.948z"/>
<path class="l5" d="M260.884 525.39L265.395 525.39L265.395 529.901L260.884 529.901L260.884 525.39z"/>
<path class="l5" d="M260.884 570.506L265.395 570.506L265.395 575.017L260.884 575.017L260.884 570.506z"/>
<path class="l5" d="M74.7791 593.064L79.2907 593.064L79.2907 597.576L74.7791 597.576L74.7791 593.064z"/>
<path class="l5" d="M74.7791 615.622L79.2907 615.622L79.2907 620.134L74.7791 620.134L74.7791 615.622z"/>
<path class="l5" d="M98.8881 594.615L100.298 594.615L100.298 596.025L98.8881 596.025L98.8881 594.615z"/>
<path class="l5" d="M93.2485 617.173L94.6584 617.173L94.6584 618.583L93.2485 618.583L93.2485 617.173z"/>
<path class="l5" d="M279.353 572.057L280.763 572.057L280.763 573.467L279.353 573.467L279.353 572.057z"/>
<path class="l5" d="M284.993 526.94L286.403 526.94L286.403 528.35L284.993 528.35L284.993 526.94z"/>
<path class="l5" d="M369.586 549.499L370.996 549.499L370.996 550.908L369.586 550.908L369.586 549.499z"/>
<path class="l5" d="M335.749 419.789L337.158 419.789L337.158 421.199L335.749 421.199L335.749 419.789z"/>
<path class="l5" d="M572.609 419.789L574.019 419.789L574.019 421.199L572.609 421.199L572.609 419.789z"/>
<path class="l5" d="M290.632 549.499L292.042 549.499L292.042 550.908L290.632 550.908L290.632 549.499z"/>
<path class="l5" d="M844.012 550.203L846.831 550.203"/>
<path class="l5" d="M846.831 550.203L848.946 547.384L853.881 547.384L851.766 550.203L853.881 553.023L848.946 553.023L846.831 550.203"/>
<path class="l5" d="M843.307 549.499L844.717 549.499L844.717 550.908L843.307 550.908L843.307 549.499z"/>
<path class="l5" d="M824.837 547.948L829.349 547.948L829.349 552.459L824.837 552.459L824.837 547.948z"/>
<path class="l5" d="M779.721 547.948L784.233 547.948L784.233 552.459L779.721 552.459L779.721 547.948z"/>
<path class="l5" d="M802.279 525.39L806.791 525.39L806.791 529.901L802.279 529.901L802.279 525.39z"/>
<path class="l5" d="M802.279 570.506L806.791 570.506L806.791 575.017L802.279 575.017L802.279 570.506z"/>
<path class="l5" d="M768.442 547.948L772.953 547.948L772.953 552.459L768.442 552.459L768.442 547.948z"/>
<path class="l5" d="M723.326 547.948L727.837 547.948L727.837 552.459L723.326 552.459L723.326 547.948z"/>
<path class="l5" d="M745.884 525.39L750.395 525.39L750.395 529.901L745.884 529.901L745.884 525.39z"/>
<path class="l5" d="M745.884 570.506L750.395 570.506L750.395 575.017L745.884 575.017L745.884 570.506z"/>
<path class="l5" d="M712.047 547.948L716.558 547.948L716.558 552.459L712.047 552.459L712.047 547.948z"/>
<path class="l5" d="M666.93 547.948L671.442 547.948L671.442 552.459L666.93 552.459L666.93 547.948z"/>
<path class="l5" d="M689.488 525.39L694 525.39L694 529.901L689.488 529.901L689.488 525.39z"/>
<path class="l5" d="M689.488 570.506L694 570.506L694 575.017L689.488 575.017L689.488 570.506z"/>
<path class="l5" d="M674.121 572.057L675.531 572.057L675.531 573.467L674.121 573.467L674.121 572.057z"/>
<path class="l5" d="M668.481 526.94L669.891 526.94L669.891 528.35L668.481 528.35L668.481 526.94z"/>
<path class="l5" d="M651.562 549.499L652.972 549.499L652.972 550.908L651.562 550.908L651.562 549.499z"/>
<path class="l5" d="M700.767 401.32L705.279 401.32L705.279 405.831L700.767 405.831L700.767 401.32z"/>
<path class="l5" d="M678.209 418.238L682.721 418.238L682.721 422.75L678.209 422.75L678.209 418.238z"/>
<path class="l5" d="M700.767 435.157L705.279 435.157L705.279 439.669L700.767 439.669L700.767 435.157z"/>
<path class="l5" d="M700.767 418.238L705.279 418.238L705.279 422.75L700.767 422.75L700.767 418.238z"/>
<path class="l5" d="M802.279 435.157L806.791 435.157L806.791 439.669L802.279 439.669L802.279 435.157z"/>
<path class="l5" d="M824.837 418.238L829.349 418.238L829.349 422.75L824.837 422.75L824.837 418.238z"/>
<path class="l5" d="M802.279 401.32L806.791 401.32L806.791 405.831L802.279 405.831L802.279 401.32z"/>
<path class="l5" d="M802.279 418.238L806.791 418.238L806.791 422.75L802.279 422.75L802.279 418.238z"/>
<path class="l5" d="M786.911 419.789L788.321 419.789L788.321 421.199L786.911 421.199L786.911 419.789z"/>
<path class="l5" d="M719.237 419.789L720.647 419.789L720.647 421.199L719.237 421.199L719.237 419.789z"/>
<path class="l5" d="M753.779 384.895L753.779 386.657"/>
<path class="l5" d="M750.959 378.903L753.779 376.788L756.599 378.903L756.599 382.78L753.779 384.895L750.959 382.78L750.959 378.903"/>
<path class="l5" d="M753.074 385.952L754.484 385.952L754.484 387.362L753.074 387.362L753.074 385.952z"/>
<path class="l5" d="M860.225 419.789L861.635 419.789L861.635 421.199L860.225 421.199L860.225 419.789z"/>
<path class="l5" d="M503.384 531.029L507.895 531.029L507.895 535.541L503.384 535.541L503.384 531.029z"/>
<path class="l5" d="M525.942 547.948L530.453 547.948L530.453 552.459L525.942 552.459L525.942 547.948z"/>
<path class="l5" d="M503.384 564.866L507.895 564.866L507.895 569.378L503.384 569.378L503.384 564.866z"/>
<path class="l5" d="M503.384 547.948L507.895 547.948L507.895 552.459L503.384 552.459L503.384 547.948z"/>
<path class="l5" d="M550.051 549.499L551.461 549.499L551.461 550.908L550.051 550.908L550.051 549.499z"/>
<path class="l1" d="M415.407 550.203L432.326 550.203"/>
<path class="l1" d="M432.326 550.203L432.326 567.122"/>
<path class="l1" d="M415.407 567.122L432.326 567.122"/>
<path class="l1" d="M415.407 567.122L415.407 578.401"/>
<path class="l1" d="M381.57 578.401L415.407 578.401"/>
<path class="l1" d="M415.407 510.727L415.407 533.285"/>
<path class="l1" d="M415.407 420.494L432.326 420.494"/>
<path class="l1" d="M415.407 437.413L415.407 476.89"/>
<path class="l1" d="M516.919 437.413L516.919 476.89"/>
<path class="l1" d="M415.407 476.89L516.919 476.89"/>
<path class="l1" d="M516.919 386.657L516.919 403.576"/>
<path class="l1" d="M415.407 386.657L516.919 386.657"/>
<path class="l1" d="M415.407 386.657L415.407 403.576"/>
<path class="l1" d="M500 420.494L516.919 420.494"/>
<path class="l1" d="M370.291 550.203L392.849 550.203"/>
<path class="l1" d="M370.291 578.401L381.57 578.401"/>
<path class="l1" d="M370.291 420.494L392.849 420.494"/>
<path class="l1" d="M539.477 420.494L573.314 420.494"/>
<path class="l1" d="M77.0349 595.32L99.593 595.32"/>
<path class="l1" d="M77.0349 617.878L93.9535 617.878"/>
<path class="l1" d="M263.14 572.762L280.058 572.762"/>
<path class="l1" d="M263.14 527.645L285.698 527.645"/>
<path class="l1" d="M206.744 527.645L263.14 527.645"/>
<path class="l1" d="M150.349 527.645L206.744 527.645"/>
<path class="l1" d="M206.744 572.762L263.14 572.762"/>
<path class="l1" d="M150.349 572.762L206.744 572.762"/>
<path class="l1" d="M172.907 550.203L184.186 550.203"/>
<path class="l1" d="M229.302 550.203L240.581 550.203"/>
<path class="l1" d="M285.698 550.203L302.616 550.203"/>
<path class="l1" d="M110.872 550.203L127.791 550.203"/>
<path class="l1" d="M234.942 420.494L234.942 550.203"/>
<path class="l1" d="M234.942 420.494L370.291 420.494"/>
<path class="l1" d="M674.826 572.762L691.744 572.762"/>
<path class="l1" d="M669.186 527.645L691.744 527.645"/>
<path class="l1" d="M691.744 527.645L748.14 527.645"/>
<path class="l1" d="M748.14 527.645L804.535 527.645"/>
<path class="l1" d="M691.744 572.762L748.14 572.762"/>
<path class="l1" d="M748.14 572.762L804.535 572.762"/>
<path class="l1" d="M770.698 550.203L781.977 550.203"/>
<path class="l1" d="M714.302 550.203L725.581 550.203"/>
<path class="l1" d="M652.267 550.203L669.186 550.203"/>
<path class="l1" d="M827.093 550.203L844.012 550.203"/>
<path class="l1" d="M703.023 420.494L719.942 420.494"/>
<path class="l1" d="M703.023 437.413L703.023 476.89"/>
<path class="l1" d="M804.535 437.413L804.535 476.89"/>
<path class="l1" d="M703.023 476.89L804.535 476.89"/>
<path class="l1" d="M804.535 386.657L804.535 403.576"/>
<path class="l1" d="M703.023 386.657L804.535 386.657"/>
<path class="l1" d="M703.023 386.657L703.023 403.576"/>
<path class="l1" d="M787.616 420.494L804.535 420.494"/>
<path class="l1" d="M827.093 420.494L860.93 420.494"/>
<path class="l1" d="M646.628 420.494L680.465 420.494"/>
<path class="l1" d="M719.942 499.448L719.942 550.203"/>
<path class="l1" d="M516.919 476.89L703.023 476.89"/>
<path class="l1" d="M432.326 550.203L505.64 550.203"/>
<path class="l1" d="M432.326 567.122L505.64 567.122"/>
<path class="l1" d="M528.198 550.203L550.756 550.203"/>
<path class="l1" d="M652.267 499.448L719.942 499.448"/>
<path class="l1" d="M652.267 420.494L652.267 499.448"/>
<path class="l1" d="M415.407 522.006L505.64 522.006"/>
<path class="l1" d="M505.64 522.006L505.64 533.285"/>
<circle class="l1" cx="234.942" cy="550.203" r="2.25581"/>
<circle class="l1" cx="415.407" cy="522.006" r="2.25581"/>
<circle class="l1" cx="432.326" cy="567.122" r="2.25581"/>
<circle class="l1" cx="432.326" cy="550.203" r="2.25581"/>
<circle class="l1" cx="516.919" cy="476.89" r="2.25581"/>
<circle class="l1" cx="432.326" cy="567.122" r="2.25581"/>
<circle class="l1" cx="432.326" cy="550.203" r="2.25581"/>
<circle class="l1" cx="432.326" cy="567.122" r="2.25581"/>
<circle class="l1" cx="432.326" cy="550.203" r="2.25581"/>
<circle class="l1" cx="652.267" cy="420.494" r="2.25581"/>
<circle class="l1" cx="516.919" cy="476.89" r="2.25581"/>
<circle class="l1" cx="703.023" cy="476.89" r="2.25581"/>
<circle class="l1" cx="516.919" cy="476.89" r="2.25581"/>
<circle class="l1" cx="719.942" cy="550.203" r="2.25581"/>
<circle class="l1" cx="703.023" cy="476.89" r="2.25581"/>
<circle class="l1" cx="703.023" cy="476.89" r="2.25581"/>
</svg>
