<svg xmlns="http://www.w3.org/2000/svg" xmlns:xlink="http://www.w3.org/1999/xlink" width="1000" height="700" version="1.1">
<style type="text/css">
.l0{
 fill: #ffffff;
  stroke: #ffffff;
  stroke-linecap:round;
  stroke-linejoin:round;
  stroke-width: 0.60907;
}
.l1{
 fill: #0044ee;
  stroke: #0044ee;
  stroke-linecap:round;
  stroke-linejoin:round;
  stroke-width: 0.60907;
}
.l2{
  fill: none;
  stroke: #aaaaaa;
  stroke-linecap:round;
  stroke-linejoin:round;
  stroke-width: 0.60907;
}
.l3{
 fill: #222222; fill-opacity: 0.5;
  stroke: #222222;
  stroke-linecap:round;
  stroke-linejoin:round;
  stroke-width: 0.60907;
}
.l4{
 fill: #229900;
  stroke: #229900;
  stroke-linecap:round;
  stroke-linejoin:round;
  stroke-width: 0.60907;
}
.l5{
 fill: #bb2200;
  stroke: #bb2200;
  stroke-linecap:round;
  stroke-linejoin:round;
  stroke-width: 0.60907;
}
.l6{
 fill: #00ccee; fill-opacity: 0.5;
  stroke: #00ccee;
  stroke-linecap:round;
  stroke-linejoin:round;
  stroke-width: 0.60907;
}
.l7{
 fill: #ff0000; fill-opacity: 0.5;
  stroke: #ff0000;
  stroke-linecap:round;
  stroke-linejoin:round;
  stroke-width: 0.60907;
}
.l8{
 fill: #888800; fill-opacity: 0.5;
  stroke: #888800;
  stroke-linecap:round;
  stroke-linejoin:round;
  stroke-width: 0.60907;
}
.l9{
 fill: #00aaaa; fill-opacity: 0.5;
  stroke: #00aaaa;
  stroke-linecap:round;
  stroke-linejoin:round;
  stroke-width: 0.60907;
}
.l10{
 fill: #880088;
  stroke: #880088;
  stroke-linecap:round;
  stroke-linejoin:round;
  stroke-width: 0.60907;
}
.l11{
 fill: #00ff00; fill-opacity: 0.5;
  stroke: #00ff00;
  stroke-linecap:round;
  stroke-linejoin:round;
  stroke-width: 0.60907;
}
.l12{
 fill: #0000cc; fill-opacity: 0.5;
  stroke: #0000cc;
  stroke-linecap:round;
  stroke-linejoin:round;
  stroke-width: 0.60907;
}
.l13{
 fill: #666600; fill-opacity: 0.5;
  stroke: #666600;
  stroke-linecap:round;
  stroke-linejoin:round;
  stroke-width: 0.60907;
}
.l14{
  fill: none;
  stroke: #557755;
  stroke-linecap:round;
  stroke-linejoin:round;
  stroke-width: 0.60907;
}
.l15{
 fill: #aa2222; fill-opacity: 0.5;
  stroke: #aa2222;
  stroke-linecap:round;
  stroke-linejoin:round;
  stroke-width: 0.60907;
}
.l16{
 fill: #7ccc40; fill-opacity: 0.5;
  stroke: #7ccc40;
  stroke-linecap:round;
  stroke-linejoin:round;
  stroke-width: 0.60907;
}
.l17{
  fill: none;
  stroke: #00ffcc;
  stroke-linecap:round;
  stroke-linejoin:round;
  stroke-width: 0.60907;
}
.l18{
 fill: #ce0097; fill-opacity: 0.5;
  stroke: #ce0097;
  stroke-linecap:round;
  stroke-linejoin:round;
  stroke-width: 0.60907;
}
.l19{
  fill: none;
  stroke: #d2d46b;
  stroke-linecap:round;
  stroke-linejoin:round;
  stroke-width: 0.60907;
}
.l20{
  fill: none;
  stroke: #ef6158;
  stroke-linecap:round;
  stroke-linejoin:round;
  stroke-width: 0.60907;
}
.l21{
  fill: none;
  stroke: #fdb200;
  stroke-linecap:round;
  stroke-linejoin:round;
  stroke-width: 0.60907;
}
text {font-family: Sans-Serif;}
</style>
<rect class="l0" x="0" y="0" width="1000" height="700"/>
<text fill="#222222"  xml:space="preserve" font-size="14.6628" transform="translate(449.244, 208.227)" >Bipolar DAC</text>
<text fill="#0044ee"  xml:space="preserve" font-size="9.67744" transform="translate(69.4134, 542.777)" >VSS</text>
<text fill="#0044ee"  xml:space="preserve" font-size="9.67744" transform="translate(486.581, 302.152) rotate(270)" >VD</text>
<text fill="#0044ee"  xml:space="preserve" font-size="9.67744" transform="translate(2.09343, 407.428)" >BD_1V8[7:0]</text>
<text fill="#0044ee"  xml:space="preserve" font-size="7.91791" transform="translate(41.8577, 440.455)" >BD_1V8[7]</text>
<text fill="#0044ee"  xml:space="preserve" font-size="7.91791" transform="translate(149.009, 440.455)" >BD_1V8[6]</text>
<text fill="#0044ee"  xml:space="preserve" font-size="7.91791" transform="translate(250.52, 440.455)" >BD_1V8[5]</text>
<text fill="#0044ee"  xml:space="preserve" font-size="7.91791" transform="translate(346.393, 440.455)" >BD_1V8[4]</text>
<text fill="#0044ee"  xml:space="preserve" font-size="7.91791" transform="translate(442.265, 440.455)" >BD_1V8[3]</text>
<text fill="#0044ee"  xml:space="preserve" font-size="7.91791" transform="translate(538.137, 440.455)" >BD_1V8[2]</text>
<text fill="#0044ee"  xml:space="preserve" font-size="7.91791" transform="translate(634.009, 440.455)" >BD_1V8[1]</text>
<text fill="#0044ee"  xml:space="preserve" font-size="7.91791" transform="translate(729.881, 440.455)" >BD_1V8[0]</text>
<text fill="#0044ee"  xml:space="preserve" font-size="9.67744" transform="translate(267.063, 367.951)" >RES_N_1V8</text>
<text fill="#222222"  xml:space="preserve" font-size="5.86512" transform="translate(146.119, 501.953)" >pnp_05v5_W3p40L3p40</text>
<text fill="#222222"  xml:space="preserve" font-size="5.86512" transform="translate(146.119, 478.69)" >Q1</text>
<text fill="#ff0000"  xml:space="preserve" font-size="4.39884" transform="translate(139.07, 472.072)" >e</text>
<text fill="#ff0000"  xml:space="preserve" font-size="4.39884" transform="translate(139.07, 507.319)" >c</text>
<text fill="#ff0000"  xml:space="preserve" font-size="4.39884" transform="translate(123.613, 486.171)" >b</text>
<text fill="#222222"  xml:space="preserve" font-size="5.86512" transform="translate(146.119, 494.904)" >m=1</text>
<text fill="#222222"  xml:space="preserve" font-size="5.86512" transform="translate(253.27, 501.953)" >pnp_05v5_W3p40L3p40</text>
<text fill="#222222"  xml:space="preserve" font-size="5.86512" transform="translate(253.27, 478.69)" >Q2</text>
<text fill="#ff0000"  xml:space="preserve" font-size="4.39884" transform="translate(246.221, 472.072)" >e</text>
<text fill="#ff0000"  xml:space="preserve" font-size="4.39884" transform="translate(246.221, 507.319)" >c</text>
<text fill="#ff0000"  xml:space="preserve" font-size="4.39884" transform="translate(230.764, 486.171)" >b</text>
<text fill="#222222"  xml:space="preserve" font-size="5.86512" transform="translate(253.27, 494.904)" >m=1</text>
<text fill="#222222"  xml:space="preserve" font-size="5.86512" transform="translate(354.782, 501.953)" >pnp_05v5_W3p40L3p40</text>
<text fill="#222222"  xml:space="preserve" font-size="5.86512" transform="translate(354.782, 478.69)" >Q3</text>
<text fill="#ff0000"  xml:space="preserve" font-size="4.39884" transform="translate(347.733, 472.072)" >e</text>
<text fill="#ff0000"  xml:space="preserve" font-size="4.39884" transform="translate(347.733, 507.319)" >c</text>
<text fill="#ff0000"  xml:space="preserve" font-size="4.39884" transform="translate(332.276, 486.171)" >b</text>
<text fill="#222222"  xml:space="preserve" font-size="5.86512" transform="translate(354.782, 494.904)" >m=1</text>
<text fill="#222222"  xml:space="preserve" font-size="5.86512" transform="translate(450.654, 501.953)" >pnp_05v5_W3p40L3p40</text>
<text fill="#222222"  xml:space="preserve" font-size="5.86512" transform="translate(450.654, 478.69)" >Q4</text>
<text fill="#ff0000"  xml:space="preserve" font-size="4.39884" transform="translate(443.605, 472.072)" >e</text>
<text fill="#ff0000"  xml:space="preserve" font-size="4.39884" transform="translate(443.605, 507.319)" >c</text>
<text fill="#ff0000"  xml:space="preserve" font-size="4.39884" transform="translate(428.148, 486.171)" >b</text>
<text fill="#222222"  xml:space="preserve" font-size="5.86512" transform="translate(450.654, 494.904)" >m=1</text>
<text fill="#222222"  xml:space="preserve" font-size="5.86512" transform="translate(546.526, 501.953)" >pnp_05v5_W3p40L3p40</text>
<text fill="#222222"  xml:space="preserve" font-size="5.86512" transform="translate(546.526, 478.69)" >Q5</text>
<text fill="#ff0000"  xml:space="preserve" font-size="4.39884" transform="translate(539.477, 472.072)" >e</text>
<text fill="#ff0000"  xml:space="preserve" font-size="4.39884" transform="translate(539.477, 507.319)" >c</text>
<text fill="#ff0000"  xml:space="preserve" font-size="4.39884" transform="translate(524.02, 486.171)" >b</text>
<text fill="#222222"  xml:space="preserve" font-size="5.86512" transform="translate(546.526, 494.904)" >m=1</text>
<text fill="#222222"  xml:space="preserve" font-size="5.86512" transform="translate(642.398, 501.953)" >pnp_05v5_W3p40L3p40</text>
<text fill="#222222"  xml:space="preserve" font-size="5.86512" transform="translate(642.398, 478.69)" >Q6</text>
<text fill="#ff0000"  xml:space="preserve" font-size="4.39884" transform="translate(635.349, 472.072)" >e</text>
<text fill="#ff0000"  xml:space="preserve" font-size="4.39884" transform="translate(635.349, 507.319)" >c</text>
<text fill="#ff0000"  xml:space="preserve" font-size="4.39884" transform="translate(619.892, 486.171)" >b</text>
<text fill="#222222"  xml:space="preserve" font-size="5.86512" transform="translate(642.398, 494.904)" >m=1</text>
<text fill="#222222"  xml:space="preserve" font-size="5.86512" transform="translate(738.27, 501.953)" >pnp_05v5_W3p40L3p40</text>
<text fill="#222222"  xml:space="preserve" font-size="5.86512" transform="translate(738.27, 478.69)" >Q7</text>
<text fill="#ff0000"  xml:space="preserve" font-size="4.39884" transform="translate(731.221, 472.072)" >e</text>
<text fill="#ff0000"  xml:space="preserve" font-size="4.39884" transform="translate(731.221, 507.319)" >c</text>
<text fill="#ff0000"  xml:space="preserve" font-size="4.39884" transform="translate(715.764, 486.171)" >b</text>
<text fill="#222222"  xml:space="preserve" font-size="5.86512" transform="translate(738.27, 494.904)" >m=1</text>
<text fill="#222222"  xml:space="preserve" font-size="5.86512" transform="translate(834.142, 501.953)" >pnp_05v5_W3p40L3p40</text>
<text fill="#222222"  xml:space="preserve" font-size="5.86512" transform="translate(834.142, 478.69)" >Q8</text>
<text fill="#ff0000"  xml:space="preserve" font-size="4.39884" transform="translate(827.093, 472.072)" >e</text>
<text fill="#ff0000"  xml:space="preserve" font-size="4.39884" transform="translate(827.093, 507.319)" >c</text>
<text fill="#ff0000"  xml:space="preserve" font-size="4.39884" transform="translate(811.636, 486.171)" >b</text>
<text fill="#222222"  xml:space="preserve" font-size="5.86512" transform="translate(834.142, 494.904)" >m=1</text>
<text fill="#222222"  xml:space="preserve" font-size="4.69209" transform="translate(144.709, 433.453)" >JNWATR_NCH_4C1F2</text>
<text fill="#222222"  xml:space="preserve" font-size="4.69209" transform="translate(144.709, 458.831)" >x1</text>
<text fill="#222222"  xml:space="preserve" font-size="4.69209" transform="translate(251.86, 433.453)" >JNWATR_NCH_4C1F2</text>
<text fill="#222222"  xml:space="preserve" font-size="4.69209" transform="translate(251.86, 458.831)" >x2</text>
<text fill="#222222"  xml:space="preserve" font-size="4.69209" transform="translate(353.372, 433.453)" >JNWATR_NCH_4C1F2</text>
<text fill="#222222"  xml:space="preserve" font-size="4.69209" transform="translate(353.372, 458.831)" >x3</text>
<text fill="#222222"  xml:space="preserve" font-size="4.69209" transform="translate(449.244, 433.453)" >JNWATR_NCH_4C1F2</text>
<text fill="#222222"  xml:space="preserve" font-size="4.69209" transform="translate(449.244, 458.831)" >x4</text>
<text fill="#222222"  xml:space="preserve" font-size="4.69209" transform="translate(545.116, 433.453)" >JNWATR_NCH_4C1F2</text>
<text fill="#222222"  xml:space="preserve" font-size="4.69209" transform="translate(545.116, 458.831)" >x5</text>
<text fill="#222222"  xml:space="preserve" font-size="4.69209" transform="translate(640.988, 433.453)" >JNWATR_NCH_4C1F2</text>
<text fill="#222222"  xml:space="preserve" font-size="4.69209" transform="translate(640.988, 458.831)" >x6</text>
<text fill="#222222"  xml:space="preserve" font-size="4.69209" transform="translate(736.86, 433.453)" >JNWATR_NCH_4C1F2</text>
<text fill="#222222"  xml:space="preserve" font-size="4.69209" transform="translate(736.86, 458.831)" >x7</text>
<text fill="#222222"  xml:space="preserve" font-size="4.69209" transform="translate(832.733, 433.453)" >JNWATR_NCH_4C1F2</text>
<text fill="#222222"  xml:space="preserve" font-size="4.69209" transform="translate(832.733, 458.831)" >x8</text>
<text fill="#222222"  xml:space="preserve" font-size="7.3314" transform="translate(827.093, 614.863)" >Updated</text>
<text fill="#222222"  xml:space="preserve" font-size="7.3314" transform="translate(29.0988, 648.7)" >Library/Cell</text>
<text fill="#222222"  xml:space="preserve" font-size="7.3314" transform="translate(827.093, 603.584)" >Designer</text>
<text fill="#222222"  xml:space="preserve" font-size="7.3314" transform="translate(827.093, 626.142)" >Modified</text>
<text fill="#222222"  xml:space="preserve" font-size="7.3314" transform="translate(829.913, 637.421)" >Copyright</text>
<text fill="#222222"  xml:space="preserve" font-size="7.3314" transform="translate(872.209, 614.863)" >wulff</text>
<text fill="#222222"  xml:space="preserve" font-size="7.3314" transform="translate(872.209, 626.142)" >2024-07-23  16:42:37</text>
<text fill="#222222"  xml:space="preserve" font-size="7.3314" transform="translate(872.209, 637.421)" >Carsten Wulff Software</text>
<text fill="#222222"  xml:space="preserve" font-size="7.3314" transform="translate(93.9535, 648.7)" >JNWG00_BDAC</text>
<text fill="#222222"  xml:space="preserve" font-size="7.3314" transform="translate(872.209, 603.584)" >Carsten Wulff</text>
<text fill="#222222"  xml:space="preserve" font-size="4.39884" transform="translate(495.729, 354.83) rotate(270)" >x9</text>
<text fill="#222222"  xml:space="preserve" font-size="4.39884" transform="translate(501.368, 389.255) rotate(270)" >SUNTR_RPPO8</text>
<text fill="#222222"  xml:space="preserve" font-size="4.69209" transform="translate(415.407, 354.5)" >JNWATR_NCH_4C1F2</text>
<text fill="#222222"  xml:space="preserve" font-size="4.69209" transform="translate(415.407, 379.877)" >x10</text>
<path class="l4" d="M133.43 471.25L133.43 505.087"/>
<path class="l4" d="M122.151 488.169L133.43 488.169"/>
<path class="l4" d="M139.07 476.89L144.709 471.25"/>
<path class="l4" d="M133.43 493.808L144.709 505.087"/>
<path class="l4" d="M133.43 482.529L141.89 479.709L136.25 474.07L133.43 482.529"/>
<path class="l4" d="M240.581 471.25L240.581 505.087"/>
<path class="l4" d="M229.302 488.169L240.581 488.169"/>
<path class="l4" d="M246.221 476.89L251.86 471.25"/>
<path class="l4" d="M240.581 493.808L251.86 505.087"/>
<path class="l4" d="M240.581 482.529L249.041 479.709L243.401 474.07L240.581 482.529"/>
<path class="l4" d="M342.093 471.25L342.093 505.087"/>
<path class="l4" d="M330.814 488.169L342.093 488.169"/>
<path class="l4" d="M347.733 476.89L353.372 471.25"/>
<path class="l4" d="M342.093 493.808L353.372 505.087"/>
<path class="l4" d="M342.093 482.529L350.552 479.709L344.913 474.07L342.093 482.529"/>
<path class="l4" d="M437.965 471.25L437.965 505.087"/>
<path class="l4" d="M426.686 488.169L437.965 488.169"/>
<path class="l4" d="M443.605 476.89L449.244 471.25"/>
<path class="l4" d="M437.965 493.808L449.244 505.087"/>
<path class="l4" d="M437.965 482.529L446.424 479.709L440.785 474.07L437.965 482.529"/>
<path class="l4" d="M533.837 471.25L533.837 505.087"/>
<path class="l4" d="M522.558 488.169L533.837 488.169"/>
<path class="l4" d="M539.477 476.89L545.116 471.25"/>
<path class="l4" d="M533.837 493.808L545.116 505.087"/>
<path class="l4" d="M533.837 482.529L542.297 479.709L536.657 474.07L533.837 482.529"/>
<path class="l4" d="M629.709 471.25L629.709 505.087"/>
<path class="l4" d="M618.43 488.169L629.709 488.169"/>
<path class="l4" d="M635.349 476.89L640.988 471.25"/>
<path class="l4" d="M629.709 493.808L640.988 505.087"/>
<path class="l4" d="M629.709 482.529L638.169 479.709L632.529 474.07L629.709 482.529"/>
<path class="l4" d="M725.581 471.25L725.581 505.087"/>
<path class="l4" d="M714.302 488.169L725.581 488.169"/>
<path class="l4" d="M731.221 476.89L736.86 471.25"/>
<path class="l4" d="M725.581 493.808L736.86 505.087"/>
<path class="l4" d="M725.581 482.529L734.041 479.709L728.401 474.07L725.581 482.529"/>
<path class="l4" d="M821.453 471.25L821.453 505.087"/>
<path class="l4" d="M810.174 488.169L821.453 488.169"/>
<path class="l4" d="M827.093 476.89L832.733 471.25"/>
<path class="l4" d="M821.453 493.808L832.733 505.087"/>
<path class="l4" d="M821.453 482.529L829.913 479.709L824.273 474.07L821.453 482.529"/>
<path class="l4" d="M139.07 448.692L144.709 451.512"/>
<path class="l4" d="M139.07 454.331L144.709 451.512"/>
<path class="l4" d="M133.43 434.593L144.709 434.593"/>
<path class="l4" d="M144.709 426.134L144.709 434.593"/>
<path class="l4" d="M133.43 451.512L144.709 451.512"/>
<path class="l4" d="M144.709 451.512L144.709 459.971"/>
<path class="l4" d="M133.43 443.052L144.709 443.052"/>
<path class="l4" d="M133.43 434.593L133.43 451.512"/>
<path class="l4" d="M130.61 434.593L130.61 451.512"/>
<path class="l4" d="M122.151 443.052L130.61 443.052"/>
<path class="l4" d="M246.221 448.692L251.86 451.512"/>
<path class="l4" d="M246.221 454.331L251.86 451.512"/>
<path class="l4" d="M240.581 434.593L251.86 434.593"/>
<path class="l4" d="M251.86 426.134L251.86 434.593"/>
<path class="l4" d="M240.581 451.512L251.86 451.512"/>
<path class="l4" d="M251.86 451.512L251.86 459.971"/>
<path class="l4" d="M240.581 443.052L251.86 443.052"/>
<path class="l4" d="M240.581 434.593L240.581 451.512"/>
<path class="l4" d="M237.762 434.593L237.762 451.512"/>
<path class="l4" d="M229.302 443.052L237.762 443.052"/>
<path class="l4" d="M347.733 448.692L353.372 451.512"/>
<path class="l4" d="M347.733 454.331L353.372 451.512"/>
<path class="l4" d="M342.093 434.593L353.372 434.593"/>
<path class="l4" d="M353.372 426.134L353.372 434.593"/>
<path class="l4" d="M342.093 451.512L353.372 451.512"/>
<path class="l4" d="M353.372 451.512L353.372 459.971"/>
<path class="l4" d="M342.093 443.052L353.372 443.052"/>
<path class="l4" d="M342.093 434.593L342.093 451.512"/>
<path class="l4" d="M339.273 434.593L339.273 451.512"/>
<path class="l4" d="M330.814 443.052L339.273 443.052"/>
<path class="l4" d="M443.605 448.692L449.244 451.512"/>
<path class="l4" d="M443.605 454.331L449.244 451.512"/>
<path class="l4" d="M437.965 434.593L449.244 434.593"/>
<path class="l4" d="M449.244 426.134L449.244 434.593"/>
<path class="l4" d="M437.965 451.512L449.244 451.512"/>
<path class="l4" d="M449.244 451.512L449.244 459.971"/>
<path class="l4" d="M437.965 443.052L449.244 443.052"/>
<path class="l4" d="M437.965 434.593L437.965 451.512"/>
<path class="l4" d="M435.145 434.593L435.145 451.512"/>
<path class="l4" d="M426.686 443.052L435.145 443.052"/>
<path class="l4" d="M539.477 448.692L545.116 451.512"/>
<path class="l4" d="M539.477 454.331L545.116 451.512"/>
<path class="l4" d="M533.837 434.593L545.116 434.593"/>
<path class="l4" d="M545.116 426.134L545.116 434.593"/>
<path class="l4" d="M533.837 451.512L545.116 451.512"/>
<path class="l4" d="M545.116 451.512L545.116 459.971"/>
<path class="l4" d="M533.837 443.052L545.116 443.052"/>
<path class="l4" d="M533.837 434.593L533.837 451.512"/>
<path class="l4" d="M531.017 434.593L531.017 451.512"/>
<path class="l4" d="M522.558 443.052L531.017 443.052"/>
<path class="l4" d="M635.349 448.692L640.988 451.512"/>
<path class="l4" d="M635.349 454.331L640.988 451.512"/>
<path class="l4" d="M629.709 434.593L640.988 434.593"/>
<path class="l4" d="M640.988 426.134L640.988 434.593"/>
<path class="l4" d="M629.709 451.512L640.988 451.512"/>
<path class="l4" d="M640.988 451.512L640.988 459.971"/>
<path class="l4" d="M629.709 443.052L640.988 443.052"/>
<path class="l4" d="M629.709 434.593L629.709 451.512"/>
<path class="l4" d="M626.89 434.593L626.89 451.512"/>
<path class="l4" d="M618.43 443.052L626.89 443.052"/>
<path class="l4" d="M731.221 448.692L736.86 451.512"/>
<path class="l4" d="M731.221 454.331L736.86 451.512"/>
<path class="l4" d="M725.581 434.593L736.86 434.593"/>
<path class="l4" d="M736.86 426.134L736.86 434.593"/>
<path class="l4" d="M725.581 451.512L736.86 451.512"/>
<path class="l4" d="M736.86 451.512L736.86 459.971"/>
<path class="l4" d="M725.581 443.052L736.86 443.052"/>
<path class="l4" d="M725.581 434.593L725.581 451.512"/>
<path class="l4" d="M722.762 434.593L722.762 451.512"/>
<path class="l4" d="M714.302 443.052L722.762 443.052"/>
<path class="l4" d="M827.093 448.692L832.733 451.512"/>
<path class="l4" d="M827.093 454.331L832.733 451.512"/>
<path class="l4" d="M821.453 434.593L832.733 434.593"/>
<path class="l4" d="M832.733 426.134L832.733 434.593"/>
<path class="l4" d="M821.453 451.512L832.733 451.512"/>
<path class="l4" d="M832.733 451.512L832.733 459.971"/>
<path class="l4" d="M821.453 443.052L832.733 443.052"/>
<path class="l4" d="M821.453 434.593L821.453 451.512"/>
<path class="l4" d="M818.634 434.593L818.634 451.512"/>
<path class="l4" d="M810.174 443.052L818.634 443.052"/>
<path class="l4" d="M866.57 606.599L866.57 617.878"/>
<path class="l4" d="M793.256 640.436L793.256 651.715"/>
<path class="l4" d="M906.047 640.436L906.047 651.715"/>
<path class="l4" d="M680.465 640.436L680.465 651.715"/>
<path class="l4" d="M91.1337 640.436L91.1337 651.715"/>
<path class="l4" d="M15 640.436L26.2791 640.436"/>
<path class="l4" d="M26.2791 640.436L26.2791 651.715"/>
<path class="l4" d="M973.721 640.436L985 640.436"/>
<path class="l4" d="M973.721 640.436L973.721 651.715"/>
<path class="l4" d="M866.57 595.32L866.57 606.599"/>
<path class="l4" d="M866.57 617.878L866.57 629.157"/>
<path class="l4" style="fill:none;" d="M824.273 640.436L985 640.436L985 595.32L824.273 595.32L824.273 640.436"/>
<path class="l4" style="fill:none;" d="M15 651.715L985 651.715L985 48.2849L15 48.2849L15 651.715"/>
<path class="l4" style="fill:none;" d="M824.273 606.599L973.721 606.599L973.721 595.32L824.273 595.32L824.273 606.599"/>
<path class="l4" style="fill:none;" d="M15 651.715L985 651.715L985 640.436L15 640.436L15 651.715"/>
<path class="l4" style="fill:none;" d="M824.273 640.436L973.721 640.436L973.721 629.157L824.273 629.157L824.273 640.436"/>
<path class="l4" style="fill:none;" d="M824.273 629.157L973.721 629.157L973.721 617.878L824.273 617.878L824.273 629.157"/>
<path class="l4" style="fill:none;" d="M824.273 617.878L973.721 617.878L973.721 606.599L824.273 606.599L824.273 617.878"/>
<path class="l4" d="M471.802 364.099L480.262 364.099"/>
<path class="l4" d="M483.081 381.017L483.081 386.657"/>
<path class="l4" d="M483.081 341.541L483.081 347.18"/>
<path class="l4" d="M479.134 357.331L479.134 370.866"/>
<path class="l4" d="M483.081 377.634L483.081 381.017"/>
<path class="l4" d="M483.081 347.18L483.081 350.564"/>
<path class="l4" d="M479.698 352.256L483.081 350.564"/>
<path class="l4" d="M479.698 352.256L486.465 355.64"/>
<path class="l4" d="M479.698 359.023L486.465 355.64"/>
<path class="l4" d="M479.698 359.023L486.465 362.407"/>
<path class="l4" d="M479.698 365.791L486.465 362.407"/>
<path class="l4" d="M479.698 365.791L486.465 369.174"/>
<path class="l4" d="M479.698 372.558L486.465 369.174"/>
<path class="l4" d="M479.698 372.558L486.465 375.942"/>
<path class="l4" d="M483.081 377.634L486.465 375.942"/>
<path class="l4" d="M409.767 369.738L415.407 372.558"/>
<path class="l4" d="M409.767 375.378L415.407 372.558"/>
<path class="l4" d="M404.128 355.64L415.407 355.64"/>
<path class="l4" d="M415.407 347.18L415.407 355.64"/>
<path class="l4" d="M404.128 372.558L415.407 372.558"/>
<path class="l4" d="M415.407 372.558L415.407 381.017"/>
<path class="l4" d="M404.128 364.099L415.407 364.099"/>
<path class="l4" d="M404.128 355.64L404.128 372.558"/>
<path class="l4" d="M401.308 355.64L401.308 372.558"/>
<path class="l4" d="M392.849 364.099L401.308 364.099"/>
<path class="l5" d="M143.299 503.677L146.119 503.677L146.119 506.497L143.299 506.497L143.299 503.677z"/>
<path class="l5" d="M120.741 486.759L123.561 486.759L123.561 489.578L120.741 489.578L120.741 486.759z"/>
<path class="l5" d="M143.299 469.84L146.119 469.84L146.119 472.66L143.299 472.66L143.299 469.84z"/>
<path class="l5" d="M250.451 503.677L253.27 503.677L253.27 506.497L250.451 506.497L250.451 503.677z"/>
<path class="l5" d="M227.892 486.759L230.712 486.759L230.712 489.578L227.892 489.578L227.892 486.759z"/>
<path class="l5" d="M250.451 469.84L253.27 469.84L253.27 472.66L250.451 472.66L250.451 469.84z"/>
<path class="l5" d="M351.962 503.677L354.782 503.677L354.782 506.497L351.962 506.497L351.962 503.677z"/>
<path class="l5" d="M329.404 486.759L332.224 486.759L332.224 489.578L329.404 489.578L329.404 486.759z"/>
<path class="l5" d="M351.962 469.84L354.782 469.84L354.782 472.66L351.962 472.66L351.962 469.84z"/>
<path class="l5" d="M447.834 503.677L450.654 503.677L450.654 506.497L447.834 506.497L447.834 503.677z"/>
<path class="l5" d="M425.276 486.759L428.096 486.759L428.096 489.578L425.276 489.578L425.276 486.759z"/>
<path class="l5" d="M447.834 469.84L450.654 469.84L450.654 472.66L447.834 472.66L447.834 469.84z"/>
<path class="l5" d="M543.706 503.677L546.526 503.677L546.526 506.497L543.706 506.497L543.706 503.677z"/>
<path class="l5" d="M521.148 486.759L523.968 486.759L523.968 489.578L521.148 489.578L521.148 486.759z"/>
<path class="l5" d="M543.706 469.84L546.526 469.84L546.526 472.66L543.706 472.66L543.706 469.84z"/>
<path class="l5" d="M639.578 503.677L642.398 503.677L642.398 506.497L639.578 506.497L639.578 503.677z"/>
<path class="l5" d="M617.02 486.759L619.84 486.759L619.84 489.578L617.02 489.578L617.02 486.759z"/>
<path class="l5" d="M639.578 469.84L642.398 469.84L642.398 472.66L639.578 472.66L639.578 469.84z"/>
<path class="l5" d="M735.451 503.677L738.27 503.677L738.27 506.497L735.451 506.497L735.451 503.677z"/>
<path class="l5" d="M712.892 486.759L715.712 486.759L715.712 489.578L712.892 489.578L712.892 486.759z"/>
<path class="l5" d="M735.451 469.84L738.27 469.84L738.27 472.66L735.451 472.66L735.451 469.84z"/>
<path class="l5" d="M831.323 503.677L834.142 503.677L834.142 506.497L831.323 506.497L831.323 503.677z"/>
<path class="l5" d="M808.765 486.759L811.584 486.759L811.584 489.578L808.765 489.578L808.765 486.759z"/>
<path class="l5" d="M831.323 469.84L834.142 469.84L834.142 472.66L831.323 472.66L831.323 469.84z"/>
<path class="l5" d="M142.453 423.878L146.965 423.878L146.965 428.39L142.453 428.39L142.453 423.878z"/>
<path class="l5" d="M119.895 440.797L124.407 440.797L124.407 445.308L119.895 445.308L119.895 440.797z"/>
<path class="l5" d="M142.453 457.715L146.965 457.715L146.965 462.227L142.453 462.227L142.453 457.715z"/>
<path class="l5" d="M142.453 440.797L146.965 440.797L146.965 445.308L142.453 445.308L142.453 440.797z"/>
<path class="l5" d="M249.605 423.878L254.116 423.878L254.116 428.39L249.605 428.39L249.605 423.878z"/>
<path class="l5" d="M227.047 440.797L231.558 440.797L231.558 445.308L227.047 445.308L227.047 440.797z"/>
<path class="l5" d="M249.605 457.715L254.116 457.715L254.116 462.227L249.605 462.227L249.605 457.715z"/>
<path class="l5" d="M249.605 440.797L254.116 440.797L254.116 445.308L249.605 445.308L249.605 440.797z"/>
<path class="l5" d="M351.116 423.878L355.628 423.878L355.628 428.39L351.116 428.39L351.116 423.878z"/>
<path class="l5" d="M328.558 440.797L333.07 440.797L333.07 445.308L328.558 445.308L328.558 440.797z"/>
<path class="l5" d="M351.116 457.715L355.628 457.715L355.628 462.227L351.116 462.227L351.116 457.715z"/>
<path class="l5" d="M351.116 440.797L355.628 440.797L355.628 445.308L351.116 445.308L351.116 440.797z"/>
<path class="l5" d="M446.988 423.878L451.5 423.878L451.5 428.39L446.988 428.39L446.988 423.878z"/>
<path class="l5" d="M424.43 440.797L428.942 440.797L428.942 445.308L424.43 445.308L424.43 440.797z"/>
<path class="l5" d="M446.988 457.715L451.5 457.715L451.5 462.227L446.988 462.227L446.988 457.715z"/>
<path class="l5" d="M446.988 440.797L451.5 440.797L451.5 445.308L446.988 445.308L446.988 440.797z"/>
<path class="l5" d="M542.86 423.878L547.372 423.878L547.372 428.39L542.86 428.39L542.86 423.878z"/>
<path class="l5" d="M520.302 440.797L524.814 440.797L524.814 445.308L520.302 445.308L520.302 440.797z"/>
<path class="l5" d="M542.86 457.715L547.372 457.715L547.372 462.227L542.86 462.227L542.86 457.715z"/>
<path class="l5" d="M542.86 440.797L547.372 440.797L547.372 445.308L542.86 445.308L542.86 440.797z"/>
<path class="l5" d="M638.733 423.878L643.244 423.878L643.244 428.39L638.733 428.39L638.733 423.878z"/>
<path class="l5" d="M616.174 440.797L620.686 440.797L620.686 445.308L616.174 445.308L616.174 440.797z"/>
<path class="l5" d="M638.733 457.715L643.244 457.715L643.244 462.227L638.733 462.227L638.733 457.715z"/>
<path class="l5" d="M638.733 440.797L643.244 440.797L643.244 445.308L638.733 445.308L638.733 440.797z"/>
<path class="l5" d="M734.605 423.878L739.116 423.878L739.116 428.39L734.605 428.39L734.605 423.878z"/>
<path class="l5" d="M712.047 440.797L716.558 440.797L716.558 445.308L712.047 445.308L712.047 440.797z"/>
<path class="l5" d="M734.605 457.715L739.116 457.715L739.116 462.227L734.605 462.227L734.605 457.715z"/>
<path class="l5" d="M734.605 440.797L739.116 440.797L739.116 445.308L734.605 445.308L734.605 440.797z"/>
<path class="l5" d="M830.477 423.878L834.988 423.878L834.988 428.39L830.477 428.39L830.477 423.878z"/>
<path class="l5" d="M807.919 440.797L812.43 440.797L812.43 445.308L807.919 445.308L807.919 440.797z"/>
<path class="l5" d="M830.477 457.715L834.988 457.715L834.988 462.227L830.477 462.227L830.477 457.715z"/>
<path class="l5" d="M830.477 440.797L834.988 440.797L834.988 445.308L830.477 445.308L830.477 440.797z"/>
<path class="l5" d="M102.413 538.924L105.233 538.924"/>
<path class="l5" d="M102.413 538.924L100.298 536.105L95.3634 536.105L97.4782 538.924L95.3634 541.744L100.298 541.744L102.413 538.924"/>
<path class="l5" d="M104.528 538.219L105.937 538.219L105.937 539.629L104.528 539.629L104.528 538.219z"/>
<path class="l5" d="M483.081 311.581L483.081 313.343"/>
<path class="l5" d="M485.901 305.589L483.081 303.474L480.262 305.589L480.262 309.466L483.081 311.581L485.901 309.466L485.901 305.589"/>
<path class="l5" d="M482.376 312.638L483.786 312.638L483.786 314.048L482.376 314.048L482.376 312.638z"/>
<path class="l5" d="M102.413 403.576L105.233 403.576"/>
<path class="l5" d="M102.413 403.576L100.298 400.756L95.3634 400.756L97.4782 403.576L95.3634 406.395L100.298 406.395L102.413 403.576"/>
<path class="l5" d="M104.528 402.871L105.937 402.871L105.937 404.281L104.528 404.281L104.528 402.871z"/>
<path class="l5" d="M104.528 442.347L105.937 442.347L105.937 443.757L104.528 443.757L104.528 442.347z"/>
<path class="l5" d="M211.679 442.347L213.089 442.347L213.089 443.757L211.679 443.757L211.679 442.347z"/>
<path class="l5" d="M313.19 442.347L314.6 442.347L314.6 443.757L313.19 443.757L313.19 442.347z"/>
<path class="l5" d="M409.062 442.347L410.472 442.347L410.472 443.757L409.062 443.757L409.062 442.347z"/>
<path class="l5" d="M504.935 442.347L506.344 442.347L506.344 443.757L504.935 443.757L504.935 442.347z"/>
<path class="l5" d="M600.807 442.347L602.217 442.347L602.217 443.757L600.807 443.757L600.807 442.347z"/>
<path class="l5" d="M696.679 442.347L698.089 442.347L698.089 443.757L696.679 443.757L696.679 442.347z"/>
<path class="l5" d="M792.551 442.347L793.961 442.347L793.961 443.757L792.551 443.757L792.551 442.347z"/>
<path class="l5" d="M480.826 384.401L485.337 384.401L485.337 388.913L480.826 388.913L480.826 384.401z"/>
<path class="l5" d="M480.826 339.285L485.337 339.285L485.337 343.797L480.826 343.797L480.826 339.285z"/>
<path class="l5" d="M469.547 361.843L474.058 361.843L474.058 366.355L469.547 366.355L469.547 361.843z"/>
<path class="l5" d="M413.151 344.924L417.663 344.924L417.663 349.436L413.151 349.436L413.151 344.924z"/>
<path class="l5" d="M390.593 361.843L395.105 361.843L395.105 366.355L390.593 366.355L390.593 361.843z"/>
<path class="l5" d="M413.151 378.762L417.663 378.762L417.663 383.273L413.151 383.273L413.151 378.762z"/>
<path class="l5" d="M413.151 361.843L417.663 361.843L417.663 366.355L413.151 366.355L413.151 361.843z"/>
<path class="l5" d="M350.552 364.099L353.372 364.099"/>
<path class="l5" d="M350.552 364.099L348.438 361.279L343.503 361.279L345.618 364.099L343.503 366.919L348.438 366.919L350.552 364.099"/>
<path class="l5" d="M352.667 363.394L354.077 363.394L354.077 364.804L352.667 364.804L352.667 363.394z"/>
<path class="l1" d="M144.709 505.087L144.709 538.924"/>
<path class="l1" d="M122.151 488.169L122.151 538.924"/>
<path class="l1" d="M122.151 538.924L144.709 538.924"/>
<path class="l1" d="M144.709 538.924L251.86 538.924"/>
<path class="l1" d="M251.86 505.087L251.86 538.924"/>
<path class="l1" d="M251.86 538.924L353.372 538.924"/>
<path class="l1" d="M353.372 505.087L353.372 538.924"/>
<path class="l1" d="M353.372 538.924L449.244 538.924"/>
<path class="l1" d="M449.244 505.087L449.244 538.924"/>
<path class="l1" d="M426.686 488.169L426.686 538.924"/>
<path class="l1" d="M330.814 488.169L330.814 538.924"/>
<path class="l1" d="M229.302 488.169L229.302 538.924"/>
<path class="l1" d="M449.244 538.924L545.116 538.924"/>
<path class="l1" d="M545.116 505.087L545.116 538.924"/>
<path class="l1" d="M522.558 488.169L522.558 538.924"/>
<path class="l1" d="M545.116 538.924L640.988 538.924"/>
<path class="l1" d="M640.988 505.087L640.988 538.924"/>
<path class="l1" d="M618.43 488.169L618.43 538.924"/>
<path class="l1" d="M640.988 538.924L736.86 538.924"/>
<path class="l1" d="M736.86 505.087L736.86 538.924"/>
<path class="l1" d="M714.302 488.169L714.302 538.924"/>
<path class="l1" d="M736.86 538.924L832.733 538.924"/>
<path class="l1" d="M832.733 505.087L832.733 538.924"/>
<path class="l1" d="M810.174 488.169L810.174 538.924"/>
<path class="l1" d="M832.733 459.971L832.733 471.25"/>
<path class="l1" d="M736.86 459.971L736.86 471.25"/>
<path class="l1" d="M640.988 459.971L640.988 471.25"/>
<path class="l1" d="M545.116 459.971L545.116 471.25"/>
<path class="l1" d="M449.244 459.971L449.244 471.25"/>
<path class="l1" d="M353.372 459.971L353.372 471.25"/>
<path class="l1" d="M251.86 459.971L251.86 471.25"/>
<path class="l1" d="M144.709 459.971L144.709 471.25"/>
<path class="l1" d="M144.709 443.052L167.267 443.052"/>
<path class="l1" d="M167.267 443.052L167.267 538.924"/>
<path class="l1" d="M251.86 443.052L280.058 443.052"/>
<path class="l1" d="M280.058 443.052L280.058 538.924"/>
<path class="l1" d="M353.372 443.052L375.93 443.052"/>
<path class="l1" d="M375.93 443.052L375.93 538.924"/>
<path class="l1" d="M449.244 443.052L471.802 443.052"/>
<path class="l1" d="M471.802 443.052L471.802 538.924"/>
<path class="l1" d="M545.116 443.052L562.035 443.052"/>
<path class="l1" d="M562.035 443.052L562.035 538.924"/>
<path class="l1" d="M640.988 443.052L652.267 443.052"/>
<path class="l1" d="M652.267 443.052L652.267 538.924"/>
<path class="l1" d="M736.86 443.052L753.779 443.052"/>
<path class="l1" d="M753.779 443.052L753.779 538.924"/>
<path class="l1" d="M832.733 443.052L849.651 443.052"/>
<path class="l1" d="M849.651 443.052L849.651 538.924"/>
<path class="l1" d="M832.733 538.924L849.651 538.924"/>
<path class="l1" d="M144.709 409.215L144.709 426.134"/>
<path class="l1" d="M144.709 409.215L251.86 409.215"/>
<path class="l1" d="M251.86 409.215L251.86 426.134"/>
<path class="l1" d="M251.86 409.215L353.372 409.215"/>
<path class="l1" d="M353.372 409.215L353.372 420.494"/>
<path class="l1" d="M353.372 420.494L353.372 426.134"/>
<path class="l1" d="M449.244 409.215L449.244 426.134"/>
<path class="l1" d="M353.372 409.215L449.244 409.215"/>
<path class="l1" d="M545.116 409.215L545.116 426.134"/>
<path class="l1" d="M449.244 409.215L545.116 409.215"/>
<path class="l1" d="M640.988 409.215L640.988 426.134"/>
<path class="l1" d="M545.116 409.215L640.988 409.215"/>
<path class="l1" d="M736.86 409.215L736.86 426.134"/>
<path class="l1" d="M640.988 409.215L736.86 409.215"/>
<path class="l1" d="M832.733 409.215L832.733 426.134"/>
<path class="l1" d="M736.86 409.215L832.733 409.215"/>
<path class="l1" d="M105.233 538.924L122.151 538.924"/>
<path class="l1" d="M105.233 443.052L122.151 443.052"/>
<path class="l1" d="M212.384 443.052L229.302 443.052"/>
<path class="l1" d="M313.895 443.052L330.814 443.052"/>
<path class="l1" d="M409.767 443.052L426.686 443.052"/>
<path class="l1" d="M505.64 443.052L522.558 443.052"/>
<path class="l1" d="M601.512 443.052L618.43 443.052"/>
<path class="l1" d="M697.384 443.052L714.302 443.052"/>
<path class="l1" d="M793.256 443.052L810.174 443.052"/>
<path class="l1" d="M483.081 386.657L483.081 409.215"/>
<path class="l1" d="M483.081 313.343L483.081 341.541"/>
<path class="l1" d="M471.802 364.099L471.802 443.052"/>
<path class="l1" d="M415.407 341.541L415.407 347.18"/>
<path class="l1" d="M415.407 341.541L483.081 341.541"/>
<path class="l1" d="M415.407 381.017L415.407 386.657"/>
<path class="l1" d="M415.407 386.657L483.081 386.657"/>
<path class="l1" d="M415.407 364.099L471.802 364.099"/>
<path class="l1" d="M347.733 364.099L392.849 364.099"/>
<circle class="l1" cx="251.86" cy="409.215" r="2.25581"/>
<circle class="l1" cx="122.151" cy="538.924" r="2.25581"/>
<circle class="l1" cx="167.267" cy="538.924" r="2.25581"/>
<circle class="l1" cx="229.302" cy="538.924" r="2.25581"/>
<circle class="l1" cx="144.709" cy="538.924" r="2.25581"/>
<circle class="l1" cx="251.86" cy="538.924" r="2.25581"/>
<circle class="l1" cx="122.151" cy="538.924" r="2.25581"/>
<circle class="l1" cx="144.709" cy="538.924" r="2.25581"/>
<circle class="l1" cx="122.151" cy="538.924" r="2.25581"/>
<circle class="l1" cx="144.709" cy="538.924" r="2.25581"/>
<circle class="l1" cx="449.244" cy="409.215" r="2.25581"/>
<circle class="l1" cx="545.116" cy="409.215" r="2.25581"/>
<circle class="l1" cx="353.372" cy="409.215" r="2.25581"/>
<circle class="l1" cx="449.244" cy="409.215" r="2.25581"/>
<circle class="l1" cx="449.244" cy="409.215" r="2.25581"/>
<circle class="l1" cx="353.372" cy="409.215" r="2.25581"/>
<circle class="l1" cx="251.86" cy="409.215" r="2.25581"/>
<circle class="l1" cx="353.372" cy="409.215" r="2.25581"/>
<circle class="l1" cx="251.86" cy="409.215" r="2.25581"/>
<circle class="l1" cx="471.802" cy="443.052" r="2.25581"/>
<circle class="l1" cx="375.93" cy="538.924" r="2.25581"/>
<circle class="l1" cx="280.058" cy="538.924" r="2.25581"/>
<circle class="l1" cx="449.244" cy="538.924" r="2.25581"/>
<circle class="l1" cx="545.116" cy="538.924" r="2.25581"/>
<circle class="l1" cx="330.814" cy="538.924" r="2.25581"/>
<circle class="l1" cx="426.686" cy="538.924" r="2.25581"/>
<circle class="l1" cx="449.244" cy="538.924" r="2.25581"/>
<circle class="l1" cx="353.372" cy="538.924" r="2.25581"/>
<circle class="l1" cx="449.244" cy="538.924" r="2.25581"/>
<circle class="l1" cx="353.372" cy="538.924" r="2.25581"/>
<circle class="l1" cx="251.86" cy="538.924" r="2.25581"/>
<circle class="l1" cx="353.372" cy="538.924" r="2.25581"/>
<circle class="l1" cx="251.86" cy="538.924" r="2.25581"/>
<circle class="l1" cx="471.802" cy="443.052" r="2.25581"/>
<circle class="l1" cx="483.081" cy="409.215" r="2.25581"/>
<circle class="l1" cx="640.988" cy="409.215" r="2.25581"/>
<circle class="l1" cx="736.86" cy="409.215" r="2.25581"/>
<circle class="l1" cx="545.116" cy="409.215" r="2.25581"/>
<circle class="l1" cx="640.988" cy="409.215" r="2.25581"/>
<circle class="l1" cx="640.988" cy="409.215" r="2.25581"/>
<circle class="l1" cx="545.116" cy="409.215" r="2.25581"/>
<circle class="l1" cx="652.267" cy="538.924" r="2.25581"/>
<circle class="l1" cx="562.035" cy="538.924" r="2.25581"/>
<circle class="l1" cx="471.802" cy="443.052" r="2.25581"/>
<circle class="l1" cx="471.802" cy="538.924" r="2.25581"/>
<circle class="l1" cx="640.988" cy="538.924" r="2.25581"/>
<circle class="l1" cx="736.86" cy="538.924" r="2.25581"/>
<circle class="l1" cx="618.43" cy="538.924" r="2.25581"/>
<circle class="l1" cx="640.988" cy="538.924" r="2.25581"/>
<circle class="l1" cx="545.116" cy="538.924" r="2.25581"/>
<circle class="l1" cx="640.988" cy="538.924" r="2.25581"/>
<circle class="l1" cx="522.558" cy="538.924" r="2.25581"/>
<circle class="l1" cx="545.116" cy="538.924" r="2.25581"/>
<circle class="l1" cx="736.86" cy="409.215" r="2.25581"/>
<circle class="l1" cx="736.86" cy="409.215" r="2.25581"/>
<circle class="l1" cx="832.733" cy="538.924" r="2.25581"/>
<circle class="l1" cx="753.779" cy="538.924" r="2.25581"/>
<circle class="l1" cx="810.174" cy="538.924" r="2.25581"/>
<circle class="l1" cx="832.733" cy="538.924" r="2.25581"/>
<circle class="l1" cx="736.86" cy="538.924" r="2.25581"/>
<circle class="l1" cx="832.733" cy="538.924" r="2.25581"/>
<circle class="l1" cx="714.302" cy="538.924" r="2.25581"/>
<circle class="l1" cx="736.86" cy="538.924" r="2.25581"/>
</svg>
