<svg xmlns="http://www.w3.org/2000/svg" xmlns:xlink="http://www.w3.org/1999/xlink" width="1000" height="700" version="1.1">
<style type="text/css">
.l0{
 fill: #ffffff;
  stroke: #ffffff;
  stroke-linecap:round;
  stroke-linejoin:round;
  stroke-width: 0.60907;
}
.l1{
 fill: #0044ee;
  stroke: #0044ee;
  stroke-linecap:round;
  stroke-linejoin:round;
  stroke-width: 0.60907;
}
.l2{
  fill: none;
  stroke: #aaaaaa;
  stroke-linecap:round;
  stroke-linejoin:round;
  stroke-width: 0.60907;
}
.l3{
 fill: #222222; fill-opacity: 0.5;
  stroke: #222222;
  stroke-linecap:round;
  stroke-linejoin:round;
  stroke-width: 0.60907;
}
.l4{
 fill: #229900;
  stroke: #229900;
  stroke-linecap:round;
  stroke-linejoin:round;
  stroke-width: 0.60907;
}
.l5{
 fill: #bb2200;
  stroke: #bb2200;
  stroke-linecap:round;
  stroke-linejoin:round;
  stroke-width: 0.60907;
}
.l6{
 fill: #00ccee; fill-opacity: 0.5;
  stroke: #00ccee;
  stroke-linecap:round;
  stroke-linejoin:round;
  stroke-width: 0.60907;
}
.l7{
 fill: #ff0000; fill-opacity: 0.5;
  stroke: #ff0000;
  stroke-linecap:round;
  stroke-linejoin:round;
  stroke-width: 0.60907;
}
.l8{
 fill: #888800; fill-opacity: 0.5;
  stroke: #888800;
  stroke-linecap:round;
  stroke-linejoin:round;
  stroke-width: 0.60907;
}
.l9{
 fill: #00aaaa; fill-opacity: 0.5;
  stroke: #00aaaa;
  stroke-linecap:round;
  stroke-linejoin:round;
  stroke-width: 0.60907;
}
.l10{
 fill: #880088;
  stroke: #880088;
  stroke-linecap:round;
  stroke-linejoin:round;
  stroke-width: 0.60907;
}
.l11{
 fill: #00ff00; fill-opacity: 0.5;
  stroke: #00ff00;
  stroke-linecap:round;
  stroke-linejoin:round;
  stroke-width: 0.60907;
}
.l12{
 fill: #0000cc; fill-opacity: 0.5;
  stroke: #0000cc;
  stroke-linecap:round;
  stroke-linejoin:round;
  stroke-width: 0.60907;
}
.l13{
 fill: #666600; fill-opacity: 0.5;
  stroke: #666600;
  stroke-linecap:round;
  stroke-linejoin:round;
  stroke-width: 0.60907;
}
.l14{
  fill: none;
  stroke: #557755;
  stroke-linecap:round;
  stroke-linejoin:round;
  stroke-width: 0.60907;
}
.l15{
 fill: #aa2222; fill-opacity: 0.5;
  stroke: #aa2222;
  stroke-linecap:round;
  stroke-linejoin:round;
  stroke-width: 0.60907;
}
.l16{
 fill: #7ccc40; fill-opacity: 0.5;
  stroke: #7ccc40;
  stroke-linecap:round;
  stroke-linejoin:round;
  stroke-width: 0.60907;
}
.l17{
  fill: none;
  stroke: #00ffcc;
  stroke-linecap:round;
  stroke-linejoin:round;
  stroke-width: 0.60907;
}
.l18{
 fill: #ce0097; fill-opacity: 0.5;
  stroke: #ce0097;
  stroke-linecap:round;
  stroke-linejoin:round;
  stroke-width: 0.60907;
}
.l19{
  fill: none;
  stroke: #d2d46b;
  stroke-linecap:round;
  stroke-linejoin:round;
  stroke-width: 0.60907;
}
.l20{
  fill: none;
  stroke: #ef6158;
  stroke-linecap:round;
  stroke-linejoin:round;
  stroke-width: 0.60907;
}
.l21{
  fill: none;
  stroke: #fdb200;
  stroke-linecap:round;
  stroke-linejoin:round;
  stroke-width: 0.60907;
}
text {font-family: Sans-Serif;}
</style>
<rect class="l0" x="0" y="0" width="1000" height="700"/>
<text fill="#222222"  xml:space="preserve" font-size="29.3256" transform="translate(404.128, 165.145)" >Charge pump</text>
<text fill="#0044ee"  xml:space="preserve" font-size="9.67744" transform="translate(326.057, 255.161)" >AVDD</text>
<text fill="#0044ee"  xml:space="preserve" font-size="9.67744" transform="translate(300.812, 384.87)" >CP_UP_N</text>
<text fill="#0044ee"  xml:space="preserve" font-size="9.67744" transform="translate(300.812, 469.463)" >CP_DOWN</text>
<text fill="#0044ee"  xml:space="preserve" font-size="9.67744" transform="translate(334.472, 508.94)" >VBN</text>
<text fill="#0044ee"  xml:space="preserve" font-size="9.67744" transform="translate(326.057, 565.335)" >AVSS</text>
<text fill="#0044ee"  xml:space="preserve" font-size="9.67744" transform="translate(674.826, 424.347)" >LPF</text>
<text fill="#0044ee"  xml:space="preserve" font-size="9.67744" transform="translate(419.77, 323.188)" >VBP</text>
<text fill="#0044ee"  xml:space="preserve" font-size="9.67744" transform="translate(526.921, 317.548)" >VPS</text>
<text fill="#0044ee"  xml:space="preserve" font-size="9.67744" transform="translate(526.921, 509.292)" >VNS</text>
<text fill="#0044ee"  xml:space="preserve" font-size="9.67744" transform="translate(283.982, 334.114)" >PWRUP_1V8</text>
<text fill="#0044ee"  xml:space="preserve" font-size="9.67744" transform="translate(674.826, 463.823)" >LPFZ</text>
<text fill="#0044ee"  xml:space="preserve" font-size="9.67744" transform="translate(326.057, 497.661)" >KICK</text>
<text fill="#222222"  xml:space="preserve" font-size="4.69209" transform="translate(556.395, 281.186)" >JNWATR_PCH_4C5F0</text>
<text fill="#222222"  xml:space="preserve" font-size="4.69209" transform="translate(556.395, 255.808)" >xb2</text>
<text fill="#222222"  xml:space="preserve" font-size="4.69209" transform="translate(383.964, 281.186)" >JNWATR_PCH_4C5F0</text>
<text fill="#222222"  xml:space="preserve" font-size="4.69209" transform="translate(437.004, 255.808)" >xb1</text>
<text fill="#222222"  xml:space="preserve" font-size="4.69209" transform="translate(556.395, 393.976)" >JNWATR_PCH_4C1F2</text>
<text fill="#222222"  xml:space="preserve" font-size="4.69209" transform="translate(556.395, 368.598)" >xb3</text>
<text fill="#222222"  xml:space="preserve" font-size="4.69209" transform="translate(556.395, 456.011)" >JNWATR_NCH_4C1F2</text>
<text fill="#222222"  xml:space="preserve" font-size="4.69209" transform="translate(556.395, 481.389)" >xa3</text>
<text fill="#222222"  xml:space="preserve" font-size="4.69209" transform="translate(556.395, 534.965)" >JNWATR_NCH_4C5F0</text>
<text fill="#222222"  xml:space="preserve" font-size="4.69209" transform="translate(556.395, 560.343)" >xa2</text>
<text fill="#222222"  xml:space="preserve" font-size="4.69209" transform="translate(449.244, 534.965)" >JNWATR_NCH_4C1F2</text>
<text fill="#222222"  xml:space="preserve" font-size="4.69209" transform="translate(449.244, 560.343)" >xa1</text>
<text fill="#222222"  xml:space="preserve" font-size="7.3314" transform="translate(827.093, 614.863)" >Updated</text>
<text fill="#222222"  xml:space="preserve" font-size="7.3314" transform="translate(29.0988, 648.7)" >Library/Cell</text>
<text fill="#222222"  xml:space="preserve" font-size="7.3314" transform="translate(827.093, 603.584)" >Designer</text>
<text fill="#222222"  xml:space="preserve" font-size="7.3314" transform="translate(827.093, 626.142)" >Modified</text>
<text fill="#222222"  xml:space="preserve" font-size="7.3314" transform="translate(829.913, 637.421)" >Copyright</text>
<text fill="#222222"  xml:space="preserve" font-size="7.3314" transform="translate(872.209, 614.863)" >wulff</text>
<text fill="#222222"  xml:space="preserve" font-size="7.3314" transform="translate(872.209, 626.142)" >2024-07-14  11:12:24</text>
<text fill="#222222"  xml:space="preserve" font-size="7.3314" transform="translate(872.209, 637.421)" >Carsten Wulff Software</text>
<text fill="#222222"  xml:space="preserve" font-size="7.3314" transform="translate(93.9535, 648.7)" >JNWG00_CP</text>
<text fill="#222222"  xml:space="preserve" font-size="7.3314" transform="translate(872.209, 603.584)" >Carsten Wulff</text>
<text fill="#222222"  xml:space="preserve" font-size="4.69209" transform="translate(646.628, 320.662)" >JNWATR_PCH_4C1F2</text>
<text fill="#222222"  xml:space="preserve" font-size="4.69209" transform="translate(646.628, 295.284)" >xb4</text>
<text fill="#222222"  xml:space="preserve" font-size="4.69209" transform="translate(640.988, 484.209)" >JNWATR_NCH_4C1F2</text>
<text fill="#222222"  xml:space="preserve" font-size="4.69209" transform="translate(640.988, 509.587)" >xa4</text>
<path class="l4" d="M545.116 276.686L556.395 276.686"/>
<path class="l4" d="M556.395 276.686L556.395 285.145"/>
<path class="l4" d="M545.116 259.767L556.395 259.767"/>
<path class="l4" d="M556.395 251.308L556.395 259.767"/>
<path class="l4" d="M545.116 268.227L556.395 268.227"/>
<path class="l4" d="M549.064 259.767L554.703 256.948"/>
<path class="l4" d="M549.064 259.767L554.703 262.587"/>
<path class="l4" d="M545.116 259.767L545.116 276.686"/>
<path class="l4" d="M542.297 259.767L542.297 276.686"/>
<path class="l4" d="M533.837 268.227L537.785 268.227"/>
<circle class="l4" cx="540.041" cy="268.227" r="2.25581" style="fill:none;"/>
<path class="l4" d="M449.244 276.686L460.523 276.686"/>
<path class="l4" d="M449.244 276.686L449.244 285.145"/>
<path class="l4" d="M449.244 259.767L460.523 259.767"/>
<path class="l4" d="M449.244 251.308L449.244 259.767"/>
<path class="l4" d="M449.244 268.227L460.523 268.227"/>
<path class="l4" d="M450.936 256.948L456.576 259.767"/>
<path class="l4" d="M450.936 262.587L456.576 259.767"/>
<path class="l4" d="M460.523 259.767L460.523 276.686"/>
<path class="l4" d="M463.343 259.767L463.343 276.686"/>
<path class="l4" d="M467.855 268.227L471.802 268.227"/>
<circle class="l4" cx="465.599" cy="268.227" r="2.25581" style="fill:none;"/>
<path class="l4" d="M545.116 389.477L556.395 389.477"/>
<path class="l4" d="M556.395 389.477L556.395 397.936"/>
<path class="l4" d="M545.116 372.558L556.395 372.558"/>
<path class="l4" d="M556.395 364.099L556.395 372.558"/>
<path class="l4" d="M545.116 381.017L556.395 381.017"/>
<path class="l4" d="M549.064 372.558L554.703 369.738"/>
<path class="l4" d="M549.064 372.558L554.703 375.378"/>
<path class="l4" d="M545.116 372.558L545.116 389.477"/>
<path class="l4" d="M542.297 372.558L542.297 389.477"/>
<path class="l4" d="M533.837 381.017L537.785 381.017"/>
<circle class="l4" cx="540.041" cy="381.017" r="2.25581" style="fill:none;"/>
<path class="l4" d="M550.756 471.25L556.395 474.07"/>
<path class="l4" d="M550.756 476.89L556.395 474.07"/>
<path class="l4" d="M545.116 457.151L556.395 457.151"/>
<path class="l4" d="M556.395 448.692L556.395 457.151"/>
<path class="l4" d="M545.116 474.07L556.395 474.07"/>
<path class="l4" d="M556.395 474.07L556.395 482.529"/>
<path class="l4" d="M545.116 465.61L556.395 465.61"/>
<path class="l4" d="M545.116 457.151L545.116 474.07"/>
<path class="l4" d="M542.297 457.151L542.297 474.07"/>
<path class="l4" d="M533.837 465.61L542.297 465.61"/>
<path class="l4" d="M550.756 550.203L556.395 553.023"/>
<path class="l4" d="M550.756 555.843L556.395 553.023"/>
<path class="l4" d="M545.116 536.105L556.395 536.105"/>
<path class="l4" d="M556.395 527.645L556.395 536.105"/>
<path class="l4" d="M545.116 553.023L556.395 553.023"/>
<path class="l4" d="M556.395 553.023L556.395 561.483"/>
<path class="l4" d="M545.116 544.564L556.395 544.564"/>
<path class="l4" d="M545.116 536.105L545.116 553.023"/>
<path class="l4" d="M542.297 536.105L542.297 553.023"/>
<path class="l4" d="M533.837 544.564L542.297 544.564"/>
<path class="l4" d="M443.605 550.203L449.244 553.023"/>
<path class="l4" d="M443.605 555.843L449.244 553.023"/>
<path class="l4" d="M437.965 536.105L449.244 536.105"/>
<path class="l4" d="M449.244 527.645L449.244 536.105"/>
<path class="l4" d="M437.965 553.023L449.244 553.023"/>
<path class="l4" d="M449.244 553.023L449.244 561.483"/>
<path class="l4" d="M437.965 544.564L449.244 544.564"/>
<path class="l4" d="M437.965 536.105L437.965 553.023"/>
<path class="l4" d="M435.145 536.105L435.145 553.023"/>
<path class="l4" d="M426.686 544.564L435.145 544.564"/>
<path class="l4" d="M866.57 606.599L866.57 617.878"/>
<path class="l4" d="M793.256 640.436L793.256 651.715"/>
<path class="l4" d="M906.047 640.436L906.047 651.715"/>
<path class="l4" d="M680.465 640.436L680.465 651.715"/>
<path class="l4" d="M91.1337 640.436L91.1337 651.715"/>
<path class="l4" d="M15 640.436L26.2791 640.436"/>
<path class="l4" d="M26.2791 640.436L26.2791 651.715"/>
<path class="l4" d="M973.721 640.436L985 640.436"/>
<path class="l4" d="M973.721 640.436L973.721 651.715"/>
<path class="l4" d="M866.57 595.32L866.57 606.599"/>
<path class="l4" d="M866.57 617.878L866.57 629.157"/>
<path class="l4" style="fill:none;" d="M824.273 640.436L985 640.436L985 595.32L824.273 595.32L824.273 640.436"/>
<path class="l4" style="fill:none;" d="M15 651.715L985 651.715L985 48.2849L15 48.2849L15 651.715"/>
<path class="l4" style="fill:none;" d="M824.273 606.599L973.721 606.599L973.721 595.32L824.273 595.32L824.273 606.599"/>
<path class="l4" style="fill:none;" d="M15 651.715L985 651.715L985 640.436L15 640.436L15 651.715"/>
<path class="l4" style="fill:none;" d="M824.273 640.436L973.721 640.436L973.721 629.157L824.273 629.157L824.273 640.436"/>
<path class="l4" style="fill:none;" d="M824.273 629.157L973.721 629.157L973.721 617.878L824.273 617.878L824.273 629.157"/>
<path class="l4" style="fill:none;" d="M824.273 617.878L973.721 617.878L973.721 606.599L824.273 606.599L824.273 617.878"/>
<path class="l4" d="M635.349 316.163L646.628 316.163"/>
<path class="l4" d="M646.628 316.163L646.628 324.622"/>
<path class="l4" d="M635.349 299.244L646.628 299.244"/>
<path class="l4" d="M646.628 290.785L646.628 299.244"/>
<path class="l4" d="M635.349 307.703L646.628 307.703"/>
<path class="l4" d="M639.297 299.244L644.936 296.424"/>
<path class="l4" d="M639.297 299.244L644.936 302.064"/>
<path class="l4" d="M635.349 299.244L635.349 316.163"/>
<path class="l4" d="M632.529 299.244L632.529 316.163"/>
<path class="l4" d="M624.07 307.703L628.017 307.703"/>
<circle class="l4" cx="630.273" cy="307.703" r="2.25581" style="fill:none;"/>
<path class="l4" d="M635.349 499.448L640.988 502.267"/>
<path class="l4" d="M635.349 505.087L640.988 502.267"/>
<path class="l4" d="M629.709 485.349L640.988 485.349"/>
<path class="l4" d="M640.988 476.89L640.988 485.349"/>
<path class="l4" d="M629.709 502.267L640.988 502.267"/>
<path class="l4" d="M640.988 502.267L640.988 510.727"/>
<path class="l4" d="M629.709 493.808L640.988 493.808"/>
<path class="l4" d="M629.709 485.349L629.709 502.267"/>
<path class="l4" d="M626.89 485.349L626.89 502.267"/>
<path class="l4" d="M618.43 493.808L626.89 493.808"/>
<path class="l5" d="M554.14 282.89L558.651 282.89L558.651 287.401L554.14 287.401L554.14 282.89z"/>
<path class="l5" d="M531.581 265.971L536.093 265.971L536.093 270.483L531.581 270.483L531.581 265.971z"/>
<path class="l5" d="M554.14 249.052L558.651 249.052L558.651 253.564L554.14 253.564L554.14 249.052z"/>
<path class="l5" d="M554.14 265.971L558.651 265.971L558.651 270.483L554.14 270.483L554.14 265.971z"/>
<path class="l5" d="M446.988 282.89L451.5 282.89L451.5 287.401L446.988 287.401L446.988 282.89z"/>
<path class="l5" d="M469.547 265.971L474.058 265.971L474.058 270.483L469.547 270.483L469.547 265.971z"/>
<path class="l5" d="M446.988 249.052L451.5 249.052L451.5 253.564L446.988 253.564L446.988 249.052z"/>
<path class="l5" d="M446.988 265.971L451.5 265.971L451.5 270.483L446.988 270.483L446.988 265.971z"/>
<path class="l5" d="M554.14 395.68L558.651 395.68L558.651 400.192L554.14 400.192L554.14 395.68z"/>
<path class="l5" d="M531.581 378.762L536.093 378.762L536.093 383.273L531.581 383.273L531.581 378.762z"/>
<path class="l5" d="M554.14 361.843L558.651 361.843L558.651 366.355L554.14 366.355L554.14 361.843z"/>
<path class="l5" d="M554.14 378.762L558.651 378.762L558.651 383.273L554.14 383.273L554.14 378.762z"/>
<path class="l5" d="M554.14 446.436L558.651 446.436L558.651 450.948L554.14 450.948L554.14 446.436z"/>
<path class="l5" d="M531.581 463.355L536.093 463.355L536.093 467.866L531.581 467.866L531.581 463.355z"/>
<path class="l5" d="M554.14 480.273L558.651 480.273L558.651 484.785L554.14 484.785L554.14 480.273z"/>
<path class="l5" d="M554.14 463.355L558.651 463.355L558.651 467.866L554.14 467.866L554.14 463.355z"/>
<path class="l5" d="M554.14 525.39L558.651 525.39L558.651 529.901L554.14 529.901L554.14 525.39z"/>
<path class="l5" d="M531.581 542.308L536.093 542.308L536.093 546.82L531.581 546.82L531.581 542.308z"/>
<path class="l5" d="M554.14 559.227L558.651 559.227L558.651 563.738L554.14 563.738L554.14 559.227z"/>
<path class="l5" d="M554.14 542.308L558.651 542.308L558.651 546.82L554.14 546.82L554.14 542.308z"/>
<path class="l5" d="M446.988 525.39L451.5 525.39L451.5 529.901L446.988 529.901L446.988 525.39z"/>
<path class="l5" d="M424.43 542.308L428.942 542.308L428.942 546.82L424.43 546.82L424.43 542.308z"/>
<path class="l5" d="M446.988 559.227L451.5 559.227L451.5 563.738L446.988 563.738L446.988 559.227z"/>
<path class="l5" d="M446.988 542.308L451.5 542.308L451.5 546.82L446.988 546.82L446.988 542.308z"/>
<path class="l5" d="M367.471 251.308L370.291 251.308"/>
<path class="l5" d="M367.471 251.308L365.356 248.488L360.422 248.488L362.536 251.308L360.422 254.128L365.356 254.128L367.471 251.308"/>
<path class="l5" d="M369.586 250.603L370.996 250.603L370.996 252.013L369.586 252.013L369.586 250.603z"/>
<path class="l5" d="M367.471 381.017L370.291 381.017"/>
<path class="l5" d="M367.471 381.017L365.356 378.198L360.422 378.198L362.536 381.017L360.422 383.837L365.356 383.837L367.471 381.017"/>
<path class="l5" d="M369.586 380.312L370.996 380.312L370.996 381.722L369.586 381.722L369.586 380.312z"/>
<path class="l5" d="M367.471 465.61L370.291 465.61"/>
<path class="l5" d="M367.471 465.61L365.356 462.791L360.422 462.791L362.536 465.61L360.422 468.43L365.356 468.43L367.471 465.61"/>
<path class="l5" d="M369.586 464.906L370.996 464.906L370.996 466.315L369.586 466.315L369.586 464.906z"/>
<path class="l5" d="M367.471 505.087L370.291 505.087"/>
<path class="l5" d="M367.471 505.087L365.356 502.267L360.422 502.267L362.536 505.087L360.422 507.907L365.356 507.907L367.471 505.087"/>
<path class="l5" d="M369.586 504.382L370.996 504.382L370.996 505.792L369.586 505.792L369.586 504.382z"/>
<path class="l5" d="M367.471 561.483L370.291 561.483"/>
<path class="l5" d="M367.471 561.483L365.356 558.663L360.422 558.663L362.536 561.483L360.422 564.302L365.356 564.302L367.471 561.483"/>
<path class="l5" d="M369.586 560.778L370.996 560.778L370.996 562.188L369.586 562.188L369.586 560.778z"/>
<path class="l5" d="M663.547 420.494L668.481 420.494"/>
<path class="l5" d="M673.416 420.494L671.301 417.674L666.366 417.674L668.481 420.494L666.366 423.314L671.301 423.314L673.416 420.494"/>
<path class="l5" d="M662.842 419.789L664.251 419.789L664.251 421.199L662.842 421.199L662.842 419.789z"/>
<path class="l5" d="M448.539 318.278L449.949 318.278L449.949 319.688L448.539 319.688L448.539 318.278z"/>
<path class="l5" d="M555.69 312.638L557.1 312.638L557.1 314.048L555.69 314.048L555.69 312.638z"/>
<path class="l5" d="M555.69 504.382L557.1 504.382L557.1 505.792L555.69 505.792L555.69 504.382z"/>
<path class="l5" d="M644.372 322.366L648.884 322.366L648.884 326.878L644.372 326.878L644.372 322.366z"/>
<path class="l5" d="M621.814 305.448L626.326 305.448L626.326 309.959L621.814 309.959L621.814 305.448z"/>
<path class="l5" d="M644.372 288.529L648.884 288.529L648.884 293.041L644.372 293.041L644.372 288.529z"/>
<path class="l5" d="M644.372 305.448L648.884 305.448L648.884 309.959L644.372 309.959L644.372 305.448z"/>
<path class="l5" d="M367.471 330.262L370.291 330.262"/>
<path class="l5" d="M367.471 330.262L365.356 327.442L360.422 327.442L362.536 330.262L360.422 333.081L365.356 333.081L367.471 330.262"/>
<path class="l5" d="M369.586 329.557L370.996 329.557L370.996 330.967L369.586 330.967L369.586 329.557z"/>
<path class="l5" d="M663.547 459.971L668.481 459.971"/>
<path class="l5" d="M673.416 459.971L671.301 457.151L666.366 457.151L668.481 459.971L666.366 462.791L671.301 462.791L673.416 459.971"/>
<path class="l5" d="M662.842 459.266L664.251 459.266L664.251 460.676L662.842 460.676L662.842 459.266z"/>
<path class="l5" d="M638.733 474.634L643.244 474.634L643.244 479.145L638.733 479.145L638.733 474.634z"/>
<path class="l5" d="M616.174 491.552L620.686 491.552L620.686 496.064L616.174 496.064L616.174 491.552z"/>
<path class="l5" d="M638.733 508.471L643.244 508.471L643.244 512.983L638.733 512.983L638.733 508.471z"/>
<path class="l5" d="M638.733 491.552L643.244 491.552L643.244 496.064L638.733 496.064L638.733 491.552z"/>
<path class="l5" d="M367.471 493.808L370.291 493.808"/>
<path class="l5" d="M367.471 493.808L365.356 490.988L360.422 490.988L362.536 493.808L360.422 496.628L365.356 496.628L367.471 493.808"/>
<path class="l5" d="M369.586 493.103L370.996 493.103L370.996 494.513L369.586 494.513L369.586 493.103z"/>
<path class="l1" d="M494.36 544.564L533.837 544.564"/>
<path class="l1" d="M488.721 505.087L494.36 544.564"/>
<path class="l1" d="M364.651 505.087L488.721 505.087"/>
<path class="l1" d="M421.047 505.087L426.686 544.564"/>
<path class="l1" d="M449.244 285.145L449.244 527.645"/>
<path class="l1" d="M415.407 268.227L449.244 268.227"/>
<path class="l1" d="M415.407 251.308L415.407 268.227"/>
<path class="l1" d="M415.407 251.308L449.244 251.308"/>
<path class="l1" d="M449.244 251.308L556.395 251.308"/>
<path class="l1" d="M556.395 251.308L573.314 251.308"/>
<path class="l1" d="M573.314 251.308L573.314 268.227"/>
<path class="l1" d="M556.395 268.227L573.314 268.227"/>
<path class="l1" d="M556.395 285.145L556.395 364.099"/>
<path class="l1" d="M556.395 381.017L573.314 381.017"/>
<path class="l1" d="M573.314 268.227L573.314 381.017"/>
<path class="l1" d="M471.802 268.227L533.837 268.227"/>
<path class="l1" d="M488.721 268.227L488.721 296.424"/>
<path class="l1" d="M449.244 296.424L488.721 296.424"/>
<path class="l1" d="M556.395 482.529L556.395 527.645"/>
<path class="l1" d="M556.395 544.564L573.314 544.564"/>
<path class="l1" d="M573.314 544.564L573.314 561.483"/>
<path class="l1" d="M556.395 561.483L573.314 561.483"/>
<path class="l1" d="M449.244 561.483L556.395 561.483"/>
<path class="l1" d="M449.244 544.564L460.523 544.564"/>
<path class="l1" d="M460.523 544.564L460.523 561.483"/>
<path class="l1" d="M364.651 561.483L443.605 561.483"/>
<path class="l1" d="M556.395 397.936L556.395 448.692"/>
<path class="l1" d="M556.395 465.61L573.314 465.61"/>
<path class="l1" d="M573.314 465.61L573.314 544.564"/>
<path class="l1" d="M364.651 381.017L533.837 381.017"/>
<path class="l1" d="M364.651 465.61L533.837 465.61"/>
<path class="l1" d="M364.651 251.308L415.407 251.308"/>
<path class="l1" d="M556.395 420.494L663.547 420.494"/>
<path class="l1" d="M443.605 561.483L449.244 561.483"/>
<path class="l1" d="M646.628 251.308L646.628 290.785"/>
<path class="l1" d="M573.314 251.308L646.628 251.308"/>
<path class="l1" d="M646.628 324.622L646.628 420.494"/>
<path class="l1" d="M646.628 307.703L680.465 307.703"/>
<path class="l1" d="M680.465 251.308L680.465 307.703"/>
<path class="l1" d="M646.628 251.308L680.465 251.308"/>
<path class="l1" d="M364.651 330.262L624.07 330.262"/>
<path class="l1" d="M624.07 307.703L624.07 330.262"/>
<path class="l1" d="M640.988 510.727L640.988 561.483"/>
<path class="l1" d="M573.314 561.483L640.988 561.483"/>
<path class="l1" d="M640.988 493.808L657.907 493.808"/>
<path class="l1" d="M657.907 493.808L657.907 561.483"/>
<path class="l1" d="M640.988 561.483L657.907 561.483"/>
<path class="l1" d="M640.988 459.971L669.186 459.971"/>
<path class="l1" d="M364.651 493.808L618.43 493.808"/>
<path class="l1" d="M640.988 459.971L640.988 476.89"/>
<circle class="l1" cx="415.407" cy="251.308" r="2.25581"/>
<circle class="l1" cx="449.244" cy="296.424" r="2.25581"/>
<circle class="l1" cx="415.407" cy="251.308" r="2.25581"/>
<circle class="l1" cx="415.407" cy="251.308" r="2.25581"/>
<circle class="l1" cx="460.523" cy="561.483" r="2.25581"/>
<circle class="l1" cx="421.047" cy="505.087" r="2.25581"/>
<circle class="l1" cx="646.628" cy="251.308" r="2.25581"/>
<circle class="l1" cx="646.628" cy="420.494" r="2.25581"/>
<circle class="l1" cx="573.314" cy="251.308" r="2.25581"/>
<circle class="l1" cx="646.628" cy="251.308" r="2.25581"/>
<circle class="l1" cx="646.628" cy="251.308" r="2.25581"/>
<circle class="l1" cx="488.721" cy="268.227" r="2.25581"/>
<circle class="l1" cx="573.314" cy="268.227" r="2.25581"/>
<circle class="l1" cx="573.314" cy="268.227" r="2.25581"/>
<circle class="l1" cx="573.314" cy="251.308" r="2.25581"/>
<circle class="l1" cx="573.314" cy="268.227" r="2.25581"/>
<circle class="l1" cx="573.314" cy="251.308" r="2.25581"/>
<circle class="l1" cx="640.988" cy="561.483" r="2.25581"/>
<circle class="l1" cx="573.314" cy="561.483" r="2.25581"/>
<circle class="l1" cx="640.988" cy="561.483" r="2.25581"/>
<circle class="l1" cx="640.988" cy="561.483" r="2.25581"/>
<circle class="l1" cx="556.395" cy="420.494" r="2.25581"/>
<circle class="l1" cx="573.314" cy="544.564" r="2.25581"/>
<circle class="l1" cx="573.314" cy="561.483" r="2.25581"/>
<circle class="l1" cx="573.314" cy="544.564" r="2.25581"/>
<circle class="l1" cx="573.314" cy="561.483" r="2.25581"/>
<circle class="l1" cx="573.314" cy="544.564" r="2.25581"/>
</svg>
