<svg xmlns="http://www.w3.org/2000/svg" xmlns:xlink="http://www.w3.org/1999/xlink" width="1000" height="700" version="1.1">
<style type="text/css">
.l0{
 fill: #ffffff;
  stroke: #ffffff;
  stroke-linecap:round;
  stroke-linejoin:round;
  stroke-width: 0.60907;
}
.l1{
 fill: #0044ee;
  stroke: #0044ee;
  stroke-linecap:round;
  stroke-linejoin:round;
  stroke-width: 0.60907;
}
.l2{
  fill: none;
  stroke: #aaaaaa;
  stroke-linecap:round;
  stroke-linejoin:round;
  stroke-width: 0.60907;
}
.l3{
 fill: #222222; fill-opacity: 0.5;
  stroke: #222222;
  stroke-linecap:round;
  stroke-linejoin:round;
  stroke-width: 0.60907;
}
.l4{
 fill: #229900;
  stroke: #229900;
  stroke-linecap:round;
  stroke-linejoin:round;
  stroke-width: 0.60907;
}
.l5{
 fill: #bb2200;
  stroke: #bb2200;
  stroke-linecap:round;
  stroke-linejoin:round;
  stroke-width: 0.60907;
}
.l6{
 fill: #00ccee; fill-opacity: 0.5;
  stroke: #00ccee;
  stroke-linecap:round;
  stroke-linejoin:round;
  stroke-width: 0.60907;
}
.l7{
 fill: #ff0000; fill-opacity: 0.5;
  stroke: #ff0000;
  stroke-linecap:round;
  stroke-linejoin:round;
  stroke-width: 0.60907;
}
.l8{
 fill: #888800; fill-opacity: 0.5;
  stroke: #888800;
  stroke-linecap:round;
  stroke-linejoin:round;
  stroke-width: 0.60907;
}
.l9{
 fill: #00aaaa; fill-opacity: 0.5;
  stroke: #00aaaa;
  stroke-linecap:round;
  stroke-linejoin:round;
  stroke-width: 0.60907;
}
.l10{
 fill: #880088;
  stroke: #880088;
  stroke-linecap:round;
  stroke-linejoin:round;
  stroke-width: 0.60907;
}
.l11{
 fill: #00ff00; fill-opacity: 0.5;
  stroke: #00ff00;
  stroke-linecap:round;
  stroke-linejoin:round;
  stroke-width: 0.60907;
}
.l12{
 fill: #0000cc; fill-opacity: 0.5;
  stroke: #0000cc;
  stroke-linecap:round;
  stroke-linejoin:round;
  stroke-width: 0.60907;
}
.l13{
 fill: #666600; fill-opacity: 0.5;
  stroke: #666600;
  stroke-linecap:round;
  stroke-linejoin:round;
  stroke-width: 0.60907;
}
.l14{
  fill: none;
  stroke: #557755;
  stroke-linecap:round;
  stroke-linejoin:round;
  stroke-width: 0.60907;
}
.l15{
 fill: #aa2222; fill-opacity: 0.5;
  stroke: #aa2222;
  stroke-linecap:round;
  stroke-linejoin:round;
  stroke-width: 0.60907;
}
.l16{
 fill: #7ccc40; fill-opacity: 0.5;
  stroke: #7ccc40;
  stroke-linecap:round;
  stroke-linejoin:round;
  stroke-width: 0.60907;
}
.l17{
  fill: none;
  stroke: #00ffcc;
  stroke-linecap:round;
  stroke-linejoin:round;
  stroke-width: 0.60907;
}
.l18{
 fill: #ce0097; fill-opacity: 0.5;
  stroke: #ce0097;
  stroke-linecap:round;
  stroke-linejoin:round;
  stroke-width: 0.60907;
}
.l19{
  fill: none;
  stroke: #d2d46b;
  stroke-linecap:round;
  stroke-linejoin:round;
  stroke-width: 0.60907;
}
.l20{
  fill: none;
  stroke: #ef6158;
  stroke-linecap:round;
  stroke-linejoin:round;
  stroke-width: 0.60907;
}
.l21{
  fill: none;
  stroke: #fdb200;
  stroke-linecap:round;
  stroke-linejoin:round;
  stroke-width: 0.60907;
}
text {font-family: Sans-Serif;}
</style>
<rect class="l0" x="0" y="0" width="1000" height="700"/>
<text fill="#222222"  xml:space="preserve" font-size="14.6628" transform="translate(359.012, 72.8778)" >Bipolar DAC</text>
<text fill="#0044ee"  xml:space="preserve" font-size="9.67744" transform="translate(29.9367, 587.893)" >VSS</text>
<text fill="#0044ee"  xml:space="preserve" font-size="9.67744" transform="translate(390.709, 110.408) rotate(270)" >VD</text>
<text fill="#0044ee"  xml:space="preserve" font-size="9.67744" transform="translate(7.73297, 463.823)" >BD_1V8[7:0]</text>
<text fill="#0044ee"  xml:space="preserve" font-size="9.67744" transform="translate(171.191, 249.521)" >RES_N_1V8</text>
<text fill="#0044ee"  xml:space="preserve" font-size="7.91791" transform="translate(75.6949, 513.769)" >BD_1V8[7]</text>
<text fill="#0044ee"  xml:space="preserve" font-size="7.91791" transform="translate(182.846, 513.769)" >BD_1V8[6]</text>
<text fill="#0044ee"  xml:space="preserve" font-size="9.67744" transform="translate(602.66, 604.812)" >R_IBPS_1V8</text>
<text fill="#0044ee"  xml:space="preserve" font-size="7.91791" transform="translate(202.515, 513.769)" >VSS</text>
<text fill="#0044ee"  xml:space="preserve" font-size="7.91791" transform="translate(309.666, 513.769)" >VSS</text>
<text fill="#222222"  xml:space="preserve" font-size="4.39884" transform="translate(399.856, 236.4) rotate(270)" >x9</text>
<text fill="#222222"  xml:space="preserve" font-size="4.39884" transform="translate(405.496, 270.825) rotate(270)" >SUNTR_RPPO4</text>
<text fill="#222222"  xml:space="preserve" font-size="4.69209" transform="translate(178.547, 506.767)" >JNWATR_NCH_12C1F2</text>
<text fill="#222222"  xml:space="preserve" font-size="4.69209" transform="translate(178.547, 532.145)" >x11</text>
<text fill="#222222"  xml:space="preserve" font-size="4.69209" transform="translate(285.698, 506.767)" >JNWATR_NCH_12C1F2</text>
<text fill="#222222"  xml:space="preserve" font-size="4.69209" transform="translate(285.698, 532.145)" >x12</text>
<text fill="#222222"  xml:space="preserve" font-size="4.69209" transform="translate(832.733, 540.604)" >JNWATR_NCH_12C1F2</text>
<text fill="#222222"  xml:space="preserve" font-size="4.69209" transform="translate(832.733, 565.982)" >x2</text>
<text fill="#222222"  xml:space="preserve" font-size="4.39884" transform="translate(845.38, 490.179) rotate(270)" >x3</text>
<text fill="#222222"  xml:space="preserve" font-size="4.39884" transform="translate(851.019, 528.429) rotate(270)" >SUNTR_RPPO16</text>
<text fill="#222222"  xml:space="preserve" font-size="4.39884" transform="translate(845.38, 253.319) rotate(270)" >x4</text>
<text fill="#222222"  xml:space="preserve" font-size="4.39884" transform="translate(851.019, 287.744) rotate(270)" >SUNTR_RPPO4</text>
<text fill="#222222"  xml:space="preserve" font-size="4.39884" transform="translate(845.38, 185.644) rotate(270)" >x5</text>
<text fill="#222222"  xml:space="preserve" font-size="4.39884" transform="translate(851.019, 220.069) rotate(270)" >SUNTR_RPPO2</text>
<text fill="#222222"  xml:space="preserve" font-size="5.86512" transform="translate(170.469, 383.523)" >pnp_05v5_W3p40L3p40</text>
<text fill="#222222"  xml:space="preserve" font-size="5.86512" transform="translate(257.169, 360.26)" >Q1</text>
<text fill="#ff0000"  xml:space="preserve" font-size="4.39884" transform="translate(270.594, 353.642)" >e</text>
<text fill="#ff0000"  xml:space="preserve" font-size="4.39884" transform="translate(270.594, 388.889)" >c</text>
<text fill="#ff0000"  xml:space="preserve" font-size="4.39884" transform="translate(286.05, 367.741)" >b</text>
<text fill="#222222"  xml:space="preserve" font-size="5.86512" transform="translate(252.069, 376.474)" >m=8</text>
<text fill="#222222"  xml:space="preserve" font-size="5.86512" transform="translate(63.318, 383.523)" >pnp_05v5_W3p40L3p40</text>
<text fill="#222222"  xml:space="preserve" font-size="5.86512" transform="translate(150.018, 360.26)" >Q2</text>
<text fill="#ff0000"  xml:space="preserve" font-size="4.39884" transform="translate(163.442, 353.642)" >e</text>
<text fill="#ff0000"  xml:space="preserve" font-size="4.39884" transform="translate(163.442, 388.889)" >c</text>
<text fill="#ff0000"  xml:space="preserve" font-size="4.39884" transform="translate(178.899, 367.741)" >b</text>
<text fill="#222222"  xml:space="preserve" font-size="5.86512" transform="translate(144.918, 376.474)" >m=1</text>
<text fill="#222222"  xml:space="preserve" font-size="4.39884" transform="translate(845.38, 433.784) rotate(270)" >x1</text>
<text fill="#222222"  xml:space="preserve" font-size="4.39884" transform="translate(851.019, 472.034) rotate(270)" >SUNTR_RPPO16</text>
<text fill="#222222"  xml:space="preserve" font-size="4.39884" transform="translate(845.38, 377.388) rotate(270)" >x6</text>
<text fill="#222222"  xml:space="preserve" font-size="4.39884" transform="translate(851.019, 415.638) rotate(270)" >SUNTR_RPPO16</text>
<text fill="#222222"  xml:space="preserve" font-size="4.39884" transform="translate(845.38, 315.353) rotate(270)" >x7</text>
<text fill="#222222"  xml:space="preserve" font-size="4.39884" transform="translate(851.019, 353.603) rotate(270)" >SUNTR_RPPO16</text>
<text fill="#222222"  xml:space="preserve" font-size="7.3314" transform="translate(827.093, 614.863)" >Updated</text>
<text fill="#222222"  xml:space="preserve" font-size="7.3314" transform="translate(29.0988, 648.7)" >Library/Cell</text>
<text fill="#222222"  xml:space="preserve" font-size="7.3314" transform="translate(827.093, 603.584)" >Designer</text>
<text fill="#222222"  xml:space="preserve" font-size="7.3314" transform="translate(827.093, 626.142)" >Modified</text>
<text fill="#222222"  xml:space="preserve" font-size="7.3314" transform="translate(829.913, 637.421)" >Copyright</text>
<text fill="#222222"  xml:space="preserve" font-size="7.3314" transform="translate(872.209, 614.863)" >wulff</text>
<text fill="#222222"  xml:space="preserve" font-size="7.3314" transform="translate(872.209, 626.142)" >2024-08-17  10:23:10</text>
<text fill="#222222"  xml:space="preserve" font-size="7.3314" transform="translate(872.209, 637.421)" >Carsten Wulff Software</text>
<text fill="#222222"  xml:space="preserve" font-size="7.3314" transform="translate(93.9535, 648.7)" >JNWG00_BDAC</text>
<text fill="#222222"  xml:space="preserve" font-size="7.3314" transform="translate(872.209, 603.584)" >Carsten Wulff</text>
<path class="l4" d="M375.93 245.669L384.39 245.669"/>
<path class="l4" d="M387.209 262.587L387.209 268.227"/>
<path class="l4" d="M387.209 223.11L387.209 228.75"/>
<path class="l4" d="M383.262 238.901L383.262 252.436"/>
<path class="l4" d="M387.209 259.203L387.209 262.587"/>
<path class="l4" d="M387.209 228.75L387.209 232.134"/>
<path class="l4" d="M383.826 233.826L387.209 232.134"/>
<path class="l4" d="M383.826 233.826L390.593 237.209"/>
<path class="l4" d="M383.826 240.593L390.593 237.209"/>
<path class="l4" d="M383.826 240.593L390.593 243.977"/>
<path class="l4" d="M383.826 247.36L390.593 243.977"/>
<path class="l4" d="M383.826 247.36L390.593 250.744"/>
<path class="l4" d="M383.826 254.128L390.593 250.744"/>
<path class="l4" d="M383.826 254.128L390.593 257.512"/>
<path class="l4" d="M387.209 259.203L390.593 257.512"/>
<path class="l4" d="M172.907 522.006L178.547 524.826"/>
<path class="l4" d="M172.907 527.645L178.547 524.826"/>
<path class="l4" d="M167.267 507.907L178.547 507.907"/>
<path class="l4" d="M178.547 499.448L178.547 507.907"/>
<path class="l4" d="M167.267 524.826L178.547 524.826"/>
<path class="l4" d="M178.547 524.826L178.547 533.285"/>
<path class="l4" d="M167.267 516.366L178.547 516.366"/>
<path class="l4" d="M167.267 507.907L167.267 524.826"/>
<path class="l4" d="M164.448 507.907L164.448 524.826"/>
<path class="l4" d="M155.988 516.366L164.448 516.366"/>
<path class="l4" d="M280.058 522.006L285.698 524.826"/>
<path class="l4" d="M280.058 527.645L285.698 524.826"/>
<path class="l4" d="M274.419 507.907L285.698 507.907"/>
<path class="l4" d="M285.698 499.448L285.698 507.907"/>
<path class="l4" d="M274.419 524.826L285.698 524.826"/>
<path class="l4" d="M285.698 524.826L285.698 533.285"/>
<path class="l4" d="M274.419 516.366L285.698 516.366"/>
<path class="l4" d="M274.419 507.907L274.419 524.826"/>
<path class="l4" d="M271.599 507.907L271.599 524.826"/>
<path class="l4" d="M263.14 516.366L271.599 516.366"/>
<path class="l4" d="M827.093 555.843L832.733 558.663"/>
<path class="l4" d="M827.093 561.483L832.733 558.663"/>
<path class="l4" d="M821.453 541.744L832.733 541.744"/>
<path class="l4" d="M832.733 533.285L832.733 541.744"/>
<path class="l4" d="M821.453 558.663L832.733 558.663"/>
<path class="l4" d="M832.733 558.663L832.733 567.122"/>
<path class="l4" d="M821.453 550.203L832.733 550.203"/>
<path class="l4" d="M821.453 541.744L821.453 558.663"/>
<path class="l4" d="M818.634 541.744L818.634 558.663"/>
<path class="l4" d="M810.174 550.203L818.634 550.203"/>
<path class="l4" d="M821.453 499.448L829.913 499.448"/>
<path class="l4" d="M832.733 516.366L832.733 522.006"/>
<path class="l4" d="M832.733 476.89L832.733 482.529"/>
<path class="l4" d="M828.785 492.68L828.785 506.215"/>
<path class="l4" d="M832.733 512.983L832.733 516.366"/>
<path class="l4" d="M832.733 482.529L832.733 485.913"/>
<path class="l4" d="M829.349 487.605L832.733 485.913"/>
<path class="l4" d="M829.349 487.605L836.116 490.988"/>
<path class="l4" d="M829.349 494.372L836.116 490.988"/>
<path class="l4" d="M829.349 494.372L836.116 497.756"/>
<path class="l4" d="M829.349 501.14L836.116 497.756"/>
<path class="l4" d="M829.349 501.14L836.116 504.523"/>
<path class="l4" d="M829.349 507.907L836.116 504.523"/>
<path class="l4" d="M829.349 507.907L836.116 511.291"/>
<path class="l4" d="M832.733 512.983L836.116 511.291"/>
<path class="l4" d="M821.453 262.587L829.913 262.587"/>
<path class="l4" d="M832.733 279.506L832.733 285.145"/>
<path class="l4" d="M832.733 240.029L832.733 245.669"/>
<path class="l4" d="M828.785 255.82L828.785 269.355"/>
<path class="l4" d="M832.733 276.122L832.733 279.506"/>
<path class="l4" d="M832.733 245.669L832.733 249.052"/>
<path class="l4" d="M829.349 250.744L832.733 249.052"/>
<path class="l4" d="M829.349 250.744L836.116 254.128"/>
<path class="l4" d="M829.349 257.512L836.116 254.128"/>
<path class="l4" d="M829.349 257.512L836.116 260.895"/>
<path class="l4" d="M829.349 264.279L836.116 260.895"/>
<path class="l4" d="M829.349 264.279L836.116 267.663"/>
<path class="l4" d="M829.349 271.047L836.116 267.663"/>
<path class="l4" d="M829.349 271.047L836.116 274.43"/>
<path class="l4" d="M832.733 276.122L836.116 274.43"/>
<path class="l4" d="M821.453 194.913L829.913 194.913"/>
<path class="l4" d="M832.733 211.831L832.733 217.471"/>
<path class="l4" d="M832.733 172.355L832.733 177.994"/>
<path class="l4" d="M828.785 188.145L828.785 201.68"/>
<path class="l4" d="M832.733 208.448L832.733 211.831"/>
<path class="l4" d="M832.733 177.994L832.733 181.378"/>
<path class="l4" d="M829.349 183.07L832.733 181.378"/>
<path class="l4" d="M829.349 183.07L836.116 186.453"/>
<path class="l4" d="M829.349 189.837L836.116 186.453"/>
<path class="l4" d="M829.349 189.837L836.116 193.221"/>
<path class="l4" d="M829.349 196.605L836.116 193.221"/>
<path class="l4" d="M829.349 196.605L836.116 199.988"/>
<path class="l4" d="M829.349 203.372L836.116 199.988"/>
<path class="l4" d="M829.349 203.372L836.116 206.756"/>
<path class="l4" d="M832.733 208.448L836.116 206.756"/>
<path class="l4" d="M280.058 352.82L280.058 386.657"/>
<path class="l4" d="M280.058 369.738L291.337 369.738"/>
<path class="l4" d="M268.779 352.82L274.419 358.459"/>
<path class="l4" d="M268.779 386.657L280.058 375.378"/>
<path class="l4" d="M280.058 364.099L271.599 361.279L277.238 355.64L280.058 364.099"/>
<path class="l4" d="M172.907 352.82L172.907 386.657"/>
<path class="l4" d="M172.907 369.738L184.186 369.738"/>
<path class="l4" d="M161.628 352.82L167.267 358.459"/>
<path class="l4" d="M161.628 386.657L172.907 375.378"/>
<path class="l4" d="M172.907 364.099L164.448 361.279L170.087 355.64L172.907 364.099"/>
<path class="l4" d="M821.453 443.052L829.913 443.052"/>
<path class="l4" d="M832.733 459.971L832.733 465.61"/>
<path class="l4" d="M832.733 420.494L832.733 426.134"/>
<path class="l4" d="M828.785 436.285L828.785 449.82"/>
<path class="l4" d="M832.733 456.587L832.733 459.971"/>
<path class="l4" d="M832.733 426.134L832.733 429.517"/>
<path class="l4" d="M829.349 431.209L832.733 429.517"/>
<path class="l4" d="M829.349 431.209L836.116 434.593"/>
<path class="l4" d="M829.349 437.977L836.116 434.593"/>
<path class="l4" d="M829.349 437.977L836.116 441.36"/>
<path class="l4" d="M829.349 444.744L836.116 441.36"/>
<path class="l4" d="M829.349 444.744L836.116 448.128"/>
<path class="l4" d="M829.349 451.512L836.116 448.128"/>
<path class="l4" d="M829.349 451.512L836.116 454.895"/>
<path class="l4" d="M832.733 456.587L836.116 454.895"/>
<path class="l4" d="M821.453 386.657L829.913 386.657"/>
<path class="l4" d="M832.733 403.576L832.733 409.215"/>
<path class="l4" d="M832.733 364.099L832.733 369.738"/>
<path class="l4" d="M828.785 379.89L828.785 393.424"/>
<path class="l4" d="M832.733 400.192L832.733 403.576"/>
<path class="l4" d="M832.733 369.738L832.733 373.122"/>
<path class="l4" d="M829.349 374.814L832.733 373.122"/>
<path class="l4" d="M829.349 374.814L836.116 378.198"/>
<path class="l4" d="M829.349 381.581L836.116 378.198"/>
<path class="l4" d="M829.349 381.581L836.116 384.965"/>
<path class="l4" d="M829.349 388.349L836.116 384.965"/>
<path class="l4" d="M829.349 388.349L836.116 391.733"/>
<path class="l4" d="M829.349 395.116L836.116 391.733"/>
<path class="l4" d="M829.349 395.116L836.116 398.5"/>
<path class="l4" d="M832.733 400.192L836.116 398.5"/>
<path class="l4" d="M821.453 324.622L829.913 324.622"/>
<path class="l4" d="M832.733 341.541L832.733 347.18"/>
<path class="l4" d="M832.733 302.064L832.733 307.703"/>
<path class="l4" d="M828.785 317.855L828.785 331.39"/>
<path class="l4" d="M832.733 338.157L832.733 341.541"/>
<path class="l4" d="M832.733 307.703L832.733 311.087"/>
<path class="l4" d="M829.349 312.779L832.733 311.087"/>
<path class="l4" d="M829.349 312.779L836.116 316.163"/>
<path class="l4" d="M829.349 319.547L836.116 316.163"/>
<path class="l4" d="M829.349 319.547L836.116 322.93"/>
<path class="l4" d="M829.349 326.314L836.116 322.93"/>
<path class="l4" d="M829.349 326.314L836.116 329.698"/>
<path class="l4" d="M829.349 333.081L836.116 329.698"/>
<path class="l4" d="M829.349 333.081L836.116 336.465"/>
<path class="l4" d="M832.733 338.157L836.116 336.465"/>
<path class="l4" d="M866.57 606.599L866.57 617.878"/>
<path class="l4" d="M793.256 640.436L793.256 651.715"/>
<path class="l4" d="M906.047 640.436L906.047 651.715"/>
<path class="l4" d="M680.465 640.436L680.465 651.715"/>
<path class="l4" d="M91.1337 640.436L91.1337 651.715"/>
<path class="l4" d="M15 640.436L26.2791 640.436"/>
<path class="l4" d="M26.2791 640.436L26.2791 651.715"/>
<path class="l4" d="M973.721 640.436L985 640.436"/>
<path class="l4" d="M973.721 640.436L973.721 651.715"/>
<path class="l4" d="M866.57 595.32L866.57 606.599"/>
<path class="l4" d="M866.57 617.878L866.57 629.157"/>
<path class="l4" style="fill:none;" d="M824.273 640.436L985 640.436L985 595.32L824.273 595.32L824.273 640.436"/>
<path class="l4" style="fill:none;" d="M15 651.715L985 651.715L985 48.2849L15 48.2849L15 651.715"/>
<path class="l4" style="fill:none;" d="M824.273 606.599L973.721 606.599L973.721 595.32L824.273 595.32L824.273 606.599"/>
<path class="l4" style="fill:none;" d="M15 651.715L985 651.715L985 640.436L15 640.436L15 651.715"/>
<path class="l4" style="fill:none;" d="M824.273 640.436L973.721 640.436L973.721 629.157L824.273 629.157L824.273 640.436"/>
<path class="l4" style="fill:none;" d="M824.273 629.157L973.721 629.157L973.721 617.878L824.273 617.878L824.273 629.157"/>
<path class="l4" style="fill:none;" d="M824.273 617.878L973.721 617.878L973.721 606.599L824.273 606.599L824.273 617.878"/>
<path class="l5" d="M62.936 584.041L65.7558 584.041"/>
<path class="l5" d="M62.936 584.041L60.8212 581.221L55.8866 581.221L58.0015 584.041L55.8866 586.86L60.8212 586.86L62.936 584.041"/>
<path class="l5" d="M65.0509 583.336L66.4608 583.336L66.4608 584.746L65.0509 584.746L65.0509 583.336z"/>
<path class="l5" d="M387.209 119.836L387.209 121.599"/>
<path class="l5" d="M390.029 113.844L387.209 111.73L384.39 113.844L384.39 117.722L387.209 119.836L390.029 117.722L390.029 113.844"/>
<path class="l5" d="M386.504 120.894L387.914 120.894L387.914 122.304L386.504 122.304L386.504 120.894z"/>
<path class="l5" d="M108.052 459.971L110.872 459.971"/>
<path class="l5" d="M108.052 459.971L105.937 457.151L101.003 457.151L103.118 459.971L101.003 462.791L105.937 462.791L108.052 459.971"/>
<path class="l5" d="M110.167 459.266L111.577 459.266L111.577 460.676L110.167 460.676L110.167 459.266z"/>
<path class="l5" d="M384.953 265.971L389.465 265.971L389.465 270.483L384.953 270.483L384.953 265.971z"/>
<path class="l5" d="M384.953 220.855L389.465 220.855L389.465 225.366L384.953 225.366L384.953 220.855z"/>
<path class="l5" d="M373.674 243.413L378.186 243.413L378.186 247.924L373.674 247.924L373.674 243.413z"/>
<path class="l5" d="M254.68 245.669L257.5 245.669"/>
<path class="l5" d="M254.68 245.669L252.565 242.849L247.631 242.849L249.746 245.669L247.631 248.488L252.565 248.488L254.68 245.669"/>
<path class="l5" d="M256.795 244.964L258.205 244.964L258.205 246.374L256.795 246.374L256.795 244.964z"/>
<path class="l5" d="M176.291 497.192L180.802 497.192L180.802 501.703L176.291 501.703L176.291 497.192z"/>
<path class="l5" d="M153.733 514.11L158.244 514.11L158.244 518.622L153.733 518.622L153.733 514.11z"/>
<path class="l5" d="M176.291 531.029L180.802 531.029L180.802 535.541L176.291 535.541L176.291 531.029z"/>
<path class="l5" d="M176.291 514.11L180.802 514.11L180.802 518.622L176.291 518.622L176.291 514.11z"/>
<path class="l5" d="M283.442 497.192L287.953 497.192L287.953 501.703L283.442 501.703L283.442 497.192z"/>
<path class="l5" d="M260.884 514.11L265.395 514.11L265.395 518.622L260.884 518.622L260.884 514.11z"/>
<path class="l5" d="M283.442 531.029L287.953 531.029L287.953 535.541L283.442 535.541L283.442 531.029z"/>
<path class="l5" d="M283.442 514.11L287.953 514.11L287.953 518.622L283.442 518.622L283.442 514.11z"/>
<path class="l5" d="M138.365 515.661L139.775 515.661L139.775 517.071L138.365 517.071L138.365 515.661z"/>
<path class="l5" d="M245.516 515.661L246.926 515.661L246.926 517.071L245.516 517.071L245.516 515.661z"/>
<path class="l5" d="M830.477 531.029L834.988 531.029L834.988 535.541L830.477 535.541L830.477 531.029z"/>
<path class="l5" d="M807.919 547.948L812.43 547.948L812.43 552.459L807.919 552.459L807.919 547.948z"/>
<path class="l5" d="M830.477 564.866L834.988 564.866L834.988 569.378L830.477 569.378L830.477 564.866z"/>
<path class="l5" d="M830.477 547.948L834.988 547.948L834.988 552.459L830.477 552.459L830.477 547.948z"/>
<path class="l5" d="M830.477 519.75L834.988 519.75L834.988 524.262L830.477 524.262L830.477 519.75z"/>
<path class="l5" d="M830.477 474.634L834.988 474.634L834.988 479.145L830.477 479.145L830.477 474.634z"/>
<path class="l5" d="M819.198 497.192L823.709 497.192L823.709 501.703L819.198 501.703L819.198 497.192z"/>
<path class="l5" d="M694.564 600.959L697.384 600.959"/>
<path class="l5" d="M694.564 600.959L692.449 598.14L687.515 598.14L689.629 600.959L687.515 603.779L692.449 603.779L694.564 600.959"/>
<path class="l5" d="M696.679 600.254L698.089 600.254L698.089 601.664L696.679 601.664L696.679 600.254z"/>
<path class="l5" d="M830.477 282.89L834.988 282.89L834.988 287.401L830.477 287.401L830.477 282.89z"/>
<path class="l5" d="M830.477 237.773L834.988 237.773L834.988 242.285L830.477 242.285L830.477 237.773z"/>
<path class="l5" d="M819.198 260.331L823.709 260.331L823.709 264.843L819.198 264.843L819.198 260.331z"/>
<path class="l5" d="M830.477 215.215L834.988 215.215L834.988 219.727L830.477 219.727L830.477 215.215z"/>
<path class="l5" d="M830.477 170.099L834.988 170.099L834.988 174.61L830.477 174.61L830.477 170.099z"/>
<path class="l5" d="M819.198 192.657L823.709 192.657L823.709 197.169L819.198 197.169L819.198 192.657z"/>
<path class="l5" d="M267.369 385.247L270.189 385.247L270.189 388.067L267.369 388.067L267.369 385.247z"/>
<path class="l5" d="M289.927 368.328L292.747 368.328L292.747 371.148L289.927 371.148L289.927 368.328z"/>
<path class="l5" d="M267.369 351.41L270.189 351.41L270.189 354.23L267.369 354.23L267.369 351.41z"/>
<path class="l5" d="M160.218 385.247L163.038 385.247L163.038 388.067L160.218 388.067L160.218 385.247z"/>
<path class="l5" d="M182.776 368.328L185.596 368.328L185.596 371.148L182.776 371.148L182.776 368.328z"/>
<path class="l5" d="M160.218 351.41L163.038 351.41L163.038 354.23L160.218 354.23L160.218 351.41z"/>
<path class="l5" d="M830.477 463.355L834.988 463.355L834.988 467.866L830.477 467.866L830.477 463.355z"/>
<path class="l5" d="M830.477 418.238L834.988 418.238L834.988 422.75L830.477 422.75L830.477 418.238z"/>
<path class="l5" d="M819.198 440.797L823.709 440.797L823.709 445.308L819.198 445.308L819.198 440.797z"/>
<path class="l5" d="M200.4 515.661L201.81 515.661L201.81 517.071L200.4 517.071L200.4 515.661z"/>
<path class="l5" d="M307.551 515.661L308.961 515.661L308.961 517.071L307.551 517.071L307.551 515.661z"/>
<path class="l5" d="M830.477 406.959L834.988 406.959L834.988 411.471L830.477 411.471L830.477 406.959z"/>
<path class="l5" d="M830.477 361.843L834.988 361.843L834.988 366.355L830.477 366.355L830.477 361.843z"/>
<path class="l5" d="M819.198 384.401L823.709 384.401L823.709 388.913L819.198 388.913L819.198 384.401z"/>
<path class="l5" d="M830.477 344.924L834.988 344.924L834.988 349.436L830.477 349.436L830.477 344.924z"/>
<path class="l5" d="M830.477 299.808L834.988 299.808L834.988 304.32L830.477 304.32L830.477 299.808z"/>
<path class="l5" d="M819.198 322.366L823.709 322.366L823.709 326.878L819.198 326.878L819.198 322.366z"/>
<path class="l1" d="M82.6744 584.041L105.233 584.041"/>
<path class="l1" d="M105.233 584.041L155.988 584.041"/>
<path class="l1" d="M155.988 584.041L257.5 584.041"/>
<path class="l1" d="M257.5 584.041L353.372 584.041"/>
<path class="l1" d="M353.372 584.041L449.244 584.041"/>
<path class="l1" d="M449.244 584.041L545.116 584.041"/>
<path class="l1" d="M545.116 584.041L640.988 584.041"/>
<path class="l1" d="M640.988 584.041L736.86 584.041"/>
<path class="l1" d="M736.86 584.041L753.779 584.041"/>
<path class="l1" d="M65.7558 584.041L82.6744 584.041"/>
<path class="l1" d="M387.209 268.227L387.209 290.785"/>
<path class="l1" d="M387.209 121.599L387.209 149.797"/>
<path class="l1" d="M251.86 245.669L296.977 245.669"/>
<path class="l1" d="M139.07 516.366L155.988 516.366"/>
<path class="l1" d="M246.221 516.366L263.14 516.366"/>
<path class="l1" d="M375.93 245.669L375.93 555.843"/>
<path class="l1" d="M375.93 555.843L375.93 584.041"/>
<path class="l1" d="M753.779 555.843L753.779 584.041"/>
<path class="l1" d="M387.209 144.157L832.733 144.157"/>
<path class="l1" d="M753.779 324.622L821.453 324.622"/>
<path class="l1" d="M753.779 324.622L753.779 555.843"/>
<path class="l1" d="M832.733 550.203L849.651 550.203"/>
<path class="l1" d="M849.651 550.203L849.651 572.762"/>
<path class="l1" d="M832.733 572.762L849.651 572.762"/>
<path class="l1" d="M832.733 567.122L832.733 572.762"/>
<path class="l1" d="M832.733 572.762L832.733 584.041"/>
<path class="l1" d="M753.779 584.041L832.733 584.041"/>
<path class="l1" d="M832.733 347.18L832.733 358.459"/>
<path class="l1" d="M753.779 499.448L821.453 499.448"/>
<path class="l1" d="M832.733 522.006L832.733 533.285"/>
<path class="l1" d="M697.384 600.959L810.174 600.959"/>
<path class="l1" d="M810.174 550.203L810.174 600.959"/>
<path class="l1" d="M832.733 285.145L832.733 302.064"/>
<path class="l1" d="M832.733 217.471L832.733 240.029"/>
<path class="l1" d="M753.779 262.587L821.453 262.587"/>
<path class="l1" d="M753.779 262.587L753.779 324.622"/>
<path class="l1" d="M753.779 194.913L821.453 194.913"/>
<path class="l1" d="M753.779 194.913L753.779 262.587"/>
<path class="l1" d="M832.733 144.157L832.733 172.355"/>
<path class="l1" d="M268.779 290.785L387.209 290.785"/>
<path class="l1" d="M268.779 290.785L268.779 352.82"/>
<path class="l1" d="M161.628 155.436L387.209 155.436"/>
<path class="l1" d="M832.733 409.215L832.733 420.494"/>
<path class="l1" d="M832.733 358.459L832.733 364.099"/>
<path class="l1" d="M753.779 386.657L821.453 386.657"/>
<path class="l1" d="M753.779 443.052L821.453 443.052"/>
<path class="l1" d="M832.733 465.61L832.733 476.89"/>
<path class="l1" d="M184.186 369.738L189.826 369.738"/>
<path class="l1" d="M291.337 369.738L291.337 375.378"/>
<path class="l1" d="M189.826 369.738L189.826 392.297"/>
<path class="l1" d="M291.337 375.378L291.337 392.297"/>
<path class="l1" d="M161.628 386.657L161.628 403.576"/>
<path class="l1" d="M161.628 403.576L189.826 403.576"/>
<path class="l1" d="M189.826 392.297L189.826 403.576"/>
<path class="l1" d="M268.779 386.657L268.779 409.215"/>
<path class="l1" d="M268.779 409.215L291.337 409.215"/>
<path class="l1" d="M291.337 392.297L291.337 409.215"/>
<path class="l1" d="M178.547 403.576L178.547 471.25"/>
<path class="l1" d="M285.698 409.215L285.698 471.25"/>
<path class="l1" d="M285.698 516.366L308.256 516.366"/>
<path class="l1" d="M178.547 516.366L201.105 516.366"/>
<path class="l1" d="M387.209 149.797L387.209 155.436"/>
<path class="l1" d="M178.547 471.25L178.547 499.448"/>
<path class="l1" d="M178.547 533.285L178.547 584.041"/>
<path class="l1" d="M285.698 471.25L285.698 499.448"/>
<path class="l1" d="M285.698 533.285L285.698 584.041"/>
<path class="l1" d="M161.628 155.436L161.628 352.82"/>
<path class="l1" d="M387.209 155.436L387.209 223.11"/>
<path class="l1" d="M832.733 161.076L860.93 161.076"/>
<path class="l1" d="M860.93 161.076L860.93 223.11"/>
<path class="l1" d="M832.733 223.11L860.93 223.11"/>
<path class="l1" d="M860.93 223.11L860.93 290.785"/>
<path class="l1" d="M832.733 290.785L860.93 290.785"/>
<circle class="l1" cx="387.209" cy="155.436" r="2.25581"/>
<circle class="l1" cx="285.698" cy="409.215" r="2.25581"/>
<circle class="l1" cx="178.547" cy="403.576" r="2.25581"/>
<circle class="l1" cx="285.698" cy="584.041" r="2.25581"/>
<circle class="l1" cx="178.547" cy="584.041" r="2.25581"/>
<circle class="l1" cx="387.209" cy="155.436" r="2.25581"/>
<circle class="l1" cx="387.209" cy="155.436" r="2.25581"/>
<circle class="l1" cx="387.209" cy="144.157" r="2.25581"/>
<circle class="l1" cx="375.93" cy="584.041" r="2.25581"/>
<circle class="l1" cx="753.779" cy="262.587" r="2.25581"/>
<circle class="l1" cx="753.779" cy="443.052" r="2.25581"/>
<circle class="l1" cx="753.779" cy="386.657" r="2.25581"/>
<circle class="l1" cx="753.779" cy="262.587" r="2.25581"/>
<circle class="l1" cx="753.779" cy="324.622" r="2.25581"/>
<circle class="l1" cx="753.779" cy="262.587" r="2.25581"/>
<circle class="l1" cx="753.779" cy="324.622" r="2.25581"/>
<circle class="l1" cx="753.779" cy="324.622" r="2.25581"/>
<circle class="l1" cx="753.779" cy="499.448" r="2.25581"/>
<circle class="l1" cx="753.779" cy="584.041" r="2.25581"/>
<circle class="l1" cx="753.779" cy="584.041" r="2.25581"/>
<circle class="l1" cx="753.779" cy="584.041" r="2.25581"/>
<circle class="l1" cx="860.93" cy="223.11" r="2.25581"/>
<circle class="l1" cx="832.733" cy="223.11" r="2.25581"/>
<circle class="l1" cx="860.93" cy="223.11" r="2.25581"/>
<circle class="l1" cx="860.93" cy="223.11" r="2.25581"/>
<circle class="l1" cx="832.733" cy="161.076" r="2.25581"/>
<circle class="l1" cx="832.733" cy="290.785" r="2.25581"/>
<circle class="l1" cx="832.733" cy="572.762" r="2.25581"/>
<circle class="l1" cx="832.733" cy="572.762" r="2.25581"/>
<circle class="l1" cx="832.733" cy="572.762" r="2.25581"/>
</svg>
