<svg xmlns="http://www.w3.org/2000/svg" xmlns:xlink="http://www.w3.org/1999/xlink" width="1000" height="700" version="1.1">
<style type="text/css">
.l0{
 fill: #ffffff;
  stroke: #ffffff;
  stroke-linecap:round;
  stroke-linejoin:round;
  stroke-width: 0.34804;
}
.l1{
 fill: #0044ee;
  stroke: #0044ee;
  stroke-linecap:round;
  stroke-linejoin:round;
  stroke-width: 0.34804;
}
.l2{
  fill: none;
  stroke: #aaaaaa;
  stroke-linecap:round;
  stroke-linejoin:round;
  stroke-width: 0.34804;
}
.l3{
 fill: #222222; fill-opacity: 0.5;
  stroke: #222222;
  stroke-linecap:round;
  stroke-linejoin:round;
  stroke-width: 0.34804;
}
.l4{
 fill: #229900;
  stroke: #229900;
  stroke-linecap:round;
  stroke-linejoin:round;
  stroke-width: 0.34804;
}
.l5{
 fill: #bb2200;
  stroke: #bb2200;
  stroke-linecap:round;
  stroke-linejoin:round;
  stroke-width: 0.34804;
}
.l6{
 fill: #00ccee; fill-opacity: 0.5;
  stroke: #00ccee;
  stroke-linecap:round;
  stroke-linejoin:round;
  stroke-width: 0.34804;
}
.l7{
 fill: #ff0000; fill-opacity: 0.5;
  stroke: #ff0000;
  stroke-linecap:round;
  stroke-linejoin:round;
  stroke-width: 0.34804;
}
.l8{
 fill: #888800; fill-opacity: 0.5;
  stroke: #888800;
  stroke-linecap:round;
  stroke-linejoin:round;
  stroke-width: 0.34804;
}
.l9{
 fill: #00aaaa; fill-opacity: 0.5;
  stroke: #00aaaa;
  stroke-linecap:round;
  stroke-linejoin:round;
  stroke-width: 0.34804;
}
.l10{
 fill: #880088;
  stroke: #880088;
  stroke-linecap:round;
  stroke-linejoin:round;
  stroke-width: 0.34804;
}
.l11{
 fill: #00ff00; fill-opacity: 0.5;
  stroke: #00ff00;
  stroke-linecap:round;
  stroke-linejoin:round;
  stroke-width: 0.34804;
}
.l12{
 fill: #0000cc; fill-opacity: 0.5;
  stroke: #0000cc;
  stroke-linecap:round;
  stroke-linejoin:round;
  stroke-width: 0.34804;
}
.l13{
 fill: #666600; fill-opacity: 0.5;
  stroke: #666600;
  stroke-linecap:round;
  stroke-linejoin:round;
  stroke-width: 0.34804;
}
.l14{
  fill: none;
  stroke: #557755;
  stroke-linecap:round;
  stroke-linejoin:round;
  stroke-width: 0.34804;
}
.l15{
 fill: #aa2222; fill-opacity: 0.5;
  stroke: #aa2222;
  stroke-linecap:round;
  stroke-linejoin:round;
  stroke-width: 0.34804;
}
.l16{
 fill: #7ccc40; fill-opacity: 0.5;
  stroke: #7ccc40;
  stroke-linecap:round;
  stroke-linejoin:round;
  stroke-width: 0.34804;
}
.l17{
  fill: none;
  stroke: #00ffcc;
  stroke-linecap:round;
  stroke-linejoin:round;
  stroke-width: 0.34804;
}
.l18{
 fill: #ce0097; fill-opacity: 0.5;
  stroke: #ce0097;
  stroke-linecap:round;
  stroke-linejoin:round;
  stroke-width: 0.34804;
}
.l19{
  fill: none;
  stroke: #d2d46b;
  stroke-linecap:round;
  stroke-linejoin:round;
  stroke-width: 0.34804;
}
.l20{
  fill: none;
  stroke: #ef6158;
  stroke-linecap:round;
  stroke-linejoin:round;
  stroke-width: 0.34804;
}
.l21{
  fill: none;
  stroke: #fdb200;
  stroke-linecap:round;
  stroke-linejoin:round;
  stroke-width: 0.34804;
}
text {font-family: Sans-Serif;}
</style>
<rect class="l0" x="0" y="0" width="1000" height="700"/>
<text fill="#222222"  xml:space="preserve" font-size="8.37874" transform="translate(475.831, 157.807)" >Current DAC</text>
<text fill="#0044ee"  xml:space="preserve" font-size="5.52997" transform="translate(591.348, 249.079)" >VDD_1V8</text>
<text fill="#0044ee"  xml:space="preserve" font-size="5.52997" transform="translate(267.301, 532.667)" >VSS</text>
<text fill="#0044ee"  xml:space="preserve" font-size="5.52997" transform="translate(216.811, 497.218)" >PWRUP_1V8</text>
<text fill="#0044ee"  xml:space="preserve" font-size="4.52452" transform="translate(344.51, 480.642)" >VDD_1V8</text>
<text fill="#0044ee"  xml:space="preserve" font-size="4.52452" transform="translate(344.51, 506.423)" >VSS</text>
<text fill="#0044ee"  xml:space="preserve" font-size="4.52452" transform="translate(370.291, 493.532)" >PWR_N</text>
<text fill="#0044ee"  xml:space="preserve" font-size="5.52997" transform="translate(756.146, 484.126)" >IDAC_O[3:0]</text>
<text fill="#0044ee"  xml:space="preserve" font-size="4.52452" transform="translate(708.663, 441.971)" >IDAC_O[0]</text>
<text fill="#0044ee"  xml:space="preserve" font-size="4.52452" transform="translate(734.444, 416.19)" >IDAC_O[1]</text>
<text fill="#0044ee"  xml:space="preserve" font-size="4.52452" transform="translate(757.002, 377.519)" >IDAC_O[2]</text>
<text fill="#0044ee"  xml:space="preserve" font-size="4.52452" transform="translate(776.337, 338.848)" >IDAC_O[3]</text>
<text fill="#0044ee"  xml:space="preserve" font-size="4.52452" transform="translate(708.663, 454.861)" >IBO_N_1V8[0]</text>
<text fill="#0044ee"  xml:space="preserve" font-size="4.52452" transform="translate(734.444, 429.081)" >IBO_N_1V8[1]</text>
<text fill="#0044ee"  xml:space="preserve" font-size="4.52452" transform="translate(757.002, 390.41)" >IBO_N_1V8[2]</text>
<text fill="#0044ee"  xml:space="preserve" font-size="4.52452" transform="translate(776.337, 351.738)" >IBO_N_1V8[3]</text>
<text fill="#0044ee"  xml:space="preserve" font-size="5.52997" transform="translate(236.863, 242.633)" >IB[7:0]</text>
<text fill="#0044ee"  xml:space="preserve" font-size="5.52997" transform="translate(548.556, 484.328)" >IBO_N_1V8[3:0]</text>
<text fill="#0044ee"  xml:space="preserve" font-size="4.52452" transform="translate(657.101, 300.177)" >VS</text>
<text fill="#0044ee"  xml:space="preserve" font-size="4.52452" transform="translate(673.214, 338.848)" >VD</text>
<text fill="#0044ee"  xml:space="preserve" font-size="4.52452" transform="translate(544.311, 277.619)" >VGP</text>
<text fill="#0044ee"  xml:space="preserve" font-size="4.52452" transform="translate(259.695, 303.4)" >IBN[0]</text>
<text fill="#0044ee"  xml:space="preserve" font-size="4.52452" transform="translate(259.695, 296.954)" >IBN[1]</text>
<text fill="#0044ee"  xml:space="preserve" font-size="4.52452" transform="translate(259.695, 290.509)" >IBN[2]</text>
<text fill="#0044ee"  xml:space="preserve" font-size="4.52452" transform="translate(259.695, 284.064)" >IBN[3]</text>
<text fill="#0044ee"  xml:space="preserve" font-size="4.52452" transform="translate(259.695, 277.619)" >IBN[4]</text>
<text fill="#0044ee"  xml:space="preserve" font-size="4.52452" transform="translate(259.695, 271.174)" >IBN[5]</text>
<text fill="#0044ee"  xml:space="preserve" font-size="4.52452" transform="translate(259.695, 264.728)" >IBN[6]</text>
<text fill="#0044ee"  xml:space="preserve" font-size="4.52452" transform="translate(259.695, 258.283)" >IBN[7]</text>
<text fill="#0044ee"  xml:space="preserve" font-size="4.52452" transform="translate(280.35, 342.071)" >VSS</text>
<text fill="#0044ee"  xml:space="preserve" font-size="5.52997" transform="translate(341.239, 242.633)" >IBF[7:0]</text>
<text fill="#0044ee"  xml:space="preserve" font-size="4.52452" transform="translate(252.81, 309.845)" >IBFN[7]</text>
<text fill="#0044ee"  xml:space="preserve" font-size="4.52452" transform="translate(252.81, 316.29)" >IBFN[6]</text>
<text fill="#0044ee"  xml:space="preserve" font-size="4.52452" transform="translate(252.81, 322.735)" >IBFN[5]</text>
<text fill="#0044ee"  xml:space="preserve" font-size="4.52452" transform="translate(252.81, 329.18)" >IBFN[4]</text>
<text fill="#0044ee"  xml:space="preserve" font-size="5.52997" transform="translate(438.098, 471.437)" >IBN</text>
<text fill="#0044ee"  xml:space="preserve" font-size="5.52997" transform="translate(216.811, 423.098)" >RESET_1V8</text>
<text fill="#0044ee"  xml:space="preserve" font-size="4.52452" transform="translate(367.068, 419.413)" >RESET_N</text>
<text fill="#0044ee"  xml:space="preserve" font-size="4.52452" transform="translate(465.501, 342.071)" >RESET_N</text>
<text fill="#0044ee"  xml:space="preserve" font-size="4.52452" transform="translate(341.287, 406.522)" >VDD_1V8</text>
<text fill="#0044ee"  xml:space="preserve" font-size="4.52452" transform="translate(341.287, 432.303)" >VSS</text>
<text fill="#0044ee"  xml:space="preserve" font-size="4.52452" transform="translate(515.307, 406.522)" >VSS</text>
<text fill="#0044ee"  xml:space="preserve" font-size="4.52452" transform="translate(451.731, 374.297)" >RESET_1V8</text>
<text fill="#0044ee"  xml:space="preserve" font-size="4.52452" transform="translate(356.813, 390.41)" >PWR_N</text>
<text fill="#0044ee"  xml:space="preserve" font-size="4.52452" transform="translate(428.297, 403.3)" >VSS</text>
<text fill="#0044ee"  xml:space="preserve" font-size="4.52452" transform="translate(212.384, 267.951)" >VSS</text>
<text fill="#0044ee"  xml:space="preserve" font-size="4.52452" transform="translate(212.384, 242.17)" >VDD_1V8</text>
<text fill="#0044ee"  xml:space="preserve" font-size="4.52452" transform="translate(133.574, 258.283)" >IB[7:0]</text>
<text fill="#0044ee"  xml:space="preserve" font-size="4.52452" transform="translate(228.497, 255.061)" >IBN[7:0]</text>
<text fill="#0044ee"  xml:space="preserve" font-size="4.52452" transform="translate(212.384, 306.622)" >VSS</text>
<text fill="#0044ee"  xml:space="preserve" font-size="4.52452" transform="translate(212.384, 280.841)" >VDD_1V8</text>
<text fill="#0044ee"  xml:space="preserve" font-size="4.52452" transform="translate(126.689, 296.954)" >IBF[7:4]</text>
<text fill="#0044ee"  xml:space="preserve" font-size="4.52452" transform="translate(228.497, 293.732)" >IBFN[7:4]</text>
<text fill="#0044ee"  xml:space="preserve" font-size="4.52452" transform="translate(119.804, 290.509)" >PWRUP_1V8</text>
<text fill="#0044ee"  xml:space="preserve" font-size="4.52452" transform="translate(119.804, 251.838)" >PWRUP_1V8</text>
<text fill="#0044ee"  xml:space="preserve" font-size="5.52997" transform="translate(592.782, 368.314)" >VCP</text>
<text fill="#0044ee"  xml:space="preserve" font-size="4.52452" transform="translate(425.075, 264.728)" >VGF</text>
<text fill="#0044ee"  xml:space="preserve" font-size="4.52452" transform="translate(435.034, 429.081)" >VSS</text>
<text fill="#0044ee"  xml:space="preserve" font-size="4.52452" transform="translate(609.054, 319.512)" >IBN</text>
<text fill="#222222"  xml:space="preserve" font-size="2.6812" transform="translate(656.296, 286.508)" >JNWATR_PCH_4C5F0</text>
<text fill="#222222"  xml:space="preserve" font-size="2.6812" transform="translate(656.296, 272.006)" >x5</text>
<text fill="#222222"  xml:space="preserve" font-size="2.6812" transform="translate(656.296, 328.402)" >JNWATR_PCH_4C1F2</text>
<text fill="#222222"  xml:space="preserve" font-size="2.6812" transform="translate(656.296, 313.9)" >x2</text>
<text fill="#222222"  xml:space="preserve" font-size="2.51362" transform="translate(340.159, 495.916)" >Y</text>
<text fill="#222222"  xml:space="preserve" font-size="2.51362" transform="translate(331.136, 495.916)" >A</text>
<text fill="#222222"  xml:space="preserve" font-size="1.67575" transform="translate(334.636, 484.06) rotate(270)" >AVDD</text>
<text fill="#222222"  xml:space="preserve" font-size="1.67575" transform="translate(334.558, 516.173) rotate(270)" >AVSS</text>
<text fill="#222222"  xml:space="preserve" font-size="2.51362" transform="translate(340.482, 502.362)" >SUNTR_IVX1_CV</text>
<text fill="#222222"  xml:space="preserve" font-size="2.51362" transform="translate(340.482, 499.139)" >x13</text>
<text fill="#222222"  xml:space="preserve" font-size="2.6812" transform="translate(760.378, 340.332) rotate(270)" >JNWATR_PCH_4C1F2</text>
<text fill="#222222"  xml:space="preserve" font-size="2.6812" transform="translate(745.877, 340.332) rotate(270)" >x15</text>
<text fill="#222222"  xml:space="preserve" font-size="2.6812" transform="translate(741.043, 379.003) rotate(270)" >JNWATR_PCH_4C1F2</text>
<text fill="#222222"  xml:space="preserve" font-size="2.6812" transform="translate(726.541, 379.003) rotate(270)" >x16</text>
<text fill="#222222"  xml:space="preserve" font-size="2.6812" transform="translate(718.485, 417.674) rotate(270)" >JNWATR_PCH_4C1F2</text>
<text fill="#222222"  xml:space="preserve" font-size="2.6812" transform="translate(703.983, 417.674) rotate(270)" >x17</text>
<text fill="#222222"  xml:space="preserve" font-size="2.6812" transform="translate(692.704, 443.455) rotate(270)" >JNWATR_PCH_4C1F2</text>
<text fill="#222222"  xml:space="preserve" font-size="2.6812" transform="translate(678.202, 443.455) rotate(270)" >x18</text>
<text fill="#222222"  xml:space="preserve" font-size="3.3515" transform="translate(319.535, 261.199)" >CP&lt;11&gt;</text>
<text fill="#222222"  xml:space="preserve" font-size="3.3515" transform="translate(319.535, 267.644)" >CP&lt;10&gt;</text>
<text fill="#222222"  xml:space="preserve" font-size="3.3515" transform="translate(319.535, 274.09)" >CP&lt;9&gt;</text>
<text fill="#222222"  xml:space="preserve" font-size="3.3515" transform="translate(319.535, 280.535)" >CP&lt;8&gt;</text>
<text fill="#222222"  xml:space="preserve" font-size="3.3515" transform="translate(319.535, 286.98)" >CP&lt;7&gt;</text>
<text fill="#222222"  xml:space="preserve" font-size="3.3515" transform="translate(319.535, 293.425)" >CP&lt;6&gt;</text>
<text fill="#222222"  xml:space="preserve" font-size="3.3515" transform="translate(319.535, 299.87)" >CP&lt;5&gt;</text>
<text fill="#222222"  xml:space="preserve" font-size="3.3515" transform="translate(319.535, 306.316)" >CP&lt;4&gt;</text>
<text fill="#222222"  xml:space="preserve" font-size="3.3515" transform="translate(319.535, 312.761)" >CP&lt;3&gt;</text>
<text fill="#222222"  xml:space="preserve" font-size="3.3515" transform="translate(319.535, 319.206)" >CP&lt;2&gt;</text>
<text fill="#222222"  xml:space="preserve" font-size="3.3515" transform="translate(319.535, 325.651)" >CP&lt;1&gt;</text>
<text fill="#222222"  xml:space="preserve" font-size="3.3515" transform="translate(319.535, 332.096)" >CP&lt;0&gt;</text>
<text fill="#222222"  xml:space="preserve" font-size="3.3515" transform="translate(353.919, 267.023)" >CTOP</text>
<text fill="#222222"  xml:space="preserve" font-size="3.3515" transform="translate(319.535, 344.987)" >AVSS</text>
<text fill="#222222"  xml:space="preserve" font-size="4.18937" transform="translate(337.259, 340.914)" >SUNSAR_CDAC8_CV</text>
<text fill="#222222"  xml:space="preserve" font-size="3.3515" transform="translate(317.924, 254.754)" >x12</text>
<text fill="#222222"  xml:space="preserve" font-size="2.09468" transform="translate(346.927, 334.178)" >1</text>
<text fill="#222222"  xml:space="preserve" font-size="2.09468" transform="translate(346.927, 327.733)" >2</text>
<text fill="#222222"  xml:space="preserve" font-size="2.09468" transform="translate(346.927, 321.287)" >4</text>
<text fill="#222222"  xml:space="preserve" font-size="2.09468" transform="translate(346.927, 314.842)" >8</text>
<text fill="#222222"  xml:space="preserve" font-size="2.09468" transform="translate(346.927, 308.397)" >8</text>
<text fill="#222222"  xml:space="preserve" font-size="2.09468" transform="translate(346.927, 301.952)" >8</text>
<text fill="#222222"  xml:space="preserve" font-size="2.09468" transform="translate(346.927, 295.507)" >16</text>
<text fill="#222222"  xml:space="preserve" font-size="2.09468" transform="translate(346.927, 289.061)" >16</text>
<text fill="#222222"  xml:space="preserve" font-size="2.09468" transform="translate(346.927, 282.616)" >32</text>
<text fill="#222222"  xml:space="preserve" font-size="2.09468" transform="translate(346.927, 276.171)" >32</text>
<text fill="#222222"  xml:space="preserve" font-size="2.09468" transform="translate(346.927, 269.726)" >64</text>
<text fill="#222222"  xml:space="preserve" font-size="2.09468" transform="translate(346.927, 263.281)" >64</text>
<text fill="#222222"  xml:space="preserve" font-size="2.6812" transform="translate(407.328, 283.285)" >JNWATR_PCH_4C5F0</text>
<text fill="#222222"  xml:space="preserve" font-size="2.6812" transform="translate(464.448, 268.784)" >x7</text>
<text fill="#222222"  xml:space="preserve" font-size="2.6812" transform="translate(521.907, 311.329) rotate(270)" >JNWATR_PCH_4C5F0</text>
<text fill="#222222"  xml:space="preserve" font-size="2.6812" transform="translate(507.405, 311.329) rotate(270)" >x1</text>
<text fill="#222222"  xml:space="preserve" font-size="2.51362" transform="translate(336.937, 421.797)" >Y</text>
<text fill="#222222"  xml:space="preserve" font-size="2.51362" transform="translate(327.914, 421.797)" >A</text>
<text fill="#222222"  xml:space="preserve" font-size="1.67575" transform="translate(331.414, 409.94) rotate(270)" >AVDD</text>
<text fill="#222222"  xml:space="preserve" font-size="1.67575" transform="translate(331.335, 442.054) rotate(270)" >AVSS</text>
<text fill="#222222"  xml:space="preserve" font-size="2.51362" transform="translate(337.259, 428.242)" >SUNTR_IVX1_CV</text>
<text fill="#222222"  xml:space="preserve" font-size="2.51362" transform="translate(337.259, 425.019)" >x3</text>
<text fill="#222222"  xml:space="preserve" font-size="2.6812" transform="translate(509.016, 463.619) rotate(270)" >JNWATR_NCH_4C5F0</text>
<text fill="#222222"  xml:space="preserve" font-size="2.6812" transform="translate(523.518, 406.499) rotate(270)" >x4</text>
<text fill="#ff0000"  xml:space="preserve" font-size="2.51362" transform="translate(606.346, 262.855)" >c0</text>
<text fill="#ff0000"  xml:space="preserve" font-size="2.51362" transform="translate(606.346, 277.76)" >c1</text>
<text fill="#666600"  xml:space="preserve" font-size="3.3515" transform="translate(610.374, 278.521)" >MF=2</text>
<text fill="#222222"  xml:space="preserve" font-size="3.3515" transform="translate(609.568, 263.213)" >C1</text>
<text fill="#666600"  xml:space="preserve" font-size="3.3515" transform="translate(609.568, 274.492)" >10 / 10</text>
<text fill="#222222"  xml:space="preserve" font-size="3.3515" transform="translate(609.568, 268.853)" >cap_mim_m3_1</text>
<text fill="#666600"  xml:space="preserve" font-size="3.3515" transform="translate(546.217, 275.298)" >C=4.152e-13</text>
<text fill="#ff0000"  xml:space="preserve" font-size="2.51362" transform="translate(442.198, 359.261) rotate(270)" >c0</text>
<text fill="#ff0000"  xml:space="preserve" font-size="2.51362" transform="translate(427.294, 359.261) rotate(270)" >c1</text>
<text fill="#666600"  xml:space="preserve" font-size="3.3515" transform="translate(427.094, 376.04) rotate(270)" >MF=1</text>
<text fill="#222222"  xml:space="preserve" font-size="3.3515" transform="translate(442.401, 365.034) rotate(270)" >C2</text>
<text fill="#666600"  xml:space="preserve" font-size="3.3515" transform="translate(431.122, 385.434) rotate(270)" >10 / 5</text>
<text fill="#222222"  xml:space="preserve" font-size="3.3515" transform="translate(436.761, 416.034) rotate(270)" >cap_mim_m3_1</text>
<text fill="#666600"  xml:space="preserve" font-size="3.3515" transform="translate(430.316, 347.583) rotate(270)" >C=1.057e-13</text>
<text fill="#222222"  xml:space="preserve" font-size="2.6812" transform="translate(421.047, 386.408)" >JNWATR_NCH_4C5F0</text>
<text fill="#222222"  xml:space="preserve" font-size="2.6812" transform="translate(421.047, 400.91)" >x6</text>
<text fill="#222222"  xml:space="preserve" font-size="2.51362" transform="translate(200.621, 260.667)" >B</text>
<text fill="#222222"  xml:space="preserve" font-size="2.51362" transform="translate(200.621, 254.222)" >A</text>
<text fill="#222222"  xml:space="preserve" font-size="2.09468" transform="translate(207.396, 280.252) rotate(270)" >AVSS</text>
<text fill="#222222"  xml:space="preserve" font-size="2.51362" transform="translate(209.042, 257.327)" >Y</text>
<text fill="#222222"  xml:space="preserve" font-size="2.51362" transform="translate(206.033, 245.588) rotate(270)" >AVDD</text>
<text fill="#222222"  xml:space="preserve" font-size="2.51362" transform="translate(211.578, 260.667)" >x7[7:0]</text>
<text fill="#222222"  xml:space="preserve" font-size="2.51362" transform="translate(211.578, 263.89)" >SUNTR_ANX1_CV</text>
<text fill="#222222"  xml:space="preserve" font-size="2.51362" transform="translate(200.621, 299.338)" >B</text>
<text fill="#222222"  xml:space="preserve" font-size="2.51362" transform="translate(200.621, 292.893)" >A</text>
<text fill="#222222"  xml:space="preserve" font-size="2.09468" transform="translate(207.396, 318.923) rotate(270)" >AVSS</text>
<text fill="#222222"  xml:space="preserve" font-size="2.51362" transform="translate(209.042, 295.998)" >Y</text>
<text fill="#222222"  xml:space="preserve" font-size="2.51362" transform="translate(206.033, 284.259) rotate(270)" >AVDD</text>
<text fill="#222222"  xml:space="preserve" font-size="2.51362" transform="translate(211.578, 299.338)" >x8[3:0]</text>
<text fill="#222222"  xml:space="preserve" font-size="2.51362" transform="translate(211.578, 302.561)" >SUNTR_ANX1_CV</text>
<text fill="#222222"  xml:space="preserve" font-size="2.51362" transform="translate(479.835, 428.547) rotate(270)" >x8</text>
<text fill="#222222"  xml:space="preserve" font-size="2.51362" transform="translate(483.057, 466.797) rotate(270)" >SUNTR_RPPO16</text>
<text fill="#222222"  xml:space="preserve" font-size="4.18937" transform="translate(894.767, 586.749)" >Updated</text>
<text fill="#222222"  xml:space="preserve" font-size="4.18937" transform="translate(438.771, 606.085)" >Library/Cell</text>
<text fill="#222222"  xml:space="preserve" font-size="4.18937" transform="translate(894.767, 580.304)" >Designer</text>
<text fill="#222222"  xml:space="preserve" font-size="4.18937" transform="translate(894.767, 593.194)" >Modified</text>
<text fill="#222222"  xml:space="preserve" font-size="4.18937" transform="translate(896.379, 599.639)" >Copyright</text>
<text fill="#222222"  xml:space="preserve" font-size="4.18937" transform="translate(920.548, 586.749)" >wulff</text>
<text fill="#222222"  xml:space="preserve" font-size="4.18937" transform="translate(920.548, 593.194)" >2024-08-17  10:22:36</text>
<text fill="#222222"  xml:space="preserve" font-size="4.18937" transform="translate(920.548, 599.639)" >Carsten Wulff Software</text>
<text fill="#222222"  xml:space="preserve" font-size="4.18937" transform="translate(475.831, 606.085)" >JNWG00_IDAC</text>
<text fill="#222222"  xml:space="preserve" font-size="4.18937" transform="translate(920.548, 580.304)" >Carsten Wulff</text>
<path class="l4" d="M649.85 283.937L656.296 283.937"/>
<path class="l4" d="M656.296 283.937L656.296 288.771"/>
<path class="l4" d="M649.85 274.269L656.296 274.269"/>
<path class="l4" d="M656.296 269.435L656.296 274.269"/>
<path class="l4" d="M649.85 279.103L656.296 279.103"/>
<path class="l4" d="M652.106 274.269L655.329 272.658"/>
<path class="l4" d="M652.106 274.269L655.329 275.88"/>
<path class="l4" d="M649.85 274.269L649.85 283.937"/>
<path class="l4" d="M648.239 274.269L648.239 283.937"/>
<path class="l4" d="M643.405 279.103L645.661 279.103"/>
<circle class="l4" cx="646.95" cy="279.103" r="1.28904" style="fill:none;"/>
<path class="l4" d="M649.85 325.831L656.296 325.831"/>
<path class="l4" d="M656.296 325.831L656.296 330.664"/>
<path class="l4" d="M649.85 316.163L656.296 316.163"/>
<path class="l4" d="M656.296 311.329L656.296 316.163"/>
<path class="l4" d="M649.85 320.997L656.296 320.997"/>
<path class="l4" d="M652.106 316.163L655.329 314.551"/>
<path class="l4" d="M652.106 316.163L655.329 317.774"/>
<path class="l4" d="M649.85 316.163L649.85 325.831"/>
<path class="l4" d="M648.239 316.163L648.239 325.831"/>
<path class="l4" d="M643.405 320.997L645.661 320.997"/>
<circle class="l4" cx="646.95" cy="320.997" r="1.28904" style="fill:none;"/>
<path class="l4" d="M337.259 498.239L337.259 504.684"/>
<path class="l4" d="M337.259 482.126L337.259 485.349"/>
<path class="l4" d="M330.814 488.571L330.814 501.462"/>
<path class="l4" d="M330.814 501.462L343.704 495.017"/>
<path class="l4" d="M330.814 488.571L343.704 495.017"/>
<path class="l4" d="M346.927 495.017L350.15 495.017"/>
<path class="l4" d="M324.369 495.017L330.814 495.017"/>
<path class="l4" d="M337.259 485.349L337.259 491.794"/>
<path class="l4" d="M337.259 504.684L337.259 507.907"/>
<circle class="l4" cx="345.316" cy="495.017" r="1.6113" style="fill:none;"/>
<path class="l4" d="M757.807 340.332L757.807 346.777"/>
<path class="l4" d="M757.807 340.332L762.641 340.332"/>
<path class="l4" d="M748.14 340.332L748.14 346.777"/>
<path class="l4" d="M743.306 340.332L748.14 340.332"/>
<path class="l4" d="M752.973 340.332L752.973 346.777"/>
<path class="l4" d="M746.528 341.299L748.14 344.522"/>
<path class="l4" d="M748.14 344.522L749.751 341.299"/>
<path class="l4" d="M748.14 346.777L757.807 346.777"/>
<path class="l4" d="M748.14 348.389L757.807 348.389"/>
<path class="l4" d="M752.973 350.967L752.973 353.223"/>
<circle class="l4" cx="752.973" cy="349.678" r="1.28904" style="fill:none;"/>
<path class="l4" d="M738.472 379.003L738.472 385.449"/>
<path class="l4" d="M738.472 379.003L743.306 379.003"/>
<path class="l4" d="M728.804 379.003L728.804 385.449"/>
<path class="l4" d="M723.97 379.003L728.804 379.003"/>
<path class="l4" d="M733.638 379.003L733.638 385.449"/>
<path class="l4" d="M727.193 379.97L728.804 383.193"/>
<path class="l4" d="M728.804 383.193L730.415 379.97"/>
<path class="l4" d="M728.804 385.449L738.472 385.449"/>
<path class="l4" d="M728.804 387.06L738.472 387.06"/>
<path class="l4" d="M733.638 389.638L733.638 391.894"/>
<circle class="l4" cx="733.638" cy="388.349" r="1.28904" style="fill:none;"/>
<path class="l4" d="M715.914 417.674L715.914 424.12"/>
<path class="l4" d="M715.914 417.674L720.748 417.674"/>
<path class="l4" d="M706.246 417.674L706.246 424.12"/>
<path class="l4" d="M701.412 417.674L706.246 417.674"/>
<path class="l4" d="M711.08 417.674L711.08 424.12"/>
<path class="l4" d="M704.635 418.641L706.246 421.864"/>
<path class="l4" d="M706.246 421.864L707.857 418.641"/>
<path class="l4" d="M706.246 424.12L715.914 424.12"/>
<path class="l4" d="M706.246 425.731L715.914 425.731"/>
<path class="l4" d="M711.08 428.309L711.08 430.565"/>
<circle class="l4" cx="711.08" cy="427.02" r="1.28904" style="fill:none;"/>
<path class="l4" d="M690.133 443.455L690.133 449.9"/>
<path class="l4" d="M690.133 443.455L694.967 443.455"/>
<path class="l4" d="M680.465 443.455L680.465 449.9"/>
<path class="l4" d="M675.631 443.455L680.465 443.455"/>
<path class="l4" d="M685.299 443.455L685.299 449.9"/>
<path class="l4" d="M678.854 444.422L680.465 447.645"/>
<path class="l4" d="M680.465 447.645L682.076 444.422"/>
<path class="l4" d="M680.465 449.9L690.133 449.9"/>
<path class="l4" d="M680.465 451.512L690.133 451.512"/>
<path class="l4" d="M685.299 454.09L685.299 456.346"/>
<circle class="l4" cx="685.299" cy="452.801" r="1.28904" style="fill:none;"/>
<path class="l4" d="M311.478 259.767L317.924 259.767"/>
<path class="l4" d="M311.478 266.213L317.924 266.213"/>
<path class="l4" d="M311.478 272.658L317.924 272.658"/>
<path class="l4" d="M311.478 279.103L317.924 279.103"/>
<path class="l4" d="M311.478 285.548L317.924 285.548"/>
<path class="l4" d="M311.478 291.993L317.924 291.993"/>
<path class="l4" d="M311.478 298.439L317.924 298.439"/>
<path class="l4" d="M311.478 304.884L317.924 304.884"/>
<path class="l4" d="M311.478 311.329L317.924 311.329"/>
<path class="l4" d="M311.478 317.774L317.924 317.774"/>
<path class="l4" d="M311.478 324.219L317.924 324.219"/>
<path class="l4" d="M311.478 330.664L317.924 330.664"/>
<path class="l4" d="M375.93 266.213L382.375 266.213"/>
<path class="l4" d="M311.478 343.555L317.924 343.555"/>
<path class="l4" d="M356.595 266.213L363.04 266.213"/>
<path class="l4" d="M356.595 266.213L356.595 330.664"/>
<path class="l4" d="M334.037 330.664L343.704 330.664"/>
<path class="l4" d="M343.704 329.053L343.704 332.276"/>
<path class="l4" d="M345.316 329.053L345.316 332.276"/>
<path class="l4" d="M345.316 330.664L356.595 330.664"/>
<path class="l4" d="M334.037 324.219L343.704 324.219"/>
<path class="l4" d="M343.704 322.608L343.704 325.831"/>
<path class="l4" d="M345.316 322.608L345.316 325.831"/>
<path class="l4" d="M345.316 324.219L356.595 324.219"/>
<path class="l4" d="M334.037 317.774L343.704 317.774"/>
<path class="l4" d="M343.704 316.163L343.704 319.385"/>
<path class="l4" d="M345.316 316.163L345.316 319.385"/>
<path class="l4" d="M345.316 317.774L356.595 317.774"/>
<path class="l4" d="M334.037 311.329L343.704 311.329"/>
<path class="l4" d="M343.704 309.718L343.704 312.94"/>
<path class="l4" d="M345.316 309.718L345.316 312.94"/>
<path class="l4" d="M345.316 311.329L356.595 311.329"/>
<path class="l4" d="M334.037 304.884L343.704 304.884"/>
<path class="l4" d="M343.704 303.272L343.704 306.495"/>
<path class="l4" d="M345.316 303.272L345.316 306.495"/>
<path class="l4" d="M345.316 304.884L356.595 304.884"/>
<path class="l4" d="M334.037 298.439L343.704 298.439"/>
<path class="l4" d="M343.704 296.827L343.704 300.05"/>
<path class="l4" d="M345.316 296.827L345.316 300.05"/>
<path class="l4" d="M345.316 298.439L356.595 298.439"/>
<path class="l4" d="M334.037 291.993L343.704 291.993"/>
<path class="l4" d="M343.704 290.382L343.704 293.605"/>
<path class="l4" d="M345.316 290.382L345.316 293.605"/>
<path class="l4" d="M345.316 291.993L356.595 291.993"/>
<path class="l4" d="M334.037 285.548L343.704 285.548"/>
<path class="l4" d="M343.704 283.937L343.704 287.159"/>
<path class="l4" d="M345.316 283.937L345.316 287.159"/>
<path class="l4" d="M345.316 285.548L356.595 285.548"/>
<path class="l4" d="M334.037 279.103L343.704 279.103"/>
<path class="l4" d="M343.704 277.492L343.704 280.714"/>
<path class="l4" d="M345.316 277.492L345.316 280.714"/>
<path class="l4" d="M345.316 279.103L356.595 279.103"/>
<path class="l4" d="M334.037 272.658L343.704 272.658"/>
<path class="l4" d="M343.704 271.047L343.704 274.269"/>
<path class="l4" d="M345.316 271.047L345.316 274.269"/>
<path class="l4" d="M345.316 272.658L356.595 272.658"/>
<path class="l4" d="M334.037 266.213L343.704 266.213"/>
<path class="l4" d="M343.704 264.601L343.704 267.824"/>
<path class="l4" d="M345.316 264.601L345.316 267.824"/>
<path class="l4" d="M345.316 266.213L356.595 266.213"/>
<path class="l4" d="M334.037 259.767L343.704 259.767"/>
<path class="l4" d="M343.704 258.156L343.704 261.379"/>
<path class="l4" d="M345.316 258.156L345.316 261.379"/>
<path class="l4" d="M345.316 259.767L356.595 259.767"/>
<path class="l4" d="M356.595 259.767L356.595 266.213"/>
<path class="l4" style="fill:none;" d="M317.924 256.545L375.93 256.545L375.93 346.777L317.924 346.777L317.924 256.545"/>
<path class="l4" d="M472.608 280.714L479.053 280.714"/>
<path class="l4" d="M472.608 280.714L472.608 285.548"/>
<path class="l4" d="M472.608 271.047L479.053 271.047"/>
<path class="l4" d="M472.608 266.213L472.608 271.047"/>
<path class="l4" d="M472.608 275.88L479.053 275.88"/>
<path class="l4" d="M473.575 269.435L476.797 271.047"/>
<path class="l4" d="M473.575 272.658L476.797 271.047"/>
<path class="l4" d="M479.053 271.047L479.053 280.714"/>
<path class="l4" d="M480.664 271.047L480.664 280.714"/>
<path class="l4" d="M483.243 275.88L485.498 275.88"/>
<circle class="l4" cx="481.953" cy="275.88" r="1.28904" style="fill:none;"/>
<path class="l4" d="M519.336 311.329L519.336 317.774"/>
<path class="l4" d="M519.336 311.329L524.169 311.329"/>
<path class="l4" d="M509.668 311.329L509.668 317.774"/>
<path class="l4" d="M504.834 311.329L509.668 311.329"/>
<path class="l4" d="M514.502 311.329L514.502 317.774"/>
<path class="l4" d="M508.056 312.296L509.668 315.518"/>
<path class="l4" d="M509.668 315.518L511.279 312.296"/>
<path class="l4" d="M509.668 317.774L519.336 317.774"/>
<path class="l4" d="M509.668 319.385L519.336 319.385"/>
<path class="l4" d="M514.502 321.963L514.502 324.219"/>
<circle class="l4" cx="514.502" cy="320.674" r="1.28904" style="fill:none;"/>
<path class="l4" d="M334.037 424.12L334.037 430.565"/>
<path class="l4" d="M334.037 408.007L334.037 411.229"/>
<path class="l4" d="M327.591 414.452L327.591 427.342"/>
<path class="l4" d="M327.591 427.342L340.482 420.897"/>
<path class="l4" d="M327.591 414.452L340.482 420.897"/>
<path class="l4" d="M343.704 420.897L346.927 420.897"/>
<path class="l4" d="M321.146 420.897L327.591 420.897"/>
<path class="l4" d="M334.037 411.229L334.037 417.674"/>
<path class="l4" d="M334.037 430.565L334.037 433.787"/>
<circle class="l4" cx="342.093" cy="420.897" r="1.6113" style="fill:none;"/>
<path class="l4" d="M517.724 395.116L519.336 398.339"/>
<path class="l4" d="M519.336 398.339L520.947 395.116"/>
<path class="l4" d="M509.668 391.894L509.668 398.339"/>
<path class="l4" d="M504.834 398.339L509.668 398.339"/>
<path class="l4" d="M519.336 391.894L519.336 398.339"/>
<path class="l4" d="M519.336 398.339L524.169 398.339"/>
<path class="l4" d="M514.502 391.894L514.502 398.339"/>
<path class="l4" d="M509.668 391.894L519.336 391.894"/>
<path class="l4" d="M509.668 390.282L519.336 390.282"/>
<path class="l4" d="M514.502 385.449L514.502 390.282"/>
<path class="l4" d="M604.734 270.241L604.734 279.103"/>
<path class="l4" d="M604.734 259.767L604.734 267.824"/>
<path class="l4" d="M601.512 267.824L607.957 267.824"/>
<path class="l4" style="fill:none;" d="M607.957 271.047 A6.84801 6.84801 0 0 0 601.512 271.047"/>
<path class="l4" d="M424.269 350L433.131 350"/>
<path class="l4" d="M435.548 350L443.605 350"/>
<path class="l4" d="M435.548 346.777L435.548 353.223"/>
<path class="l4" style="fill:none;" d="M432.326 353.223 A6.84801 6.84801 0 0 0 432.326 346.777"/>
<path class="l4" d="M417.824 395.116L421.047 396.728"/>
<path class="l4" d="M417.824 398.339L421.047 396.728"/>
<path class="l4" d="M414.601 387.06L421.047 387.06"/>
<path class="l4" d="M421.047 382.226L421.047 387.06"/>
<path class="l4" d="M414.601 396.728L421.047 396.728"/>
<path class="l4" d="M421.047 396.728L421.047 401.561"/>
<path class="l4" d="M414.601 391.894L421.047 391.894"/>
<path class="l4" d="M414.601 387.06L414.601 396.728"/>
<path class="l4" d="M412.99 387.06L412.99 396.728"/>
<path class="l4" d="M408.156 391.894L412.99 391.894"/>
<path class="l4" d="M205.133 243.654L205.133 250.1"/>
<path class="l4" d="M198.688 262.99L205.133 262.99"/>
<path class="l4" d="M198.688 250.1L205.133 250.1"/>
<path class="l4" d="M205.133 250.1L208.355 250.1"/>
<path class="l4" d="M197.076 259.767L198.688 259.767"/>
<path class="l4" d="M216.412 256.545L221.246 256.545"/>
<path class="l4" d="M213.189 256.545L216.412 256.545"/>
<path class="l4" d="M197.076 253.322L198.688 253.322"/>
<path class="l4" d="M198.688 250.1L198.688 262.99"/>
<path class="l4" d="M192.243 253.322L198.688 253.322"/>
<path class="l4" d="M192.243 259.767L198.688 259.767"/>
<path class="l4" d="M205.133 262.99L205.133 269.435"/>
<path class="l4" d="M205.133 262.99L208.355 262.99"/>
<path class="l4" style="fill:none;" d="M208.367 263.027 A6.76744 6.76744 0 0 0 208.367 250.063"/>
<path class="l4" d="M205.133 282.326L205.133 288.771"/>
<path class="l4" d="M198.688 301.661L205.133 301.661"/>
<path class="l4" d="M198.688 288.771L205.133 288.771"/>
<path class="l4" d="M205.133 288.771L208.355 288.771"/>
<path class="l4" d="M197.076 298.439L198.688 298.439"/>
<path class="l4" d="M216.412 295.216L221.246 295.216"/>
<path class="l4" d="M213.189 295.216L216.412 295.216"/>
<path class="l4" d="M197.076 291.993L198.688 291.993"/>
<path class="l4" d="M198.688 288.771L198.688 301.661"/>
<path class="l4" d="M192.243 291.993L198.688 291.993"/>
<path class="l4" d="M192.243 298.439L198.688 298.439"/>
<path class="l4" d="M205.133 301.661L205.133 308.106"/>
<path class="l4" d="M205.133 301.661L208.355 301.661"/>
<path class="l4" style="fill:none;" d="M208.367 301.698 A6.76744 6.76744 0 0 0 208.367 288.734"/>
<path class="l4" d="M466.163 430.565L470.997 430.565"/>
<path class="l4" d="M472.608 440.233L472.608 443.455"/>
<path class="l4" d="M472.608 417.674L472.608 420.897"/>
<path class="l4" d="M470.352 426.698L470.352 434.432"/>
<path class="l4" d="M472.608 438.299L472.608 440.233"/>
<path class="l4" d="M472.608 420.897L472.608 422.831"/>
<path class="l4" d="M470.674 423.797L472.608 422.831"/>
<path class="l4" d="M470.674 423.797L474.542 425.731"/>
<path class="l4" d="M470.674 427.664L474.542 425.731"/>
<path class="l4" d="M470.674 427.664L474.542 429.598"/>
<path class="l4" d="M470.674 431.532L474.542 429.598"/>
<path class="l4" d="M470.674 431.532L474.542 433.465"/>
<path class="l4" d="M470.674 435.399L474.542 433.465"/>
<path class="l4" d="M470.674 435.399L474.542 437.332"/>
<path class="l4" d="M472.608 438.299L474.542 437.332"/>
<path class="l4" d="M917.326 582.027L917.326 588.472"/>
<path class="l4" d="M875.432 601.362L875.432 607.807"/>
<path class="l4" d="M939.884 601.362L939.884 607.807"/>
<path class="l4" d="M810.98 601.362L810.98 607.807"/>
<path class="l4" d="M474.219 601.362L474.219 607.807"/>
<path class="l4" d="M430.714 601.362L437.159 601.362"/>
<path class="l4" d="M437.159 601.362L437.159 607.807"/>
<path class="l4" d="M978.555 601.362L985 601.362"/>
<path class="l4" d="M978.555 601.362L978.555 607.807"/>
<path class="l4" d="M917.326 575.581L917.326 582.027"/>
<path class="l4" d="M917.326 588.472L917.326 594.917"/>
<path class="l4" d="M15 607.807L430.714 607.807"/>
<path class="l4" d="M15 92.1927L15 607.807"/>
<path class="l4" d="M15 92.1927L985 92.1927"/>
<path class="l4" d="M985 92.1927L985 569.136"/>
<path class="l4" style="fill:none;" d="M893.156 575.581L978.555 575.581L978.555 569.136L893.156 569.136L893.156 575.581"/>
<path class="l4" style="fill:none;" d="M893.156 601.362L985 601.362L985 569.136L893.156 569.136L893.156 601.362"/>
<path class="l4" style="fill:none;" d="M893.156 582.027L978.555 582.027L978.555 575.581L893.156 575.581L893.156 582.027"/>
<path class="l4" style="fill:none;" d="M430.714 607.807L985 607.807L985 601.362L430.714 601.362L430.714 607.807"/>
<path class="l4" style="fill:none;" d="M893.156 601.362L978.555 601.362L978.555 594.917L893.156 594.917L893.156 601.362"/>
<path class="l4" style="fill:none;" d="M893.156 594.917L978.555 594.917L978.555 588.472L893.156 588.472L893.156 594.917"/>
<path class="l4" style="fill:none;" d="M893.156 588.472L978.555 588.472L978.555 582.027L893.156 582.027L893.156 588.472"/>
<path class="l5" d="M654.684 246.877L656.296 246.877"/>
<path class="l5" d="M654.684 246.877L653.476 245.266L650.656 245.266L651.865 246.877L650.656 248.488L653.476 248.488L654.684 246.877"/>
<path class="l5" d="M655.893 246.474L656.699 246.474L656.699 247.28L655.893 247.28L655.893 246.474z"/>
<path class="l5" d="M296.977 530.465L298.588 530.465"/>
<path class="l5" d="M296.977 530.465L295.768 528.854L292.949 528.854L294.157 530.465L292.949 532.076L295.768 532.076L296.977 530.465"/>
<path class="l5" d="M298.185 530.062L298.991 530.062L298.991 530.868L298.185 530.868L298.185 530.062z"/>
<path class="l5" d="M296.977 495.017L298.588 495.017"/>
<path class="l5" d="M296.977 495.017L295.768 493.405L292.949 493.405L294.157 495.017L292.949 496.628L295.768 496.628L296.977 495.017"/>
<path class="l5" d="M298.185 494.614L298.991 494.614L298.991 495.419L298.185 495.419L298.185 494.614z"/>
<path class="l5" d="M655.007 287.482L657.585 287.482L657.585 290.06L655.007 290.06L655.007 287.482z"/>
<path class="l5" d="M642.116 277.814L644.694 277.814L644.694 280.392L642.116 280.392L642.116 277.814z"/>
<path class="l5" d="M655.007 268.146L657.585 268.146L657.585 270.724L655.007 270.724L655.007 268.146z"/>
<path class="l5" d="M655.007 277.814L657.585 277.814L657.585 280.392L655.007 280.392L655.007 277.814z"/>
<path class="l5" d="M655.007 329.375L657.585 329.375L657.585 331.953L655.007 331.953L655.007 329.375z"/>
<path class="l5" d="M642.116 319.708L644.694 319.708L644.694 322.286L642.116 322.286L642.116 319.708z"/>
<path class="l5" d="M655.007 310.04L657.585 310.04L657.585 312.618L655.007 312.618L655.007 310.04z"/>
<path class="l5" d="M655.007 319.708L657.585 319.708L657.585 322.286L655.007 322.286L655.007 319.708z"/>
<path class="l5" d="M323.08 493.728L325.658 493.728L325.658 496.306L323.08 496.306L323.08 493.728z"/>
<path class="l5" d="M348.86 493.728L351.439 493.728L351.439 496.306L348.86 496.306L348.86 493.728z"/>
<path class="l5" d="M335.97 480.837L338.548 480.837L338.548 483.415L335.97 483.415L335.97 480.837z"/>
<path class="l5" d="M335.97 506.618L338.548 506.618L338.548 509.196L335.97 509.196L335.97 506.618z"/>
<path class="l5" d="M343.301 481.723L344.107 481.723L344.107 482.529L343.301 482.529L343.301 481.723z"/>
<path class="l5" d="M343.301 507.504L344.107 507.504L344.107 508.31L343.301 508.31L343.301 507.504z"/>
<path class="l5" d="M369.082 494.614L369.888 494.614L369.888 495.419L369.082 495.419L369.082 494.614z"/>
<path class="l5" d="M749.751 482.126L750.758 482.126"/>
<path class="l5" d="M754.182 483.738L755.39 482.126L754.182 480.515L751.966 480.515L750.758 482.126L751.966 483.738L754.182 483.738"/>
<path class="l5" d="M749.348 481.723L750.154 481.723L750.154 482.529L749.348 482.529L749.348 481.723z"/>
<path class="l5" d="M761.352 339.043L763.93 339.043L763.93 341.621L761.352 341.621L761.352 339.043z"/>
<path class="l5" d="M751.684 351.934L754.262 351.934L754.262 354.512L751.684 354.512L751.684 351.934z"/>
<path class="l5" d="M742.017 339.043L744.595 339.043L744.595 341.621L742.017 341.621L742.017 339.043z"/>
<path class="l5" d="M751.684 339.043L754.262 339.043L754.262 341.621L751.684 341.621L751.684 339.043z"/>
<path class="l5" d="M742.017 377.714L744.595 377.714L744.595 380.292L742.017 380.292L742.017 377.714z"/>
<path class="l5" d="M732.349 390.605L734.927 390.605L734.927 393.183L732.349 393.183L732.349 390.605z"/>
<path class="l5" d="M722.681 377.714L725.259 377.714L725.259 380.292L722.681 380.292L722.681 377.714z"/>
<path class="l5" d="M732.349 377.714L734.927 377.714L734.927 380.292L732.349 380.292L732.349 377.714z"/>
<path class="l5" d="M719.458 416.385L722.037 416.385L722.037 418.963L719.458 418.963L719.458 416.385z"/>
<path class="l5" d="M709.791 429.276L712.369 429.276L712.369 431.854L709.791 431.854L709.791 429.276z"/>
<path class="l5" d="M700.123 416.385L702.701 416.385L702.701 418.963L700.123 418.963L700.123 416.385z"/>
<path class="l5" d="M709.791 416.385L712.369 416.385L712.369 418.963L709.791 418.963L709.791 416.385z"/>
<path class="l5" d="M693.678 442.166L696.256 442.166L696.256 444.744L693.678 444.744L693.678 442.166z"/>
<path class="l5" d="M684.01 455.056L686.588 455.056L686.588 457.635L684.01 457.635L684.01 455.056z"/>
<path class="l5" d="M674.342 442.166L676.92 442.166L676.92 444.744L674.342 444.744L674.342 442.166z"/>
<path class="l5" d="M684.01 442.166L686.588 442.166L686.588 444.744L684.01 444.744L684.01 442.166z"/>
<path class="l5" d="M707.454 443.052L708.26 443.052L708.26 443.858L707.454 443.858L707.454 443.052z"/>
<path class="l5" d="M733.235 417.272L734.041 417.272L734.041 418.077L733.235 418.077L733.235 417.272z"/>
<path class="l5" d="M755.793 378.6L756.599 378.6L756.599 379.406L755.793 379.406L755.793 378.6z"/>
<path class="l5" d="M775.129 339.929L775.934 339.929L775.934 340.735L775.129 340.735L775.129 339.929z"/>
<path class="l5" d="M707.454 455.943L708.26 455.943L708.26 456.748L707.454 456.748L707.454 455.943z"/>
<path class="l5" d="M733.235 430.162L734.041 430.162L734.041 430.968L733.235 430.968L733.235 430.162z"/>
<path class="l5" d="M755.793 391.491L756.599 391.491L756.599 392.297L755.793 392.297L755.793 391.491z"/>
<path class="l5" d="M775.129 352.82L775.934 352.82L775.934 353.625L775.129 353.625L775.129 352.82z"/>
<path class="l5" d="M300.199 240.432L301.811 240.432"/>
<path class="l5" d="M300.199 240.432L298.991 238.821L296.171 238.821L297.38 240.432L296.171 242.043L298.991 242.043L300.199 240.432"/>
<path class="l5" d="M301.408 240.029L302.213 240.029L302.213 240.835L301.408 240.835L301.408 240.029z"/>
<path class="l5" d="M670.797 482.126L672.409 482.126"/>
<path class="l5" d="M670.797 482.126L669.589 480.515L666.769 480.515L667.978 482.126L666.769 483.738L669.589 483.738L670.797 482.126"/>
<path class="l5" d="M672.006 481.723L672.811 481.723L672.811 482.529L672.006 482.529L672.006 481.723z"/>
<path class="l5" d="M655.893 301.258L656.699 301.258L656.699 302.064L655.893 302.064L655.893 301.258z"/>
<path class="l5" d="M672.006 339.929L672.811 339.929L672.811 340.735L672.006 340.735L672.006 339.929z"/>
<path class="l5" d="M543.102 278.7L543.908 278.7L543.908 279.506L543.102 279.506L543.102 278.7z"/>
<path class="l5" d="M301.408 304.481L302.213 304.481L302.213 305.287L301.408 305.287L301.408 304.481z"/>
<path class="l5" d="M301.408 298.036L302.213 298.036L302.213 298.841L301.408 298.841L301.408 298.036z"/>
<path class="l5" d="M301.408 291.591L302.213 291.591L302.213 292.396L301.408 292.396L301.408 291.591z"/>
<path class="l5" d="M301.408 285.145L302.213 285.145L302.213 285.951L301.408 285.951L301.408 285.145z"/>
<path class="l5" d="M301.408 278.7L302.213 278.7L302.213 279.506L301.408 279.506L301.408 278.7z"/>
<path class="l5" d="M301.408 272.255L302.213 272.255L302.213 273.061L301.408 273.061L301.408 272.255z"/>
<path class="l5" d="M301.408 265.81L302.213 265.81L302.213 266.615L301.408 266.615L301.408 265.81z"/>
<path class="l5" d="M301.408 259.365L302.213 259.365L302.213 260.17L301.408 260.17L301.408 259.365z"/>
<path class="l5" d="M301.408 343.152L302.213 343.152L302.213 343.958L301.408 343.958L301.408 343.152z"/>
<path class="l5" d="M310.673 258.962L312.284 258.962L312.284 260.573L310.673 260.573L310.673 258.962z"/>
<path class="l5" d="M310.673 265.407L312.284 265.407L312.284 267.018L310.673 267.018L310.673 265.407z"/>
<path class="l5" d="M310.673 271.852L312.284 271.852L312.284 273.463L310.673 273.463L310.673 271.852z"/>
<path class="l5" d="M310.673 278.297L312.284 278.297L312.284 279.909L310.673 279.909L310.673 278.297z"/>
<path class="l5" d="M310.673 284.743L312.284 284.743L312.284 286.354L310.673 286.354L310.673 284.743z"/>
<path class="l5" d="M310.673 291.188L312.284 291.188L312.284 292.799L310.673 292.799L310.673 291.188z"/>
<path class="l5" d="M310.673 297.633L312.284 297.633L312.284 299.244L310.673 299.244L310.673 297.633z"/>
<path class="l5" d="M310.673 304.078L312.284 304.078L312.284 305.689L310.673 305.689L310.673 304.078z"/>
<path class="l5" d="M310.673 310.523L312.284 310.523L312.284 312.135L310.673 312.135L310.673 310.523z"/>
<path class="l5" d="M310.673 316.968L312.284 316.968L312.284 318.58L310.673 318.58L310.673 316.968z"/>
<path class="l5" d="M310.673 323.414L312.284 323.414L312.284 325.025L310.673 325.025L310.673 323.414z"/>
<path class="l5" d="M310.673 329.859L312.284 329.859L312.284 331.47L310.673 331.47L310.673 329.859z"/>
<path class="l5" d="M381.57 265.407L383.181 265.407L383.181 267.018L381.57 267.018L381.57 265.407z"/>
<path class="l5" d="M310.673 342.749L312.284 342.749L312.284 344.36L310.673 344.36L310.673 342.749z"/>
<path class="l5" d="M412.99 240.432L414.601 240.432"/>
<path class="l5" d="M412.99 240.432L411.782 238.821L408.962 238.821L410.17 240.432L408.962 242.043L411.782 242.043L412.99 240.432"/>
<path class="l5" d="M414.199 240.029L415.004 240.029L415.004 240.835L414.199 240.835L414.199 240.029z"/>
<path class="l5" d="M301.408 310.926L302.213 310.926L302.213 311.732L301.408 311.732L301.408 310.926z"/>
<path class="l5" d="M301.408 317.371L302.213 317.371L302.213 318.177L301.408 318.177L301.408 317.371z"/>
<path class="l5" d="M301.408 323.816L302.213 323.816L302.213 324.622L301.408 324.622L301.408 323.816z"/>
<path class="l5" d="M301.408 330.262L302.213 330.262L302.213 331.067L301.408 331.067L301.408 330.262z"/>
<path class="l5" d="M467.774 469.236L469.385 469.236"/>
<path class="l5" d="M467.774 469.236L466.566 467.625L463.746 467.625L464.954 469.236L463.746 470.847L466.566 470.847L467.774 469.236"/>
<path class="l5" d="M468.983 468.833L469.788 468.833L469.788 469.639L468.983 469.639L468.983 468.833z"/>
<path class="l5" d="M471.319 284.259L473.897 284.259L473.897 286.837L471.319 286.837L471.319 284.259z"/>
<path class="l5" d="M484.209 274.591L486.787 274.591L486.787 277.169L484.209 277.169L484.209 274.591z"/>
<path class="l5" d="M471.319 264.924L473.897 264.924L473.897 267.502L471.319 267.502L471.319 264.924z"/>
<path class="l5" d="M471.319 274.591L473.897 274.591L473.897 277.169L471.319 277.169L471.319 274.591z"/>
<path class="l5" d="M522.88 310.04L525.458 310.04L525.458 312.618L522.88 312.618L522.88 310.04z"/>
<path class="l5" d="M513.213 322.93L515.791 322.93L515.791 325.508L513.213 325.508L513.213 322.93z"/>
<path class="l5" d="M503.545 310.04L506.123 310.04L506.123 312.618L503.545 312.618L503.545 310.04z"/>
<path class="l5" d="M513.213 310.04L515.791 310.04L515.791 312.618L513.213 312.618L513.213 310.04z"/>
<path class="l5" d="M296.977 420.897L298.588 420.897"/>
<path class="l5" d="M296.977 420.897L295.768 419.286L292.949 419.286L294.157 420.897L292.949 422.508L295.768 422.508L296.977 420.897"/>
<path class="l5" d="M298.185 420.494L298.991 420.494L298.991 421.3L298.185 421.3L298.185 420.494z"/>
<path class="l5" d="M365.86 420.494L366.665 420.494L366.665 421.3L365.86 421.3L365.86 420.494z"/>
<path class="l5" d="M514.099 343.152L514.904 343.152L514.904 343.958L514.099 343.958L514.099 343.152z"/>
<path class="l5" d="M319.857 419.608L322.435 419.608L322.435 422.186L319.857 422.186L319.857 419.608z"/>
<path class="l5" d="M345.638 419.608L348.216 419.608L348.216 422.186L345.638 422.186L345.638 419.608z"/>
<path class="l5" d="M332.748 406.718L335.326 406.718L335.326 409.296L332.748 409.296L332.748 406.718z"/>
<path class="l5" d="M332.748 432.498L335.326 432.498L335.326 435.076L332.748 435.076L332.748 432.498z"/>
<path class="l5" d="M340.079 407.604L340.885 407.604L340.885 408.409L340.079 408.409L340.079 407.604z"/>
<path class="l5" d="M340.079 433.385L340.885 433.385L340.885 434.19L340.079 434.19L340.079 433.385z"/>
<path class="l5" d="M503.545 397.05L506.123 397.05L506.123 399.628L503.545 399.628L503.545 397.05z"/>
<path class="l5" d="M513.213 384.159L515.791 384.159L515.791 386.738L513.213 386.738L513.213 384.159z"/>
<path class="l5" d="M522.88 397.05L525.458 397.05L525.458 399.628L522.88 399.628L522.88 397.05z"/>
<path class="l5" d="M513.213 397.05L515.791 397.05L515.791 399.628L513.213 399.628L513.213 397.05z"/>
<path class="l5" d="M514.099 407.604L514.904 407.604L514.904 408.409L514.099 408.409L514.099 407.604z"/>
<path class="l5" d="M514.099 375.378L514.904 375.378L514.904 376.184L514.099 376.184L514.099 375.378z"/>
<path class="l5" d="M603.929 258.962L605.54 258.962L605.54 260.573L603.929 260.573L603.929 258.962z"/>
<path class="l5" d="M603.929 278.297L605.54 278.297L605.54 279.909L603.929 279.909L603.929 278.297z"/>
<path class="l5" d="M442.799 349.194L444.41 349.194L444.41 350.806L442.799 350.806L442.799 349.194z"/>
<path class="l5" d="M423.463 349.194L425.075 349.194L425.075 350.806L423.463 350.806L423.463 349.194z"/>
<path class="l5" d="M391.64 391.491L392.446 391.491L392.446 392.297L391.64 392.297L391.64 391.491z"/>
<path class="l5" d="M419.757 380.937L422.336 380.937L422.336 383.515L419.757 383.515L419.757 380.937z"/>
<path class="l5" d="M406.867 390.605L409.445 390.605L409.445 393.183L406.867 393.183L406.867 390.605z"/>
<path class="l5" d="M419.757 400.272L422.336 400.272L422.336 402.85L419.757 402.85L419.757 400.272z"/>
<path class="l5" d="M419.757 390.605L422.336 390.605L422.336 393.183L419.757 393.183L419.757 390.605z"/>
<path class="l5" d="M427.089 404.381L427.895 404.381L427.895 405.187L427.089 405.187L427.089 404.381z"/>
<path class="l5" d="M211.175 269.032L211.981 269.032L211.981 269.838L211.175 269.838L211.175 269.032z"/>
<path class="l5" d="M211.175 243.252L211.981 243.252L211.981 244.057L211.175 244.057L211.175 243.252z"/>
<path class="l5" d="M182.172 259.365L182.978 259.365L182.978 260.17L182.172 260.17L182.172 259.365z"/>
<path class="l5" d="M227.288 256.142L228.094 256.142L228.094 256.948L227.288 256.948L227.288 256.142z"/>
<path class="l5" d="M211.175 307.703L211.981 307.703L211.981 308.509L211.175 308.509L211.175 307.703z"/>
<path class="l5" d="M211.175 281.923L211.981 281.923L211.981 282.728L211.175 282.728L211.175 281.923z"/>
<path class="l5" d="M182.172 298.036L182.978 298.036L182.978 298.841L182.172 298.841L182.172 298.036z"/>
<path class="l5" d="M227.288 294.813L228.094 294.813L228.094 295.619L227.288 295.619L227.288 294.813z"/>
<path class="l5" d="M190.953 252.033L193.532 252.033L193.532 254.611L190.953 254.611L190.953 252.033z"/>
<path class="l5" d="M190.953 258.478L193.532 258.478L193.532 261.056L190.953 261.056L190.953 258.478z"/>
<path class="l5" d="M219.957 255.256L222.535 255.256L222.535 257.834L219.957 257.834L219.957 255.256z"/>
<path class="l5" d="M203.844 242.365L206.422 242.365L206.422 244.944L203.844 244.944L203.844 242.365z"/>
<path class="l5" d="M203.844 268.146L206.422 268.146L206.422 270.724L203.844 270.724L203.844 268.146z"/>
<path class="l5" d="M190.953 290.704L193.532 290.704L193.532 293.282L190.953 293.282L190.953 290.704z"/>
<path class="l5" d="M190.953 297.15L193.532 297.15L193.532 299.728L190.953 299.728L190.953 297.15z"/>
<path class="l5" d="M219.957 293.927L222.535 293.927L222.535 296.505L219.957 296.505L219.957 293.927z"/>
<path class="l5" d="M203.844 281.037L206.422 281.037L206.422 283.615L203.844 283.615L203.844 281.037z"/>
<path class="l5" d="M203.844 306.817L206.422 306.817L206.422 309.395L203.844 309.395L203.844 306.817z"/>
<path class="l5" d="M182.172 291.591L182.978 291.591L182.978 292.396L182.172 292.396L182.172 291.591z"/>
<path class="l5" d="M182.172 252.919L182.978 252.919L182.978 253.725L182.172 253.725L182.172 252.919z"/>
<path class="l5" d="M622.458 366.113L624.07 366.113"/>
<path class="l5" d="M622.458 366.113L621.25 364.502L618.43 364.502L619.639 366.113L618.43 367.724L621.25 367.724L622.458 366.113"/>
<path class="l5" d="M623.667 365.71L624.473 365.71L624.473 366.516L623.667 366.516L623.667 365.71z"/>
<path class="l5" d="M423.866 265.81L424.672 265.81L424.672 266.615L423.866 266.615L423.866 265.81z"/>
<path class="l5" d="M471.319 442.166L473.897 442.166L473.897 444.744L471.319 444.744L471.319 442.166z"/>
<path class="l5" d="M471.319 416.385L473.897 416.385L473.897 418.963L471.319 418.963L471.319 416.385z"/>
<path class="l5" d="M464.874 429.276L467.452 429.276L467.452 431.854L464.874 431.854L464.874 429.276z"/>
<path class="l5" d="M456.092 430.162L456.898 430.162L456.898 430.968L456.092 430.968L456.092 430.162z"/>
<path class="l5" d="M630.112 320.594L630.918 320.594L630.918 321.4L630.112 321.4L630.112 320.594z"/>
<path class="l1" d="M656.296 288.771L656.296 311.329"/>
<path class="l1" d="M656.296 320.997L662.741 320.997"/>
<path class="l1" d="M662.741 279.103L662.741 320.997"/>
<path class="l1" d="M656.296 279.103L662.741 279.103"/>
<path class="l1" d="M662.741 269.435L662.741 279.103"/>
<path class="l1" d="M656.296 269.435L662.741 269.435"/>
<path class="l1" d="M656.296 250.1L656.296 269.435"/>
<path class="l1" d="M537.06 279.103L643.405 279.103"/>
<path class="l1" d="M656.296 330.664L656.296 388.671"/>
<path class="l1" d="M337.259 482.126L343.704 482.126"/>
<path class="l1" d="M337.259 507.907L343.704 507.907"/>
<path class="l1" d="M317.924 495.017L324.369 495.017"/>
<path class="l1" d="M298.588 495.017L317.924 495.017"/>
<path class="l1" d="M350.15 495.017L369.485 495.017"/>
<path class="l1" d="M685.299 269.435L685.299 443.455"/>
<path class="l1" d="M662.741 269.435L685.299 269.435"/>
<path class="l1" d="M711.08 269.435L711.08 417.674"/>
<path class="l1" d="M685.299 269.435L711.08 269.435"/>
<path class="l1" d="M711.08 269.435L733.638 269.435"/>
<path class="l1" d="M752.973 269.435L752.973 340.332"/>
<path class="l1" d="M733.638 269.435L752.973 269.435"/>
<path class="l1" d="M656.296 340.332L743.306 340.332"/>
<path class="l1" d="M656.296 388.671L656.296 443.455"/>
<path class="l1" d="M656.296 443.455L675.631 443.455"/>
<path class="l1" d="M656.296 417.674L701.412 417.674"/>
<path class="l1" d="M656.296 379.003L723.97 379.003"/>
<path class="l1" d="M733.638 269.435L733.638 379.003"/>
<path class="l1" d="M762.641 340.332L775.532 340.332"/>
<path class="l1" d="M743.306 379.003L756.196 379.003"/>
<path class="l1" d="M720.748 417.674L733.638 417.674"/>
<path class="l1" d="M694.967 443.455L707.857 443.455"/>
<path class="l1" d="M685.299 456.346L707.857 456.346"/>
<path class="l1" d="M711.08 430.565L733.638 430.565"/>
<path class="l1" d="M733.638 391.894L756.196 391.894"/>
<path class="l1" d="M752.973 353.223L775.532 353.223"/>
<path class="l1" d="M301.811 304.884L311.478 304.884"/>
<path class="l1" d="M301.811 298.439L311.478 298.439"/>
<path class="l1" d="M301.811 291.993L311.478 291.993"/>
<path class="l1" d="M301.811 285.548L311.478 285.548"/>
<path class="l1" d="M301.811 279.103L311.478 279.103"/>
<path class="l1" d="M301.811 272.658L311.478 272.658"/>
<path class="l1" d="M301.811 266.213L311.478 266.213"/>
<path class="l1" d="M301.811 259.767L311.478 259.767"/>
<path class="l1" d="M382.375 266.213L392.043 266.213"/>
<path class="l1" d="M301.811 343.555L311.478 343.555"/>
<path class="l1" d="M772.309 343.555L804.535 343.555"/>
<path class="l1" d="M772.309 340.332L772.309 343.555"/>
<path class="l1" d="M656.296 246.877L656.296 250.1"/>
<path class="l1" d="M630.515 320.997L643.405 320.997"/>
<path class="l1" d="M301.811 311.329L311.478 311.329"/>
<path class="l1" d="M301.811 317.774L311.478 317.774"/>
<path class="l1" d="M301.811 324.219L311.478 324.219"/>
<path class="l1" d="M301.811 330.664L311.478 330.664"/>
<path class="l1" d="M472.608 285.548L472.608 295.216"/>
<path class="l1" d="M472.608 295.216L485.498 295.216"/>
<path class="l1" d="M485.498 275.88L485.498 295.216"/>
<path class="l1" d="M462.94 275.88L472.608 275.88"/>
<path class="l1" d="M462.94 259.767L462.94 275.88"/>
<path class="l1" d="M462.94 259.767L472.608 259.767"/>
<path class="l1" d="M472.608 259.767L472.608 266.213"/>
<path class="l1" d="M472.608 259.767L656.296 259.767"/>
<path class="l1" d="M469.385 469.236L472.608 469.236"/>
<path class="l1" d="M314.701 420.897L321.146 420.897"/>
<path class="l1" d="M298.588 420.897L314.701 420.897"/>
<path class="l1" d="M346.927 420.897L366.262 420.897"/>
<path class="l1" d="M514.502 259.767L514.502 311.329"/>
<path class="l1" d="M472.608 311.329L504.834 311.329"/>
<path class="l1" d="M524.169 311.329L537.06 311.329"/>
<path class="l1" d="M537.06 279.103L537.06 311.329"/>
<path class="l1" d="M514.502 324.219L514.502 343.555"/>
<path class="l1" d="M334.037 408.007L340.482 408.007"/>
<path class="l1" d="M334.037 433.787L340.482 433.787"/>
<path class="l1" d="M514.502 398.339L514.502 408.007"/>
<path class="l1" d="M524.169 398.339L537.06 398.339"/>
<path class="l1" d="M537.06 311.329L537.06 398.339"/>
<path class="l1" d="M472.608 398.339L504.834 398.339"/>
<path class="l1" d="M514.502 375.781L514.502 385.449"/>
<path class="l1" d="M443.605 350L537.06 350"/>
<path class="l1" d="M424.269 266.213L424.269 350"/>
<path class="l1" d="M392.043 266.213L424.269 266.213"/>
<path class="l1" d="M392.043 391.894L408.156 391.894"/>
<path class="l1" d="M421.047 350L421.047 382.226"/>
<path class="l1" d="M421.047 350L424.269 350"/>
<path class="l1" d="M421.047 391.894L427.492 391.894"/>
<path class="l1" d="M427.492 391.894L427.492 404.784"/>
<path class="l1" d="M421.047 404.784L427.492 404.784"/>
<path class="l1" d="M421.047 401.561L421.047 404.784"/>
<path class="l1" d="M205.133 269.435L211.578 269.435"/>
<path class="l1" d="M205.133 243.654L211.578 243.654"/>
<path class="l1" d="M218.023 256.545L227.691 256.545"/>
<path class="l1" d="M182.575 259.767L192.243 259.767"/>
<path class="l1" d="M205.133 308.106L211.578 308.106"/>
<path class="l1" d="M205.133 282.326L211.578 282.326"/>
<path class="l1" d="M218.023 295.216L227.691 295.216"/>
<path class="l1" d="M182.575 298.439L192.243 298.439"/>
<path class="l1" d="M182.575 253.322L192.243 253.322"/>
<path class="l1" d="M182.575 291.993L192.243 291.993"/>
<path class="l1" d="M472.608 311.329L472.608 317.774"/>
<path class="l1" d="M472.608 295.216L472.608 311.329"/>
<path class="l1" d="M472.608 317.774L472.608 398.339"/>
<path class="l1" d="M472.608 398.339L472.608 417.674"/>
<path class="l1" d="M472.608 443.455L472.608 469.236"/>
<path class="l1" d="M456.495 430.565L466.163 430.565"/>
<circle class="l1" cx="537.06" cy="311.329" r="1.28904"/>
<circle class="l1" cx="514.502" cy="259.767" r="1.28904"/>
<circle class="l1" cx="472.608" cy="259.767" r="1.28904"/>
<circle class="l1" cx="656.296" cy="259.767" r="1.28904"/>
<circle class="l1" cx="472.608" cy="259.767" r="1.28904"/>
<circle class="l1" cx="472.608" cy="259.767" r="1.28904"/>
<circle class="l1" cx="472.608" cy="295.216" r="1.28904"/>
<circle class="l1" cx="472.608" cy="398.339" r="1.28904"/>
<circle class="l1" cx="472.608" cy="398.339" r="1.28904"/>
<circle class="l1" cx="472.608" cy="295.216" r="1.28904"/>
<circle class="l1" cx="472.608" cy="311.329" r="1.28904"/>
<circle class="l1" cx="472.608" cy="311.329" r="1.28904"/>
<circle class="l1" cx="537.06" cy="350" r="1.28904"/>
<circle class="l1" cx="472.608" cy="398.339" r="1.28904"/>
<circle class="l1" cx="537.06" cy="311.329" r="1.28904"/>
<circle class="l1" cx="537.06" cy="311.329" r="1.28904"/>
<circle class="l1" cx="472.608" cy="311.329" r="1.28904"/>
<circle class="l1" cx="472.608" cy="295.216" r="1.28904"/>
<circle class="l1" cx="685.299" cy="269.435" r="1.28904"/>
<circle class="l1" cx="711.08" cy="269.435" r="1.28904"/>
<circle class="l1" cx="662.741" cy="269.435" r="1.28904"/>
<circle class="l1" cx="685.299" cy="269.435" r="1.28904"/>
<circle class="l1" cx="685.299" cy="269.435" r="1.28904"/>
<circle class="l1" cx="662.741" cy="269.435" r="1.28904"/>
<circle class="l1" cx="662.741" cy="269.435" r="1.28904"/>
<circle class="l1" cx="662.741" cy="279.103" r="1.28904"/>
<circle class="l1" cx="662.741" cy="279.103" r="1.28904"/>
<circle class="l1" cx="662.741" cy="279.103" r="1.28904"/>
<circle class="l1" cx="656.296" cy="379.003" r="1.28904"/>
<circle class="l1" cx="656.296" cy="417.674" r="1.28904"/>
<circle class="l1" cx="656.296" cy="340.332" r="1.28904"/>
<circle class="l1" cx="733.638" cy="269.435" r="1.28904"/>
<circle class="l1" cx="733.638" cy="269.435" r="1.28904"/>
<circle class="l1" cx="711.08" cy="269.435" r="1.28904"/>
<circle class="l1" cx="733.638" cy="269.435" r="1.28904"/>
<circle class="l1" cx="711.08" cy="269.435" r="1.28904"/>
<circle class="l1" cx="772.309" cy="340.332" r="1.28904"/>
</svg>
