<svg xmlns="http://www.w3.org/2000/svg" xmlns:xlink="http://www.w3.org/1999/xlink" width="1000" height="700" version="1.1">
<style type="text/css">
.l0{
 fill: #ffffff;
  stroke: #ffffff;
  stroke-linecap:round;
  stroke-linejoin:round;
  stroke-width: 0.838393;
}
.l1{
 fill: #0044ee;
  stroke: #0044ee;
  stroke-linecap:round;
  stroke-linejoin:round;
  stroke-width: 0.838393;
}
.l2{
  fill: none;
  stroke: #aaaaaa;
  stroke-linecap:round;
  stroke-linejoin:round;
  stroke-width: 0.838393;
}
.l3{
 fill: #222222; fill-opacity: 0.5;
  stroke: #222222;
  stroke-linecap:round;
  stroke-linejoin:round;
  stroke-width: 0.838393;
}
.l4{
 fill: #229900;
  stroke: #229900;
  stroke-linecap:round;
  stroke-linejoin:round;
  stroke-width: 0.838393;
}
.l5{
 fill: #bb2200;
  stroke: #bb2200;
  stroke-linecap:round;
  stroke-linejoin:round;
  stroke-width: 0.838393;
}
.l6{
 fill: #00ccee; fill-opacity: 0.5;
  stroke: #00ccee;
  stroke-linecap:round;
  stroke-linejoin:round;
  stroke-width: 0.838393;
}
.l7{
 fill: #ff0000; fill-opacity: 0.5;
  stroke: #ff0000;
  stroke-linecap:round;
  stroke-linejoin:round;
  stroke-width: 0.838393;
}
.l8{
 fill: #888800; fill-opacity: 0.5;
  stroke: #888800;
  stroke-linecap:round;
  stroke-linejoin:round;
  stroke-width: 0.838393;
}
.l9{
 fill: #00aaaa; fill-opacity: 0.5;
  stroke: #00aaaa;
  stroke-linecap:round;
  stroke-linejoin:round;
  stroke-width: 0.838393;
}
.l10{
 fill: #880088;
  stroke: #880088;
  stroke-linecap:round;
  stroke-linejoin:round;
  stroke-width: 0.838393;
}
.l11{
 fill: #00ff00; fill-opacity: 0.5;
  stroke: #00ff00;
  stroke-linecap:round;
  stroke-linejoin:round;
  stroke-width: 0.838393;
}
.l12{
 fill: #0000cc; fill-opacity: 0.5;
  stroke: #0000cc;
  stroke-linecap:round;
  stroke-linejoin:round;
  stroke-width: 0.838393;
}
.l13{
 fill: #666600; fill-opacity: 0.5;
  stroke: #666600;
  stroke-linecap:round;
  stroke-linejoin:round;
  stroke-width: 0.838393;
}
.l14{
  fill: none;
  stroke: #557755;
  stroke-linecap:round;
  stroke-linejoin:round;
  stroke-width: 0.838393;
}
.l15{
 fill: #aa2222; fill-opacity: 0.5;
  stroke: #aa2222;
  stroke-linecap:round;
  stroke-linejoin:round;
  stroke-width: 0.838393;
}
.l16{
 fill: #7ccc40; fill-opacity: 0.5;
  stroke: #7ccc40;
  stroke-linecap:round;
  stroke-linejoin:round;
  stroke-width: 0.838393;
}
.l17{
  fill: none;
  stroke: #00ffcc;
  stroke-linecap:round;
  stroke-linejoin:round;
  stroke-width: 0.838393;
}
.l18{
 fill: #ce0097; fill-opacity: 0.5;
  stroke: #ce0097;
  stroke-linecap:round;
  stroke-linejoin:round;
  stroke-width: 0.838393;
}
.l19{
  fill: none;
  stroke: #d2d46b;
  stroke-linecap:round;
  stroke-linejoin:round;
  stroke-width: 0.838393;
}
.l20{
  fill: none;
  stroke: #ef6158;
  stroke-linecap:round;
  stroke-linejoin:round;
  stroke-width: 0.838393;
}
.l21{
  fill: none;
  stroke: #fdb200;
  stroke-linecap:round;
  stroke-linejoin:round;
  stroke-width: 0.838393;
}
text {font-family: Sans-Serif;}
</style>
<rect class="l0" x="0" y="0" width="1000" height="700"/>
<text fill="#0044ee"  xml:space="preserve" font-size="10.8991" transform="translate(564.827, 273.793)" >VDD_1V8</text>
<text fill="#0044ee"  xml:space="preserve" font-size="10.8991" transform="translate(523.749, 273.793)" >VSS</text>
<text fill="#0044ee"  xml:space="preserve" font-size="13.3211" transform="translate(14.2779, 461.218)" >CA_1V8</text>
<text fill="#0044ee"  xml:space="preserve" font-size="13.3211" transform="translate(396.616, 500.032)" >VSS</text>
<text fill="#0044ee"  xml:space="preserve" font-size="13.3211" transform="translate(36.9145, 150.702)" >VDD_1V8</text>
<text fill="#0044ee"  xml:space="preserve" font-size="13.3211" transform="translate(572.48, 215.386) rotate(270)" >CA</text>
<text fill="#0044ee"  xml:space="preserve" font-size="10.8991" transform="translate(65.7383, 514.442)" >VDD_1V8</text>
<text fill="#0044ee"  xml:space="preserve" font-size="10.8991" transform="translate(57.9754, 545.494)" >VSS</text>
<text fill="#0044ee"  xml:space="preserve" font-size="10.8991" transform="translate(314.151, 483.391)" >VSS</text>
<text fill="#0044ee"  xml:space="preserve" font-size="10.8991" transform="translate(321.914, 421.288)" >VDD_1V8</text>
<text fill="#0044ee"  xml:space="preserve" font-size="10.8991" transform="translate(346.588, 273.793)" >CT_1V8</text>
<text fill="#0044ee"  xml:space="preserve" font-size="10.8991" transform="translate(717.821, 273.793)" >CTN_1V8</text>
<text fill="#0044ee"  xml:space="preserve" font-size="10.8991" transform="translate(329.677, 452.339)" >CTN_1V8</text>
<text fill="#0044ee"  xml:space="preserve" font-size="13.3211" transform="translate(971.935, 359.815)" >CB</text>
<text fill="#ff0000"  xml:space="preserve" font-size="6.05506" transform="translate(502.401, 362.436)" >c0</text>
<text fill="#ff0000"  xml:space="preserve" font-size="6.05506" transform="translate(502.401, 398.339)" >c1</text>
<text fill="#666600"  xml:space="preserve" font-size="8.07341" transform="translate(512.105, 400.172)" >MF=1</text>
<text fill="#222222"  xml:space="preserve" font-size="8.07341" transform="translate(510.164, 363.298)" >C1</text>
<text fill="#666600"  xml:space="preserve" font-size="8.07341" transform="translate(510.164, 390.468)" >10 / 10</text>
<text fill="#222222"  xml:space="preserve" font-size="8.07341" transform="translate(510.164, 376.883)" >cap_mim_m3_1</text>
<text fill="#666600"  xml:space="preserve" font-size="8.07341" transform="translate(436.598, 392.409)" >C=2.076e-13</text>
<text fill="#222222"  xml:space="preserve" font-size="6.45873" transform="translate(498.52, 264.154)" >JNWATR_NCH_2C1F2</text>
<text fill="#222222"  xml:space="preserve" font-size="6.45873" transform="translate(498.52, 299.087)" >x2</text>
<text fill="#222222"  xml:space="preserve" font-size="6.45873" transform="translate(572.972, 295.206)" >JNWATR_PCH_2C1F2</text>
<text fill="#222222"  xml:space="preserve" font-size="6.45873" transform="translate(630.092, 260.273)" >x3</text>
<text fill="#222222"  xml:space="preserve" font-size="6.05506" transform="translate(140.65, 458.082)" >Y</text>
<text fill="#222222"  xml:space="preserve" font-size="6.05506" transform="translate(118.914, 458.082)" >A</text>
<text fill="#222222"  xml:space="preserve" font-size="4.03671" transform="translate(127.346, 429.521) rotate(270)" >AVDD</text>
<text fill="#222222"  xml:space="preserve" font-size="4.03671" transform="translate(127.156, 492.508) rotate(270)" >AVSS</text>
<text fill="#222222"  xml:space="preserve" font-size="6.05506" transform="translate(141.427, 473.608)" >SUNTR_IVX1_CV</text>
<text fill="#222222"  xml:space="preserve" font-size="6.05506" transform="translate(141.427, 465.845)" >x4</text>
<text fill="#222222"  xml:space="preserve" font-size="6.05506" transform="translate(218.279, 458.082)" >Y</text>
<text fill="#222222"  xml:space="preserve" font-size="6.05506" transform="translate(196.543, 458.082)" >A</text>
<text fill="#222222"  xml:space="preserve" font-size="4.03671" transform="translate(204.975, 429.521) rotate(270)" >AVDD</text>
<text fill="#222222"  xml:space="preserve" font-size="4.03671" transform="translate(204.785, 492.508) rotate(270)" >AVSS</text>
<text fill="#222222"  xml:space="preserve" font-size="6.05506" transform="translate(219.055, 473.608)" >SUNTR_IVX1_CV</text>
<text fill="#222222"  xml:space="preserve" font-size="6.05506" transform="translate(219.055, 465.845)" >x5</text>
<text fill="#222222"  xml:space="preserve" font-size="6.05506" transform="translate(295.908, 458.082)" >Y</text>
<text fill="#222222"  xml:space="preserve" font-size="6.05506" transform="translate(274.172, 458.082)" >A</text>
<text fill="#222222"  xml:space="preserve" font-size="4.03671" transform="translate(282.604, 429.521) rotate(270)" >AVDD</text>
<text fill="#222222"  xml:space="preserve" font-size="4.03671" transform="translate(282.414, 492.508) rotate(270)" >AVSS</text>
<text fill="#222222"  xml:space="preserve" font-size="6.05506" transform="translate(296.684, 473.608)" >SUNTR_IVX1_CV</text>
<text fill="#222222"  xml:space="preserve" font-size="6.05506" transform="translate(296.684, 465.845)" >x6</text>
<text fill="#222222"  xml:space="preserve" font-size="6.05506" transform="translate(40.5089, 543.474)" >x7</text>
<text fill="#222222"  xml:space="preserve" font-size="6.05506" transform="translate(40.5089, 551.237)" >SUNTR_TAPCELLB_CV</text>
<text fill="#222222"  xml:space="preserve" font-size="4.03671" transform="translate(18.6653, 530.438) rotate(270)" >AVDD</text>
<text fill="#222222"  xml:space="preserve" font-size="4.03671" transform="translate(18.4756, 546.849) rotate(270)" >AVSS</text>
<path class="l4" d="M498.52 380.226L498.52 401.574"/>
<path class="l4" d="M498.52 354.997L498.52 374.404"/>
<path class="l4" d="M490.757 374.404L506.283 374.404"/>
<path class="l4" style="fill:none;" d="M506.283 382.167 A16.4962 16.4962 0 0 0 490.757 382.167"/>
<path class="l4" d="M490.757 285.131L498.52 289.012"/>
<path class="l4" d="M490.757 292.894L498.52 289.012"/>
<path class="l4" d="M482.994 265.724L498.52 265.724"/>
<path class="l4" d="M498.52 254.079L498.52 265.724"/>
<path class="l4" d="M482.994 289.012L498.52 289.012"/>
<path class="l4" d="M498.52 289.012L498.52 300.657"/>
<path class="l4" d="M482.994 277.368L498.52 277.368"/>
<path class="l4" d="M482.994 265.724L482.994 289.012"/>
<path class="l4" d="M479.112 265.724L479.112 289.012"/>
<path class="l4" d="M467.468 277.368L479.112 277.368"/>
<path class="l4" d="M638.252 289.012L653.778 289.012"/>
<path class="l4" d="M638.252 289.012L638.252 300.657"/>
<path class="l4" d="M638.252 265.724L653.778 265.724"/>
<path class="l4" d="M638.252 254.079L638.252 265.724"/>
<path class="l4" d="M638.252 277.368L653.778 277.368"/>
<path class="l4" d="M640.581 261.842L648.344 265.724"/>
<path class="l4" d="M640.581 269.605L648.344 265.724"/>
<path class="l4" d="M653.778 265.724L653.778 289.012"/>
<path class="l4" d="M657.659 265.724L657.659 289.012"/>
<path class="l4" d="M663.869 277.368L669.303 277.368"/>
<circle class="l4" cx="660.764" cy="277.368" r="3.10516" style="fill:none;"/>
<path class="l4" d="M133.664 463.677L133.664 479.203"/>
<path class="l4" d="M133.664 424.863L133.664 432.626"/>
<path class="l4" d="M118.138 440.389L118.138 471.44"/>
<path class="l4" d="M118.138 471.44L149.189 455.915"/>
<path class="l4" d="M118.138 440.389L149.189 455.915"/>
<path class="l4" d="M156.952 455.915L164.715 455.915"/>
<path class="l4" d="M102.612 455.915L118.138 455.915"/>
<path class="l4" d="M133.664 432.626L133.664 448.152"/>
<path class="l4" d="M133.664 479.203L133.664 486.966"/>
<circle class="l4" cx="153.071" cy="455.915" r="3.88145" style="fill:none;"/>
<path class="l4" d="M211.293 463.677L211.293 479.203"/>
<path class="l4" d="M211.293 424.863L211.293 432.626"/>
<path class="l4" d="M195.767 440.389L195.767 471.44"/>
<path class="l4" d="M195.767 471.44L226.818 455.915"/>
<path class="l4" d="M195.767 440.389L226.818 455.915"/>
<path class="l4" d="M234.581 455.915L242.344 455.915"/>
<path class="l4" d="M180.241 455.915L195.767 455.915"/>
<path class="l4" d="M211.293 432.626L211.293 448.152"/>
<path class="l4" d="M211.293 479.203L211.293 486.966"/>
<circle class="l4" cx="230.7" cy="455.915" r="3.88145" style="fill:none;"/>
<path class="l4" d="M288.922 463.677L288.922 479.203"/>
<path class="l4" d="M288.922 424.863L288.922 432.626"/>
<path class="l4" d="M273.396 440.389L273.396 471.44"/>
<path class="l4" d="M273.396 471.44L304.447 455.915"/>
<path class="l4" d="M273.396 440.389L304.447 455.915"/>
<path class="l4" d="M312.21 455.915L319.973 455.915"/>
<path class="l4" d="M257.87 455.915L273.396 455.915"/>
<path class="l4" d="M288.922 432.626L288.922 448.152"/>
<path class="l4" d="M288.922 479.203L288.922 486.966"/>
<circle class="l4" cx="308.329" cy="455.915" r="3.88145" style="fill:none;"/>
<path class="l4" d="M32.746 541.306L32.746 549.069"/>
<path class="l4" d="M32.746 518.018L32.746 525.781"/>
<path class="l4" d="M24.9831 525.781L40.5089 525.781"/>
<path class="l4" d="M40.5089 525.781L40.5089 541.306"/>
<path class="l4" d="M24.9831 541.306L40.5089 541.306"/>
<path class="l4" d="M24.9831 525.781L24.9831 541.306"/>
<path class="l4" d="M24.9831 525.781L40.5089 541.306"/>
<path class="l4" d="M24.9831 541.306L40.5089 525.781"/>
<path class="l5" d="M496.579 353.056L500.46 353.056L500.46 356.938L496.579 356.938L496.579 353.056z"/>
<path class="l5" d="M496.579 399.634L500.46 399.634L500.46 403.515L496.579 403.515L496.579 399.634z"/>
<path class="l5" d="M495.415 250.974L501.625 250.974L501.625 257.184L495.415 257.184L495.415 250.974z"/>
<path class="l5" d="M464.363 274.263L470.573 274.263L470.573 280.473L464.363 280.473L464.363 274.263z"/>
<path class="l5" d="M495.415 297.551L501.625 297.551L501.625 303.762L495.415 303.762L495.415 297.551z"/>
<path class="l5" d="M495.415 274.263L501.625 274.263L501.625 280.473L495.415 280.473L495.415 274.263z"/>
<path class="l5" d="M635.147 297.551L641.357 297.551L641.357 303.762L635.147 303.762L635.147 297.551z"/>
<path class="l5" d="M666.198 274.263L672.409 274.263L672.409 280.473L666.198 280.473L666.198 274.263z"/>
<path class="l5" d="M635.147 250.974L641.357 250.974L641.357 257.184L635.147 257.184L635.147 250.974z"/>
<path class="l5" d="M635.147 274.263L641.357 274.263L641.357 280.473L635.147 280.473L635.147 274.263z"/>
<path class="l5" d="M613.993 276.398L615.933 276.398L615.933 278.338L613.993 278.338L613.993 276.398z"/>
<path class="l5" d="M520.838 276.398L522.779 276.398L522.779 278.338L520.838 278.338L520.838 276.398z"/>
<path class="l5" d="M75.4419 455.915L79.3234 455.915"/>
<path class="l5" d="M75.4419 455.915L72.5308 452.033L65.7383 452.033L68.6494 455.915L65.7383 459.796L72.5308 459.796L75.4419 455.915"/>
<path class="l5" d="M78.353 454.944L80.2937 454.944L80.2937 456.885L78.353 456.885L78.353 454.944z"/>
<path class="l5" d="M432.535 494.729L436.417 494.729"/>
<path class="l5" d="M432.535 494.729L429.624 490.848L422.831 490.848L425.743 494.729L422.831 498.61L429.624 498.61L432.535 494.729"/>
<path class="l5" d="M435.446 493.759L437.387 493.759L437.387 495.699L435.446 495.699L435.446 493.759z"/>
<path class="l5" d="M106.493 145.399L110.375 145.399"/>
<path class="l5" d="M106.493 145.399L103.582 141.517L96.7899 141.517L99.701 145.399L96.7899 149.28L103.582 149.28L106.493 145.399"/>
<path class="l5" d="M109.405 144.428L111.345 144.428L111.345 146.369L109.405 146.369L109.405 144.428z"/>
<path class="l5" d="M568.386 228.365L568.386 230.791"/>
<path class="l5" d="M564.504 220.117L568.386 217.205L572.267 220.117L572.267 225.454L568.386 228.365L564.504 225.454L564.504 220.117"/>
<path class="l5" d="M567.415 229.82L569.356 229.82L569.356 231.761L567.415 231.761L567.415 229.82z"/>
<path class="l5" d="M99.5069 452.809L105.717 452.809L105.717 459.02L99.5069 459.02L99.5069 452.809z"/>
<path class="l5" d="M161.61 452.809L167.82 452.809L167.82 459.02L161.61 459.02L161.61 452.809z"/>
<path class="l5" d="M130.558 421.758L136.769 421.758L136.769 427.968L130.558 427.968L130.558 421.758z"/>
<path class="l5" d="M130.558 483.861L136.769 483.861L136.769 490.071L130.558 490.071L130.558 483.861z"/>
<path class="l5" d="M177.136 452.809L183.346 452.809L183.346 459.02L177.136 459.02L177.136 452.809z"/>
<path class="l5" d="M239.239 452.809L245.449 452.809L245.449 459.02L239.239 459.02L239.239 452.809z"/>
<path class="l5" d="M208.187 421.758L214.398 421.758L214.398 427.968L208.187 427.968L208.187 421.758z"/>
<path class="l5" d="M208.187 483.861L214.398 483.861L214.398 490.071L208.187 490.071L208.187 483.861z"/>
<path class="l5" d="M254.765 452.809L260.975 452.809L260.975 459.02L254.765 459.02L254.765 452.809z"/>
<path class="l5" d="M316.868 452.809L323.078 452.809L323.078 459.02L316.868 459.02L316.868 452.809z"/>
<path class="l5" d="M285.816 421.758L292.027 421.758L292.027 427.968L285.816 427.968L285.816 421.758z"/>
<path class="l5" d="M285.816 483.861L292.027 483.861L292.027 490.071L285.816 490.071L285.816 483.861z"/>
<path class="l5" d="M29.6408 514.913L35.8511 514.913L35.8511 521.123L29.6408 521.123L29.6408 514.913z"/>
<path class="l5" d="M29.6408 545.964L35.8511 545.964L35.8511 552.174L29.6408 552.174L29.6408 545.964z"/>
<path class="l5" d="M62.8272 517.047L64.7679 517.047L64.7679 518.988L62.8272 518.988L62.8272 517.047z"/>
<path class="l5" d="M55.0643 548.099L57.005 548.099L57.005 550.04L55.0643 550.04L55.0643 548.099z"/>
<path class="l5" d="M311.24 485.996L313.181 485.996L313.181 487.936L311.24 487.936L311.24 485.996z"/>
<path class="l5" d="M319.003 423.893L320.943 423.893L320.943 425.833L319.003 425.833L319.003 423.893z"/>
<path class="l5" d="M388.869 276.398L390.81 276.398L390.81 278.338L388.869 278.338L388.869 276.398z"/>
<path class="l5" d="M714.91 276.398L716.851 276.398L716.851 278.338L714.91 278.338L714.91 276.398z"/>
<path class="l5" d="M326.766 454.944L328.706 454.944L328.706 456.885L326.766 456.885L326.766 454.944z"/>
<path class="l5" d="M956.531 354.997L958.956 354.997"/>
<path class="l5" d="M967.204 358.878L970.116 354.997L967.204 351.115L961.868 351.115L958.956 354.997L961.868 358.878L967.204 358.878"/>
<path class="l5" d="M955.56 354.027L957.501 354.027L957.501 355.967L955.56 355.967L955.56 354.027z"/>
<path class="l1" d="M451.942 494.729L498.52 494.729"/>
<path class="l1" d="M498.52 401.574L498.52 432.626"/>
<path class="l1" d="M498.52 277.368L521.808 277.368"/>
<path class="l1" d="M498.52 300.657L498.52 354.997"/>
<path class="l1" d="M638.252 300.657L638.252 354.997"/>
<path class="l1" d="M498.52 354.997L638.252 354.997"/>
<path class="l1" d="M638.252 230.791L638.252 254.079"/>
<path class="l1" d="M498.52 230.791L638.252 230.791"/>
<path class="l1" d="M498.52 230.791L498.52 254.079"/>
<path class="l1" d="M614.963 277.368L638.252 277.368"/>
<path class="l1" d="M436.417 494.729L451.942 494.729"/>
<path class="l1" d="M436.417 277.368L467.468 277.368"/>
<path class="l1" d="M669.303 277.368L715.881 277.368"/>
<path class="l1" d="M32.746 518.018L63.7976 518.018"/>
<path class="l1" d="M32.746 549.069L56.0347 549.069"/>
<path class="l1" d="M288.922 486.966L312.21 486.966"/>
<path class="l1" d="M288.922 424.863L319.973 424.863"/>
<path class="l1" d="M211.293 424.863L288.922 424.863"/>
<path class="l1" d="M133.664 424.863L211.293 424.863"/>
<path class="l1" d="M211.293 486.966L288.922 486.966"/>
<path class="l1" d="M133.664 486.966L211.293 486.966"/>
<path class="l1" d="M164.715 455.915L180.241 455.915"/>
<path class="l1" d="M242.344 455.915L257.87 455.915"/>
<path class="l1" d="M319.973 455.915L343.262 455.915"/>
<path class="l1" d="M79.3234 455.915L102.612 455.915"/>
<path class="l1" d="M250.107 277.368L250.107 455.915"/>
<path class="l1" d="M250.107 277.368L436.417 277.368"/>
<path class="l1" d="M638.252 354.997L894.427 354.997"/>
<path class="l1" d="M498.52 432.626L498.52 494.729"/>
<path class="l1" d="M894.427 354.997L956.531 354.997"/>
<circle class="l1" cx="250.107" cy="455.915" r="3.10516"/>
<circle class="l1" cx="638.252" cy="354.997" r="3.10516"/>
<circle class="l1" cx="638.252" cy="354.997" r="3.10516"/>
<circle class="l1" cx="638.252" cy="354.997" r="3.10516"/>
</svg>
